<svg xmlns="http://www.w3.org/2000/svg" width="140" height="240" viewBox="0 0 140 240">
  <g id="aityaku_flow4" transform="translate(-36 -25)">
    <g id="レイヤー_4" data-name="レイヤー 4" transform="translate(534.603 -5231.762)">
      <g id="グループ_1534" data-name="グループ 1534" transform="translate(12 20.896)">
        <circle id="楕円形_169" data-name="楕円形 169" cx="13.277" cy="13.277" r="13.277" transform="translate(-454.535 5378.364)" fill="#ffc9a2"/>
        <circle id="楕円形_170" data-name="楕円形 170" cx="30.895" cy="30.895" r="30.895" transform="translate(-471.642 5325.766)" fill="#ffc9a2"/>
        <path id="パス_17348" data-name="パス 17348" d="M-466.395,5353.558s15.665,11.359,36.812-9.257c0,0,10.169,13.853,24.334,9.744,0,0-3.476-27.362-31.418-27.362S-466.395,5353.558-466.395,5353.558Z" transform="translate(-4.482 -1.238)" fill="#5c3e00"/>
        <circle id="楕円形_171" data-name="楕円形 171" cx="7.915" cy="7.915" r="7.915" transform="translate(-479.813 5352.576)" fill="#ffc9a2"/>
        <circle id="楕円形_172" data-name="楕円形 172" cx="7.915" cy="7.915" r="7.915" transform="translate(-418.788 5352.576)" fill="#ffc9a2"/>
        <path id="パス_17349" data-name="パス 17349" d="M-455.913,5403.041l-.256,17.618s44.173-.511,44.428-1.276-2.554-17.873-2.554-17.873l-7.3-4.369L-433.7,5406.1Z" transform="translate(-5.771 -10.122)" fill="#fff"/>
        <g id="グループ_1517" data-name="グループ 1517" transform="translate(-481.97 5350.728)">
          <path id="パス_17350" data-name="パス 17350" d="M-467.389,5375.318h-2.3a9.409,9.409,0,0,1-9.4-9.4v-.908a9.409,9.409,0,0,1,9.4-9.4h1a2.078,2.078,0,0,1,2.077,2.079,2.077,2.077,0,0,1-2.077,2.077h-1a5.248,5.248,0,0,0-5.242,5.243v.908a5.249,5.249,0,0,0,5.242,5.242h2.3a2.079,2.079,0,0,1,2.078,2.079A2.078,2.078,0,0,1-467.389,5375.318Z" transform="translate(479.089 -5355.614)" fill="#505050"/>
          <path id="パス_17351" data-name="パス 17351" d="M-397.058,5375.318h-2.3a2.078,2.078,0,0,1-2.077-2.077,2.078,2.078,0,0,1,2.077-2.079h2.3a5.249,5.249,0,0,0,5.243-5.242v-.908a5.248,5.248,0,0,0-5.243-5.243h-1a2.077,2.077,0,0,1-2.078-2.077,2.078,2.078,0,0,1,2.078-2.079h1a9.409,9.409,0,0,1,9.4,9.4v.908A9.408,9.408,0,0,1-397.058,5375.318Z" transform="translate(469.298 -5355.614)" fill="#505050"/>
        </g>
        <g id="グループ_1518" data-name="グループ 1518" transform="translate(-473.665 5323.36)">
          <path id="パス_17352" data-name="パス 17352" d="M-437.553,5397.959a31.59,31.59,0,0,1-30.435-21.811,2.079,2.079,0,0,1,1.3-2.635,2.079,2.079,0,0,1,2.632,1.306,27.508,27.508,0,0,0,26.5,18.984c.207,0,.414,0,.622-.006,12.588-.258,23.257-7.713,27.181-19a2.078,2.078,0,0,1,2.645-1.279,2.077,2.077,0,0,1,1.28,2.644c-4.5,12.943-16.678,21.494-31.022,21.785Q-437.2,5397.958-437.553,5397.959Z" transform="translate(469.398 -5330.489)" fill="#505050"/>
          <path id="パス_17353" data-name="パス 17353" d="M-467.505,5355.821a1.987,1.987,0,0,1-.321-.025,2.078,2.078,0,0,1-1.735-2.372c2.88-18.55,14.435-29.127,31.752-29.127.259,0,.517,0,.778.006,17.747.321,29.574,10.931,32.447,29.109a2.078,2.078,0,0,1-1.728,2.377,2.08,2.08,0,0,1-2.377-1.728c-2.527-15.991-12.886-25.323-28.418-25.6-9.079-.2-24.829,2.944-28.348,25.6A2.079,2.079,0,0,1-467.505,5355.821Z" transform="translate(469.585 -5324.297)" fill="#505050"/>
        </g>
        <path id="パス_17354" data-name="パス 17354" d="M-434.172,5389.246a11.874,11.874,0,0,1-10.365-5.857,2.078,2.078,0,0,1,.733-2.846,2.08,2.08,0,0,1,2.845.732,7.74,7.74,0,0,0,6.965,3.815,8.332,8.332,0,0,0,7.025-3.871,2.078,2.078,0,0,1,2.857-.686,2.079,2.079,0,0,1,.687,2.858,12.464,12.464,0,0,1-10.484,5.852C-434,5389.246-434.085,5389.246-434.172,5389.246Z" transform="translate(-7.201 -7.989)" fill="#505050"/>
        <g id="グループ_1519" data-name="グループ 1519" transform="translate(-456.139 5361.231)">
          <path id="パス_17355" data-name="パス 17355" d="M-418.034,5374.766a2.177,2.177,0,0,1-2.176-2.177v-2.779a2.177,2.177,0,0,1,2.176-2.177,2.177,2.177,0,0,1,2.177,2.177v2.779A2.177,2.177,0,0,1-418.034,5374.766Z" transform="translate(445.834 -5367.633)" fill="#505050"/>
          <path id="パス_17356" data-name="パス 17356" d="M-447.355,5374.766a2.177,2.177,0,0,1-2.176-2.177v-2.779a2.177,2.177,0,0,1,2.176-2.177,2.177,2.177,0,0,1,2.177,2.177v2.779A2.177,2.177,0,0,1-447.355,5374.766Z" transform="translate(449.531 -5367.633)" fill="#505050"/>
        </g>
        <path id="パス_17357" data-name="パス 17357" d="M-454.714,5360.094a52.127,52.127,0,0,1-13.37-1.731,2.078,2.078,0,0,1-1.41-2.578,2.076,2.076,0,0,1,2.576-1.41h0c.245.07,24.589,6.939,35.2-8.984a2.081,2.081,0,0,1,1.679-.924,2.008,2.008,0,0,1,1.721.843c.069.092,7.136,9.484,15.4,9.877a2.08,2.08,0,0,1,1.977,2.175,2.072,2.072,0,0,1-2.174,1.977c-7.538-.358-13.84-6.2-16.779-9.444-5.229,6.317-13.166,9.821-23.133,10.171Q-453.88,5360.094-454.714,5360.094Z" transform="translate(-4.08 -3.48)" fill="#505050"/>
        <path id="パス_17358" data-name="パス 17358" d="M-425.34,5327.717a2.039,2.039,0,0,1-.326-.026,2.079,2.079,0,0,1-1.356-.833l-4.852-6.693a2.078,2.078,0,0,1,.462-2.9,2.078,2.078,0,0,1,2.9.463l3.632,5.011,5.077-3.686a2.079,2.079,0,0,1,2.9.46,2.077,2.077,0,0,1-.461,2.9l-6.76,4.907A2.085,2.085,0,0,1-425.34,5327.717Z" transform="translate(-8.784)" fill="#505050"/>
        <g id="グループ_1520" data-name="グループ 1520" transform="translate(-475.891 5383.601)">
          <path id="パス_17359" data-name="パス 17359" d="M-451.89,5395.607a79.172,79.172,0,0,0-10.719,12.5c-3.24,5.041-7.146,10.533-7.146,10.533l11.166,4.176" transform="translate(471.833 -5393.529)" fill="#fff"/>
          <path id="パス_17360" data-name="パス 17360" d="M-458.89,5424.6a2.069,2.069,0,0,1-.727-.133l-11.166-4.177a2.075,2.075,0,0,1-1.258-1.337,2.077,2.077,0,0,1,.293-1.813c.039-.055,3.917-5.512,7.092-10.453a80.337,80.337,0,0,1,11.05-12.9,2.078,2.078,0,0,1,2.935.1,2.077,2.077,0,0,1-.1,2.937,77.594,77.594,0,0,0-10.389,12.111c-1.97,3.063-4.2,6.318-5.651,8.4l8.651,3.237a2.078,2.078,0,0,1,1.218,2.673A2.081,2.081,0,0,1-458.89,5424.6Z" transform="translate(472.133 -5393.229)" fill="#505050"/>
        </g>
        <g id="グループ_1522" data-name="グループ 1522" transform="translate(-467.012 5384.939)">
          <path id="パス_17361" data-name="パス 17361" d="M-434.56,5410.79a2.069,2.069,0,0,1-1.314-.469l-14.541-11.872a2.078,2.078,0,0,1-.3-2.924,2.077,2.077,0,0,1,2.923-.295l13.182,10.763,12.275-10.719a2.075,2.075,0,0,1,2.931.2,2.076,2.076,0,0,1-.2,2.931l-13.6,11.873A2.07,2.07,0,0,1-434.56,5410.79Z" transform="translate(460.612 -5394.761)" fill="#505050"/>
          <g id="グループ_1521" data-name="グループ 1521" transform="translate(0 19.682)">
            <path id="パス_17362" data-name="パス 17362" d="M-455.076,5417.88l-4.522,22.612c2.8-.526,44.417.407,49.184-.284l-5.806-22.329" transform="translate(461.673 -5417.358)" fill="#fff"/>
            <path id="パス_17363" data-name="パス 17363" d="M-459.857,5442.487a2.11,2.11,0,0,1-1.514-.633,2.082,2.082,0,0,1-.563-1.844l4.522-22.611,4.074.814-4,20c3.293-.068,9.3-.037,18.9.034,9.131.066,20.094.146,25.078-.019l-5.174-19.9,4.022-1.045,5.806,22.327a2.077,2.077,0,0,1-.28,1.672,2.078,2.078,0,0,1-1.433.907c-2.52.366-12.742.318-28.051.208-9.264-.068-19.764-.146-21.058.064A2.187,2.187,0,0,1-459.857,5442.487Z" transform="translate(461.973 -5417.283)" fill="#505050"/>
          </g>
        </g>
        <g id="グループ_1523" data-name="グループ 1523" transform="translate(-459.649 5407.646)">
          <path id="パス_17364" data-name="パス 17364" d="M-452.275,5423.234h2.173v-2.491h1.272v6.273H-450.1v-2.709h-2.173v2.709h-1.273v-6.273h1.273Z" transform="translate(453.548 -5420.744)" fill="#505050"/>
          <path id="パス_17365" data-name="パス 17365" d="M-445.35,5427.017h-1.272v-6.273h1.272Z" transform="translate(452.675 -5420.744)" fill="#505050"/>
          <path id="パス_17366" data-name="パス 17366" d="M-440.229,5427.017l-1.127-2.464h-1.019v2.464h-1.272v-6.273h2.246c1.445,0,2.345.646,2.345,1.918a1.673,1.673,0,0,1-1.072,1.681l1.3,2.673Zm-1.291-3.537c.754,0,1.19-.164,1.19-.818s-.436-.836-1.19-.836h-.856v1.654Z" transform="translate(452.3 -5420.744)" fill="#505050"/>
          <path id="パス_17367" data-name="パス 17367" d="M-437.98,5427.017l2.182-6.273h1.217l2.182,6.273h-1.355l-.381-1.191h-2.1l-.382,1.191Zm2.082-2.264h1.418l-.709-2.208Z" transform="translate(451.585 -5420.744)" fill="#505050"/>
          <path id="パス_17368" data-name="パス 17368" d="M-428.819,5420.744c1.482,0,2.291.527,2.291,1.646a1.411,1.411,0,0,1-.828,1.336,1.455,1.455,0,0,1,1.027,1.491c0,.973-.636,1.8-2.29,1.8h-2.3v-6.273Zm-.827,2.482h.845c.7,0,1-.272,1-.718s-.218-.691-1.137-.691h-.709Zm0,2.718h.918c.763,0,1.126-.291,1.126-.827,0-.592-.391-.819-1.245-.819h-.8Z" transform="translate(450.695 -5420.744)" fill="#505050"/>
          <path id="パス_17369" data-name="パス 17369" d="M-425.366,5427.017l2.182-6.273h1.218l2.182,6.273h-1.355l-.382-1.191h-2.1l-.382,1.191Zm2.083-2.264h1.417l-.709-2.208Z" transform="translate(449.994 -5420.744)" fill="#505050"/>
          <path id="パス_17370" data-name="パス 17370" d="M-414.886,5427.017l-1.127-2.464h-1.018v2.464H-418.3v-6.273h2.246c1.445,0,2.346.646,2.346,1.918a1.673,1.673,0,0,1-1.072,1.681l1.3,2.673Zm-1.291-3.537c.754,0,1.19-.164,1.19-.818s-.436-.836-1.19-.836h-.855v1.654Z" transform="translate(449.104 -5420.744)" fill="#505050"/>
          <path id="パス_17371" data-name="パス 17371" d="M-410.511,5427.017h-1.273v-6.273h1.273Z" transform="translate(448.282 -5420.744)" fill="#505050"/>
        </g>
        <path id="パス_17372" data-name="パス 17372" d="M-472.431,5449.076a5.612,5.612,0,0,1-2.734-.668c-2.138-1.171-3.053-3.5-3.724-5.852-1.091-3.817,3.867-6.865,6.031-7.991l3.352-11.314a1.775,1.775,0,0,1,2.212-1.2,1.778,1.778,0,0,1,1.2,2.211l-3.573,12.06a1.781,1.781,0,0,1-.953,1.106c-2.635,1.236-5.082,3.331-4.848,4.152.437,1.529,1.016,3.164,2.01,3.707a3.259,3.259,0,0,0,2.467-.009c3.862-1.159,6.912-2.074,8.133-9.741a1.781,1.781,0,0,1,2.036-1.478,1.779,1.779,0,0,1,1.478,2.036c-1.454,9.132-5.672,11.1-10.624,12.591A8.609,8.609,0,0,1-472.431,5449.076Z" transform="translate(-2.887 -13.253)" fill="#333"/>
        <g id="グループ_1524" data-name="グループ 1524" transform="translate(-419.845 5407.755)">
          <path id="パス_17373" data-name="パス 17373" d="M-397.45,5423.246l3.573,12.059s6.7,3.126,5.806,6.253-2.233,6.253-6.7,4.912-8.043-2.784-9.379-11.165l-1.473-8.29,8.172-3.769" transform="translate(407.701 -5421.168)" fill="#ffc9a2"/>
          <path id="パス_17374" data-name="パス 17374" d="M-393.117,5448.565a8.887,8.887,0,0,1-2.55-.405c-5.051-1.516-9.353-3.526-10.834-12.828l-1.467-8.254a2.08,2.08,0,0,1,1.176-2.251l8.172-3.767a2.073,2.073,0,0,1,1.728-.007,2.082,2.082,0,0,1,1.134,1.3l3.316,11.194c2.276,1.2,7.2,4.318,6.068,8.277-.689,2.41-1.634,4.811-3.868,6.031A5.9,5.9,0,0,1-393.117,5448.565Zm-10.478-20.635,1.192,6.711c1.2,7.519,4.169,8.41,7.931,9.539a3.009,3.009,0,0,0,2.237.034c.9-.491,1.447-2.06,1.867-3.528.12-.418-1.574-2.337-4.689-3.8a2.084,2.084,0,0,1-1.112-1.292l-2.891-9.757Z" transform="translate(408 -5420.869)" fill="#505050"/>
        </g>
        <g id="グループ_1525" data-name="グループ 1525" transform="translate(-427.209 5383.601)">
          <path id="パス_17375" data-name="パス 17375" d="M-414.049,5395.607a79.189,79.189,0,0,1,10.718,12.5c3.24,5.041,7.146,10.086,7.146,10.086l-11.166,4.623" transform="translate(416.127 -5393.529)" fill="#fff"/>
          <path id="パス_17376" data-name="パス 17376" d="M-407.649,5424.6a2.079,2.079,0,0,1-1.92-1.284,2.078,2.078,0,0,1,1.125-2.715l8.685-3.6c-1.452-1.959-3.643-5-5.618-8.07a77.534,77.534,0,0,0-10.389-12.111,2.077,2.077,0,0,1-.1-2.937,2.079,2.079,0,0,1,2.936-.1,80.377,80.377,0,0,1,11.049,12.9c3.155,4.907,7,9.888,7.041,9.937a2.079,2.079,0,0,1,.365,1.806,2.077,2.077,0,0,1-1.214,1.385l-11.165,4.624A2.073,2.073,0,0,1-407.649,5424.6Z" transform="translate(416.427 -5393.229)" fill="#505050"/>
        </g>
        <g id="グループ_1526" data-name="グループ 1526" transform="translate(-466.632 5425.977)">
          <path id="パス_17377" data-name="パス 17377" d="M-434.819,5459.334l-4.2,6.723-20.145-.448,2.238-21.512h44.207l2.238,21.512-20.145.448-4.2-6.723" transform="translate(461.238 -5442.02)" fill="#505050"/>
          <path id="パス_17378" data-name="パス 17378" d="M-430.922,5467.835a2.079,2.079,0,0,1-1.763-.978l-2.434-3.9-2.435,3.9a2,2,0,0,1-1.808.978l-20.145-.449a2.078,2.078,0,0,1-1.513-.7,2.078,2.078,0,0,1-.508-1.589l2.238-21.512a2.077,2.077,0,0,1,2.067-1.862h44.206a2.077,2.077,0,0,1,2.067,1.862l2.238,21.512a2.078,2.078,0,0,1-.508,1.589,2.078,2.078,0,0,1-1.513.7l-20.144.449Zm-4.2-10.879a2.077,2.077,0,0,1,1.762.978l3.571,5.72,16.708-.371-1.811-17.407h-40.461l-1.811,17.407,16.708.371,3.571-5.72A2.078,2.078,0,0,1-435.118,5456.956Z" transform="translate(461.538 -5441.72)" fill="#505050"/>
        </g>
        <g id="グループ_1527" data-name="グループ 1527" transform="translate(-465.82 5447.639)">
          <path id="パス_17379" data-name="パス 17379" d="M-455.541,5469.631l-2.689,19.421h11.2l4.034-20.167Z" transform="translate(460.309 -5466.808)" fill="#ffc9a2"/>
          <path id="パス_17380" data-name="パス 17380" d="M-447.326,5490.829h-11.2a2.074,2.074,0,0,1-1.566-.713,2.076,2.076,0,0,1-.492-1.649l2.689-19.421a2.078,2.078,0,0,1,1.936-1.789l12.548-.747a2.094,2.094,0,0,1,1.69.709,2.075,2.075,0,0,1,.47,1.771l-4.033,20.168A2.077,2.077,0,0,1-447.326,5490.829Zm-8.819-4.155h7.115l3.171-15.855-8.159.486Z" transform="translate(460.608 -5466.508)" fill="#505050"/>
        </g>
        <g id="グループ_1528" data-name="グループ 1528" transform="translate(-434.447 5447.64)">
          <path id="パス_17381" data-name="パス 17381" d="M-409.783,5469.631l2.689,19.421h-11.2l-4.034-20.167Z" transform="translate(424.41 -5466.808)" fill="#ffc9a2"/>
          <path id="パス_17382" data-name="パス 17382" d="M-407.393,5490.829h-11.2a2.075,2.075,0,0,1-2.037-1.669l-4.034-20.169a2.074,2.074,0,0,1,.47-1.771,2.1,2.1,0,0,1,1.69-.71l12.549.747a2.078,2.078,0,0,1,1.935,1.789l2.689,19.421a2.077,2.077,0,0,1-.491,1.648A2.075,2.075,0,0,1-407.393,5490.829Zm-9.5-4.155h7.115l-2.128-15.369-8.159-.486Z" transform="translate(424.709 -5466.508)" fill="#505050"/>
        </g>
        <g id="グループ_1529" data-name="グループ 1529" transform="translate(-477.62 5463.372)">
          <path id="パス_17383" data-name="パス 17383" d="M-459.933,5487.438s-9.263-2.54-11.8,3.287v3.885h23.3l-.3-7.171Z" transform="translate(473.812 -5484.81)" fill="#505050"/>
          <path id="パス_17384" data-name="パス 17384" d="M-448.73,5496.387h-23.3a2.078,2.078,0,0,1-2.077-2.078v-3.884a2.073,2.073,0,0,1,.173-.83c2.964-6.8,12.167-4.965,13.964-4.534h10.946a2.077,2.077,0,0,1,2.076,1.991l.3,7.17a2.075,2.075,0,0,1-.577,1.524A2.077,2.077,0,0,1-448.73,5496.387Zm-21.226-4.155h19.06l-.125-3.015h-9.212a2.085,2.085,0,0,1-.545-.073h0c-.073-.021-7.149-1.812-9.178,1.765Z" transform="translate(474.112 -5484.511)" fill="#505050"/>
        </g>
        <g id="グループ_1530" data-name="グループ 1530" transform="translate(-431.777 5463.671)">
          <path id="パス_17385" data-name="パス 17385" d="M-407.774,5487.779s9.263-2.54,11.8,3.287v3.885h-23.305l.3-7.171Z" transform="translate(421.354 -5485.153)" fill="#505050"/>
          <path id="パス_17386" data-name="パス 17386" d="M-396.271,5496.729h-23.305a2.079,2.079,0,0,1-1.5-.639,2.079,2.079,0,0,1-.576-1.525l.3-7.17a2.077,2.077,0,0,1,2.076-1.992h10.947c1.8-.43,11-2.268,13.964,4.534a2.074,2.074,0,0,1,.174.83v3.885A2.078,2.078,0,0,1-396.271,5496.729Zm-21.139-4.155h19.061v-1.323c-2.029-3.575-9.105-1.784-9.178-1.765a2.128,2.128,0,0,1-.546.073h-9.211Z" transform="translate(421.654 -5484.854)" fill="#505050"/>
        </g>
        <g id="グループ_1531" data-name="グループ 1531" transform="translate(-461.152 5384.31)">
          <path id="パス_17387" data-name="パス 17387" d="M-452.89,5399.989l7.146,10.719,5.229-6.072-9.7-8.22Z" transform="translate(454.968 -5394.34)" fill="#505050"/>
          <path id="パス_17388" data-name="パス 17388" d="M-446.044,5412.485c-.042,0-.085,0-.128,0a2.077,2.077,0,0,1-1.6-.922l-7.146-10.718a2.079,2.079,0,0,1,.066-2.4l2.679-3.573a2.077,2.077,0,0,1,1.43-.818,2.107,2.107,0,0,1,1.577.479l9.7,8.219a2.078,2.078,0,0,1,.728,1.422,2.078,2.078,0,0,1-.5,1.519l-5.229,6.072A2.079,2.079,0,0,1-446.044,5412.485Zm-4.6-12.726,4.813,7.22,2.076-2.413-6.415-5.439Z" transform="translate(455.267 -5394.04)" fill="#505050"/>
        </g>
        <g id="グループ_1532" data-name="グループ 1532" transform="translate(-437.351 5384.308)">
          <path id="パス_17389" data-name="パス 17389" d="M-412.386,5399.542l-8.039,10.272-5.229-5.179,9.7-8.22Z" transform="translate(427.732 -5394.338)" fill="#505050"/>
          <path id="パス_17390" data-name="パス 17390" d="M-420.725,5411.592a2.077,2.077,0,0,1-1.462-.6l-5.229-5.178a2.082,2.082,0,0,1-.613-1.558,2.075,2.075,0,0,1,.732-1.5l9.7-8.219a2.079,2.079,0,0,1,2.712.022l3.573,3.126a2.079,2.079,0,0,1,.267,2.845l-8.039,10.271a2.08,2.08,0,0,1-1.506.794C-420.638,5411.59-420.682,5411.592-420.725,5411.592Zm-2.156-7.137,1.959,1.94,5.387-6.884-.745-.653Z" transform="translate(428.032 -5394.039)" fill="#505050"/>
        </g>
        <g id="グループ_1533" data-name="グループ 1533" transform="translate(-501.936 5403.337)">
          <path id="パス_17391" data-name="パス 17391" d="M-477.4,5424.288c-7.267-11.226-21.977-5.111-21.977,7.118,0,9.183,20.165,23.547,21.977,25.415,1.824-1.868,20.986-16.232,20.986-25.415C-456.414,5419.27-470.12,5413.062-477.4,5424.288Z" transform="translate(501.613 -5416.138)" fill="#ea6da4"/>
          <path id="パス_17392" data-name="パス 17392" d="M-477.723,5458.733h0a2.238,2.238,0,0,1-1.6-.679c-.219-.227-1.225-1.039-2.2-1.825-10.092-8.155-20.409-17.518-20.409-25.146a15.012,15.012,0,0,1,10.512-14.712,13.221,13.221,0,0,1,13.7,3.958c3.569-3.854,8.371-5.37,13.077-3.977,6.07,1.8,10.149,7.716,10.149,14.731,0,7.712-9.97,17.138-19.722,25.338-.866.729-1.685,1.417-1.9,1.638A2.237,2.237,0,0,1-477.723,5458.733Zm-9.923-38.444a8.838,8.838,0,0,0-2.511.371,10.559,10.559,0,0,0-7.307,10.423c0,6.521,14.111,17.92,18.748,21.667.369.3.691.56.974.789.192-.164.405-.342.641-.539,4.483-3.772,18.128-15.247,18.128-21.917,0-5.794-3.488-9.42-6.946-10.443-3.725-1.1-7.342.555-9.928,4.541a2.237,2.237,0,0,1-1.876,1.02h0a2.236,2.236,0,0,1-1.876-1.022C-481.653,5422.009-484.545,5420.289-487.646,5420.289Z" transform="translate(501.936 -5415.813)" fill="#505050"/>
        </g>
      </g>
    </g>
    <rect id="長方形_259" data-name="長方形 259" width="140" height="240" transform="translate(36 25)" fill="#fff" opacity="0"/>
  </g>
</svg>
