<svg xmlns="http://www.w3.org/2000/svg" width="140" height="240.057" viewBox="0 0 140 240.057">
  <g id="aityaku_flow2" transform="translate(-36 -25)">
    <g id="レイヤー_4" data-name="レイヤー 4" transform="translate(539.865 -4909.911)">
      <g id="グループ_1497" data-name="グループ 1497">
        <path id="パス_17233" data-name="パス 17233" d="M-433.533,5107.947h-4.461l-4.149,64.462h12.759Z" fill="#c69c6d"/>
        <path id="パス_17234" data-name="パス 17234" d="M-433.9,5174.968h-3.731a6.742,6.742,0,0,1-4.97-2.131,6.74,6.74,0,0,1-1.808-5.1l3.569-55.453c.257-4,2.391-6.9,5.074-6.9s4.817,2.9,5.075,6.9h0l3.569,55.453a6.736,6.736,0,0,1-1.808,5.1A6.736,6.736,0,0,1-433.9,5174.968Zm-1.865-61.835-3.536,54.936a1.67,1.67,0,0,0,.434,1.267,1.671,1.671,0,0,0,1.236.514h3.731a1.671,1.671,0,0,0,1.236-.514,1.674,1.674,0,0,0,.434-1.267Z" fill="#505050"/>
      </g>
      <g id="グループ_1498" data-name="グループ 1498">
        <path id="パス_17235" data-name="パス 17235" d="M-403.249,5085.932l-.05,0c.018-.335.05-.665.05-1a18.339,18.339,0,0,0-16.741-18.265,18.333,18.333,0,0,0-18.283-17.093,18.337,18.337,0,0,0-17.087,11.7,18.278,18.278,0,0,0-13.268-5.7,18.346,18.346,0,0,0-18.346,18.347,18.386,18.386,0,0,0,.392,3.772,18.345,18.345,0,0,0-14.4,17.91,18.346,18.346,0,0,0,14.4,17.911,18.334,18.334,0,0,0,18.284,17.114,18.247,18.247,0,0,0,8.227-1.965,18.32,18.32,0,0,0,15.123,7.968,18.283,18.283,0,0,0,13.089-5.5,18.265,18.265,0,0,0,7.259,1.5,18.331,18.331,0,0,0,16.633-10.642,18.337,18.337,0,0,0,4.715.635,18.347,18.347,0,0,0,18.347-18.347A18.346,18.346,0,0,0-403.249,5085.932Z" fill="#8bd800"/>
        <path id="パス_17236" data-name="パス 17236" d="M-444.945,5139.193a20.9,20.9,0,0,1-15.929-7.375,20.621,20.621,0,0,1-7.421,1.371,20.949,20.949,0,0,1-20.632-17.654,21.033,21.033,0,0,1-14.616-19.929,21.041,21.041,0,0,1,14.1-19.759q-.088-.962-.089-1.923a20.929,20.929,0,0,1,20.9-20.906,20.661,20.661,0,0,1,12.451,4.121,20.743,20.743,0,0,1,17.9-10.124,20.956,20.956,0,0,1,20.588,17.39,21.072,21.072,0,0,1,16.947,19.118,20.938,20.938,0,0,1,18.394,20.755,20.928,20.928,0,0,1-20.9,20.905,20.425,20.425,0,0,1-3.358-.283,20.977,20.977,0,0,1-17.99,10.291,20.742,20.742,0,0,1-6.676-1.095A20.717,20.717,0,0,1-444.945,5139.193Zm-15.125-13.086a2.558,2.558,0,0,1,2.11,1.109,15.8,15.8,0,0,0,13.015,6.859,15.665,15.665,0,0,0,11.263-4.734,2.56,2.56,0,0,1,2.84-.557,15.675,15.675,0,0,0,6.245,1.288,15.841,15.841,0,0,0,14.312-9.159,2.559,2.559,0,0,1,2.978-1.4,15.835,15.835,0,0,0,4.058.548,15.8,15.8,0,0,0,15.787-15.787,15.805,15.805,0,0,0-15.744-15.787l-.093,0a2.558,2.558,0,0,1-1.858-.8,2.556,2.556,0,0,1-.7-1.9l.022-.348c.012-.171.025-.343.025-.518a15.874,15.874,0,0,0-14.4-15.715,2.559,2.559,0,0,1-2.332-2.377,15.812,15.812,0,0,0-15.729-14.706,15.687,15.687,0,0,0-14.7,10.071,2.56,2.56,0,0,1-1.889,1.582,2.559,2.559,0,0,1-2.348-.745,15.643,15.643,0,0,0-11.416-4.9,15.806,15.806,0,0,0-15.787,15.788,15.913,15.913,0,0,0,.337,3.248,2.559,2.559,0,0,1-1.956,3.023,15.87,15.87,0,0,0-12.391,15.411,15.869,15.869,0,0,0,12.394,15.411,2.56,2.56,0,0,1,2.006,2.33,15.809,15.809,0,0,0,15.73,14.724,15.618,15.618,0,0,0,7.077-1.691A2.557,2.557,0,0,1-460.07,5126.107Z" fill="#505050"/>
      </g>
      <g id="グループ_1499" data-name="グループ 1499">
        <path id="パス_17237" data-name="パス 17237" d="M-384.865,5070.587l-.05,0c.018-.335.05-.665.05-1a18.339,18.339,0,0,0-16.741-18.265,18.332,18.332,0,0,0-18.283-17.092,18.336,18.336,0,0,0-17.087,11.7,18.276,18.276,0,0,0-13.268-5.7,18.346,18.346,0,0,0-18.346,18.347,18.389,18.389,0,0,0,.392,3.772,18.345,18.345,0,0,0-14.4,17.91,18.345,18.345,0,0,0,14.4,17.911,18.334,18.334,0,0,0,18.285,17.114,18.246,18.246,0,0,0,8.226-1.965,18.321,18.321,0,0,0,15.123,7.969,18.282,18.282,0,0,0,13.089-5.5,18.273,18.273,0,0,0,7.259,1.5,18.332,18.332,0,0,0,16.633-10.642,18.337,18.337,0,0,0,4.715.635,18.347,18.347,0,0,0,18.347-18.347A18.346,18.346,0,0,0-384.865,5070.587Z" fill="#8bd800"/>
        <path id="パス_17238" data-name="パス 17238" d="M-426.561,5123.849a20.907,20.907,0,0,1-15.929-7.376,20.606,20.606,0,0,1-7.42,1.372,20.948,20.948,0,0,1-20.632-17.655,21.033,21.033,0,0,1-14.618-19.929,21.043,21.043,0,0,1,14.1-19.759q-.088-.962-.089-1.923a20.929,20.929,0,0,1,20.9-20.906,20.665,20.665,0,0,1,12.451,4.121,20.74,20.74,0,0,1,17.9-10.124,20.955,20.955,0,0,1,20.588,17.385,20.747,20.747,0,0,1,16.95,19.124,20.935,20.935,0,0,1,18.392,20.754,20.929,20.929,0,0,1-20.906,20.906,20.329,20.329,0,0,1-3.358-.284,20.978,20.978,0,0,1-17.99,10.291,20.751,20.751,0,0,1-6.676-1.094A20.719,20.719,0,0,1-426.561,5123.849Zm-15.124-13.087a2.558,2.558,0,0,1,2.11,1.109,15.8,15.8,0,0,0,13.014,6.86A15.664,15.664,0,0,0-415.3,5114a2.562,2.562,0,0,1,2.841-.557,15.691,15.691,0,0,0,6.245,1.289,15.844,15.844,0,0,0,14.312-9.161,2.558,2.558,0,0,1,2.979-1.4,15.832,15.832,0,0,0,4.057.549,15.806,15.806,0,0,0,15.788-15.788,15.806,15.806,0,0,0-15.726-15.787l-.112,0a2.561,2.561,0,0,1-1.858-.8,2.559,2.559,0,0,1-.7-1.9l.021-.34c.012-.175.025-.349.025-.526a15.875,15.875,0,0,0-14.4-15.715,2.561,2.561,0,0,1-2.332-2.377,15.814,15.814,0,0,0-15.73-14.706,15.686,15.686,0,0,0-14.7,10.071,2.555,2.555,0,0,1-1.888,1.581,2.548,2.548,0,0,1-2.349-.744,15.645,15.645,0,0,0-11.416-4.9,15.806,15.806,0,0,0-15.787,15.788,15.868,15.868,0,0,0,.338,3.248,2.56,2.56,0,0,1-1.957,3.023,15.869,15.869,0,0,0-12.391,15.411,15.868,15.868,0,0,0,12.394,15.411,2.56,2.56,0,0,1,2.006,2.33,15.81,15.81,0,0,0,15.731,14.725,15.6,15.6,0,0,0,7.075-1.692A2.565,2.565,0,0,1-441.685,5110.762Z" fill="#505050"/>
      </g>
      <g id="グループ_1500" data-name="グループ 1500">
        <path id="パス_17239" data-name="パス 17239" d="M-483.778,5060.917c-5.776-8.923-17.467-4.062-17.467,5.658,0,7.3,16.027,18.715,17.467,20.2,1.45-1.485,16.68-12.9,16.68-20.2C-467.1,5056.929-477.991,5051.994-483.778,5060.917Z" fill="#ea6da4"/>
        <path id="パス_17240" data-name="パス 17240" d="M-483.772,5089.327h-.014a2.568,2.568,0,0,1-1.829-.771c-.175-.173-.972-.817-1.676-1.385-8.166-6.6-16.513-14.2-16.513-20.6a12.706,12.706,0,0,1,8.915-12.443,11.177,11.177,0,0,1,11.107,2.781,10.674,10.674,0,0,1,10.617-2.8c5.16,1.528,8.627,6.534,8.627,12.459,0,6.451-8.066,14.1-15.956,20.739-.607.511-1.3,1.09-1.454,1.249A2.58,2.58,0,0,1-483.772,5089.327Zm-7.863-30.555a6.306,6.306,0,0,0-1.8.269,7.616,7.616,0,0,0-5.248,7.534c0,3.192,4.916,8.782,14.612,16.614l.271.22.015-.012c9.377-7.886,14.131-13.546,14.131-16.822,0-4.2-2.491-6.82-4.96-7.55-2.6-.769-5.16.427-7.014,3.285a2.558,2.558,0,0,1-2.147,1.166h0a2.557,2.557,0,0,1-2.147-1.168C-487.42,5060-489.438,5058.772-491.635,5058.772Z" fill="#505050"/>
      </g>
      <g id="グループ_1501" data-name="グループ 1501">
        <path id="パス_17241" data-name="パス 17241" d="M-423.561,5033.364c-8.316-12.846-25.148-5.848-25.148,8.145,0,10.508,23.075,26.945,25.148,29.082,2.087-2.137,24.014-18.574,24.014-29.082C-399.547,5027.622-415.229,5020.518-423.561,5033.364Z" fill="#ea6da4"/>
        <path id="パス_17242" data-name="パス 17242" d="M-423.561,5073.15h-.005a2.56,2.56,0,0,1-1.833-.778c-.251-.259-1.4-1.188-2.515-2.088-11.548-9.33-23.354-20.045-23.354-28.774,0-7.944,4.834-14.709,12.029-16.835a15.129,15.129,0,0,1,15.674,4.529c4.084-4.41,9.579-6.144,14.964-4.551,6.946,2.055,11.613,8.829,11.613,16.857,0,8.826-11.408,19.61-22.568,29-.991.834-1.928,1.622-2.174,1.874A2.56,2.56,0,0,1-423.561,5073.15Zm-11.355-43.992a10.126,10.126,0,0,0-2.873.425,12.083,12.083,0,0,0-8.361,11.927c0,7.462,16.147,20.506,21.453,24.793l1.114.9.733-.617c5.13-4.315,20.744-17.446,20.744-25.078,0-6.63-3.991-10.779-7.948-11.95-4.262-1.259-8.4.635-11.36,5.2a2.558,2.558,0,0,1-2.147,1.166h0a2.557,2.557,0,0,1-2.147-1.168C-428.058,5031.126-431.368,5029.158-434.916,5029.158Z" fill="#505050"/>
      </g>
      <g id="グループ_1502" data-name="グループ 1502">
        <path id="パス_17243" data-name="パス 17243" d="M-392.267,5105.6c-6.749-10.425-20.409-4.746-20.409,6.61,0,8.528,18.727,21.868,20.409,23.6,1.694-1.735,19.49-15.075,19.49-23.6C-372.777,5100.936-385.505,5095.171-392.267,5105.6Z" fill="#ea6da4"/>
        <path id="パス_17244" data-name="パス 17244" d="M-392.267,5138.367h0a2.554,2.554,0,0,1-1.833-.777c-.206-.208-1.158-.976-2-1.655-9.461-7.643-19.134-16.44-19.134-23.729a14.417,14.417,0,0,1,10.108-14.124,12.694,12.694,0,0,1,12.856,3.44,12.114,12.114,0,0,1,12.283-3.458c5.843,1.729,9.77,7.413,9.77,14.142,0,7.362-9.346,16.214-18.489,23.9-.76.639-1.546,1.3-1.729,1.487A2.56,2.56,0,0,1-392.267,5138.367Zm-9.226-35.7a7.673,7.673,0,0,0-2.184.322,9.328,9.328,0,0,0-6.44,9.216c0,5.827,12.97,16.305,17.232,19.748l.6.481.289-.243c11.058-9.3,16.665-16.024,16.665-19.986,0-5.131-3.066-8.335-6.105-9.234-3.239-.961-6.4.506-8.679,4.016a2.557,2.557,0,0,1-2.147,1.167h0a2.562,2.562,0,0,1-2.147-1.168C-396.227,5104.187-398.772,5102.668-401.493,5102.668Z" fill="#505050"/>
      </g>
      <g id="グループ_1513" data-name="グループ 1513" transform="translate(-8.189 -1.335)">
        <path id="パス_17245" data-name="パス 17245" d="M-377.456,4968.839l12.693,14.97-19.429,26.342-67.65-6.675-17.341-26.127" fill="#fff"/>
        <g id="グループ_1504" data-name="グループ 1504">
          <path id="パス_17246" data-name="パス 17246" d="M-390.275,5009.826c-7.325.472-14.7,2.266-22.188,2.767a146.5,146.5,0,0,1-24.82-.463c-16.065-1.658-41.863-16.31-29.468-32.126" fill="#fff"/>
          <g id="グループ_1503" data-name="グループ 1503">
            <path id="パス_17247" data-name="パス 17247" d="M-420.783,5012.115c.044,0,.066,0,0,0Z" fill="#4b4b4b"/>
            <path id="パス_17248" data-name="パス 17248" d="M-453.223,5006.3l-.027-.015-.024-.075Z" fill="#4b4b4b"/>
            <path id="パス_17249" data-name="パス 17249" d="M-457.752,5003.919l-.03-.011C-457.771,5003.9-457.767,5003.886-457.752,5003.919Z" fill="#4b4b4b"/>
            <path id="パス_17250" data-name="パス 17250" d="M-442,5010.577l.084.032Z" fill="#4b4b4b"/>
            <path id="パス_17251" data-name="パス 17251" d="M-410.723,5011.788h-.024l.058-.018Z" fill="#4b4b4b"/>
            <path id="パス_17252" data-name="パス 17252" d="M-410.836,5011.762c-.119.026.035.026.088.026a1.27,1.27,0,0,1-.4.052C-411.148,5011.808-410.894,5011.791-410.836,5011.762Z" fill="#4b4b4b"/>
            <path id="パス_17253" data-name="パス 17253" d="M-392.468,5009.448l-.057-.008Z" fill="#4b4b4b"/>
            <path id="パス_17254" data-name="パス 17254" d="M-443.084,5011.967l.078.028Z" fill="#4b4b4b"/>
            <path id="パス_17255" data-name="パス 17255" d="M-395.378,5009.805l-.04-.047Z" fill="#4b4b4b"/>
            <path id="パス_17256" data-name="パス 17256" d="M-453.274,5006.213l-.02-.034Z" fill="#4b4b4b"/>
            <path id="パス_17257" data-name="パス 17257" d="M-461.518,5001.259l-.051.013-.01-.008Z" fill="#4b4b4b"/>
            <path id="パス_17258" data-name="パス 17258" d="M-468.445,4982.48l.016.018-.084.065Z" fill="#4b4b4b"/>
            <path id="パス_17259" data-name="パス 17259" d="M-466.039,4997.074l.005-.026a6.427,6.427,0,0,1,.461.557l-.048.053Z" fill="#4b4b4b"/>
            <path id="パス_17260" data-name="パス 17260" d="M-470.678,4991.814l.345.6a11.122,11.122,0,0,1-.542-4.862l-.038.1c.041-.271.134-.4.582-3.319l-.014,0a1.471,1.471,0,0,0,.1-.3l-.077.511c.113-.292.292-.524.468-.9.019-.085,0-.121-.017-.135l.438-.924.067-.3c.205-.259.318-.064.631-.833-.03.326.282-.329.294-.212a1.817,1.817,0,0,1,.064-.2,13.038,13.038,0,0,1,1.085-1.317,13.577,13.577,0,0,0-.981,2.212c.3-.606.1-.149.081-.016l-.054.026c-.17.366-.089.4-.166.58l-.017-.019.024-.018c-.005-.022-.02-.016-.039,0-.016-.011-.039,0-.088.1l.019-.016a2.515,2.515,0,0,0-.266.52l.067.025a7.038,7.038,0,0,0-.616,2.243c-.039.381-.245.829-.268,1.307-.1.749.031.381.059.758.026.469-.083-.1-.1.089l.078.563c.024-.325.061-.148.088-.088-.041.484.147,1.226.021,1.383a6.31,6.31,0,0,0,.238.9c-.043-.087-.108-.264-.133-.263.111.247.006.124-.029.022-.017.412.69,1.956.6,2.059l.029-.007c-.09.118-.25,0-.231.289l.108.165.046.281c.113.165.107.069.121.065a7.09,7.09,0,0,0,.728,1.512l-.587-.422c.283.411.856,1.11.8,1.237l.252.205c.725.725.292.608.564.906l.392.347-.286-.4a7.07,7.07,0,0,0,.8.778v0l-.044-.029.039.055a1.25,1.25,0,0,0,.321.571,8.859,8.859,0,0,0,1.167,1.223l.044.209.485.386.077-.055c-.443-.4-1.142-1.239-1.628-1.8l.028-.032c.294.33.593.73.8.944.108.1.439.31.312.081l.116.248a15.015,15.015,0,0,0,2.32,2.046l-.141-.059c.219.22.449.432.574.439a12.8,12.8,0,0,0,2.188,1.429l.033.157c.174.111.545.165.522.328l.331.278a3.61,3.61,0,0,0,.65.421h0l.061.022-.01,0c.579.3-.07.067.6.4.251.065.132.237.455.406l.407.07a12.479,12.479,0,0,1,1.45.888c.44.168.714.166.516-.063a1.73,1.73,0,0,0,.562.463c.109-.006.064-.043-.013-.14.474.171.237.18.567.346.03.137.045.326.15.384l-.15-.035a4.985,4.985,0,0,0,1.146.575l.015-.052.428.23.066-.044.633.3-.1-.023a7.977,7.977,0,0,0,.934.4l.009-.036c.878.217,1.457.639,2.431.987l-.091-.112c.367.051.034.135.447.243l.064-.075c.29.231.46.14.722.177l-.169.073.469.124c.522.125.377-.04.332-.12l.3.2.114-.076c.2.191.255.066.668.259.053-.027-.049-.08.108-.053l.67.346-.414-.187-.011.159c.414.24.632.162.944.3l-.209-.108a2.636,2.636,0,0,0,.9.172c-.1,0-.267.007-.055.08.159.049.108-.029.267-.007,0,.1.371.254.742.3l-.022-.045a.58.58,0,0,0,.29.085l-.056-.128.27.167c.213.013.485.154.482.075l-.108-.046,1.555.269.046-.084c.121.147.856.1.767.24.314-.043,1.15.205,1.012.012a24.172,24.172,0,0,0,2.889.331,14.623,14.623,0,0,1,2.56.094c1.6.22,2.655.257,4.31.389,1.016-.175,2.485.194,3.572.076l.29.081c.723-.132,1.811.025,2.82-.1.246.035.375.046.432.049-.046,0-.116.02-.139.072.288-.037.869.007.829-.1l-.073-.011c-.041-.1.87.047,1.192-.044l-.177.112.544-.023-.145-.018c2.366.145,3.425-.259,5.653-.133-.3-.108.441.043.463-.09a3.628,3.628,0,0,1,1.49-.044l.034.022.794-.085c-.492-.125.588.088.137-.015,2.06-.329,4.78-.569,7.18-1l-.1.058a17.955,17.955,0,0,0,1.829-.3,4.749,4.749,0,0,1,1.218-.068c.523-.005.961-.22.743-.18a12.657,12.657,0,0,0,1.837-.157c.237-.178,2.093-.157,2.1-.306l.01.012c.966-.218,1.907-.17,2.958-.352l-.058-.017,2.189.3-.574.583-1.789.587c-1.648.143-3.3.315-4.958.528l-3.931.762c-3.223.48-6.489.949-9.8,1.2l-.717-.058c-1.929.328-4.42.177-6.505.427l-.043-.1a1.859,1.859,0,0,0-.694.081c-5.475.031-11.086-.242-15.973-.6-.483.028-1.9-.124-2.293-.091-1.6-.3-3.272-.608-4.839-.943l.055.025-.721-.2c-.034,0-.042.012-.021.025-.792-.281-2.1-.552-3.1-.824l.052.029a56.638,56.638,0,0,1-15.19-7.518,29.184,29.184,0,0,1-6.249-5.792C-468.245,4997.626-470.914,4992.422-470.678,4991.814Z" fill="#4b4b4b"/>
            <path id="パス_17261" data-name="パス 17261" d="M-469.872,4983.511l-.01.02C-469.93,4983.517-469.9,4983.491-469.872,4983.511Z" fill="#4b4b4b"/>
            <path id="パス_17262" data-name="パス 17262" d="M-467.949,4994.419l-.018-.03.131.09Z" fill="#4b4b4b"/>
            <path id="パス_17263" data-name="パス 17263" d="M-469.438,4987.7c0,.311-.012.325-.03.282A1.187,1.187,0,0,1-469.438,4987.7Z" fill="#4b4b4b"/>
            <path id="パス_17264" data-name="パス 17264" d="M-468.436,4981.013c.105-.154.091-.084.058.019a2.148,2.148,0,0,0-.184.265Z" fill="#4b4b4b"/>
            <path id="パス_17265" data-name="パス 17265" d="M-468.193,4981.911l.065-.034C-468.189,4981.964-468.2,4981.955-468.193,4981.911Z" fill="#4b4b4b"/>
          </g>
        </g>
        <g id="グループ_1506" data-name="グループ 1506">
          <path id="パス_17266" data-name="パス 17266" d="M-374.269,4973.1c8.316,2.4,14.629,8.654,13.383,16.4-1.453,9.039-11.4,13.238-19.971,17.26" fill="#fff"/>
          <g id="グループ_1505" data-name="グループ 1505">
            <path id="パス_17267" data-name="パス 17267" d="M-363.187,4981.924c-.013-.016-.01-.027,0,0Z" fill="#4b4b4b"/>
            <path id="パス_17268" data-name="パス 17268" d="M-364.848,4995.6l-.01.012-.071,0Z" fill="#4b4b4b"/>
            <path id="パス_17269" data-name="パス 17269" d="M-366.478,4997.534l-.007.014C-366.495,4997.539-366.508,4997.533-366.478,4997.534Z" fill="#4b4b4b"/>
            <path id="パス_17270" data-name="パス 17270" d="M-362.045,4990.77l.021-.037Z" fill="#4b4b4b"/>
            <path id="パス_17271" data-name="パス 17271" d="M-365.929,4978.381l.007.009-.032-.01Z" fill="#4b4b4b"/>
            <path id="パス_17272" data-name="パス 17272" d="M-365.922,4978.439c.055.027.015-.03,0-.049l.156.112C-365.8,4978.524-365.88,4978.441-365.922,4978.439Z" fill="#4b4b4b"/>
            <path id="パス_17273" data-name="パス 17273" d="M-373.487,4973.964l.02.021Z" fill="#4b4b4b"/>
            <path id="パス_17274" data-name="パス 17274" d="M-360.267,4991.33l.019-.037Z" fill="#4b4b4b"/>
            <path id="パス_17275" data-name="パス 17275" d="M-372.118,4974.433l-.013.052Z" fill="#4b4b4b"/>
            <path id="パス_17276" data-name="パス 17276" d="M-364.93,4995.607l-.03,0Z" fill="#4b4b4b"/>
            <path id="パス_17277" data-name="パス 17277" d="M-368.339,4999.11l.02.037-.005,0Z" fill="#4b4b4b"/>
            <path id="パス_17278" data-name="パス 17278" d="M-379.251,5006.073l0-.021.068.009Z" fill="#4b4b4b"/>
            <path id="パス_17279" data-name="パス 17279" d="M-371.057,5001.2l-.022-.008a2.091,2.091,0,0,1,.345-.235l.054.044Z" fill="#4b4b4b"/>
            <path id="パス_17280" data-name="パス 17280" d="M-373.572,5004.32l.27-.288c-1.143.528-1.6.888-2.615,1.269l.069,0c-.124.091-.362-.11-1.717.922l.008.011c-.055.023-.069,0-.158.081l.225-.193a3.631,3.631,0,0,0-.571.154c-.038.034-.039.064-.032.083l-.537.228-.115.146c-.185.037-.208-.147-.582.137.094-.18-.253.037-.234-.041l-.078.1a4.771,4.771,0,0,1-.913.3,13.23,13.23,0,0,0,1.053-.92c-.341.2-.1.031-.054-.036l.04.014c.2-.125.157-.191.252-.259l.006.021-.02,0,.024.022c.007.015.024.022.08-.009l-.016,0a2.356,2.356,0,0,0,.309-.152l-.034-.055c.226.029.967-.66,1.178-.764.169-.17.489-.211.733-.373.413-.221.16-.181.342-.329.243-.162-.012.089.1.041l.268-.228c-.189.082-.11,0-.091-.035.271-.14.629-.455.787-.388.331-.234.3-.277.456-.361-.039.046-.131.115-.117.138.113-.121.078-.024.025.017.262-.061,1.02-.778,1.145-.689l-.015-.022c.113.06.092.187.28.154l.075-.093.182-.044c.084-.082.016-.078.008-.089a4.6,4.6,0,0,0,.888-.5l-.141.411c.214-.2.586-.562.694-.515l.091-.163c.388-.432.4-.135.571-.293l.181-.231-.246.148a3.538,3.538,0,0,0,.438-.449h0l-.014.027.036-.019a.606.606,0,0,0,.386-.135,3.093,3.093,0,0,0,.788-.548l.169.018.237-.24-.061-.065c-.265.2-.82.509-1.2.727l-.032-.026c.218-.134.492-.257.63-.351.062-.054.169-.242,0-.2l.187-.024a7.708,7.708,0,0,0,1.357-1.037l-.028.076c.155-.086.311-.172.295-.251a3.948,3.948,0,0,0,.951-.976l.136.021c.076-.075.072-.282.227-.222l.209-.122c.1-.1.221-.123.3-.271h0l.014-.028.006.006c.209-.248.081.065.3-.231.022-.131.2-.015.312-.161v-.219c.156-.286.324-.239.661-.581.114-.194.052-.353-.137-.3.25-.082.137-.022.367-.2-.025-.062-.055-.046-.138-.027.09-.219.139-.087.25-.228.13.014.325.053.369.011l-.014.071a1.21,1.21,0,0,0,.428-.475l-.056-.019.165-.179-.058-.044.2-.271-.007.047a1.65,1.65,0,0,0,.263-.407l-.04-.011c.122-.392.452-.618.667-1.05l-.108.029c-.006-.172.143,0,.191-.185l-.094-.041c.207-.11.072-.206.076-.325l.105.089.073-.206c.067-.23-.1-.18-.183-.169l.171-.119-.106-.062c.175-.074.018-.116.16-.291-.038-.028-.081.015-.076-.055l.281-.281-.143.176.18.018c.205-.173.081-.28.182-.414l-.088.089c.128-.228.059-.257.069-.4.018.047.043.12.1.029.036-.069-.047-.05-.042-.12.129.008.234-.157.212-.326l-.047.009c.028-.038.063-.054.05-.129l-.14.021.155-.116c-.015-.095.11-.214.018-.214l-.038.047.123-.686-.1-.02c.169-.053.021-.374.191-.337-.087-.137.122-.507-.092-.442.018-.446.287-.689.157-1.236-.192-.189-.106-.721-.179-1.064a8.736,8.736,0,0,0-.137-1.823c-.316-.36-.241-1.031-.538-1.425l.047-.148c-.253-.236-.318-.713-.646-1.048a.843.843,0,0,0-.03-.189.1.1,0,0,0,.1.02c-.09-.1-.194-.327-.29-.264l.006.032c-.1.064-.157-.344-.327-.417l.158.009-.149-.191.012.064c-.344-.99-.984-1.172-1.468-2.032-.022.175-.078-.186-.211-.11-.325-.077-.288-.364-.414-.533l.01-.026-.292-.237c.018.264-.078-.275-.051-.04a31.2,31.2,0,0,0-2.788-1.984l.073-.007a3.2,3.2,0,0,0-.79-.421c-.243-.051-.359-.331-.432-.38-.165-.19-.477-.147-.371-.112-.229-.131-.366-.373-.744-.474-.188.058-.864-.533-.967-.388l0-.013c-.51-.072-.829-.43-1.388-.485l.016.029-.815-.787.529-.407,1.138-.1a23.5,23.5,0,0,1,2.423,1.078,20.66,20.66,0,0,1,1.979.816,20.973,20.973,0,0,1,3.976,3l.139.323a12.73,12.73,0,0,1,2.144,2.363l-.1.071c.146.239.2.191.261.241a14.4,14.4,0,0,1,2.077,7.13c.11.221-.008.893.057,1.07-.19.744-.388,1.51-.539,2.246l.019-.025-.1.341.031.011a5.465,5.465,0,0,0-.484,1.463l.023-.024c-1.126,2.734-3.225,4.829-5.468,6.873a30.924,30.924,0,0,1-3.884,2.773A22.341,22.341,0,0,1-373.572,5004.32Z" fill="#4b4b4b"/>
            <path id="パス_17281" data-name="パス 17281" d="M-378.093,5006.357l.012,0C-378.057,5006.39-378.084,5006.384-378.093,5006.357Z" fill="#4b4b4b"/>
            <path id="パス_17282" data-name="パス 17282" d="M-372.653,5002.274l-.018.012.031-.091Z" fill="#4b4b4b"/>
            <path id="パス_17283" data-name="パス 17283" d="M-376.554,5004.231c.17-.1.185-.092.169-.064Z" fill="#4b4b4b"/>
            <path id="パス_17284" data-name="パス 17284" d="M-379.607,5006.972c-.092.047-.071.007-.032-.044l.168-.069Z" fill="#4b4b4b"/>
            <path id="パス_17285" data-name="パス 17285" d="M-379.553,5006.277l-.05-.018C-379.542,5006.241-379.538,5006.254-379.553,5006.277Z" fill="#4b4b4b"/>
          </g>
        </g>
        <g id="グループ_1508" data-name="グループ 1508">
          <path id="パス_17286" data-name="パス 17286" d="M-383.1,5002.583c.736,5.417,3.935,9.251,6.988,13.464-4.692.934-12.752-5.82-15.637-8.748" fill="#fff"/>
          <g id="グループ_1507" data-name="グループ 1507">
            <path id="パス_17287" data-name="パス 17287" d="M-380.062,5012.112Z" fill="#4b4b4b"/>
            <path id="パス_17288" data-name="パス 17288" d="M-381.028,5013.9l-.009,0,.008-.066Z" fill="#4b4b4b"/>
            <path id="パス_17289" data-name="パス 17289" d="M-382.606,5013.241h-.013C-382.611,5013.229-382.605,5013.215-382.606,5013.241Z" fill="#4b4b4b"/>
            <path id="パス_17290" data-name="パス 17290" d="M-377.528,5015.23l.025.014Z" fill="#4b4b4b"/>
            <path id="パス_17291" data-name="パス 17291" d="M-381.68,5009.177l0,.008-.023-.01Z" fill="#4b4b4b"/>
            <path id="パス_17292" data-name="パス 17292" d="M-381.7,5009.23c.036.027.026-.027.022-.045a.139.139,0,0,1,.083.109C-381.629,5009.312-381.665,5009.234-381.7,5009.23Z" fill="#4b4b4b"/>
            <path id="パス_17293" data-name="パス 17293" d="M-383.628,5003.377l-.012.021Z" fill="#4b4b4b"/>
            <path id="パス_17294" data-name="パス 17294" d="M-377.89,5017.1l.03.011Z" fill="#4b4b4b"/>
            <path id="パス_17295" data-name="パス 17295" d="M-383.4,5004.322l-.057.025Z" fill="#4b4b4b"/>
            <path id="パス_17296" data-name="パス 17296" d="M-381.029,5013.829v0Z" fill="#4b4b4b"/>
            <path id="パス_17297" data-name="パス 17297" d="M-383.99,5012.444l-.032.035,0,0Z" fill="#4b4b4b"/>
            <path id="パス_17298" data-name="パス 17298" d="M-391.02,5008.1l.02-.014-.006.054Z" fill="#4b4b4b"/>
            <path id="パス_17299" data-name="パス 17299" d="M-385.96,5011.4l.007-.022a.751.751,0,0,1,.229.139l-.038.065Z" fill="#4b4b4b"/>
            <path id="パス_17300" data-name="パス 17300" d="M-388.989,5011.265l.286.038a14.2,14.2,0,0,1-1.377-1.2l.007.049c-.1-.038.083-.322-1-.74l-.01.011c-.027-.027-.006-.049-.089-.07l.2.057a1.448,1.448,0,0,0-.185-.332l-.082.022-.252-.27-.149-.007c-.046-.116.132-.227-.164-.353.18-.023-.048-.167.029-.193l-.1,0a1.646,1.646,0,0,1-.335-.514,5.828,5.828,0,0,0,.945.3c-.2-.146-.035-.058.034-.059l-.013.037c.132.076.194.011.265.044l-.02.015,0-.015-.022.029c-.014.013-.02.028.013.052v-.012l.162.142.052-.054c-.018.182.686.341.8.431.173.027.23.236.4.323.234.177.182.014.335.062.169.083-.086.042-.033.093l.235.063c-.091-.089-.009-.078.027-.085.153.113.467.2.415.353.24.111.278.065.368.128-.046,0-.118-.029-.138-.006.121.013.027.043-.015.028.081.149.8.3.72.446l.019-.023c-.049.118-.169.174-.127.295l.091,0,.052.111c.082.015.074-.033.083-.045a1.863,1.863,0,0,0,.524.372l-.386.124c.192.051.548.128.511.236l.155-.023c.418.053.146.231.3.265l.221.01-.148-.106a1.943,1.943,0,0,0,.431.089v0l-.025,0,.018.018c-.017.062.035.151.14.223.158.092.219.253.531.313l-.012.143.223.062.056-.082c-.181-.112-.486-.375-.7-.542l.023-.04c.13.1.254.24.347.295.052.016.223,0,.181-.1l.027.135a3.393,3.393,0,0,0,.967.541l-.068.014c.075.089.155.17.225.119a2.132,2.132,0,0,0,.87.3l-.02.126c.063.031.244-.064.189.095l.1.118c.088.039.106.126.235.122h0l.025,0-.005.008c.214.062-.054.09.2.155.11-.034,0,.173.123.21l.188-.087c.236.025.189.19.474.331.163.014.292-.082.26-.24.053.2.011.117.141.265.053-.045.041-.066.031-.135.176,0,.063.1.174.147-.021.124-.065.314-.032.339l-.059.012a.456.456,0,0,0,.371.208l.02-.056.135.089.04-.066.2.11-.037.007a.734.734,0,0,0,.306.124l.013-.041c.307,0,.464.213.773.332l-.014-.1c.131-.048-.012.137.127.137l.038-.1c.07.171.152.018.241-.008l-.074.123.152.019c.17-.01.141-.151.138-.226l.078.129.05-.116c.043.156.082-.007.2.1.021-.043-.007-.077.043-.087l.187.219-.12-.1-.019.181c.117.166.2.023.289.095l-.061-.069c.159.081.181.008.275-.028-.032.031-.083.078-.02.106.047.013.035-.062.082-.078a.151.151,0,0,0,.22.144l-.007-.046c.026.022.038.054.087.029l-.019-.136.082.134c.062-.032.147.073.142-.018l-.034-.03a1.378,1.378,0,0,0,.437-.038v-.108c.052.142.218-.078.225.107.065-.107.329.044.244-.156l.025,0h0l-.64,1.633h0v0l0,0-.005-.006-.009-.013-.032-.05-.053-.1-.083-.2a.966.966,0,0,0-.29-.412c-.23-.017-.426-.381-.6-.588-.253-.47-.4-.79-.676-1.261-.392-.121-.411-.708-.724-.923l.024-.136c-.262-.1-.31-.51-.624-.7a.574.574,0,0,0-.032-.151c.013.01.041.019.1-.01-.09-.054-.154-.241-.249-.161l0,.027c-.1.082-.11-.274-.256-.306l.143-.023-.116-.141.005.055c-.161-.827-.732-.889-.86-1.676-.079.159,0-.166-.146-.1-.264-.067-.129-.327-.154-.486l.02-.023-.144-.227c-.1.234.055-.246-.026-.038a12,12,0,0,1-1.082-2.18l.062.014c-.1-.182-.108-.455-.237-.576s.018-.371.008-.431c.032-.19-.183-.285-.152-.218-.034-.184.09-.4-.062-.619-.209-.036-.017-.71-.2-.674l.015-.006c-.2-.292-.03-.641-.217-.962l-.023.023.437-.782.67.1.622.473a11.019,11.019,0,0,0,.228,1.509l.562,1.1a20.578,20.578,0,0,0,1.185,2.729l-.023.259c.48.4.667,1.193,1.157,1.648l-.1.078c.091.159.148.106.19.132a33,33,0,0,0,2.9,4.147c.157.074.391.476.531.521l.036.094,0,.011,0,.006h0l-.677,1.728h-.006l-.031,0-.061,0-.243-.011-.48,0a6.926,6.926,0,0,1-.913-.022l.022.015-.275-.045-.008.034a4.608,4.608,0,0,0-1.149-.165l.017.018c-2.115-.5-3.644-1.627-5.43-2.5a24.97,24.97,0,0,1-2.572-1.632A9.4,9.4,0,0,1-388.989,5011.265Z" fill="#4b4b4b"/>
            <path id="パス_17301" data-name="パス 17301" d="M-391.237,5009.1l.005.006C-391.268,5009.142-391.263,5009.119-391.237,5009.1Z" fill="#4b4b4b"/>
            <path id="パス_17302" data-name="パス 17302" d="M-387.027,5010.789l-.011-.007.085-.028Z" fill="#fff"/>
            <path id="パス_17303" data-name="パス 17303" d="M-389.1,5009.034c.1.067.1.08.073.085Z" fill="#4b4b4b"/>
            <path id="パス_17304" data-name="パス 17304" d="M-391.917,5008.315c-.051-.044-.011-.048.041-.045.044.052.076.087.076.087Z" fill="#4b4b4b"/>
            <path id="パス_17305" data-name="パス 17305" d="M-391.232,5007.994l.014-.044C-391.2,5007.983-391.209,5007.994-391.232,5007.994Z" fill="#4b4b4b"/>
          </g>
        </g>
        <g id="グループ_1510" data-name="グループ 1510">
          <path id="パス_17306" data-name="パス 17306" d="M-375.26,4972.783c8.891-3.252,7.149-13.223,3.646-18.9-9.013-14.609-31.062-17.411-49.128-16.641-14.661.624-31.049,2.913-43.959,9.413-15.151,7.63-24.594,26.367-3.966,33.51" fill="#fff"/>
          <g id="グループ_1509" data-name="グループ 1509">
            <path id="パス_17307" data-name="パス 17307" d="M-391.14,4939.476c.074.019.106.036,0,0Z" fill="#4b4b4b"/>
            <path id="パス_17308" data-name="パス 17308" d="M-449.562,4940.189l-.055.015-.131-.018Z" fill="#4b4b4b"/>
            <path id="パス_17309" data-name="パス 17309" d="M-458.544,4943.148l-.052.024C-458.6,4943.16-458.614,4943.152-458.544,4943.148Z" fill="#4b4b4b"/>
            <path id="パス_17310" data-name="パス 17310" d="M-427.9,4936.975a.78.78,0,0,1,.161,0Z" fill="#4b4b4b"/>
            <path id="パス_17311" data-name="パス 17311" d="M-376.518,4947.15l-.027-.027.082.053Z" fill="#4b4b4b"/>
            <path id="パス_17312" data-name="パス 17312" d="M-376.619,4947.009c-.158-.116.015.056.074.115l-.5-.41C-377.013,4946.691-376.711,4946.963-376.619,4947.009Z" fill="#4b4b4b"/>
            <path id="パス_17313" data-name="パス 17313" d="M-371.736,4971.484l.081-.052Z" fill="#4b4b4b"/>
            <path id="パス_17314" data-name="パス 17314" d="M-428.693,4938.627l.141,0A.683.683,0,0,1-428.693,4938.627Z" fill="#4b4b4b"/>
            <path id="パス_17315" data-name="パス 17315" d="M-368.956,4967.728l.076-.03C-368.92,4967.732-368.942,4967.737-368.956,4967.728Z" fill="#4b4b4b"/>
            <path id="パス_17316" data-name="パス 17316" d="M-449.749,4940.187h0Z" fill="#4b4b4b"/>
            <path id="パス_17317" data-name="パス 17317" d="M-466.441,4946.7l-.016.054-.022.012Z" fill="#4b4b4b"/>
            <path id="パス_17318" data-name="パス 17318" d="M-473.585,4977.859l-.034.006-.112-.115Z" fill="#4b4b4b"/>
            <path id="パス_17319" data-name="パス 17319" d="M-475.246,4953.941l-.042.018a11.639,11.639,0,0,1,.9-.985l.085.011Z" fill="#4b4b4b"/>
            <path id="パス_17320" data-name="パス 17320" d="M-479.141,4964.337a8.005,8.005,0,0,1,.1-1.021,11.822,11.822,0,0,0,.071,7.43l-.028-.151c.354.25-.556.979,2.949,4.267l.012-.008a2,2,0,0,0,.361.334l-.665-.513a8.465,8.465,0,0,0,1.1,1.137c.125.079.185.09.213.084a11.659,11.659,0,0,0,1.342.987l.491.218a3.317,3.317,0,0,0,1.394.922c-.556-.14.588.377.4.342.076.018.239.067.372.1.746.4,2.284.979,2.629,1.189-.007.027-3.333-.985-4.183-1.385,1.088.557.273.167.035.085l-.051-.064c-.66-.326-.713-.264-1.05-.423l.034-.007.034.031c.039,0,.028-.012,0-.037.021-.011-.006-.03-.171-.136l.026.027c-.245-.175-.689-.451-.883-.571l-.052.047c-.393-.332-2.971-2.059-3.325-2.685a8.5,8.5,0,0,1-1.382-1.966,12.81,12.81,0,0,0-.745-1.165c-.367-.773.148.134.024-.183a6.269,6.269,0,0,1-.421-.929c.152.566.021.271-.036.174a5.9,5.9,0,0,1-.464-2.468,9.828,9.828,0,0,1-.159-1.679,2.671,2.671,0,0,0,.067.508c-.052-.471.023-.225.031-.033-.042-.711.2-3.743.506-3.853l-.029,0c.167-.14.2.139.415-.331l.045-.334.232-.466c.084-.329-.007-.18-.021-.183.33-.771.781-1.847,1.269-2.752l-.209,1.059a9.5,9.5,0,0,1,1.179-2.286l.192-.481c.831-1.535.8-.962,1.174-1.551l.461-.754-.558.7c.49-.735.719-1.011,1.124-1.6l.007,0-.044.075.086-.093a5.946,5.946,0,0,0,.918-.84c.627-.657,1.192-1.114,2.225-2.146l.366-.168.819-.74-.067-.059a35.509,35.509,0,0,0-3.4,2.986l-.051-.006c.568-.589,1.291-1.2,1.692-1.572.188-.186.634-.694.209-.407l.458-.28a50.776,50.776,0,0,1,4.662-3.42l-.2.166a6.3,6.3,0,0,0,1.155-.7c1.57-.918,3.3-1.633,4.3-2.239l.287-.019c.345-.162.795-.53,1.035-.483l.769-.3a14.14,14.14,0,0,0,1.362-.495h0l0,0,.1-.049,0,.01c1.1-.441.029.084,1.289-.427.383-.212.511-.049,1.126-.293l.57-.355a19.7,19.7,0,0,1,3.055-.864c.792-.277,1.145-.5.568-.45a6.862,6.862,0,0,0,1.369-.235c.133-.093.025-.074-.208-.058a7.475,7.475,0,0,1,1.211-.295,2.266,2.266,0,0,0,.711.093l-.248.087a17.724,17.724,0,0,0,2.3-.48l-.044-.042.879-.169.038-.074,1.252-.256-.166.054c.3-.047,1.256-.268,1.807-.379l-.029-.032c1.544-.374,2.87-.451,4.706-.75l-.254-.031c.613-.176.191.078.93-.078l.022-.093a3.35,3.35,0,0,0,1.3-.233l-.194.142.853-.132c.938-.158.558-.22.411-.263l.657.01.111-.118c.487.06.468-.078,1.3-.118.063-.047-.148-.043.13-.095l1.379-.015-.829.027.118.138c.866.008,1.157-.128,1.772-.147l-.426-.007a9.77,9.77,0,0,0,1.608-.2c-.172.043-.435.109-.029.092.3-.018.156-.067.435-.108a3.348,3.348,0,0,0,1.441-.021l-.068-.032a2.1,2.1,0,0,0,.541-.03l-.178-.1.562.057c.368-.069.913-.016.86-.088l-.212-.011,2.8-.187.036-.091c.282.107,1.527-.134,1.441.025.525-.126,2.088-.041,1.772-.2,1.854-.069,2.851.056,5.1-.016a32.316,32.316,0,0,1,4.45-.024c2.816.195,4.623.4,7.472.751a54.49,54.49,0,0,1,6.087.927l.472.174c1.247.119,3.013.705,4.71,1.05.386.156.591.231.682.262a.38.38,0,0,0-.252,0c.481.108,1.4.439,1.384.322l-.114-.046a15.587,15.587,0,0,1,1.931.613l-.333,0,.867.308-.219-.106c3.578,1.622,5.372,2.175,8.3,4.272-.3-.37.528.458.669.382a5.994,5.994,0,0,1,1.871,1.5l.017.051.97.828c-.423-.619.566.7.168.142a24.378,24.378,0,0,1,6.541,8.9l-.108-.133c.371.843.659,1.937.9,2.591a5.341,5.341,0,0,1,.23,1.758c.064.748.239,1.423.22,1.1.055.81-.1,1.574-.123,2.7.232.414-.785,3.029-.729,3.079l-.02.008a8.887,8.887,0,0,1-2.85,3.795.659.659,0,0,0,.09-.047,12.78,12.78,0,0,1-3.489,1.37l.642-.881a7.387,7.387,0,0,0,2.013-1.829,8.552,8.552,0,0,0,2.834-6.031,15.732,15.732,0,0,0-.933-5.368c-1.263-4.3-4.291-8.12-8.032-11.219l-.77-.705a38.745,38.745,0,0,0-8.962-4.611l-.01-.119a4.4,4.4,0,0,0-1.069-.322c-8.256-2.929-17.757-3.917-25.967-3.784-.795.05-3.209.056-3.832.161-2.673-.034-5.529.128-8.2.356l.1,0-1.263.092c-.053.013-.058.026-.017.03a44.027,44.027,0,0,0-5.389.6l.1,0c-10.065,1.25-19.5,3.111-28.333,7.337a33.665,33.665,0,0,0-11.6,8.328,35.282,35.282,0,0,0-3.231,4.54A18.709,18.709,0,0,0-479.141,4964.337Z" fill="#4b4b4b"/>
            <path id="パス_17321" data-name="パス 17321" d="M-475.031,4975.9l-.028-.023C-475.021,4975.842-474.992,4975.888-475.031,4975.9Z" fill="#4b4b4b"/>
            <path id="パス_17322" data-name="パス 17322" d="M-478.629,4958.819l-.029.057.049-.237Z" fill="#4b4b4b"/>
            <path id="パス_17323" data-name="パス 17323" d="M-480.418,4970.968c-.188-.538-.171-.569-.132-.5C-480.488,4970.667-480.454,4970.843-480.418,4970.968Z" fill="#4b4b4b"/>
            <path id="パス_17324" data-name="パス 17324" d="M-471.009,4978.42c.289.129.164.1-.023.05-.29-.14-.493-.235-.493-.235Z" fill="#4b4b4b"/>
            <path id="パス_17325" data-name="パス 17325" d="M-472.551,4978.359l.065.079C-472.646,4978.339-472.631,4978.332-472.551,4978.359Z" fill="#4b4b4b"/>
          </g>
        </g>
        <g id="グループ_1512" data-name="グループ 1512">
          <g id="グループ_1511" data-name="グループ 1511">
            <path id="パス_17326" data-name="パス 17326" d="M-447.825,4963.063a2.242,2.242,0,0,1,.225.659,2.6,2.6,0,0,1,.21.691c-.016.321-.226.306-.242.627,0,.306.065.306.065.611-.016.322.016.322.016.627s.08.306.064.628c0,.306.016.306,0,.612,0,.3-.113.3-.113.627-.016.305.129.305.113.611,0,.305-.048.305-.048.627-.016.305.032.305.032.611-.016.306-.048.306-.048.611-.016.322-.081.322-.081.627-.016.306.081.306.081.612-.016.321-.145.3-.145.627h.064a1.078,1.078,0,0,1-.241.675.942.942,0,0,1-.675.145c-.016,0-.016-.032-.033-.032a.825.825,0,0,1-.723-.274c-.049,0-.065-.112-.113-.112h-.627c-.193,0-.418.112-.627.112-.354,0-.322.065-.627.065-.322,0-.322-.145-.628-.145-.322,0-.322.145-.643.145-.306,0-.306-.177-.627-.177-.306,0-.306.209-.628.209-.3,0-.3-.145-.627-.145-.305,0-.305.145-.627.145h-.627c-.241,0-.434-.241-.6-.4a.78.78,0,0,1-.258-.579c0-.322-.112-.322-.112-.644s.112-.321.1-.643c0-.305-.048-.305-.064-.627,0-.322.016-.322.016-.643,0-.306-.08-.306-.1-.628,0-.321.112-.321.112-.643,0-.305-.032-.305-.032-.627s.08-.322.08-.644c0-.305-.192-.305-.192-.627s.16-.321.16-.627c0-.321-.016-.321-.016-.644-.016-.321-.1-.321-.112-.626,0-.322.048-.322.048-.644,0-.306.016-.306,0-.627,0-.322-.1-.322-.113-.644,0-.224.225-.385.386-.562a.862.862,0,0,1,.579-.306c.419,0,.515.257.869.048.322-.177.225-.353.386-.675s.032-.4.193-.724.193-.305.353-.627c.113-.225.354-.274.563-.354a.819.819,0,0,1,.644,0c.225.113.5.241.579.45.064.226-.161.451-.274.66-.144.29-.112.3-.257.595s-.37.305-.177.563c.209.289.306,0,.675,0s.354.015.708.015.354-.1.708-.1c.37,0,.37,0,.723.015a3.658,3.658,0,0,1,.724.08c.241.065.386.355.579.467a2.356,2.356,0,0,1,.531.435A2.8,2.8,0,0,1-447.825,4963.063Zm-7.076,3.65c-.225.241-.177.353-.08.724.08.322-.145.417.08.675.209.225.338-.064.643-.064h.628c.3,0,.3-.065.61-.065s.306.129.612.129.3.016.611.016h.611c.306,0,.306-.08.611-.08s.306-.112.612-.112.337.241.53.015c.241-.241.048-.273.048-.611s.37-.5.145-.756c-.209-.225-.4.161-.708.161s-.3-.161-.627-.161h-.611c-.306,0-.306-.032-.611-.032h-.627c-.306,0-.306.161-.612.161h-.61c-.306,0-.306-.032-.628-.032-.306,0-.434-.274-.627-.033Zm4.76-3.3c-.337-.016-.337.177-.691.177-.338,0-.338-.177-.675-.177s-.338.177-.692.177c-.338,0-.338-.048-.676-.048s-.337-.113-.691-.113c-.338,0-.338.064-.676.064s-.45-.241-.691.017.032.353.032.723c0,.354-.241.451-.016.707.209.243.322-.047.643-.047.306,0,.306.112.628.112.3,0,.3.032.61.032.322,0,.322-.064.628-.064s.3-.08.627-.08c.3,0,.3.032.627.032.306,0,.306.112.612.112s.321-.048.626-.048.338.1.6-.1c.176-.145.064-.194.064-.435a1.063,1.063,0,0,0-.257-.707A.9.9,0,0,0-450.141,4963.416Zm.66,7.816c.241-.257.032-.29,0-.627-.064-.337.273-.4.032-.66-.241-.241-.289-.144-.627-.144s-.338.177-.692.177c-.337,0-.337-.048-.675-.048h-.676c-.338,0-.338-.033-.691-.033s-.338-.112-.676-.112-.338-.032-.675-.032-.4-.081-.644.16-.048.306-.048.644c0,.353-.145.385.1.627s.273.193.611.193.337-.08.675-.08.338-.146.676-.146.337.1.675.1.338.129.676.129.338-.048.675-.048.338-.193.676-.193.37.289.611.064Z" fill="#4b4b4b"/>
            <path id="パス_17327" data-name="パス 17327" d="M-438.078,4960.473c.08.209.209.482.1.708a6.451,6.451,0,0,0-.322.562c-.08.177-.129.386-.225.6-.08.192-.177.386-.274.6-.08.193-.3.321-.4.53-.08.178-.112.419-.209.611-.08.194-.145.4-.241.6s-.241.369-.338.562-.112.435-.209.612c-.1.209-.305.338-.4.514-.112.209-.128.434-.241.612a1.015,1.015,0,0,1-.836.433c-.161,0-.258-.16-.4-.241-.209-.129-.45-.241-.514-.45a1.067,1.067,0,0,1,.08-.74c.08-.16.193-.337.306-.546.1-.161.289-.29.4-.484.08-.176.177-.369.273-.562.1-.177.113-.4.209-.595s.129-.4.209-.6c.1-.176.338-.305.435-.482.08-.192.209-.369.305-.547.081-.192.161-.4.242-.578.1-.21.144-.4.225-.579.1-.241.177-.435.241-.579l.08.048c.1-.225.177-.451.386-.531a.777.777,0,0,1,.643.1A.761.761,0,0,1-438.078,4960.473Zm5.1,4.922a.939.939,0,0,1,.337.594c0,.194-.016.4-.032.612s-.161.4-.177.611c-.032.192-.048.4-.08.61s.128.435.08.644c-.032.193-.032.4-.08.611-.032.194-.29.354-.338.547-.048.209-.048.418-.1.611-.048.209-.016.434-.08.627a6.2,6.2,0,0,1-.225.579c-.064.209-.129.4-.193.58a.915.915,0,0,1-.306.45.837.837,0,0,1-.531.1c-.016,0-.064.113-.08.113-.322-.033-.322-.016-.627-.048a1.011,1.011,0,0,1-.659-.338,1.04,1.04,0,0,1-.242-.724,1.057,1.057,0,0,1,.306-.643c.161-.145.466-.113.691-.129.064-.193.033-.45.1-.676.064-.209.08-.434.129-.643.064-.225.209-.418.257-.627.048-.225.128-.434.177-.643.032-.226-.081-.467-.049-.691s.161-.371.178-.58c-.29-.113-.29-.032-.6-.032s-.305.08-.611.08c-.289,0-.289,0-.6.016,0,.017.016-.08,0-.064-.064.145-.257.29-.354.531-.064.177.065.45-.016.659-.064.177-.16.37-.241.563-.064.193-.29.338-.354.531-.08.209-.112.4-.193.595-.08.242-.177.483-.257.707-.1.258-.161.5-.225.692a2.353,2.353,0,0,0-.161.74,1.108,1.108,0,0,1-.37.45c-.161.1-.37,0-.547,0-.1,0-.241.209-.337.177-.242-.08-.354-.37-.451-.579a1,1,0,0,1-.145-.707,1.951,1.951,0,0,0,.338-.6,6.812,6.812,0,0,1,.129-.675c.064-.193.3-.354.386-.579.064-.209.161-.418.241-.628s.048-.482.112-.691c.081-.209.193-.418.274-.61.08-.226.161-.435.241-.628-.466-.1-.466.048-.949.048-.241,0-.4-.225-.563-.386s-.369-.322-.369-.563a1.069,1.069,0,0,1,.225-.708,1.1,1.1,0,0,1,.707-.257c.306,0,.306.129.627.129.306,0,.306-.081.628-.081s.322-.1.627-.1.3.177.627.177c.306,0,.306-.1.628-.1.3,0,.3.16.627.16.3,0,.3-.225.627-.225.306,0,.306.08.627.08s.306.065.627.065A.8.8,0,0,1-432.979,4965.4Zm2.926.626a1.2,1.2,0,0,1-.353.676.982.982,0,0,1-.628.145.959.959,0,0,1-.707-.338c-.129-.161-.322-.306-.467-.483-.128-.176-.193-.4-.337-.594-.113-.178-.193-.4-.322-.6s-.29-.338-.418-.53-.241-.387-.37-.579c-.113-.194-.193-.4-.3-.6-.129-.193-.274-.37-.387-.547-.128-.209-.176-.434-.289-.611-.129-.209-.37-.338-.467-.515a.946.946,0,0,1,0-.724.81.81,0,0,1,.418-.482.7.7,0,0,1,.6-.064c.225.064.418.1.547.321.1.161.209.353.321.547.113.177.322.305.434.5.113.177.145.418.258.6.112.193.289.337.4.514.112.194.177.4.289.595s.257.338.37.515c.129.193.258.37.37.531.129.192.177.418.306.6s.257.37.386.514C-430.262,4965.6-430.037,4965.8-430.053,4966.021Z" fill="#4b4b4b"/>
            <path id="パス_17328" data-name="パス 17328" d="M-417.083,4963.19a1.014,1.014,0,0,1-.563.4c-.128,0-.145-.08-.273-.048a1.471,1.471,0,0,0-.338.128c-.209.064-.466.016-.627.113-.209.1-.29.354-.434.45a3.4,3.4,0,0,0-.5.354c-.161.161-.273.322-.4.467a1.958,1.958,0,0,0-.37.579,2.057,2.057,0,0,0-.209.675,6.126,6.126,0,0,0,.08.691c0,.161,0,.29.016.467.033.29-.112.579-.032.756.113.225.4.29.628.45.145.1.257.354.466.434.193.065.45-.08.66-.032a5.738,5.738,0,0,0,.61.145c.242.032.37.241.515.418.145.161.418.354.386.595a1.114,1.114,0,0,1-.322.643,1.111,1.111,0,0,1-.675.241c-.032,0-.048-.209-.08-.209-.225-.032-.467.049-.692,0a3.451,3.451,0,0,1-.708-.048,4.6,4.6,0,0,1-.627-.338,3.183,3.183,0,0,1-.563-.4,3.264,3.264,0,0,1-.466-.353c-.145-.145-.37-.242-.482-.4a3.629,3.629,0,0,1-.209-.6,3.29,3.29,0,0,1-.21-.562c-.032-.193-.1-.4-.112-.611s-.065-.4-.065-.6c0-.225.193-.434.209-.643.016-.225-.112-.466-.064-.675a3.568,3.568,0,0,1,.209-.627,4.331,4.331,0,0,1,.37-.564,2.894,2.894,0,0,1,.338-.562l.08-.08-.643.032c-.306.031-.306.08-.627.112-.306.016-.322-.064-.628-.049-.321.033-.321-.015-.643.017-.3.016-.321-.049-.627-.017-.322.017-.322.049-.627.065-.033,0-.048.209-.064.209a1.076,1.076,0,0,1-.628-.322,1.113,1.113,0,0,1-.386-.611,1.138,1.138,0,0,1,.274-.707c.144-.178.434-.161.675-.178.322-.015.338.033.659,0,.306-.015.306-.144.628-.16.321-.032.3-.129.627-.144.321-.033.338.144.659.128.322-.033.322-.016.643-.033s.322-.047.628-.08c.322-.015.322-.176.627-.193.322-.032.338.129.659.113.322-.032.306-.113.627-.145.322-.016.322-.08.644-.1.322-.032.322.048.644.016.321-.016.321-.033.643-.065.241-.015.386.161.563.306a.721.721,0,0,1,.321.531A.82.82,0,0,1-417.083,4963.19Zm2.059-.53a4.188,4.188,0,0,1-.129.563.593.593,0,0,1-.66.434c-.047,0-.1.032-.144.016a.621.621,0,0,1-.434-.273.585.585,0,0,1-.048-.5c.048-.176.064-.482.112-.788.048-.289.1-.579.129-.788a.64.64,0,0,1,.3-.4c.145-.112.29-.321.483-.289a.893.893,0,0,1,.563.273c.1.145.032.4.016.595-.032.177.064.386.032.6C-414.831,4962.29-414.992,4962.467-415.024,4962.66Zm1.978-.6c-.032.209-.032.451-.064.66-.049.241-.081.465-.129.659a.736.736,0,0,1-.74.482c-.064,0-.145.065-.209.048a.766.766,0,0,1-.482-.337c-.1-.161.048-.354.1-.547.032-.145,0-.37.048-.595.032-.177,0-.4.032-.58.033-.241.016-.45.033-.578l.145.016c.016-.193-.017-.467.112-.579a.935.935,0,0,1,.6-.1c.193.017.29.194.4.338.129.145.338.258.322.45S-413,4961.808-413.046,4962.065Z" fill="#4b4b4b"/>
            <path id="パス_17329" data-name="パス 17329" d="M-405.194,4969.077c-.242,0-.225-.144-.434.016-.161.113-.29.29-.129.386.274.161.386.016.692.016a.5.5,0,0,1,.45.145.622.622,0,0,1,.241.419.59.59,0,0,1-.193.465.569.569,0,0,1-.45.177c-.338.017-.419-.112-.708.1a.373.373,0,0,0-.048.579c.193.161.321-.193.579-.209.241-.017.257.145.515.129a.877.877,0,0,1,.643.144.9.9,0,0,1,.273.612,1.025,1.025,0,0,1-.129.707,1.061,1.061,0,0,1-.675.225c-.338.033-.338.048-.659.065-.338.015-.338.08-.66.1-.337.016-.337.081-.659.1-.338.017-.354-.1-.676-.08s-.337,0-.659.016c-.338.016-.338.081-.66.113-.031,0-.047.1-.064.1-.241,0-.4-.242-.563-.4a.785.785,0,0,1-.3-.531,1.026,1.026,0,0,1,.129-.707,1.1,1.1,0,0,1,.675-.258l.6-.032c.29-.032.338.129.547-.08.193-.193.225-.258-.016-.386-.4-.225-.4-.081-.869-.064l-.016-.145c-.193,0-.386.065-.514-.064s-.065-.322-.081-.515a.491.491,0,0,1,.161-.418c.129-.129.209-.258.4-.258.257-.015.257.033.5.017.241,0,.37.144.546-.017a.424.424,0,0,0-.016-.594c-.209-.162-.321.08-.6.08s-.273-.033-.546-.033-.274.065-.547.065a.777.777,0,0,1-.419-.145,1.227,1.227,0,0,1-.434-.29c-.08-.144.065-.353.065-.53,0-.338-.177-.338-.177-.691v-.692c0-.338.08-.338.08-.692,0-.337-.1-.337-.1-.692,0-.337.209-.337.209-.691a.73.73,0,0,1,.193-.579.87.87,0,0,1,.579-.338c.273,0,.273.017.547.017s.273-.1.546-.1.306.258.515.064c.177-.161.161-.209-.032-.337-.354-.209-.338-.113-.74-.113s-.4.129-.788.129c-.209,0-.322-.258-.451-.387a.6.6,0,0,1-.208-.45.6.6,0,0,1,.208-.45c.129-.129.242-.353.451-.353.386,0,.386.015.788.015s.5.355.836.145c.225-.128.1-.354-.048-.563-.338.017-.659-.1-.949-.08l-.016.145a.963.963,0,0,1-.659-.258.962.962,0,0,1-.257-.659.954.954,0,0,1,.241-.66c.16-.161.418-.112.659-.128.193,0,.4-.1.611-.1.209-.016.418-.048.627-.064s.4-.128.612-.145.434.081.627.064c.225-.015.4-.176.595-.209.241-.032.45.017.627-.015a1.089,1.089,0,0,1,.724.112,1.184,1.184,0,0,1,.434.644c.048.241-.177.482-.3.659a.847.847,0,0,1-.547.353c-.194.033-.386.177-.6.209s-.4-.032-.612-.015c-.1.3-.225.385-.016.627.177.209.274-.08.547-.08s.273-.017.547-.017.273.1.547.1a.7.7,0,0,1,.482.241.765.765,0,0,1,.29.482.762.762,0,0,1-.29.483.665.665,0,0,1-.482.209c-.274,0-.274-.065-.547-.065s-.274.081-.547.081-.321-.144-.531.032c-.177.161-.273.4-.08.531.29.209.4.016.74.016a2.7,2.7,0,0,1,.611-.048,2.178,2.178,0,0,1,.514.337c.162.129.387.226.483.386a2.843,2.843,0,0,1,.354.693,3.1,3.1,0,0,1-.016.771c0,.161-.064.386-.064.627,0,.193.16.418.16.628,0,.225-.048.434-.048.627a2.907,2.907,0,0,1-.112.724l.048-.1a.935.935,0,0,1-.226.659,1.045,1.045,0,0,1-.659.338.928.928,0,0,1-.723-.4C-404.937,4968.98-404.937,4969.077-405.194,4969.077Zm-2.22-1.464c.129-.241.162-.45-.048-.611a.578.578,0,0,0-.8-.016.34.34,0,0,0,.032.579C-407.928,4967.79-407.623,4967.951-407.414,4967.613Zm-.8-2.091c-.112.194-.16.258.032.371.322.193.387.273.708.08.193-.128.145-.257-.048-.386C-407.848,4965.4-408.009,4965.233-408.218,4965.522Zm3.345,1.577c-.418-.1-.53-.37-.884-.145a.456.456,0,0,0,0,.708c.354.225.483-.016.884-.113Zm-.8-1.56c-.144.177-.225.338-.031.45.369.194.434-.08.835-.08l.065.048a.944.944,0,0,0-.129-.467s-.032.065-.08.065C-405.355,4965.555-405.452,4965.266-405.677,4965.539Zm8.781.354c.017.241.081.514.081.8,0,.209-.129.418-.129.643-.015.209.113.434.1.643s-.257.4-.29.627c-.016.209-.048.419-.08.628s.129.45.08.675c-.032.209-.241.37-.289.6q-.072.289-.145.627c-.064.193-.032.418-.1.643-.065.193-.081.45-.209.579a1.341,1.341,0,0,1-.5.37c-.29.161-.643,0-.949,0-.161,0-.354.209-.53.161-.146-.048-.258-.225-.419-.338a.918.918,0,0,1-.37-.579.832.832,0,0,1,.226-.611.759.759,0,0,1,.482-.354.769.769,0,0,1,.6,0c.048-.209.016-.386.064-.595s.1-.4.145-.611c.032-.209.306-.37.338-.579s.016-.434.032-.627c.032-.226.1-.435.113-.627.016-.226-.129-.435-.113-.644,0-.209.129-.418.129-.627,0-.273-.209-.514-.209-.756-.016-.273.032-.531.016-.74a.765.765,0,0,0-.129-.467c-.048-.047.032-.176-.177-.176-.434-.016-.418.064-.852.176-.017.209-.033.29-.064.515-.016.21-.1.4-.113.611-.032.209.064.435.032.66-.016.209-.145.4-.161.611-.032.209-.1.418-.128.628s0,.418-.033.627-.144.418-.176.611c-.049.209.032.45-.017.659s-.273.37-.321.563c-.049.209,0,.45-.065.643a6.116,6.116,0,0,1-.209.6c-.064.209-.112.419-.177.611s-.225.258-.37.354a.728.728,0,0,1-.466.178.723.723,0,0,1-.257-.049.838.838,0,0,1-.5-.4.8.8,0,0,1-.016-.642,6.254,6.254,0,0,0,.225-.6c.048-.209-.032-.45.032-.659.049-.192.161-.386.209-.6s.161-.4.209-.611c.033-.209.113-.418.145-.627.049-.209-.016-.435.016-.644.049-.209-.016-.434.017-.643s.08-.418.112-.627c.016-.209,0-.435.016-.644.032-.209.1-.418.129-.627.016-.209.177-.45.193-.659-.032-.064-.145.065-.193.065-.016,0,0,.032,0,.032-.257,0-.386-.241-.547-.4s-.466-.306-.466-.547c0-.258.289-.4.45-.564s.306-.45.547-.45c.144,0,.177.209.289.129.016-.241.064-.466.08-.691s-.1-.467-.08-.692.033-.45.033-.676c0,0,.064.017.064,0a.964.964,0,0,1,.241-.675.984.984,0,0,1,.708-.225c.241.016.369.273.531.435.144.176.434.321.434.562-.017.209-.017.435-.033.659-.016.209-.08.418-.1.644-.016.209-.064.37-.08.579a1.551,1.551,0,0,0,.707.144,2.31,2.31,0,0,1,.659-.032,2.253,2.253,0,0,1,.612.226c.193.128.193.433.3.61a2.069,2.069,0,0,1,.386.644,3.143,3.143,0,0,1,.113.755C-397.056,4965.313-396.9,4965.587-396.9,4965.893Z" fill="#4b4b4b"/>
            <path id="パス_17330" data-name="パス 17330" d="M-387.187,4967.565c-.032-.176-.064-.353-.1-.546-.016-.177.033-.435,0-.612-.209.032-.45.194-.675.226-.209.032-.418.08-.627.112-.226.016-.451-.112-.676-.1-.209.033-.4.258-.611.274-.225.032-.45-.129-.659-.1-.225.017-.419.194-.628.209-.032,0-.064-.08-.1-.08a1.06,1.06,0,0,1-.676-.144,1.03,1.03,0,0,1-.273-.66.972.972,0,0,1,.225-.691,1.035,1.035,0,0,1,.627-.355c.209-.032.418.017.644,0,.193-.015.4-.08.611-.1.209-.032.434.049.643.032.209-.032.386-.241.6-.273.209-.016.435.145.644.113s.45-.113.659-.146c-.032-.192-.048-.4-.081-.594-.031-.177-.144-.354-.176-.531-.033-.193-.033-.37-.065-.563-.193.032-.386.049-.579.064-.193.033-.4-.047-.579-.032-.209.032-.37.29-.546.306-.209.016-.418-.1-.6-.08-.032,0-.064.048-.1.048a1.167,1.167,0,0,1-.676-.145,1.248,1.248,0,0,1-.289-.644.96.96,0,0,1,.241-.691.966.966,0,0,1,.627-.338c.209-.032.467-.032.724-.064.225-.032.466-.113.724-.145.225-.032.466-.015.708-.048-.049-.257,0-.514-.049-.772,0,0-.048.016-.048,0a.862.862,0,0,1,.161-.627.874.874,0,0,1,.53-.386.919.919,0,0,1,.692.08c.193.129.225.386.274.627.048.29.177.547.225.821.225-.033.466.064.675.032.225-.048.45-.1.66-.129.241-.032.45-.08.627.064a.923.923,0,0,1,.434.547,1.006,1.006,0,0,1-.112.724,1.019,1.019,0,0,1-.66.338c-.209.032-.434-.016-.659.016-.209.032-.483.08-.708.128.032.177.1.418.129.6s.161.353.193.53-.032.418,0,.595c.241-.048.482-.128.724-.177s.482-.048.723-.1c.225-.032.483-.016.708-.064a.834.834,0,0,1,.659.032.84.84,0,0,1,.354.578.806.806,0,0,1-.129.644c-.128.193-.289.467-.53.515s-.5-.033-.756,0c-.241.048-.467.193-.708.225-.241.048-.418.1-.675.145.032.193-.113.3-.1.5.032.177.289.338.306.531.032.177.048.37.064.562.032.242-.225.419-.37.612-.129.177-.241.482-.483.514h-.128c-.225,0-.418-.209-.563-.337-.161-.145-.386-.289-.418-.515C-387.2,4967.951-387.155,4967.759-387.187,4967.565Zm3.345,2.557c.241-.032.515-.16.708,0a.975.975,0,0,1,.3.66.927.927,0,0,1-.241.659c-.145.162-.322.274-.467.418-.16.145-.321.242-.482.37a3.486,3.486,0,0,1-.531.306c-.177.1-.289.37-.5.45-.193.065-.418.065-.611.113-.209.048-.435-.065-.644-.048s-.4.192-.611.192c-.032,0-.064-.144-.1-.144a3.791,3.791,0,0,1-.612.064,4.642,4.642,0,0,1-.594-.144,4.018,4.018,0,0,1-.579-.177,4.846,4.846,0,0,1-.515-.338,3.053,3.053,0,0,1-.6-.418,3.678,3.678,0,0,1-.434-.6,3.572,3.572,0,0,1-.225-.707,3.237,3.237,0,0,1-.081-.708.728.728,0,0,1,.113-.611.779.779,0,0,1,.578-.257c.242-.017.515-.129.708,0,.177.145.177.45.209.691a1.352,1.352,0,0,0,.29.612,1.785,1.785,0,0,0,.45.482,4.408,4.408,0,0,0,.6.354,2.6,2.6,0,0,0,.692.032c.257-.016.514.1.723.064a3.649,3.649,0,0,0,.708-.225c.225-.1.354-.338.547-.483a2.693,2.693,0,0,0,.547-.433C-384.324,4970.106-384.067,4970.139-383.842,4970.122Z" fill="#4b4b4b"/>
            <path id="パス_17331" data-name="パス 17331" d="M-443.978,4982.426a.715.715,0,0,1,.226.563c0,.241.064.531-.1.692a1.022,1.022,0,0,1-.691.224c-.306,0-.306.033-.611.033s-.29-.177-.6-.177-.3.161-.594.161c-.306,0-.435-.29-.644-.1-.273.241-.064.4-.144.756-.1.354-.033.37-.113.708-.1.354-.241.321-.322.675-.1.338.032.37-.048.724-.016.048.048.064.032.113,0,.015-.225-.017-.225.015-.032.145.289.547.322.547.112.081.3.226.5.386.081-.192.241-.418.306-.61s.1-.419.16-.612c.065-.209,0-.434.065-.627.064-.21.129-.4.177-.595.064-.225.1-.434.145-.612a1.047,1.047,0,0,1,.4-.627,1.162,1.162,0,0,1,.739-.144,1.136,1.136,0,0,1,.612.434,1.071,1.071,0,0,1,.16.74c-.048.209-.225.385-.273.611-.048.209-.145.418-.209.644-.049.192-.064.433-.129.642s-.128.419-.193.628-.209.4-.289.611c-.081.193-.209.451-.29.66.226.176.579.256.756.4a2.818,2.818,0,0,1,.563.579.734.734,0,0,1,.225.6.69.69,0,0,1-.112.61.792.792,0,0,1-.66.29.744.744,0,0,1-.5-.193,1.692,1.692,0,0,1-.531-.289c-.129-.113-.289-.274-.466-.4-.129.226-.21.5-.354.708a1.055,1.055,0,0,1-.788.466c-.177,0-.322-.192-.483-.305-.209-.128-.466-.289-.514-.515s.128-.483.257-.691a6.95,6.95,0,0,0,.386-.772c-.145-.112-.161-.273-.274-.354a3.309,3.309,0,0,0-.45-.242,2.335,2.335,0,0,1-.547-.514c-.128-.193-.1-.466-.177-.724a1.937,1.937,0,0,1-.209-.691,2.272,2.272,0,0,1,.193-.612c.081-.289.033-.3.113-.594.064-.289.145-.274.209-.563.081-.29-.129-.354-.048-.643.064-.291.338-.258.144-.483-.209-.241-.241-.064-.546-.064a.982.982,0,0,1-.676-.226,1.051,1.051,0,0,1-.306-.675,1.093,1.093,0,0,1,.258-.708,1.123,1.123,0,0,1,.724-.241c.273,0,.273.017.531.017s.4.289.611.112c.225-.209.08-.355.16-.659.065-.306.065-.306.145-.612.065-.29-.048-.322.016-.627.081-.305.193-.273.274-.563.064-.241.1-.547.289-.676.193-.112.483.017.724.081a.831.831,0,0,1,.6.306.888.888,0,0,1,.08.707c-.08.322-.177.306-.257.628-.08.337-.064.337-.145.675-.1.322-.225.322-.016.595.193.274.241.064.563.064s.322.032.643.032c.338,0,.338.017.66.017A.777.777,0,0,1-443.978,4982.426Zm7.527,2.493c-.176.209-.353.467-.611.467a1.282,1.282,0,0,0-.611-.114c-.177,0-.386.082-.611.1-.193,0-.4.065-.611.08-.209,0-.418-.144-.627-.144s-.418-.048-.611-.048c-.226,0-.435.129-.612.129-.273,0-.482-.017-.611-.017a2.374,2.374,0,0,1-.627-.209,1.722,1.722,0,0,1-.611-.209,1.353,1.353,0,0,1-.434-.6,1.628,1.628,0,0,1-.29-.724,3.016,3.016,0,0,1,.209-.836c.016-.032-.1-.08-.08-.112.145-.306.209-.274.354-.6.144-.3.1-.321.241-.643.144-.3.3-.241.45-.547s.081-.337.225-.659c.145-.3.1-.338.242-.643s.241-.274.385-.579a.891.891,0,0,1,.418-.532.94.94,0,0,1,.676.114.991.991,0,0,1,.515.433.948.948,0,0,1-.032.724c-.145.306-.258.258-.4.563s-.128.306-.273.627l-.289.612c-.145.321-.29.627-.29.627-.145.305,0,.37-.145.675s-.241.257-.385.579c-.017.033.1,0,.08.033.048,0,0,.16.064.16.129,0,.354-.016.644-.016.192,0,.418-.1.659-.1.209,0,.418.144.643.144s.434-.08.643-.08c.242,0,.467-.064.66-.064.064-.257-.081-.257-.113-.531-.048-.273-.064-.273-.113-.531-.031-.273-.08-.273-.128-.547-.032-.241.161-.466.29-.659.144-.177.3-.45.546-.482.242-.048.418.241.611.385a.663.663,0,0,1,.338.5c.049.322.161.306.225.627.049.338.049.338.1.659.048.338-.064.355-.016.676.048.338.128.322.177.644A.807.807,0,0,1-436.451,4984.919Zm.049,4.2c0,.209-.033.419-.033.628,0,.225-.112.434-.112.627,0,.354.016.724.016.724.016,0-.032-.113-.032-.113a.711.711,0,0,1-.241.563c-.161.161-.306.45-.547.45-.193,0-.322-.241-.467-.353s-.337-.08-.4-.242a1.43,1.43,0,0,0-.579-.032c-.3,0-.3-.193-.611-.193s-.3.161-.611.161h-.6c-.3,0-.3-.129-.611-.129s-.306.081-.6.081a.938.938,0,0,1-.659-.225.922.922,0,0,1-.162-.66c0-.354-.016-.354-.016-.691s-.032-.338-.032-.692c0-.337-.128-.337-.128-.692,0-.338.209-.338.209-.691s-.113-.338-.113-.676a.887.887,0,0,1,.289-.627.947.947,0,0,1,.612-.338c.3,0,.3.178.627.178s.321-.146.643-.146c.306,0,.306.033.628.033s.321-.048.643-.048c.3,0,.3.112.627.129a1.769,1.769,0,0,1,.579.063,1.831,1.831,0,0,1,.6.161c.161.113.193.37.322.531a1.747,1.747,0,0,1,.386.451c.1.176.273.321.3.53.049.193-.1.4-.1.611S-436.4,4988.892-436.4,4989.116Zm-1.9-.112c0-.193-.016-.354-.016-.515a.75.75,0,0,0-.129-.482.2.2,0,0,0-.209-.08c-.289,0-.289.032-.579.032-.273,0-.273.016-.563.016s-.289-.162-.563-.162-.289-.08-.5.114c-.193.192-.081.192-.081.482,0,.274.081.274.081.547s-.274.354-.064.53c.257.226.321.049.659.049s.338.048.675.048.338-.017.66-.017c.338,0,.369.114.691.017C-438.236,4989.422-438.3,4989.165-438.3,4989Z" fill="#4b4b4b"/>
            <path id="パス_17332" data-name="パス 17332" d="M-421.03,4987.187a4.036,4.036,0,0,1-.1.611c-.049.192-.1.4-.161.6-.081.193-.177.37-.274.563-.1.177-.08.434-.193.61s-.418.21-.546.371a.678.678,0,0,1-.515.305.789.789,0,0,1-.627-.112.894.894,0,0,1-.371-.579.928.928,0,0,1,.242-.644,3.842,3.842,0,0,0,.418-.482c.112-.193.065-.45.145-.644s.289-.353.338-.562a4.434,4.434,0,0,0,.08-.644c0-.192-.225-.353-.257-.547a3.32,3.32,0,0,0-.129-.53,2.967,2.967,0,0,0-.274-.482c-.112-.162-.048-.435-.16-.579-.129-.145-.338-.194-.483-.322a5.49,5.49,0,0,1-.241.659c-.064.209,0,.483-.08.707-.081.209-.258.387-.354.612-.08.209-.29.37-.386.579a5.966,5.966,0,0,1-.257.547c-.1.193-.162.37-.258.53-.113.193-.129.4-.241.564s-.129.417-.241.562c-.129.161-.4.209-.531.338-.145.161-.177.434-.322.547-.16.129-.338.241-.5.353a3.88,3.88,0,0,1-.579.194,2.592,2.592,0,0,1-.579.161,2.591,2.591,0,0,1-.579.16l-.016-.128a3.126,3.126,0,0,1-.563-.146c-.193-.047-.418.017-.6-.063a2.3,2.3,0,0,1-.579-.226,2.264,2.264,0,0,1-.467-.418c-.128-.144-.08-.434-.177-.611a2.615,2.615,0,0,1-.257-.515c-.064-.176-.177-.337-.225-.514-.032-.177-.064-.37-.081-.547a3.322,3.322,0,0,1-.032-.563,3.809,3.809,0,0,1,.081-.6,3.458,3.458,0,0,1,.113-.595c.047-.209.08-.4.144-.6a4.365,4.365,0,0,1,.274-.547,5.3,5.3,0,0,1,.257-.531c.113-.177.113-.433.241-.6a4.006,4.006,0,0,1,.5-.385,3.227,3.227,0,0,1,.4-.274c.128-.1.257-.209.386-.3-.049-.258-.145-.515-.209-.756-.065-.258-.177-.5-.241-.756-.049-.226.112-.419.225-.6.112-.192.209-.418.434-.466a.959.959,0,0,1,.707.033c.194.112.21.4.258.627.048.209.209.4.257.627.048.208.1.385.145.6.193-.049.322-.113.515-.145s.385.032.579.016.385-.064.578-.064c.145,0,.306.064.467.08.209.017.45.049.659.081.016-.226-.1-.467-.08-.692a1.137,1.137,0,0,1,.3-.707,1.171,1.171,0,0,1,.74-.242,1.182,1.182,0,0,1,.676.338,1.126,1.126,0,0,1,.257.707c-.016.177-.048.355-.064.547-.016.177-.065.338-.081.515.065.032.1.032.161.064a5.833,5.833,0,0,1,.5.37,3.671,3.671,0,0,1,.466.4c.129.144.354.241.483.4s.08.435.176.611c.129.194.419.306.5.5.1.209,0,.5.064.707a4.034,4.034,0,0,1,.129.644,4.781,4.781,0,0,1,.113.659A4.1,4.1,0,0,1-421.03,4987.187Zm-7.334.723c-.032-.192-.241-.353-.289-.562-.033-.194.016-.418-.033-.612-.032-.193,0-.418-.048-.611-.032-.193-.144-.386-.177-.579-.048-.209-.032-.418-.064-.611-.048-.193-.225-.257-.257-.466a2.128,2.128,0,0,0-.4.45,3.214,3.214,0,0,0-.338.611,3.529,3.529,0,0,0-.321.659,5.191,5.191,0,0,0,.1.708c0,.177.032.354.048.531.032.176-.032.37.032.531a1.28,1.28,0,0,0,.434.547,1.067,1.067,0,0,0,.644.241,1.45,1.45,0,0,0,.772-.178C-428.3,4988.377-428.315,4988.119-428.364,4987.91Zm2.332-4.39c-.129,0-.241-.145-.354-.145h-.031c-.21,0-.419.08-.628.1-.225.032-.531,0-.74.048.065.225.274.482.338.708.048.224.145.433.193.659s-.08.5-.032.723.1.451.144.66c.049.225.178.4.225.627.081-.145.162-.257.242-.418s.161-.322.241-.5c.1-.193.1-.434.177-.643s.274-.37.354-.579-.032-.466.032-.675c.064-.226.145-.354.209-.579C-425.807,4983.487-425.871,4983.536-426.032,4983.52Z" fill="#4b4b4b"/>
            <path id="パス_17333" data-name="パス 17333" d="M-407.528,4981.879a.717.717,0,0,1-.563.258c-.3.032-.3.064-.627.1-.322.016-.305.113-.627.128-.306.033-.306.049-.627.081-.306.016-.322-.129-.644-.1-.3.032-.289.273-.611.289-.305.032-.305-.08-.611.016-.08.193-.177.322-.273.515s-.242.354-.322.547c-.1.192-.016.466-.1.659s-.21.37-.29.563c-.08.21-.193.386-.273.579-.081.209-.258.37-.338.563-.065.209-.1.418-.161.611a5.14,5.14,0,0,0-.177.611c-.064.209-.1.434-.145.628-.064.209-.144.418-.192.61-.049.226-.081.435-.113.628a1.014,1.014,0,0,1-.29.53.948.948,0,0,1-.578.29c-.049,0-.1-.129-.145-.145a.954.954,0,0,1-.628-.289.918.918,0,0,1-.112-.692c.032-.193.128-.4.177-.611s.161-.4.225-.611c.048-.209.032-.434.1-.644.049-.209.033-.433.1-.642.08-.209.1-.435.161-.644.08-.193.3-.338.385-.547.065-.209.129-.4.21-.611.08-.193.112-.418.193-.611.08-.209.193-.386.289-.6.081-.194.177-.45.258-.644-.225-.1-.274,0-.515.032-.032,0-.048.113-.081.113-.225,0-.369-.209-.53-.354a.855.855,0,0,1-.306-.514,1.024,1.024,0,0,1,.1-.707c.144-.178.434-.146.675-.162.386-.032.37-.176.74-.209.386-.032.418.161.788.048.08-.176.257-.385.338-.562.1-.177.176-.355.273-.531.081-.177.113-.386.209-.563l-.08-.048a1.032,1.032,0,0,1,.546-.467,1.025,1.025,0,0,1,.725.033.937.937,0,0,1,.418.594.98.98,0,0,1-.017.708c-.112.193-.289.5-.4.707.337.1.369-.241.707-.273.354-.031.37.178.708.161.337-.032.337-.161.675-.177.338-.032.338,0,.692-.032a.878.878,0,0,1,.627.209.837.837,0,0,1,.241.6A.718.718,0,0,1-407.528,4981.879Zm1.625,8.669a4.269,4.269,0,0,1-.531.386,6.389,6.389,0,0,1-.515.418c-.209.081-.466-.016-.676.032a5.489,5.489,0,0,1-.626.193,4.678,4.678,0,0,1-.644.065,5.085,5.085,0,0,1-.691.064,3.056,3.056,0,0,1-.66-.177,3.822,3.822,0,0,1-.643-.225,5.5,5.5,0,0,1-.611-.338l-.016.016a1.132,1.132,0,0,1-.338-.675,1.021,1.021,0,0,1,.177-.708.908.908,0,0,1,.643-.306.836.836,0,0,1,.611.226,2.353,2.353,0,0,0,.724.353,3.4,3.4,0,0,0,.8-.032,3.243,3.243,0,0,0,.676.064c.225-.048.369-.3.579-.4a2.807,2.807,0,0,0,.546-.338.991.991,0,0,1,.708-.193.921.921,0,0,1,.627.321.983.983,0,0,1,.225.676A.958.958,0,0,1-405.9,4990.548Zm-.515-4.841a.859.859,0,0,1-.627.289c-.338.017-.29.129-.676.146-.225.015-.466,0-.707,0-.241.015-.483.063-.692.063-.386.032-.354-.08-.692-.048-.354.017-.354-.048-.691-.032-.016,0-.032-.048-.048-.048a.73.73,0,0,1-.579-.193.878.878,0,0,1-.354-.563.969.969,0,0,1,.273-.643.769.769,0,0,1,.611-.161c.354-.033.354-.048.708-.065.338-.015.338-.128.676-.144.353-.033.353-.129.691-.145.354-.017.354.145.708.129.338-.017.338-.049.692-.064a1.048,1.048,0,0,1,.707.144c.161.145.128.45.145.691A.8.8,0,0,1-406.418,4985.707Z" fill="#4b4b4b"/>
            <path id="パス_17334" data-name="パス 17334" d="M-399.542,4991.191c-.113-.193-.032-.4.016-.643h.016c.048-.241.016-.563.209-.676.209-.128.483.032.724.1l.016-.08c.225.048.45-.033.659,0a5.106,5.106,0,0,0,.644.129v-.033c.225,0,.466.128.659.1a3.563,3.563,0,0,0,.627-.225,2.644,2.644,0,0,0,.547-.337l.064.112a1.739,1.739,0,0,0,.531-.563,2.157,2.157,0,0,0,.048-.74h.016c0-.032.081-.032.081-.048a2.393,2.393,0,0,0-.257-.676,1.406,1.406,0,0,0-.274-.643l-.048.049a1.524,1.524,0,0,0-.563-.274,2.523,2.523,0,0,0-.611-.209,6.224,6.224,0,0,0-.644-.1v-.016c-.257,0-.546.1-.868.128l-.016-.08c-.258.016-.547.064-.74-.112l.1-.1c-.193-.177-.451-.37-.451-.627h.1c0-.29-.016-.29-.016-.6.016-.289.145-.273.145-.562.016-.306,0-.306,0-.6.016-.289-.017-.289-.017-.578.017-.29.049-.29.049-.579.016-.258,0-.547.16-.692a.945.945,0,0,1,.708-.193v.08a.857.857,0,0,1,.643.177.871.871,0,0,1,.129.676h-.016c-.016.322-.016.322-.016.643-.016.322.145.322.129.644s-.065.321-.065.642c.016,0,.032-.047.048-.047v-.016a4.386,4.386,0,0,1,.66.128,4.029,4.029,0,0,1,.627.161,3.751,3.751,0,0,1,.643.1,4.808,4.808,0,0,1,.6.273,3.237,3.237,0,0,1,.563.354l-.064.064a3.2,3.2,0,0,1,.547.482,2.926,2.926,0,0,1,.3.644,3.658,3.658,0,0,1,.033.724c.048.241.225.45.241.691h.016c0,.032-.064.048-.064.08h-.113c0,.209.177.435.145.644-.049.209-.306.338-.386.531a3.328,3.328,0,0,1-.193.6,3.22,3.22,0,0,1-.322.562,3.661,3.661,0,0,1-.547.322l-.032-.032c-.161.113-.241.37-.434.466-.177.081-.4.081-.6.146a3.99,3.99,0,0,1-.6.1,3.927,3.927,0,0,1-.6.081c-.209.016-.4.193-.611.193v-.08c-.194,0-.387.064-.579.047s-.387-.095-.6-.127c-.176-.033-.385-.082-.579-.129,0,0-.016-.017.033-.1A.841.841,0,0,1-399.542,4991.191Zm3.57-10.068c-.209-.032-.45.032-.659-.016l-.627-.144c-.21-.049-.387-.209-.6-.274s-.417-.081-.611-.161a6.415,6.415,0,0,1-.578-.3l-.017-.033v.081c-.225-.1-.289-.305-.386-.515a.78.78,0,0,1-.032-.627l-.064-.032a.837.837,0,0,1,.53-.4c.21-.081.483-.241.708-.145l-.032.049c.177.08.418.1.643.176.209.065.386.242.611.306.209.065.451.048.66.1.225.048.418.209.643.241.225.048.45.064.659.1l.016-.08c.242.032.371.257.515.45a.745.745,0,0,1,.145.6h.016a.769.769,0,0,1-.289.483.718.718,0,0,1-.515.273v-.048c-.032,0-.081.064-.129.064a.152.152,0,0,0,0,.1C-395.57,4981.316-395.763,4981.172-395.972,4981.123Z" fill="#4b4b4b"/>
          </g>
        </g>
      </g>
    </g>
    <rect id="長方形_261" data-name="長方形 261" width="140" height="240" transform="translate(36 25)" fill="#fff" opacity="0"/>
  </g>
</svg>
