<svg xmlns="http://www.w3.org/2000/svg" width="140" height="240" viewBox="0 0 140 240">
  <g id="aityaku_flow3" transform="translate(-36 -25)">
    <g id="レイヤー_4" data-name="レイヤー 4" transform="translate(534.891 -4532.709)">
      <g id="グループ_1480" data-name="グループ 1480">
        <path id="パス_17113" data-name="パス 17113" d="M-432.724,4722.79h-4.461l-4.149,72.015h12.759Z" fill="#c69c6d"/>
        <path id="パス_17114" data-name="パス 17114" d="M-433.089,4797.364h-3.731a6.77,6.77,0,0,1-4.973-2.126,6.771,6.771,0,0,1-1.837-5.087l3.63-63c.231-4.009,2.353-6.918,5.045-6.918s4.814,2.91,5.045,6.918l3.63,63a6.767,6.767,0,0,1-1.837,5.087A6.768,6.768,0,0,1-433.089,4797.364Zm-1.866-68.8-3.565,61.877a1.7,1.7,0,0,0,.449,1.279,1.7,1.7,0,0,0,1.251.522h3.731a1.7,1.7,0,0,0,1.25-.522,1.7,1.7,0,0,0,.449-1.279Z" fill="#505050"/>
      </g>
      <g id="グループ_1481" data-name="グループ 1481">
        <path id="パス_17115" data-name="パス 17115" d="M-394.4,4720.321l-.05,0c.018-.334.05-.664.05-1a18.329,18.329,0,0,0-16.733-18.256A18.324,18.324,0,0,0-429.4,4683.98a18.326,18.326,0,0,0-17.078,11.7,18.271,18.271,0,0,0-13.262-5.7,18.337,18.337,0,0,0-18.337,18.338,18.437,18.437,0,0,0,.391,3.77,18.335,18.335,0,0,0-14.394,17.9,18.338,18.338,0,0,0,14.4,17.9,18.325,18.325,0,0,0,18.275,17.1,18.236,18.236,0,0,0,8.223-1.964A18.313,18.313,0,0,0-436.073,4771a18.269,18.269,0,0,0,13.082-5.5,18.257,18.257,0,0,0,7.255,1.5,18.322,18.322,0,0,0,16.625-10.636,18.306,18.306,0,0,0,4.713.634,18.338,18.338,0,0,0,18.338-18.338A18.337,18.337,0,0,0-394.4,4720.321Z" fill="#8bd800"/>
        <path id="パス_17116" data-name="パス 17116" d="M-436.073,4773.557a20.9,20.9,0,0,1-15.922-7.372,20.573,20.573,0,0,1-7.416,1.371,20.941,20.941,0,0,1-20.623-17.646,21.027,21.027,0,0,1-14.61-19.921,21.03,21.03,0,0,1,14.092-19.749q-.088-.962-.089-1.922a20.919,20.919,0,0,1,20.9-20.9,20.647,20.647,0,0,1,12.444,4.118,20.733,20.733,0,0,1,17.9-10.119,20.947,20.947,0,0,1,20.58,17.382,21.061,21.061,0,0,1,16.938,19.108,20.927,20.927,0,0,1,18.386,20.746,20.92,20.92,0,0,1-20.9,20.9,20.3,20.3,0,0,1-3.355-.284,20.973,20.973,0,0,1-17.983,10.286,20.785,20.785,0,0,1-6.673-1.093A20.706,20.706,0,0,1-436.073,4773.557Zm-15.117-13.083a2.562,2.562,0,0,1,2.11,1.109,15.787,15.787,0,0,0,13.007,6.856,15.662,15.662,0,0,0,11.256-4.732,2.557,2.557,0,0,1,2.84-.557,15.667,15.667,0,0,0,6.241,1.288,15.831,15.831,0,0,0,14.3-9.155,2.556,2.556,0,0,1,2.978-1.4,15.861,15.861,0,0,0,4.056.548,15.8,15.8,0,0,0,15.779-15.779,15.8,15.8,0,0,0-15.736-15.777l-.093,0a2.558,2.558,0,0,1-1.859-.8,2.563,2.563,0,0,1-.7-1.9l.022-.333c.012-.175.025-.35.025-.528a15.865,15.865,0,0,0-14.395-15.706,2.559,2.559,0,0,1-2.332-2.378,15.8,15.8,0,0,0-15.721-14.7A15.676,15.676,0,0,0-444.1,4696.6a2.56,2.56,0,0,1-1.888,1.582,2.547,2.547,0,0,1-2.349-.744,15.636,15.636,0,0,0-11.41-4.9,15.8,15.8,0,0,0-15.778,15.778,15.888,15.888,0,0,0,.338,3.246,2.56,2.56,0,0,1-1.957,3.024,15.859,15.859,0,0,0-12.384,15.4,15.859,15.859,0,0,0,12.387,15.4,2.561,2.561,0,0,1,2.006,2.33,15.8,15.8,0,0,0,15.722,14.717,15.609,15.609,0,0,0,7.072-1.69A2.547,2.547,0,0,1-451.19,4760.474Z" fill="#505050"/>
      </g>
      <g id="グループ_1491" data-name="グループ 1491" transform="translate(-3.215)">
        <path id="パス_17117" data-name="パス 17117" d="M-377.456,4627.3l12.693,14.97-19.429,26.342-67.65-6.675-17.341-26.126" fill="#fff"/>
        <g id="グループ_1483" data-name="グループ 1483">
          <path id="パス_17118" data-name="パス 17118" d="M-390.275,4668.289c-7.325.472-14.7,2.266-22.188,2.767a146.548,146.548,0,0,1-24.82-.463c-16.065-1.658-41.863-16.31-29.468-32.126" fill="#fff"/>
          <g id="グループ_1482" data-name="グループ 1482">
            <path id="パス_17119" data-name="パス 17119" d="M-420.783,4670.578c.044,0,.066,0,0,0Z" fill="#4b4b4b"/>
            <path id="パス_17120" data-name="パス 17120" d="M-453.223,4664.766l-.027-.015-.024-.075Z" fill="#4b4b4b"/>
            <path id="パス_17121" data-name="パス 17121" d="M-457.752,4662.382l-.03-.011C-457.771,4662.362-457.767,4662.349-457.752,4662.382Z" fill="#4b4b4b"/>
            <path id="パス_17122" data-name="パス 17122" d="M-442,4669.04l.084.032Z" fill="#4b4b4b"/>
            <path id="パス_17123" data-name="パス 17123" d="M-410.723,4670.251h-.024l.058-.018Z" fill="#4b4b4b"/>
            <path id="パス_17124" data-name="パス 17124" d="M-410.836,4670.225c-.119.026.035.026.088.026a1.271,1.271,0,0,1-.4.052C-411.148,4670.271-410.894,4670.254-410.836,4670.225Z" fill="#4b4b4b"/>
            <path id="パス_17125" data-name="パス 17125" d="M-392.468,4667.911l-.057-.009Z" fill="#4b4b4b"/>
            <path id="パス_17126" data-name="パス 17126" d="M-443.084,4670.43l.078.027Z" fill="#4b4b4b"/>
            <path id="パス_17127" data-name="パス 17127" d="M-395.378,4668.268l-.04-.047Z" fill="#4b4b4b"/>
            <path id="パス_17128" data-name="パス 17128" d="M-453.274,4664.676l-.02-.034Z" fill="#4b4b4b"/>
            <path id="パス_17129" data-name="パス 17129" d="M-461.518,4659.722l-.051.013-.01-.008Z" fill="#4b4b4b"/>
            <path id="パス_17130" data-name="パス 17130" d="M-468.445,4640.943l.016.018-.084.065Z" fill="#4b4b4b"/>
            <path id="パス_17131" data-name="パス 17131" d="M-466.039,4655.537l.005-.026a6.316,6.316,0,0,1,.461.557l-.048.053Z" fill="#4b4b4b"/>
            <path id="パス_17132" data-name="パス 17132" d="M-470.678,4650.277l.345.6a11.122,11.122,0,0,1-.542-4.862l-.038.1c.041-.271.134-.4.582-3.319l-.014,0a1.459,1.459,0,0,0,.1-.3l-.077.511c.113-.292.292-.524.468-.9.019-.084,0-.12-.017-.134l.438-.924.067-.3c.205-.259.318-.064.631-.833-.03.326.282-.329.294-.212a1.789,1.789,0,0,1,.064-.205,12.968,12.968,0,0,1,1.085-1.317,13.538,13.538,0,0,0-.981,2.212c.3-.606.1-.15.081-.017l-.054.027c-.17.366-.089.4-.166.58l-.017-.019.024-.018c-.005-.022-.02-.016-.039,0-.016-.011-.039,0-.088.1l.019-.016a2.468,2.468,0,0,0-.266.52l.067.024a7.051,7.051,0,0,0-.616,2.244c-.039.381-.245.829-.268,1.307-.1.749.031.381.059.757.026.47-.083-.1-.1.09l.078.563c.024-.325.061-.148.088-.089-.041.485.147,1.227.021,1.384a6.316,6.316,0,0,0,.238.9c-.043-.087-.108-.264-.133-.263.111.247.006.124-.029.021-.017.413.69,1.957.6,2.06l.029-.007c-.09.118-.25,0-.231.289l.108.165.046.281c.113.165.107.069.121.065a7.079,7.079,0,0,0,.728,1.512l-.587-.422c.283.411.856,1.11.8,1.237l.252.205c.725.724.292.607.564.906l.392.346-.286-.4a7.07,7.07,0,0,0,.8.778v.005l-.044-.029.039.055a1.255,1.255,0,0,0,.321.571,8.831,8.831,0,0,0,1.167,1.223l.044.209.485.386.077-.055c-.443-.4-1.142-1.239-1.628-1.8l.028-.032c.294.33.593.73.8.944.108.1.439.31.312.081l.116.248a15.015,15.015,0,0,0,2.32,2.046l-.141-.059c.219.22.449.432.574.439a12.8,12.8,0,0,0,2.188,1.429l.033.157c.174.111.545.165.522.328l.331.278a3.585,3.585,0,0,0,.65.421h0l.061.023-.01,0c.579.3-.07.067.6.4.251.065.132.237.455.406l.407.07a12.548,12.548,0,0,1,1.45.888c.44.168.714.166.516-.063a1.724,1.724,0,0,0,.562.463c.109-.006.064-.043-.013-.14.474.171.237.18.567.346.03.137.045.326.15.384l-.15-.035a4.985,4.985,0,0,0,1.146.575l.015-.052.428.23.066-.044.633.3-.1-.023a7.894,7.894,0,0,0,.934.4l.009-.036c.878.217,1.457.639,2.431.987l-.091-.112c.367.051.034.135.447.243l.064-.075c.29.231.46.14.722.177l-.169.073.469.124c.522.125.377-.04.332-.12l.3.2.114-.076c.2.191.255.066.668.259.053-.027-.049-.08.108-.053l.67.346-.414-.187-.011.159c.414.24.632.162.944.3l-.209-.108a2.657,2.657,0,0,0,.9.172c-.1,0-.267.007-.055.08.159.048.108-.029.267-.007,0,.1.371.254.742.3l-.022-.045a.584.584,0,0,0,.29.085l-.056-.128.27.167c.213.013.485.154.482.075l-.108-.046,1.555.269.046-.084c.121.147.856.1.767.24.314-.043,1.15.205,1.012.012a24.265,24.265,0,0,0,2.889.331,14.616,14.616,0,0,1,2.56.094c1.6.22,2.655.257,4.31.389,1.016-.176,2.485.194,3.572.076l.29.081c.723-.132,1.811.025,2.82-.1.246.035.375.046.432.049-.046,0-.116.02-.139.072.288-.037.869.007.829-.1l-.073-.01c-.041-.1.87.047,1.192-.044l-.177.112.544-.023-.145-.018c2.366.145,3.425-.259,5.653-.133-.3-.108.441.043.463-.09a3.6,3.6,0,0,1,1.49-.044l.034.022.794-.085c-.492-.125.588.088.137-.015,2.06-.33,4.78-.569,7.18-1l-.1.058a17.946,17.946,0,0,0,1.829-.3,4.749,4.749,0,0,1,1.218-.068c.523-.005.961-.22.743-.18a12.6,12.6,0,0,0,1.837-.158c.237-.177,2.093-.156,2.1-.305l.01.012c.966-.218,1.907-.17,2.958-.352l-.058-.017,2.189.3-.574.583-1.789.587c-1.648.143-3.3.315-4.958.528l-3.931.762c-3.223.48-6.489.949-9.8,1.2l-.717-.058c-1.929.328-4.42.177-6.505.427l-.043-.1a1.872,1.872,0,0,0-.694.081c-5.475.031-11.086-.242-15.973-.6-.483.028-1.9-.124-2.293-.091-1.6-.3-3.272-.608-4.839-.943l.055.025-.721-.2c-.034,0-.042.012-.021.025-.792-.281-2.1-.552-3.1-.824l.052.029a56.652,56.652,0,0,1-15.19-7.518,29.234,29.234,0,0,1-6.249-5.792C-468.245,4656.089-470.914,4650.885-470.678,4650.277Z" fill="#4b4b4b"/>
            <path id="パス_17133" data-name="パス 17133" d="M-469.872,4641.974l-.01.02C-469.93,4641.98-469.9,4641.954-469.872,4641.974Z" fill="#4b4b4b"/>
            <path id="パス_17134" data-name="パス 17134" d="M-467.949,4652.882l-.018-.03.131.09Z" fill="#4b4b4b"/>
            <path id="パス_17135" data-name="パス 17135" d="M-469.438,4646.161c0,.311-.012.325-.03.281A1.184,1.184,0,0,1-469.438,4646.161Z" fill="#4b4b4b"/>
            <path id="パス_17136" data-name="パス 17136" d="M-468.436,4639.476c.105-.154.091-.084.058.019a2.148,2.148,0,0,0-.184.265Z" fill="#4b4b4b"/>
            <path id="パス_17137" data-name="パス 17137" d="M-468.193,4640.373l.065-.033C-468.189,4640.427-468.2,4640.418-468.193,4640.373Z" fill="#4b4b4b"/>
          </g>
        </g>
        <g id="グループ_1485" data-name="グループ 1485">
          <path id="パス_17138" data-name="パス 17138" d="M-374.269,4631.565c8.316,2.4,14.629,8.655,13.383,16.4-1.453,9.039-11.4,13.238-19.971,17.26" fill="#fff"/>
          <g id="グループ_1484" data-name="グループ 1484">
            <path id="パス_17139" data-name="パス 17139" d="M-363.187,4640.387c-.013-.016-.01-.027,0,0Z" fill="#4b4b4b"/>
            <path id="パス_17140" data-name="パス 17140" d="M-364.848,4654.063l-.01.011-.071,0Z" fill="#4b4b4b"/>
            <path id="パス_17141" data-name="パス 17141" d="M-366.478,4656l-.007.014C-366.495,4656-366.508,4656-366.478,4656Z" fill="#4b4b4b"/>
            <path id="パス_17142" data-name="パス 17142" d="M-362.045,4649.233l.021-.037Z" fill="#4b4b4b"/>
            <path id="パス_17143" data-name="パス 17143" d="M-365.929,4636.844l.007.009-.032-.01Z" fill="#4b4b4b"/>
            <path id="パス_17144" data-name="パス 17144" d="M-365.922,4636.9c.055.027.015-.03,0-.05l.156.113C-365.8,4636.987-365.88,4636.9-365.922,4636.9Z" fill="#4b4b4b"/>
            <path id="パス_17145" data-name="パス 17145" d="M-373.487,4632.427l.02.021Z" fill="#4b4b4b"/>
            <path id="パス_17146" data-name="パス 17146" d="M-360.267,4649.793l.019-.037Z" fill="#4b4b4b"/>
            <path id="パス_17147" data-name="パス 17147" d="M-372.118,4632.9l-.013.052Z" fill="#4b4b4b"/>
            <path id="パス_17148" data-name="パス 17148" d="M-364.93,4654.07l-.03,0Z" fill="#4b4b4b"/>
            <path id="パス_17149" data-name="パス 17149" d="M-368.339,4657.573l.02.037-.005,0Z" fill="#4b4b4b"/>
            <path id="パス_17150" data-name="パス 17150" d="M-379.251,4664.536l0-.021.068.009Z" fill="#4b4b4b"/>
            <path id="パス_17151" data-name="パス 17151" d="M-371.057,4659.666l-.022-.008a2.052,2.052,0,0,1,.345-.235l.054.044Z" fill="#4b4b4b"/>
            <path id="パス_17152" data-name="パス 17152" d="M-373.572,4662.783l.27-.288c-1.143.528-1.6.888-2.615,1.269l.069,0c-.124.091-.362-.11-1.717.922l.008.011c-.055.023-.069,0-.158.081l.225-.193a3.528,3.528,0,0,0-.571.154c-.038.034-.039.064-.032.083l-.537.228-.115.146c-.185.037-.208-.147-.582.136.094-.179-.253.038-.234-.04l-.078.1a4.771,4.771,0,0,1-.913.3,13.129,13.129,0,0,0,1.053-.92c-.341.2-.1.031-.054-.037l.04.015c.2-.125.157-.191.252-.259l.006.021-.02,0,.024.022c.007.015.024.022.08-.009l-.016,0a2.239,2.239,0,0,0,.309-.152l-.034-.055c.226.029.967-.66,1.178-.764.169-.17.489-.211.733-.373.413-.221.16-.181.342-.329.243-.162-.012.088.1.041l.268-.228c-.189.082-.11,0-.091-.035.271-.14.629-.456.787-.389.331-.233.3-.277.456-.36-.039.046-.131.115-.117.137.113-.12.078-.023.025.017.262-.06,1.02-.777,1.145-.688l-.015-.022c.113.06.092.187.28.154l.075-.093.182-.044c.084-.082.016-.078.008-.089a4.576,4.576,0,0,0,.888-.5l-.141.411c.214-.2.586-.562.694-.515l.091-.163c.388-.432.4-.135.571-.293l.181-.231-.246.148a3.57,3.57,0,0,0,.438-.449h0l-.014.027.036-.019a.6.6,0,0,0,.386-.135,3.088,3.088,0,0,0,.788-.549l.169.018.237-.239-.061-.065c-.265.2-.82.509-1.2.727l-.032-.026c.218-.134.492-.257.63-.351.062-.054.169-.242,0-.2l.187-.024a7.728,7.728,0,0,0,1.357-1.037l-.028.076c.155-.086.311-.172.295-.251a3.948,3.948,0,0,0,.951-.976l.136.021c.076-.075.072-.282.227-.222l.209-.122c.1-.1.221-.124.3-.271h0l.014-.028.006.006c.209-.248.081.065.3-.231.022-.131.2-.015.312-.161v-.22c.156-.285.324-.238.661-.58.114-.194.052-.354-.137-.3.25-.082.137-.023.367-.2-.025-.062-.055-.046-.138-.027.09-.219.139-.087.25-.228.13.014.325.053.369.01l-.014.072a1.215,1.215,0,0,0,.428-.475l-.056-.019.165-.179-.058-.044.2-.271-.007.047a1.66,1.66,0,0,0,.263-.407l-.04-.011c.122-.392.452-.618.667-1.05l-.108.029c-.006-.172.143,0,.191-.185l-.094-.041c.207-.11.072-.206.076-.325l.105.089.073-.206c.067-.23-.1-.18-.183-.169l.171-.119-.106-.062c.175-.074.018-.116.16-.291-.038-.028-.081.015-.076-.055l.281-.281-.143.176.18.018c.205-.173.081-.28.182-.415l-.088.09c.128-.228.059-.257.069-.4.018.047.043.12.1.029.036-.069-.047-.05-.042-.12.129.008.234-.157.212-.326l-.047.009c.028-.038.063-.054.05-.129l-.14.021.155-.116c-.015-.1.11-.214.018-.214l-.038.047.123-.686-.1-.02c.169-.053.021-.374.191-.337-.087-.137.122-.507-.092-.442.018-.446.287-.689.157-1.236-.192-.189-.106-.722-.179-1.065a8.729,8.729,0,0,0-.137-1.822c-.316-.36-.241-1.031-.538-1.426l.047-.147c-.253-.236-.318-.713-.646-1.048a.836.836,0,0,0-.03-.189.1.1,0,0,0,.1.02c-.09-.1-.194-.327-.29-.264l.006.031c-.1.065-.157-.343-.327-.416l.158.009-.149-.191.012.064c-.344-.99-.984-1.172-1.468-2.032-.022.175-.078-.186-.211-.11-.325-.077-.288-.365-.414-.533l.01-.026-.292-.237c.018.264-.078-.275-.051-.04a31.1,31.1,0,0,0-2.788-1.984l.073-.007a3.216,3.216,0,0,0-.79-.421c-.243-.051-.359-.331-.432-.38-.165-.19-.477-.147-.371-.112-.229-.131-.366-.373-.744-.474-.188.058-.864-.533-.967-.388l0-.013c-.51-.072-.829-.43-1.388-.485l.016.029-.815-.787.529-.407,1.138-.1a23.3,23.3,0,0,1,2.423,1.078,20.787,20.787,0,0,1,1.979.816,20.973,20.973,0,0,1,3.976,3l.139.323a12.727,12.727,0,0,1,2.144,2.363l-.1.071c.146.239.2.191.261.241a14.4,14.4,0,0,1,2.077,7.13c.11.221-.008.893.057,1.07-.19.744-.388,1.51-.539,2.246l.019-.025-.1.341.031.011a5.465,5.465,0,0,0-.484,1.463l.023-.024c-1.126,2.734-3.225,4.829-5.468,6.873a30.825,30.825,0,0,1-3.884,2.773A22.343,22.343,0,0,1-373.572,4662.783Z" fill="#4b4b4b"/>
            <path id="パス_17153" data-name="パス 17153" d="M-378.093,4664.82l.012,0C-378.057,4664.853-378.084,4664.847-378.093,4664.82Z" fill="#4b4b4b"/>
            <path id="パス_17154" data-name="パス 17154" d="M-372.653,4660.737l-.018.012.031-.09Z" fill="#4b4b4b"/>
            <path id="パス_17155" data-name="パス 17155" d="M-376.554,4662.694c.17-.1.185-.092.169-.064Z" fill="#4b4b4b"/>
            <path id="パス_17156" data-name="パス 17156" d="M-379.607,4665.435c-.092.047-.071.007-.032-.044l.168-.069Z" fill="#4b4b4b"/>
            <path id="パス_17157" data-name="パス 17157" d="M-379.553,4664.739l-.05-.017C-379.542,4664.7-379.538,4664.716-379.553,4664.739Z" fill="#4b4b4b"/>
          </g>
        </g>
        <g id="グループ_1487" data-name="グループ 1487">
          <path id="パス_17158" data-name="パス 17158" d="M-383.1,4661.046c.736,5.417,3.935,9.251,6.988,13.464-4.692.934-12.752-5.82-15.637-8.748" fill="#fff"/>
          <g id="グループ_1486" data-name="グループ 1486">
            <path id="パス_17159" data-name="パス 17159" d="M-380.062,4670.575Z" fill="#4b4b4b"/>
            <path id="パス_17160" data-name="パス 17160" d="M-381.028,4672.363l-.009,0,.008-.066Z" fill="#4b4b4b"/>
            <path id="パス_17161" data-name="パス 17161" d="M-382.606,4671.7h-.013C-382.611,4671.692-382.605,4671.678-382.606,4671.7Z" fill="#4b4b4b"/>
            <path id="パス_17162" data-name="パス 17162" d="M-377.528,4673.693l.025.014Z" fill="#4b4b4b"/>
            <path id="パス_17163" data-name="パス 17163" d="M-381.68,4667.641l0,.008-.023-.01Z" fill="#4b4b4b"/>
            <path id="パス_17164" data-name="パス 17164" d="M-381.7,4667.693c.036.027.026-.027.022-.045a.139.139,0,0,1,.083.109C-381.629,4667.775-381.665,4667.7-381.7,4667.693Z" fill="#4b4b4b"/>
            <path id="パス_17165" data-name="パス 17165" d="M-383.628,4661.84l-.012.021Z" fill="#4b4b4b"/>
            <path id="パス_17166" data-name="パス 17166" d="M-377.89,4675.557l.03.012Z" fill="#4b4b4b"/>
            <path id="パス_17167" data-name="パス 17167" d="M-383.4,4662.785l-.057.025Z" fill="#4b4b4b"/>
            <path id="パス_17168" data-name="パス 17168" d="M-381.029,4672.292v0Z" fill="#4b4b4b"/>
            <path id="パス_17169" data-name="パス 17169" d="M-383.99,4670.907l-.032.035,0,0Z" fill="#4b4b4b"/>
            <path id="パス_17170" data-name="パス 17170" d="M-391.02,4666.567l.02-.014-.006.054Z" fill="#4b4b4b"/>
            <path id="パス_17171" data-name="パス 17171" d="M-385.96,4669.865l.007-.022a.751.751,0,0,1,.229.139l-.038.065Z" fill="#4b4b4b"/>
            <path id="パス_17172" data-name="パス 17172" d="M-388.989,4669.728l.286.038a14.2,14.2,0,0,1-1.377-1.2l.007.049c-.1-.038.083-.322-1-.74l-.01.011c-.027-.027-.006-.049-.089-.07l.2.057a1.448,1.448,0,0,0-.185-.332l-.082.022-.252-.27-.149-.007c-.046-.116.132-.227-.164-.353.18-.023-.048-.167.029-.193l-.1,0a1.645,1.645,0,0,1-.335-.514,5.838,5.838,0,0,0,.945.3c-.2-.146-.035-.058.034-.059l-.013.037c.132.076.194.011.265.043l-.02.016,0-.015-.022.029c-.014.013-.02.028.013.052v-.012l.162.142.052-.055c-.018.183.686.342.8.432.173.027.23.236.4.323.234.177.182.014.335.062.169.083-.086.042-.033.093l.235.063c-.091-.089-.009-.078.027-.085.153.113.467.2.415.353.24.111.278.065.368.128-.046,0-.118-.029-.138-.006.121.013.027.043-.015.028.081.149.8.3.72.446l.019-.023c-.049.118-.169.174-.127.3l.091,0,.052.111c.082.015.074-.034.083-.045a1.874,1.874,0,0,0,.524.372l-.386.124c.192.051.548.128.511.236l.155-.023c.418.053.146.231.3.265l.221.01-.148-.106a2,2,0,0,0,.431.089v0l-.025,0,.018.018c-.017.062.035.151.14.223.158.092.219.253.531.313l-.012.143.223.062.056-.082c-.181-.112-.486-.375-.7-.542l.023-.04c.13.1.254.24.347.295.052.016.223,0,.181-.1l.027.135a3.393,3.393,0,0,0,.967.541l-.068.014c.075.089.155.17.225.119a2.132,2.132,0,0,0,.87.3l-.02.125c.063.032.244-.063.189.095l.1.119c.088.039.106.126.235.122h0l.025,0-.005.008c.214.062-.054.09.2.155.11-.034,0,.173.123.21l.188-.087c.236.025.189.19.474.331.163.014.292-.082.26-.24.053.2.011.117.141.265.053-.045.041-.066.031-.135.176,0,.063.1.174.147-.021.124-.065.314-.032.339l-.059.012a.458.458,0,0,0,.371.208l.02-.056.135.089.04-.066.2.11-.037.007a.734.734,0,0,0,.306.124l.013-.041c.307,0,.464.213.773.332l-.014-.1c.131-.048-.012.137.127.137l.038-.1c.07.171.152.018.241-.008l-.074.123.152.019c.17-.01.141-.151.138-.226l.078.129.05-.116c.043.156.082-.007.2.1.021-.044-.007-.077.043-.087l.187.219-.12-.1-.019.181c.117.166.2.023.289.1l-.061-.069c.159.081.181.008.275-.028-.032.031-.083.078-.02.106.047.013.035-.062.082-.078a.151.151,0,0,0,.22.144l-.007-.046c.026.022.038.054.087.029l-.019-.136.082.134c.062-.032.147.073.142-.018l-.034-.03a1.351,1.351,0,0,0,.437-.038v-.108c.052.142.218-.078.225.107.065-.107.329.044.244-.156l.025,0h0l-.64,1.633h0v0l0,0-.005-.006-.009-.013-.032-.05-.053-.1-.083-.2a.978.978,0,0,0-.29-.412c-.23-.016-.426-.38-.6-.587-.253-.47-.4-.79-.676-1.262-.392-.12-.411-.707-.724-.922l.024-.136c-.262-.1-.31-.51-.624-.7a.562.562,0,0,0-.032-.151c.013.01.041.019.1-.01-.09-.054-.154-.241-.249-.161l0,.027c-.1.082-.11-.274-.256-.306l.143-.023-.116-.141.005.055c-.161-.827-.732-.889-.86-1.676-.079.158,0-.166-.146-.1-.264-.067-.129-.327-.154-.486l.02-.023-.144-.227c-.1.234.055-.246-.026-.038a12.018,12.018,0,0,1-1.082-2.18l.062.014c-.1-.182-.108-.455-.237-.576s.018-.371.008-.431c.032-.19-.183-.285-.152-.218-.034-.184.09-.4-.062-.619-.209-.036-.017-.71-.2-.674l.015-.006c-.2-.292-.03-.641-.217-.962l-.023.023.437-.782.67.1.622.473a11.019,11.019,0,0,0,.228,1.509l.562,1.1a20.55,20.55,0,0,0,1.185,2.729l-.023.259c.48.4.667,1.193,1.157,1.647l-.1.079c.091.159.148.106.19.132a33.073,33.073,0,0,0,2.9,4.147c.157.074.391.476.531.521l.036.094,0,.011,0,.006h0l-.677,1.728h-.006l-.031,0-.061,0-.243-.011-.48,0a7.1,7.1,0,0,1-.913-.022l.022.015-.275-.045-.008.033a4.655,4.655,0,0,0-1.149-.164l.017.018c-2.115-.5-3.644-1.627-5.43-2.5a25.046,25.046,0,0,1-2.572-1.632A9.4,9.4,0,0,1-388.989,4669.728Z" fill="#4b4b4b"/>
            <path id="パス_17173" data-name="パス 17173" d="M-391.237,4667.561l.005.006C-391.268,4667.6-391.263,4667.582-391.237,4667.561Z" fill="#4b4b4b"/>
            <path id="パス_17174" data-name="パス 17174" d="M-387.027,4669.251l-.011-.007.085-.027Z" fill="#fff"/>
            <path id="パス_17175" data-name="パス 17175" d="M-389.1,4667.5c.1.067.1.08.073.085Z" fill="#4b4b4b"/>
            <path id="パス_17176" data-name="パス 17176" d="M-391.917,4666.778c-.051-.044-.011-.048.041-.045l.076.087Z" fill="#4b4b4b"/>
            <path id="パス_17177" data-name="パス 17177" d="M-391.232,4666.457l.014-.044C-391.2,4666.446-391.209,4666.457-391.232,4666.457Z" fill="#4b4b4b"/>
          </g>
        </g>
        <g id="グループ_1489" data-name="グループ 1489">
          <path id="パス_17178" data-name="パス 17178" d="M-375.26,4631.245c8.891-3.251,7.149-13.222,3.646-18.9-9.013-14.609-31.062-17.411-49.128-16.642-14.661.625-31.049,2.914-43.959,9.414-15.151,7.63-24.594,26.366-3.966,33.51" fill="#fff"/>
          <g id="グループ_1488" data-name="グループ 1488">
            <path id="パス_17179" data-name="パス 17179" d="M-391.14,4597.939c.074.019.106.036,0,0Z" fill="#4b4b4b"/>
            <path id="パス_17180" data-name="パス 17180" d="M-449.562,4598.652l-.055.015-.131-.018Z" fill="#4b4b4b"/>
            <path id="パス_17181" data-name="パス 17181" d="M-458.544,4601.611l-.052.024C-458.6,4601.623-458.614,4601.615-458.544,4601.611Z" fill="#4b4b4b"/>
            <path id="パス_17182" data-name="パス 17182" d="M-427.9,4595.438a.86.86,0,0,1,.161,0Z" fill="#4b4b4b"/>
            <path id="パス_17183" data-name="パス 17183" d="M-376.518,4605.613l-.027-.026.082.053Z" fill="#4b4b4b"/>
            <path id="パス_17184" data-name="パス 17184" d="M-376.619,4605.472c-.158-.116.015.056.074.115l-.5-.41C-377.013,4605.154-376.711,4605.426-376.619,4605.472Z" fill="#4b4b4b"/>
            <path id="パス_17185" data-name="パス 17185" d="M-371.736,4629.947l.081-.052Z" fill="#4b4b4b"/>
            <path id="パス_17186" data-name="パス 17186" d="M-428.693,4597.09l.141,0A.866.866,0,0,1-428.693,4597.09Z" fill="#4b4b4b"/>
            <path id="パス_17187" data-name="パス 17187" d="M-368.956,4626.191l.076-.03C-368.92,4626.195-368.942,4626.2-368.956,4626.191Z" fill="#4b4b4b"/>
            <path id="パス_17188" data-name="パス 17188" d="M-449.749,4598.65h0Z" fill="#4b4b4b"/>
            <path id="パス_17189" data-name="パス 17189" d="M-466.441,4605.164l-.016.054-.022.012Z" fill="#4b4b4b"/>
            <path id="パス_17190" data-name="パス 17190" d="M-473.585,4636.322l-.034.006-.112-.115Z" fill="#4b4b4b"/>
            <path id="パス_17191" data-name="パス 17191" d="M-475.246,4612.4l-.042.018a11.719,11.719,0,0,1,.9-.985l.085.011Z" fill="#4b4b4b"/>
            <path id="パス_17192" data-name="パス 17192" d="M-479.141,4622.8a8.014,8.014,0,0,1,.1-1.021,11.822,11.822,0,0,0,.071,7.43l-.028-.151c.354.25-.556.979,2.949,4.267l.012-.008a1.967,1.967,0,0,0,.361.334l-.665-.513a8.494,8.494,0,0,0,1.1,1.137c.125.079.185.09.213.084a11.721,11.721,0,0,0,1.342.987l.491.218a3.312,3.312,0,0,0,1.394.922c-.556-.14.588.377.4.342.076.017.239.067.372.1.746.4,2.284.979,2.629,1.189-.007.027-3.333-.985-4.183-1.385,1.088.557.273.167.035.085l-.051-.064c-.66-.326-.713-.264-1.05-.423l.034-.007.034.03c.039.006.028-.011,0-.036.021-.011-.006-.03-.171-.137l.026.028c-.245-.175-.689-.451-.883-.571l-.052.047c-.393-.332-2.971-2.06-3.325-2.685a8.5,8.5,0,0,1-1.382-1.966,12.891,12.891,0,0,0-.745-1.165c-.367-.773.148.134.024-.183a6.286,6.286,0,0,1-.421-.929c.152.566.021.271-.036.174a5.9,5.9,0,0,1-.464-2.468,9.828,9.828,0,0,1-.159-1.679,2.671,2.671,0,0,0,.067.508c-.052-.471.023-.225.031-.033-.042-.711.2-3.743.506-3.853l-.029-.005c.167-.141.2.139.415-.332l.045-.333.232-.466c.084-.329-.007-.18-.021-.183.33-.771.781-1.847,1.269-2.752l-.209,1.059a9.5,9.5,0,0,1,1.179-2.286l.192-.481c.831-1.535.8-.962,1.174-1.551l.461-.754-.558.7c.49-.735.719-1.011,1.124-1.6l.007,0-.044.075.086-.093a5.918,5.918,0,0,0,.918-.84c.627-.657,1.192-1.114,2.225-2.146l.366-.168.819-.74-.067-.059a35.432,35.432,0,0,0-3.4,2.986l-.051-.006c.568-.589,1.291-1.2,1.692-1.572.188-.186.634-.694.209-.407l.458-.28a50.867,50.867,0,0,1,4.662-3.42l-.2.166a6.269,6.269,0,0,0,1.155-.7c1.57-.918,3.3-1.633,4.3-2.239l.287-.019c.345-.162.795-.53,1.035-.483l.769-.3a14.281,14.281,0,0,0,1.362-.5h0l0,0,.1-.049,0,.01c1.1-.441.029.084,1.289-.427.383-.212.511-.049,1.126-.293l.57-.355a19.7,19.7,0,0,1,3.055-.864c.792-.277,1.145-.5.568-.45a6.827,6.827,0,0,0,1.369-.235c.133-.093.025-.074-.208-.058a7.527,7.527,0,0,1,1.211-.295,2.31,2.31,0,0,0,.711.093l-.248.087a17.573,17.573,0,0,0,2.3-.481l-.044-.041.879-.169.038-.074,1.252-.256-.166.054c.3-.047,1.256-.269,1.807-.379l-.029-.032c1.544-.374,2.87-.451,4.706-.75l-.254-.031c.613-.176.191.078.93-.078l.022-.093a3.331,3.331,0,0,0,1.3-.234l-.194.143.853-.132c.938-.158.558-.22.411-.263l.657.01.111-.118c.487.06.468-.078,1.3-.118.063-.047-.148-.044.13-.1l1.379-.015-.829.027.118.138c.866.008,1.157-.128,1.772-.147l-.426-.007a9.77,9.77,0,0,0,1.608-.2c-.172.043-.435.108-.029.092.3-.018.156-.067.435-.108a3.348,3.348,0,0,0,1.441-.021l-.068-.032a2.1,2.1,0,0,0,.541-.03l-.178-.1.562.057c.368-.069.913-.016.86-.089l-.212-.01,2.8-.187.036-.092c.282.108,1.527-.133,1.441.026.525-.126,2.088-.041,1.772-.2,1.854-.069,2.851.056,5.1-.016a32.316,32.316,0,0,1,4.45-.024c2.816.2,4.623.4,7.472.751a54.49,54.49,0,0,1,6.087.927l.472.174c1.247.119,3.013.705,4.71,1.05.386.156.591.231.682.262a.38.38,0,0,0-.252,0c.481.108,1.4.439,1.384.322l-.114-.047a15.821,15.821,0,0,1,1.931.614l-.333,0,.867.308-.219-.106c3.578,1.622,5.372,2.175,8.3,4.272-.3-.37.528.458.669.382a5.973,5.973,0,0,1,1.871,1.5l.017.051.97.828c-.423-.619.566.7.168.142a24.376,24.376,0,0,1,6.541,8.9l-.108-.132c.371.843.659,1.937.9,2.591a5.341,5.341,0,0,1,.23,1.758c.064.748.239,1.423.22,1.1.055.81-.1,1.574-.123,2.7.232.415-.785,3.03-.729,3.08l-.02.008a8.893,8.893,0,0,1-2.85,3.795.711.711,0,0,0,.09-.047,12.765,12.765,0,0,1-3.489,1.37l.642-.881a7.387,7.387,0,0,0,2.013-1.829,8.552,8.552,0,0,0,2.834-6.031,15.736,15.736,0,0,0-.933-5.368c-1.263-4.3-4.291-8.12-8.032-11.219l-.77-.7a38.689,38.689,0,0,0-8.962-4.611l-.01-.119a4.4,4.4,0,0,0-1.069-.322c-8.256-2.929-17.757-3.918-25.967-3.784-.795.05-3.209.056-3.832.161-2.673-.034-5.529.128-8.2.356l.1,0-1.263.092c-.053.013-.058.026-.017.03a44.206,44.206,0,0,0-5.389.6h.1c-10.065,1.25-19.5,3.111-28.333,7.337a33.672,33.672,0,0,0-11.6,8.328,35.263,35.263,0,0,0-3.231,4.54A18.708,18.708,0,0,0-479.141,4622.8Z" fill="#4b4b4b"/>
            <path id="パス_17193" data-name="パス 17193" d="M-475.031,4634.359l-.028-.023C-475.021,4634.305-474.992,4634.351-475.031,4634.359Z" fill="#4b4b4b"/>
            <path id="パス_17194" data-name="パス 17194" d="M-478.629,4617.282l-.029.057.049-.237Z" fill="#4b4b4b"/>
            <path id="パス_17195" data-name="パス 17195" d="M-480.418,4629.431c-.188-.538-.171-.569-.132-.5C-480.488,4629.13-480.454,4629.306-480.418,4629.431Z" fill="#4b4b4b"/>
            <path id="パス_17196" data-name="パス 17196" d="M-471.009,4636.883c.289.128.164.1-.023.05-.29-.14-.493-.235-.493-.235Z" fill="#4b4b4b"/>
            <path id="パス_17197" data-name="パス 17197" d="M-472.551,4636.822l.065.079C-472.646,4636.8-472.631,4636.795-472.551,4636.822Z" fill="#4b4b4b"/>
          </g>
        </g>
        <g id="グループ_1490" data-name="グループ 1490">
          <path id="パス_17198" data-name="パス 17198" d="M-450.834,4616.862a1.739,1.739,0,0,1,.168.494,1.973,1.973,0,0,1,.157.518c-.012.24-.169.229-.181.47s.048.228.048.457.012.241.012.47.06.228.048.469.012.229,0,.457-.084.229-.084.47.1.229.084.458-.036.229-.036.469.024.229.024.458-.036.228-.036.457-.06.241-.06.47.06.228.06.458-.108.228-.108.468h.048a.8.8,0,0,1-.181.506.709.709,0,0,1-.505.109c-.012,0-.012-.025-.024-.025a.619.619,0,0,1-.542-.2c-.036,0-.048-.084-.084-.084h-.47c-.144,0-.313.084-.469.084-.265,0-.241.048-.47.048s-.241-.109-.469-.109-.241.109-.482.109-.229-.132-.469-.132-.229.156-.47.156-.229-.108-.469-.108-.229.108-.47.108h-.47c-.18,0-.325-.18-.445-.3a.588.588,0,0,1-.193-.434c0-.241-.084-.241-.084-.482s.084-.241.072-.481-.036-.229-.048-.47.012-.241.012-.481-.06-.23-.072-.47.084-.241.084-.481-.024-.23-.024-.47.06-.241.06-.481-.144-.229-.144-.47.12-.241.12-.47-.012-.24-.012-.481-.072-.242-.084-.47.036-.24.036-.482.012-.228,0-.469-.072-.241-.085-.482c0-.168.169-.289.29-.421a.64.64,0,0,1,.433-.229c.313,0,.385.193.65.036.241-.132.168-.265.289-.5s.024-.3.145-.542.144-.228.264-.47c.085-.168.265-.2.422-.264a.608.608,0,0,1,.482,0c.168.084.373.18.433.337s-.12.337-.205.494c-.108.216-.084.228-.192.445s-.278.229-.133.421c.157.217.229,0,.506,0s.264.012.53.012.264-.072.529-.072.277,0,.542.012a2.74,2.74,0,0,1,.542.06c.181.049.288.265.433.349a1.734,1.734,0,0,1,.4.326A2.081,2.081,0,0,1-450.834,4616.862Zm-5.3,2.734c-.168.18-.132.264-.06.542.06.24-.108.312.06.5.157.169.253-.048.482-.048h.469c.229,0,.229-.048.458-.048s.229.1.457.1.229.012.458.012h.457c.229,0,.229-.06.458-.06s.228-.084.457-.084.253.18.4.011c.181-.18.037-.2.037-.457s.276-.374.108-.566c-.156-.168-.3.12-.53.12s-.228-.12-.469-.12h-.458c-.229,0-.229-.023-.457-.023h-.47c-.228,0-.228.12-.457.12h-.458c-.228,0-.228-.025-.469-.025s-.325-.2-.47-.023Zm3.564-2.468c-.253-.013-.253.132-.518.132s-.252-.132-.505-.132-.253.132-.518.132-.253-.036-.506-.036-.253-.084-.517-.084-.253.048-.506.048-.337-.181-.518.012.024.265.024.541-.181.337-.012.53.241-.036.482-.036.228.084.469.084.229.025.458.025.241-.049.469-.049.229-.06.47-.06.229.024.469.024.229.085.458.085.241-.036.47-.036.252.072.445-.073c.132-.108.048-.144.048-.325a.791.791,0,0,0-.193-.53A.671.671,0,0,0-452.568,4617.128Zm.493,5.851c.181-.193.025-.217,0-.47-.048-.253.205-.3.025-.493s-.217-.109-.47-.109-.253.132-.518.132-.253-.036-.505-.036h-.506c-.253,0-.253-.024-.517-.024s-.253-.083-.506-.083-.253-.025-.506-.025-.3-.06-.482.12-.036.229-.036.482-.108.289.073.469.2.145.457.145.253-.061.506-.061.252-.108.505-.108.253.072.506.072.253.1.506.1.252-.036.505-.036.253-.145.506-.145.277.217.457.048Z" fill="#4b4b4b"/>
          <path id="パス_17199" data-name="パス 17199" d="M-443.5,4614.925c.06.156.156.36.072.529-.048.109-.169.241-.241.421-.06.133-.1.289-.168.446s-.133.288-.205.446-.229.24-.3.4c-.06.132-.084.313-.156.457s-.109.3-.181.445-.181.278-.253.422-.084.325-.156.457c-.073.157-.229.253-.3.386-.084.156-.1.324-.18.457a.757.757,0,0,1-.626.325c-.12,0-.193-.12-.3-.18-.157-.1-.337-.181-.385-.337a.806.806,0,0,1,.06-.554c.06-.121.144-.253.229-.409.072-.121.216-.217.3-.362.06-.132.132-.277.2-.421s.085-.3.157-.446.1-.3.156-.445.253-.229.325-.361a4.482,4.482,0,0,1,.229-.41c.06-.144.121-.3.181-.433.072-.156.108-.3.168-.434.072-.18.133-.325.181-.432l.06.036c.072-.169.133-.338.289-.4a.585.585,0,0,1,.482.073A.571.571,0,0,1-443.5,4614.925Zm3.816,3.683a.7.7,0,0,1,.253.446c0,.144-.012.3-.024.458s-.121.3-.132.457-.036.3-.061.457.1.325.061.482-.025.3-.061.457-.217.265-.253.409-.036.314-.072.458-.012.326-.06.469a4.365,4.365,0,0,1-.169.434c-.048.157-.1.3-.144.433a.666.666,0,0,1-.229.337.616.616,0,0,1-.4.073c-.012,0-.048.085-.06.085-.241-.025-.241-.013-.47-.037a.761.761,0,0,1-.494-.253.779.779,0,0,1-.18-.542.785.785,0,0,1,.229-.481c.12-.108.349-.084.517-.1.049-.144.024-.337.073-.506s.06-.324.1-.481.157-.312.193-.47.1-.324.132-.481-.06-.349-.036-.518.121-.276.132-.433c-.217-.084-.217-.024-.445-.024s-.229.06-.458.06-.216,0-.445.013c0,.011.012-.061,0-.049-.048.108-.193.216-.265.4-.048.133.048.337-.012.494-.048.132-.12.277-.18.421s-.217.253-.266.4-.084.3-.144.445c-.06.181-.132.361-.192.53-.073.193-.121.373-.169.518a1.757,1.757,0,0,0-.121.554.834.834,0,0,1-.276.336c-.121.073-.277,0-.41,0-.072,0-.18.157-.253.133-.18-.06-.264-.277-.336-.433a.751.751,0,0,1-.109-.531,1.439,1.439,0,0,0,.253-.445c.048-.144.024-.325.1-.506.048-.143.229-.264.289-.432s.12-.314.181-.47.036-.361.084-.518.145-.313.2-.458c.06-.168.12-.325.18-.469-.349-.073-.349.036-.71.036-.181,0-.3-.168-.422-.288s-.276-.242-.276-.422a.8.8,0,0,1,.168-.53.814.814,0,0,1,.53-.193c.229,0,.229.1.47.1s.228-.061.469-.061.241-.072.469-.072.23.133.47.133.229-.073.469-.073.229.121.47.121.229-.168.469-.168.229.059.47.059.229.049.47.049A.6.6,0,0,1-439.687,4618.608Zm2.191.47a.9.9,0,0,1-.265.506.74.74,0,0,1-.469.107.716.716,0,0,1-.53-.252c-.1-.121-.24-.229-.349-.361s-.144-.3-.253-.445c-.084-.133-.144-.3-.241-.446s-.216-.252-.313-.4-.18-.289-.276-.434-.145-.3-.229-.445-.205-.277-.289-.409c-.1-.157-.133-.325-.217-.458-.1-.156-.277-.253-.349-.385a.7.7,0,0,1,0-.542.608.608,0,0,1,.313-.361.526.526,0,0,1,.445-.048c.169.048.313.072.41.24.072.12.156.265.24.409s.242.23.326.374.108.313.192.446.217.253.3.385.132.3.217.445.192.253.277.386.192.276.277.4c.1.145.132.313.229.445s.192.277.288.385C-437.652,4618.765-437.484,4618.909-437.5,4619.078Z" fill="#4b4b4b"/>
          <path id="パス_17200" data-name="パス 17200" d="M-428.082,4619.476c-.145.059-.277.108-.409.168s-.289.1-.422.156-.253.169-.373.229-.349.073-.482.145a2.139,2.139,0,0,1,.205.445,2.017,2.017,0,0,1,.108.445c0,.037-.108.084-.108.121a.549.549,0,0,1-.229.409.526.526,0,0,1-.421.157c-.012,0-.012.023-.024.012-.18,0-.409.024-.518-.109a.679.679,0,0,1-.1-.517c0-.025-.1-.048-.1-.073,0-.047.024-.156.024-.205-.181.121-.253.386-.386.506a2.3,2.3,0,0,0-.3.3.754.754,0,0,0-.169.386c0,.084.06.144.1.24.036.121.036.313.229.422a2.158,2.158,0,0,0,.482.144,3.748,3.748,0,0,0,.662.037c.132,0,.265-.1.409-.122.12,0,.277.1.421.073s.277,0,.41-.024c.18-.036.4-.156.542-.06a.858.858,0,0,1,.313.494.758.758,0,0,1-.145.529.759.759,0,0,1-.445.325c-.169.036-.349-.024-.506,0s-.337.048-.505.061a3.615,3.615,0,0,1-.494.048l-.012-.012c-.157,0-.3-.072-.446-.085s-.313.013-.457-.012a3.137,3.137,0,0,1-.47-.108,3.443,3.443,0,0,1-.469-.133,3.106,3.106,0,0,1-.349-.348c-.121-.109-.289-.181-.374-.314a1.937,1.937,0,0,1-.192-.457,2.722,2.722,0,0,1,.012-.7,2.313,2.313,0,0,1,0-.506,2.64,2.64,0,0,1,.216-.457,2.365,2.365,0,0,1,.313-.386c.109-.133.121-.349.253-.457s.362-.193.53-.313a2.481,2.481,0,0,0-.445-.109c-.133-.011-.277-.024-.434-.024-.217,0-.349-.168-.481-.349s-.265-.386-.181-.59.181-.156.253-.361.048-.217.12-.422-.012-.24.072-.432.434-.23.326-.422c-.1-.157-.277.085-.458.1s-.193-.011-.373,0c-.012.012-.036-.036-.048-.036a.6.6,0,0,1-.446-.156.583.583,0,0,1-.156-.434.711.711,0,0,1,.072-.506.776.776,0,0,1,.481-.264c.241-.013.241.12.47.1s.229-.168.458-.181.313.241.493.121-.024-.277.048-.47.1-.18.169-.373.084-.192.156-.373l.036.012c.06-.181.253-.217.41-.277a.547.547,0,0,1,.457-.048.625.625,0,0,1,.374.325.763.763,0,0,1,.108.529c-.108.278-.4.23-.253.494.12.217.193-.024.445-.036s.266-.024.518-.036.253,0,.518-.012c.18-.012.3.132.433.241s.338.216.349.4a.752.752,0,0,1-.228.493.67.67,0,0,1-.47.2c-.228.012-.217.12-.433.133s-.217-.06-.434-.049-.216.061-.433.073-.229-.121-.446-.109-.3-.084-.469.061c-.193.144-.133.24-.217.469s-.06.241-.156.482-.193.217-.217.47c.144.036.4,0,.53.047s.24.193.373.265.241.12.361.205c.145-.085.325-.072.481-.144s.3-.157.47-.242c.145-.072.313-.131.47-.2s.3-.157.469-.229a.687.687,0,0,1,.494-.1.817.817,0,0,1,.385.373.731.731,0,0,1,0,.529A.732.732,0,0,1-428.082,4619.476Z" fill="#4b4b4b"/>
          <path id="パス_17201" data-name="パス 17201" d="M-419.15,4622.172c-.12.012-.265.036-.4.06-.06.289.072.3.072.6s.024.3.024.6c0,.179-.2.276-.325.4s-.228.277-.409.277a.76.76,0,0,1-.518-.156.746.746,0,0,1-.12-.517c0-.253.036-.253.036-.5s.1-.289,0-.517c-.169.024-.409.084-.59.108s-.349.025-.518.048-.337.133-.505.156l-.518.073c-.181.036-.349.1-.518.121l-.024-.145c-.036,0-.048.024-.084.024a.663.663,0,0,1-.457-.1.8.8,0,0,1-.229-.434.636.636,0,0,1,.192-.469.6.6,0,0,1,.41-.277c.108-.024.18-.06.289-.085.12-.2,0-.144,0-.445,0-.132-.024-.289-.024-.47,0-.143.1-.3.1-.469,0-.144-.024-.313-.024-.469s.024-.314.024-.47-.06-.313-.06-.47.108-.325.108-.469c0-.168-.024-.325-.024-.469,0-.181-.06-.338-.06-.47,0-.289-.06-.241-.06-.47s.011-.241.011-.469.266-.326.133-.53c-.084-.12-.229.1-.385.1a.748.748,0,0,1-.494-.216.727.727,0,0,1-.193-.494c0-.181.157-.289.277-.409s.229-.265.41-.265c.252,0,.192.06.493.06.157,0,.325-.1.506-.1.157,0,.325.012.506.012.156,0,.337.1.493.1.181,0,.35-.048.506-.048.181,0,.349.036.494.036h.5c.253,0,.253-.048.494-.048s.253.072.505.072a.536.536,0,0,1,.422.169c.12.12.277.24.277.421s-.157.3-.277.422a.626.626,0,0,1-.422.252c-.2,0-.216-.06-.4.024-.216.1.072.145.072.434,0,.133-.144.289-.144.457,0,.144.108.3.108.458s-.024.3-.024.457-.024.313-.024.47-.024.3-.024.458v.457c0,.169.024.325.024.458,0,.276.024.228.024.457s-.108.228-.108.457.048.229.132.433c.193-.023.338.037.506.013s.409-.121.541-.024a.778.778,0,0,1,.242.517.645.645,0,0,1-.169.482.619.619,0,0,1-.433.2C-418.9,4622.063-419.017,4622.147-419.15,4622.172Zm-2.263-6.393c-.277.036-.337-.12-.542.073-.18.168-.084.24-.084.493s-.121.349.072.517c.205.194.289-.072.566-.072s.373.289.578.1c.18-.169,0-.289,0-.542s.1-.277-.084-.446C-421.112,4615.707-421.148,4615.731-421.413,4615.779Zm-.542,2.793c.048.253-.229.385-.036.554.2.192.3-.1.578-.108s.337.192.542.011c.18-.168.084-.228.084-.481s.12-.337-.06-.493c-.205-.193-.277.084-.554.084s-.313-.229-.518-.036C-422.1,4618.283-421.991,4618.319-421.955,4618.572Zm.554,2.637c.181-.036.289-.108.469-.145.073-.192.036-.18.036-.385s.181-.265.013-.385c-.229-.169-.241.048-.518.06s-.337-.229-.542-.036c-.181.168-.1.229-.1.469a.986.986,0,0,0,.06.494C-421.786,4621.257-421.594,4621.232-421.4,4621.209Zm6.031.2c.1.133.278.193.374.3.1.132.168.264.265.373.12.144.216.253.313.349a.7.7,0,0,1,.156.5.811.811,0,0,1-.168.518.806.806,0,0,1-.506.192.751.751,0,0,1-.47-.264c-.1-.109-.252-.2-.373-.349-.108-.121-.2-.266-.313-.409s-.2-.277-.313-.41c-.1.121-.157.277-.253.4s-.264.193-.373.314-.18.264-.289.384l-.337.337a.614.614,0,0,1-.457.121c-.169,0-.4.073-.53-.06a.848.848,0,0,1-.229-.542c.012-.168.217-.276.349-.409s.133-.362.253-.493.349-.169.458-.314.192-.289.3-.434.168-.312.264-.457c-.084-.12-.192-.216-.264-.336s-.133-.266-.217-.4-.048-.3-.132-.434-.205-.216-.277-.348a4.2,4.2,0,0,1-.253-.361c-.072-.133-.109-.278-.169-.41a.747.747,0,0,1-.06-.53.731.731,0,0,1,.349-.409.707.707,0,0,1,.542.012.638.638,0,0,1,.373.337c.072.132.157.265.229.4a3.182,3.182,0,0,0,.18.422c.072.132.229.217.314.348s.084.278.168.41c.072-.145.169-.265.241-.421s.12-.314.192-.458.085-.324.145-.482.229-.276.289-.432-.012-.325-.012-.422c0-.156.024-.2-.012-.24s-.1.011-.277.011c-.265,0-.265-.108-.53-.108s-.253.024-.518.024-.264.036-.529.036-.265-.108-.53-.108a.545.545,0,0,1-.433-.144c-.121-.122-.313-.253-.313-.447a.726.726,0,0,1,.264-.481.615.615,0,0,1,.482-.145c.265,0,.265-.072.53-.072s.265-.023.529-.023.265.144.53.144.253-.049.518-.049a1.866,1.866,0,0,1,.445-.023c.145.036.241.18.373.253a1.233,1.233,0,0,1,.35.228,1.082,1.082,0,0,1,.252.325,1.562,1.562,0,0,1,.157.4,1.766,1.766,0,0,1,.1.421,2.8,2.8,0,0,1,.012.458c-.036.143-.192.252-.252.4s-.049.326-.109.47-.144.289-.2.434-.181.277-.242.421-.011.349-.083.482-.277.228-.35.36-.156.326-.24.458C-415.6,4621.16-415.466,4621.293-415.37,4621.413Z" fill="#4b4b4b"/>
          <path id="パス_17202" data-name="パス 17202" d="M-407.11,4619.415a.585.585,0,0,1-.326.349c-.2.1-.2.085-.409.18a4.2,4.2,0,0,0-.385.205c-.2.084-.181.145-.373.242s-.217.059-.421.143-.181.133-.386.217c-.084.036-.2-.048-.3-.048a.575.575,0,0,1-.373-.084.672.672,0,0,1-.313-.566c.012-.24-.036-.24-.024-.482s.048-.24.06-.481.012-.229.024-.47-.072-.24-.072-.481.12-.229.132-.47-.048-.24-.048-.469.036-.241.036-.482-.036-.24-.024-.469.072-.241.072-.47a.65.65,0,0,1,.157-.481.691.691,0,0,1,.481-.217.745.745,0,0,1,.446.265.687.687,0,0,1,.241.457c-.012.229.012.229.012.458s-.133.228-.133.469.073.229.06.458-.011.228-.011.458.048.24.036.468-.085.23-.085.458-.168.325.037.421c.264.109.252-.072.517-.18s.229-.193.494-.313c.168-.072.349.072.517.133a.545.545,0,0,1,.362.288A.551.551,0,0,1-407.11,4619.415Zm2.973-1.4c-.012.156.024.312.012.469s-.06.313-.072.482.012.312,0,.469-.072.313-.1.469.108.35.084.506-.192.265-.229.4a3.958,3.958,0,0,1-.1.433c-.048.145,0,.325-.072.457a2.678,2.678,0,0,1-.265.373c-.085.121-.253.169-.349.289a3.378,3.378,0,0,1-.289.325,4.021,4.021,0,0,1-.4.229c-.121.085-.193.277-.325.338s-.337,0-.482.036a3.279,3.279,0,0,1-.421.192,3.094,3.094,0,0,1-.47.024v-.084c-.156,0-.3.072-.445.06s-.3-.011-.446-.047a.733.733,0,0,1-.445-.326c-.1-.144-.024-.338.024-.517s.048-.4.2-.494a.825.825,0,0,1,.541-.025,2.466,2.466,0,0,0,.566.157,2.781,2.781,0,0,0,.445-.085,2.467,2.467,0,0,0,.458-.108,2.024,2.024,0,0,0,.4-.265,2.073,2.073,0,0,0,.277-.348c.085-.109.036-.314.1-.446s.2-.229.241-.374a2.555,2.555,0,0,0,.036-.445c.025-.144.145-.265.157-.421s.06-.289.072-.433.024-.289.036-.446.024-.289.036-.445-.132-.289-.132-.445.036-.289.036-.434.084-.289.084-.433-.072-.29-.072-.434,0-.289-.012-.434-.012-.289-.024-.433a.673.673,0,0,1,.133-.505.814.814,0,0,1,.457-.314.792.792,0,0,1,.493.253.658.658,0,0,1,.217.446c.012.156.109.3.121.458s0,.312,0,.468-.073.314-.073.458.1.313.1.47S-404.137,4617.85-404.137,4618.019Z" fill="#4b4b4b"/>
          <path id="パス_17203" data-name="パス 17203" d="M-392.681,4618.861a.8.8,0,0,1-.494.265c-.228,0-.228-.1-.445-.1s-.217.049-.445.049-.253-.157-.458-.06c.012.18.132.4.132.566s-.048.349-.048.518a3.242,3.242,0,0,1,.53.18c.18.036.373.06.457.2a.759.759,0,0,1,.145.531.758.758,0,0,1-.361.409.7.7,0,0,1-.494.12,1.408,1.408,0,0,1-.205-.036c-.011.18-.12.3-.144.469a3.323,3.323,0,0,1-.108.494,2.662,2.662,0,0,1-.157.469,2.6,2.6,0,0,1-.289.422,2.412,2.412,0,0,1-.361.337,1.7,1.7,0,0,1-.482.168,2.194,2.194,0,0,1-.481.121c-.156.024-.313.217-.482.217-.012,0-.012-.121-.012-.121s-.012.049-.012.049-.012.036-.024.036a2.129,2.129,0,0,1-.554-.049,2.1,2.1,0,0,1-.493-.253,2.189,2.189,0,0,1-.433-.312c-.145-.12-.35-.193-.446-.35a1.883,1.883,0,0,1-.217-.506c-.048-.18.084-.373.084-.554,0-.011-.168-.023-.168-.059,0-.156.12-.3.156-.445s.049-.314.109-.447.229-.216.337-.324a1.549,1.549,0,0,1,.313-.313,1.894,1.894,0,0,1,.349-.289c.132-.06.3-.048.445-.1s.29-.072.434-.1.289-.012.445-.012c.193-.012.373-.072.554-.072.072,0,.06-.013.132-.013-.011-.144.025-.264.013-.432,0-.145.12-.314.108-.47,0-.013-.084-.049-.084-.049-.241-.011-.241.121-.494.121s-.241-.132-.482-.121-.24.036-.481.036-.241-.011-.481-.011h-.482c-.253,0-.241.12-.494.12v-.156c-.18,0-.385.036-.505-.084a.818.818,0,0,1-.253-.506.816.816,0,0,1,.253-.506c.12-.12.313-.1.493-.1.241,0,.241-.108.482-.121s.229.061.469.061.241-.012.47-.012.24-.049.469-.049.241-.036.47-.048.289.229.505.156c-.012-.156.024-.409,0-.565s-.084-.386-.108-.542c-.241-.084-.277.061-.541.048s-.253.049-.518.049-.253-.049-.506-.061h-.517c-.253-.012-.253.1-.518.084a.758.758,0,0,1-.506-.253.7.7,0,0,1-.1-.505.579.579,0,0,1,.18-.445.58.58,0,0,1,.446-.133c.241.012.241-.036.469-.036s.241-.084.47-.084.228.1.47.109.228.047.457.047a1.622,1.622,0,0,0,.482.012c-.013-.072.047-.253.036-.325l-.121.024a.74.74,0,0,1,.121-.529.814.814,0,0,1,.445-.325c.181-.036.349.12.494.217a.634.634,0,0,1,.253.409,4.7,4.7,0,0,0,.12.481c.2.073.217.012.433.012s.217-.072.433-.06.217.132.434.132a.521.521,0,0,1,.409.181c.121.12.3.241.3.422a.8.8,0,0,1-.2.517.825.825,0,0,1-.518.229l-.012-.036c-.265,0-.265-.109-.53-.109a1.082,1.082,0,0,0-.517.109c.011.156.072.217.084.373s-.048.386-.036.542c.216.072.253-.12.482-.133s.24-.012.469-.012.229.025.469.025a.731.731,0,0,1,.506.168c.12.121.084.325.084.517S-392.561,4618.741-392.681,4618.861Zm-3.142,2.516c-.073,0-.1-.012-.181-.012-.156,0-.325.061-.494.061a2.967,2.967,0,0,0-.493.036,1.185,1.185,0,0,0-.446.192c-.192.145-.349.229-.373.47,0,0,.024,0,.024.012s.073,0,.073.011a.622.622,0,0,0,.156.458.983.983,0,0,0,.65.241.012.012,0,0,1,.012-.012l.012-.133a1.409,1.409,0,0,0,.687-.071.992.992,0,0,0,.313-.542,1.427,1.427,0,0,0,.144-.361C-395.715,4621.618-395.823,4621.521-395.823,4621.377Z" fill="#4b4b4b"/>
          <path id="パス_17204" data-name="パス 17204" d="M-383.406,4622.99a.514.514,0,0,1-.433.217.489.489,0,0,1-.373-.144c-.193-.157-.241-.012-.47-.205-.109-.1-.156-.3-.289-.421-.12-.1-.313-.132-.446-.241s-.252-.2-.373-.313-.252-.229-.373-.325-.192-.3-.313-.4c-.132-.12-.265-.216-.373-.312-.229-.193-.277-.048-.458-.217s-.168-.181-.361-.337a.757.757,0,0,1-.228-.434.746.746,0,0,1,.12-.469c.084-.132.132-.289.229-.421s.24-.205.337-.337.2-.23.3-.35.216-.228.313-.348.084-.35.18-.47.193-.253.289-.361.241-.217.349-.326.181-.264.289-.373.325-.12.434-.228.192-.266.3-.374.156-.288.265-.4l.036.036a.7.7,0,0,1,.493-.205.755.755,0,0,1,.506.205.806.806,0,0,1,.168.518.732.732,0,0,1-.168.518c-.121.108-.289.168-.4.276s-.228.217-.336.338-.241.2-.35.324-.144.289-.253.41-.216.229-.313.349-.289.18-.385.3-.156.289-.253.409-.192.253-.288.386a4.6,4.6,0,0,0-.3.373c.049.228.193.084.41.264.108.1.253.181.385.289.108.109.133.337.253.434s.289.169.4.277c.133.109.289.181.4.277.216.18.144.192.324.349s.253.072.434.229.156.18.337.337a.835.835,0,0,1,.265.469C-383.117,4622.737-383.286,4622.858-383.406,4622.99Z" fill="#4b4b4b"/>
          <path id="パス_17205" data-name="パス 17205" d="M-427.454,4630.854c.192,0,.385-.023.505.1a.729.729,0,0,1,.193.506.8.8,0,0,1-.168.529.813.813,0,0,1-.53.217c-.217,0-.217-.108-.434-.108s-.264-.12-.421.036c-.156.181,0,.228,0,.47s.048.241.048.481-.06.241-.06.481.024.242.024.482-.072.241-.072.47.012.241.012.481a.712.712,0,0,1-.133.506c-.12.12-.324.084-.505.084,0,0,0,.121-.012.121a.688.688,0,0,1-.59-.373c-.241-.072-.253.06-.506.06h-.529c-.265.011-.265-.084-.53-.073s-.265.061-.518.061c-.012,0-.012.048-.012.048a.9.9,0,0,1-.542-.217.868.868,0,0,1-.156-.542c0-.265.084-.265.084-.518s-.072-.253-.072-.5-.048-.252-.037-.5.073-.253.073-.518.156-.313,0-.506c-.133-.156-.217.084-.422.084s-.216-.144-.421-.144-.253-.06-.433.048c-.217.121-.036.265-.036.518s.024.253.024.5-.06.253-.06.506.12.264.12.517-.036.242-.036.494-.144.253-.144.506.06.252.06.505-.073.253-.073.506a.746.746,0,0,0,.2.554l.012.024h.108c.1,0,.253.036.458.036.132,0,.289.084.458.084.144,0,.3-.084.457-.084s.313.1.469.1.3-.085.458-.085.313-.048.47-.048.3.109.457.109.313.047.457.047c.169,0,.325-.131.458-.131.18,0,.337-.013.469-.013a1.592,1.592,0,0,1,.458.06.7.7,0,0,1,.481.205.728.728,0,0,1,.229.482c0,.18-.156.324-.277.445s-.252.313-.433.313a1.389,1.389,0,0,0-.47-.072c-.12,0-.277-.073-.457-.073-.144,0-.3.109-.458.109s-.3.036-.469.036c-.145,0-.3-.06-.458-.06s-.3.036-.457.036-.313-.085-.458-.085c-.168,0-.313-.023-.469-.023s-.313-.036-.457-.036c-.169,0-.326.144-.458.144a4.359,4.359,0,0,1-.47-.085c-.012,0-.036.073-.06.073a1.574,1.574,0,0,1-.518-.145,1.879,1.879,0,0,1-.457-.265c-.133-.12-.325-.228-.4-.373a2.781,2.781,0,0,1-.1-.421c-.036-.132.048-.289.037-.421s-.121-.278-.121-.41c0-.252.048-.252.06-.5s-.048-.253-.036-.506-.024-.253-.024-.506.168-.24.168-.493-.023-.253-.023-.506-.013-.253-.013-.506.025-.252.025-.5.084-.265-.1-.445-.192-.145-.457-.145-.253.06-.506.06a.629.629,0,0,1-.47-.168.633.633,0,0,1-.144-.47.665.665,0,0,1,.121-.494.7.7,0,0,1,.493-.192c.265,0,.265-.036.518-.036s.385.277.578.1c.18-.156-.109-.289-.1-.542s.036-.241.036-.493.049-.241.061-.482h.036a.654.654,0,0,1,.12-.494.666.666,0,0,1,.506-.168.789.789,0,0,1,.53.144.872.872,0,0,1,.132.542c-.012.241.036.241.036.481s-.1.242-.1.482-.193.35-.036.53c.132.156.265-.024.469-.024s.217.048.422.048.276.085.4-.073c.168-.215.06-.264.06-.517s-.048-.265-.048-.53-.084-.264-.084-.53c0-.179.217-.312.337-.432a.528.528,0,0,1,.433-.145c.181,0,.373-.036.494.084a.651.651,0,0,1,.132.506c0,.265.1.265.1.517s-.024.265-.036.53-.144.265.036.47c.145.168.157.011.386.011s.229-.036.445-.036.253.193.41.025.132-.193.132-.434-.085-.24-.085-.493-.083-.241-.072-.482a.776.776,0,0,1,.265-.481.73.73,0,0,1,.494-.23c.181,0,.289.169.409.289a.585.585,0,0,1,.193.434c0,.241.144.241.144.481s-.048.242-.048.482-.18.277-.024.47c.144.156.193.072.41.072s.216.012.421.012Zm-2.215,2.939c.156-.169,0-.205-.049-.434s.1-.253.1-.481-.036-.23-.036-.458.168-.3,0-.457c-.157,0-.217.132-.446.132s-.229.036-.457.036-.361-.24-.518-.072.12.3.12.53-.072.24-.072.469.036.229.036.469-.132.242.036.41.157-.024.386-.024.228.12.457.12.277.1.446-.072Z" fill="#4b4b4b"/>
          <path id="パス_17206" data-name="パス 17206" d="M-415.7,4634.984a.927.927,0,0,1,.362.446c.036.169-.109.349-.193.506a.548.548,0,0,1-.53.276c-.12,0-.241.072-.337.013a3.353,3.353,0,0,1-.409-.326c-.133-.1-.289-.169-.421-.277s-.229-.253-.362-.373-.289-.181-.409-.3c0,.025-.036.048-.024.061,0,.264.084.264.1.529s-.12.265-.12.53.1.265.1.53-.06.264-.048.529.048.266.06.53a.71.71,0,0,1-.108.506.738.738,0,0,1-.506.168c-.012,0-.024.024-.024.024-.181,0-.289-.144-.409-.264a.547.547,0,0,1-.193-.4c-.012-.264-.024-.216-.036-.53-.012-.156,0-.337-.012-.529s-.084-.362-.1-.518c-.011-.3.073-.264.073-.53s.012-.265,0-.529c-.012-.193-.073-.4.036-.53a.859.859,0,0,1,.518-.205c.036,0,.06.048.084.048-.132-.12-.217-.265-.313-.361a1.853,1.853,0,0,0-.373-.3l.024-.036.012-.024h-.434c-.216,0-.216-.048-.433-.048a1.61,1.61,0,0,0-.421.06.6.6,0,0,1-.121.229s-.12.144-.337.361c.036,0,.012.012.048.012a.513.513,0,0,1,.385.241c.121.12.289.24.277.421,0,.013-.011.241-.048.566-.012.168-.024.362-.048.566-.024.144-.072.289-.084.445s-.144.277-.169.422.049.312.025.457a4.276,4.276,0,0,1-.073.433.627.627,0,0,1-.277.337.687.687,0,0,1-.4.194,1.08,1.08,0,0,1-.181-.036.735.735,0,0,1-.4-.362.635.635,0,0,1-.012-.494c.024-.1-.048-.3-.012-.517.024-.168.132-.326.157-.506s.011-.349.024-.518c.024-.192-.013-.385,0-.554a4.517,4.517,0,0,1,.084-.565c-.1.1-.169.24-.265.337s-.229.181-.325.276-.169.241-.265.338-.3.109-.4.193c-.133.108-.229.325-.386.325a.836.836,0,0,1-.541-.289.666.666,0,0,1-.1-.506.576.576,0,0,1,.228-.434c.1-.1.157-.253.289-.373.109-.108.289-.132.409-.253s.169-.276.277-.385.169-.277.277-.385c.025-.024.193-.012.229-.048a.367.367,0,0,0-.12-.025.629.629,0,0,1-.458-.156.646.646,0,0,1-.156-.457c0-.265-.025-.265-.025-.518s-.1-.265-.1-.518.145-.265.145-.518-.157-.252-.157-.517.157-.253.157-.518-.012-.253-.012-.506-.024-.264-.024-.517a.6.6,0,0,1,.18-.445c.133-.133.277-.3.446-.3h.505c.253,0,.253-.013.506-.013s.241.085.493.085.253.012.506.012.241-.048.494-.048.252.084.505.084.241-.133.494-.133.253.133.506.133.241-.084.493-.084a1.236,1.236,0,0,1,.566.144,1.614,1.614,0,0,1,.434.374,1.476,1.476,0,0,1,.361.457,1.488,1.488,0,0,1,.181.566,2.23,2.23,0,0,0-.133.493c0,.156.133.325.133.506,0,.156-.025.325-.025.493s-.012.338-.012.506.06.35.06.494a1.809,1.809,0,0,1-.06.493.688.688,0,0,1-.24.458.639.639,0,0,1-.458.168c-.048,0-.133.073-.169.061.109.108.3.144.422.253s.2.253.325.348.217.253.337.337c.144.109.349.085.469.145Zm-5.634-2.72c.193-.036.217.023.409.023s.349.241.458.072c.168-.264-.012-.337-.109-.637-.06-.193-.144.072-.349.072h-.4c-.205,0-.349-.3-.457-.133-.169.266-.049.361.12.626C-421.556,4632.456-421.52,4632.312-421.339,4632.264Zm.409-2.192c-.192,0-.192.061-.4.061s-.313-.265-.433-.1c-.157.241-.1.337.072.567.108.168.156.059.361.059s.2-.012.4-.012.338.181.446.012c.169-.24-.024-.312-.108-.578C-420.665,4629.892-420.725,4630.072-420.93,4630.072Zm3.01.012c-.2,0-.2-.048-.421-.048s-.2-.048-.422-.048-.349-.144-.469.036c-.168.229-.132.385.048.6.157.192.229-.023.47-.023s.24.036.481.036.253.095.482.011a3.667,3.667,0,0,0-.072-.421c-.012,0,.132-.024.12-.048s-.072-.036-.1-.061C-417.835,4630.072-417.9,4630.1-417.92,4630.084Zm-1.228,2.168c.205.12.193.071.434.071s.24.025.481.025a.705.705,0,0,0,.434-.109c0-.192.036-.337.036-.553-.217-.1-.241.084-.47.084s-.241-.073-.481-.073-.277-.144-.422.036C-419.329,4631.986-419.413,4632.107-419.148,4632.252Z" fill="#4b4b4b"/>
          <path id="パス_17207" data-name="パス 17207" d="M-406.256,4633.937a4.993,4.993,0,0,1,.012.6c-.012.156-.084.313-.109.47s.061.325.037.481-.012.325-.037.482-.2.289-.24.445-.084.3-.12.458,0,.324-.049.481-.168.205-.277.3-.2.265-.349.265c-.06,0-.108-.084-.168-.109a.7.7,0,0,1-.458-.252.731.731,0,0,1-.024-.53c.037-.156.1-.289.133-.433s.036-.3.06-.446.012-.3.036-.445.024-.3.048-.445.1-.289.109-.447a3.786,3.786,0,0,0,.1-.432,2.491,2.491,0,0,0-.06-.446c0-.144.156-.3.132-.421-.024-.169-.193-.265-.241-.337a.361.361,0,0,0-.313-.217c-.108-.012-.277.012-.482,0-.156-.012-.324-.072-.493-.072h-.06c-.036.144-.1.289-.145.445s.049.325.012.47-.144.276-.18.433-.1.289-.12.446-.036.3-.073.457-.169.277-.2.422.073.336.049.481-.024.312-.049.457-.2.277-.228.434-.036.3-.072.445a.56.56,0,0,1-.2.386.678.678,0,0,1-.409.2c-.036,0-.061-.1-.1-.109a.605.605,0,0,1-.445-.192.581.581,0,0,1-.049-.493c.025-.157.085-.314.109-.47s.024-.313.048-.481-.072-.337-.048-.5.193-.289.217-.445.036-.325.072-.481.012-.325.048-.482.217-.277.253-.433-.024-.337.012-.493.1-.314.132-.47c-.18.012-.361-.012-.53,0-.192.012-.36.132-.5.144v-.049a.8.8,0,0,1-.542-.1.809.809,0,0,1-.2-.506c-.023-.181.109-.313.217-.445s.2-.3.386-.326c.144-.011.325.048.517.037.157-.012.337-.048.518-.061.156,0,.373.013.542.013.048-.145,0-.362.048-.506s.084-.289.132-.434.12-.276.169-.421.157-.265.2-.409.133-.277.181-.422l-.132-.048c.06-.169.264-.216.409-.3s.325-.194.494-.133a.76.76,0,0,1,.445.337.738.738,0,0,1-.012.553c-.048.145-.144.265-.193.41s-.072.289-.12.433-.06.3-.1.446-.168.313-.216.458c.156,0,.349-.085.493-.073s.278.157.41.181a1.752,1.752,0,0,1,.505.084,1.7,1.7,0,0,1,.458.253,1.358,1.358,0,0,1,.325.409,2.052,2.052,0,0,1,.169.482,3.363,3.363,0,0,1,.192.481A3.821,3.821,0,0,1-406.256,4633.937Zm2.131.831a.516.516,0,0,1-.325.325c-.072.024-.133.156-.2.156-.144,0-.253-.132-.361-.2a.572.572,0,0,1-.241-.289c-.06-.157-.06-.325-.108-.482s-.145-.289-.193-.446-.156-.288-.2-.432-.121-.3-.169-.458-.132-.3-.18-.446-.085-.312-.133-.47-.193-.276-.241-.433-.084-.313-.132-.469,0-.338-.036-.494l-.073.024a.673.673,0,0,1,.085-.53.684.684,0,0,1,.433-.276.548.548,0,0,1,.446.108c.156.084.288.145.337.325.048.157.108.3.144.457s.156.278.205.422-.012.337.036.482.217.264.265.409-.024.349.024.493.156.277.217.434.2.253.252.409.012.325.073.47.156.277.216.421C-403.933,4634.455-404.065,4634.611-404.125,4634.768Zm.7-2.481a.511.511,0,0,1-.253.277c-.072.025-.132.109-.192.109-.217,0-.325-.205-.41-.409-.06-.133-.252-.229-.313-.4s-.036-.337-.084-.47c-.084-.252-.144-.457-.144-.457h.011a.445.445,0,0,1,.1-.361c.06-.12.084-.289.229-.325a.6.6,0,0,1,.433.036.568.568,0,0,1,.229.35.917.917,0,0,1,.229.384c.048.133.06.29.108.434.06.168.133.3.181.409C-403.258,4632.011-403.378,4632.155-403.427,4632.287Zm1.324-.385c-.048.133-.192.169-.325.217-.06.025-.108.156-.168.156a.66.66,0,0,1-.566-.361c-.048-.12.036-.325-.012-.481s-.217-.265-.265-.4a1.853,1.853,0,0,1-.072-.457.5.5,0,0,1,.036-.4.506.506,0,0,1,.3-.265.5.5,0,0,1,.4.048c.121.072.289.144.338.289a1,1,0,0,0,.036.434c.036.131.156.252.2.384.048.158.06.314.1.422A.479.479,0,0,1-402.1,4631.9Z" fill="#4b4b4b"/>
          <path id="パス_17208" data-name="パス 17208" d="M-445.714,4652.528a.726.726,0,0,1-.469.229,2.045,2.045,0,0,0-.566-.012c-.168.024-.361.084-.554.1a2.059,2.059,0,0,1-.265.036c-.012,0-.024.085-.048.085a2.051,2.051,0,0,1-.553-.1c-.193-.036-.326-.192-.482-.277-.169-.108-.4-.132-.506-.276a2.275,2.275,0,0,1-.168-.446,2.862,2.862,0,0,1-.109-.433c-.036-.157-.18-.289-.192-.434,0-.023-.024-.023-.024-.048-.013-.217.156-.228.144-.433s-.048-.217-.048-.434.084-.253-.048-.421c-.1-.133-.181-.085-.325-.013-.036.158-.157.314-.2.47s-.048.325-.108.482-.085.325-.157.469-.228.242-.313.386-.1.325-.192.457-.277.192-.386.325-.108.337-.216.457a.742.742,0,0,1-.554.23c-.145,0-.253-.145-.374-.253-.144-.12-.288-.217-.3-.386a.715.715,0,0,1,.132-.517c.121-.132.265-.229.373-.349s.2-.266.3-.4.169-.289.253-.433.229-.265.289-.421,0-.253.06-.434c-.277-.085-.265,0-.554,0-.18,0-.3-.193-.421-.313a.537.537,0,0,1-.169-.434c0-.252-.072-.252-.06-.5s-.1-.253-.084-.494.12-.253.133-.506.011-.24.023-.493-.048-.253-.048-.494-.024-.252-.024-.5.072-.241.072-.494-.108-.253-.108-.506.024-.24.024-.493.036-.253.036-.493.072-.253.085-.506-.085-.241-.085-.494a.692.692,0,0,1,.265-.445.618.618,0,0,1,.446-.205c.252,0,.229.06.517.06.169,0,.349-.072.506-.072.289,0,.265-.036.518-.036s.252-.012.517-.012h.506c.253,0,.253.024.518.024s.253.1.505.1a1.535,1.535,0,0,1,.518.072c.168.073.4.061.53.193s.084.374.156.554a1.213,1.213,0,0,1,.132.5,1.76,1.76,0,0,1,.121.482,4.4,4.4,0,0,0-.048.469c0,.158-.06.314-.06.482s-.037.313-.037.482-.012.313-.023.469-.013.325-.024.481.108.326.108.483-.157.324-.169.481-.012.313-.024.469-.024.325-.024.483c-.012.18.156.348.144.481a1,1,0,0,1-.156.5l.048-.035a.607.607,0,0,1-.216.421.6.6,0,0,1-.434.205c-.012,0-.024.059-.024.059a.758.758,0,0,1-.373-.095c-.1-.073-.121-.206-.181-.314a4.268,4.268,0,0,0,.012.554c.012.277-.1.289-.072.566a.759.759,0,0,0,.3.518c.06.059.06.18.433.192.048,0,.109-.036.169-.036.169-.012.361.061.518.036a1.409,1.409,0,0,0,.493-.156.683.683,0,0,1,.518.132.654.654,0,0,1,.253.458A.7.7,0,0,1-445.714,4652.528Zm-2.48-8.909c-.012,0,.036.133-.012.133-.241,0-.192.012-.482.012-.144,0-.312-.073-.493-.073-.156,0-.325-.06-.493-.06s-.338.013-.482.013c-.289,0-.241.084-.494.084s-.313-.217-.457-.025c-.205.253-.35.506-.06.662.216.121.276.049.517.049s.253-.072.506-.072.241.059.494.059.253-.168.493-.168.253.121.494.121.337.18.554.06v-.675C-448.109,4643.68-448.206,4643.619-448.194,4643.619Zm-.566,3.877c-.24,0-.24.048-.481.048s-.241.036-.494.036-.241-.024-.481-.024-.241-.048-.482-.048-.265-.061-.457.1c-.145.121-.133.168-.109.349s0,.193.085.361c.108.217.18-.011.469-.011.145,0,.3-.025.481-.025.157,0,.326.012.482.012s.337-.036.482-.036c.289,0,.241.049.481.049a1.282,1.282,0,0,0,.482-.013c0-.12-.024-.217-.024-.349s.072-.313.072-.445C-448.482,4647.424-448.519,4647.5-448.76,4647.5Zm.554-1.95c-.241-.072-.241-.013-.493-.013s-.241-.048-.494-.048-.241.073-.494.073-.24-.012-.493-.012a1.666,1.666,0,0,1-.482-.085c-.253,0-.276-.048-.469.108-.157.133.024.157.06.362s-.265.313-.108.445c.18.156.252.048.5.048s.241-.035.482-.035.253-.121.493-.121.241.1.494.1.241.036.481.036.242-.06.47-.12c.012-.144.132-.193.132-.338S-448.206,4645.678-448.206,4645.546Z" fill="#4b4b4b"/>
          <path id="パス_17209" data-name="パス 17209" d="M-433.6,4650.771a2.918,2.918,0,0,1-.205.433,2.348,2.348,0,0,1-.313.373,4.818,4.818,0,0,1-.349.361,2.612,2.612,0,0,1-.47.168,1.835,1.835,0,0,1-.469.109,3.03,3.03,0,0,1-.47.133c-.023,0-.06.06-.084.06a2.571,2.571,0,0,1-.542-.072,2.24,2.24,0,0,1-.493-.205,1.87,1.87,0,0,1-.458-.253,3.944,3.944,0,0,1-.433-.313,4.962,4.962,0,0,1-.349-.4c-.109-.133-.169-.314-.289-.386a.98.98,0,0,0-.482-.12c-.156,0-.277.12-.433.265-.012,0,.036.06.024.06-.169.2-.277.109-.458.313s-.108.265-.289.458-.228.156-.409.348a.6.6,0,0,1-.47.242.588.588,0,0,1-.385-.205c-.144-.121-.265-.229-.277-.4a.746.746,0,0,1,.109-.53c.156-.181.108-.156.289-.373a3.956,3.956,0,0,0,.349-.314c.1-.108.265-.168.373-.3.1-.109.2-.229.3-.349s.181-.266.277-.386.205-.24.3-.348.18-.266.277-.386.3-.168.4-.277c.109-.132.241-.216.337-.325.181-.217.036-.277.193-.445s.217-.121.373-.3.2-.12.361-.288.229-.169.3-.4-.265-.061-.517-.049c-.145,0-.3.036-.446.036-.253.013-.229.036-.457.049a1.615,1.615,0,0,0-.446.072c-.229.012-.229-.157-.457-.145s-.229.193-.446.193c-.084,0-.084-.084-.156-.084-.181.012-.3-.121-.422-.23s-.325-.228-.325-.421.145-.336.265-.469a.658.658,0,0,1,.458-.145c.241,0,.192-.108.481-.108.145-.012.313-.048.494-.048.156-.012.325-.048.481-.048.181,0,.35.109.494.109.289-.013.253.047.494.036s.24-.109.481-.121.253.072.494.06.241-.133.481-.144.253.1.494.1c.132,0,.3-.072.409,0s.169.217.229.337a.933.933,0,0,1,.108.4.855.855,0,0,1-.2.348c-.157.181-.085.181-.265.386-.084.108-.229.192-.337.325-.1.108-.205.216-.313.337s-.217.229-.325.337-.205.24-.3.337c-.181.217-.193.133-.349.313s-.1.217-.241.4-.229.1-.386.277-.084.2-.18.421a1.312,1.312,0,0,1,.313.157,2.567,2.567,0,0,1,.361.253,2.465,2.465,0,0,1,.337.289c.109.132.133.337.253.433a1.8,1.8,0,0,0,.446.241,1.378,1.378,0,0,0,.505.1c.012,0,.024.024.048.024.157,0,.277-.192.422-.253a1.755,1.755,0,0,0,.4-.228,1.027,1.027,0,0,0,.253-.373c.072-.169.289-.253.445-.314a.632.632,0,0,1,.482.073.59.59,0,0,1,.361.313A.62.62,0,0,1-433.6,4650.771Zm-2.757-6.658a.627.627,0,0,1-.421.252c-.169,0-.338-.1-.518-.1s-.337.011-.506,0-.349.059-.517.059-.338-.12-.506-.132-.373.12-.53.1c-.024,0-.012-.06-.024-.06a.681.681,0,0,1-.457-.264.744.744,0,0,1-.145-.531.72.72,0,0,1,.325-.445.711.711,0,0,1,.506-.036c.144.024.3.072.469.084.145.024.313.013.47.024s.325-.12.481-.108.313.1.482.1.313-.036.47-.036a.709.709,0,0,1,.493.18.746.746,0,0,1,.217.493C-436.065,4643.872-436.234,4643.992-436.354,4644.113Z" fill="#4b4b4b"/>
          <path id="パス_17210" data-name="パス 17210" d="M-426.206,4645.533a.536.536,0,0,1,.169.422c0,.181.048.4-.072.518a.77.77,0,0,1-.518.168c-.229,0-.229.024-.457.024s-.217-.133-.446-.133-.229.121-.446.121-.324-.216-.481-.072c-.2.181-.048.3-.108.565s-.024.278-.084.531-.181.24-.241.505.024.277-.036.542c-.012.036.036.047.024.084,0,.012-.169-.012-.169.012-.024.109.217.409.241.409.084.061.228.169.373.29.06-.145.181-.314.229-.458s.072-.313.12-.457,0-.326.048-.47.1-.3.133-.446c.048-.168.072-.325.108-.458a.776.776,0,0,1,.3-.468.867.867,0,0,1,.554-.109.854.854,0,0,1,.458.326.807.807,0,0,1,.12.553c-.036.156-.169.289-.205.457s-.108.314-.157.482c-.036.144-.047.325-.1.481l-.144.47c-.06.156-.157.3-.217.458s-.156.337-.216.493c.168.133.433.192.565.3a2.107,2.107,0,0,1,.421.433.549.549,0,0,1,.169.446.519.519,0,0,1-.084.458.6.6,0,0,1-.494.217.561.561,0,0,1-.373-.145,1.266,1.266,0,0,1-.4-.217c-.1-.084-.217-.205-.349-.3-.1.168-.157.373-.265.53a.793.793,0,0,1-.59.349c-.133,0-.241-.144-.361-.229-.157-.1-.349-.217-.385-.385s.1-.361.192-.517a5.029,5.029,0,0,0,.289-.579c-.108-.084-.121-.205-.2-.264a2.3,2.3,0,0,0-.337-.181,1.732,1.732,0,0,1-.409-.386c-.1-.144-.072-.348-.133-.541a1.447,1.447,0,0,1-.156-.518,1.674,1.674,0,0,1,.144-.457c.061-.217.025-.229.085-.446s.108-.205.156-.421-.1-.265-.036-.482.253-.192.108-.361-.18-.048-.409-.048a.729.729,0,0,1-.505-.169.782.782,0,0,1-.229-.5.816.816,0,0,1,.193-.53.841.841,0,0,1,.541-.181c.2,0,.2.013.4.013s.3.217.457.084c.169-.156.06-.265.12-.493s.049-.23.109-.458-.037-.242.012-.47.144-.2.2-.421c.049-.181.073-.409.217-.506s.361.012.542.061a.619.619,0,0,1,.445.228.671.671,0,0,1,.061.53c-.061.241-.133.229-.193.469s-.048.253-.109.506-.168.24-.011.445.18.048.421.048.241.025.481.025.253.011.494.011A.581.581,0,0,1-426.206,4645.533Zm5.635,1.866c-.133.157-.265.35-.458.35a.949.949,0,0,0-.457-.085c-.133,0-.289.061-.458.072-.144,0-.3.049-.457.061s-.313-.109-.47-.109-.313-.036-.457-.036c-.169,0-.325.1-.458.1-.2,0-.361-.013-.457-.013a1.807,1.807,0,0,1-.47-.156,1.292,1.292,0,0,1-.457-.156,1.02,1.02,0,0,1-.325-.445,1.224,1.224,0,0,1-.217-.542,2.275,2.275,0,0,1,.156-.626c.013-.025-.072-.061-.06-.085.109-.229.157-.205.265-.446s.072-.24.181-.481.229-.181.337-.409.06-.253.168-.494.073-.252.181-.482.181-.2.289-.433a.662.662,0,0,1,.313-.4.7.7,0,0,1,.506.084.744.744,0,0,1,.385.325.709.709,0,0,1-.024.542c-.109.229-.193.193-.3.421s-.1.229-.2.47l-.217.457c-.108.241-.216.47-.216.47-.109.229,0,.277-.109.5s-.18.193-.289.434c-.012.024.073,0,.06.024.037,0,0,.121.049.121.1,0,.264-.013.481-.013.145,0,.313-.071.494-.071.157,0,.313.107.481.107s.326-.06.482-.06c.18,0,.349-.047.493-.047.049-.194-.06-.194-.084-.4s-.048-.205-.084-.4-.06-.205-.1-.41c-.024-.18.12-.349.217-.494s.228-.337.409-.361.313.181.457.289a.5.5,0,0,1,.253.373c.036.241.12.23.169.47s.036.253.072.494-.048.265-.012.5.1.241.133.482A.6.6,0,0,1-420.571,4647.4Zm.036,3.143c0,.156-.024.312-.024.47s-.085.324-.085.468c0,.266.013.542.013.542s-.025-.084-.025-.084a.528.528,0,0,1-.18.421c-.121.121-.229.337-.41.337-.144,0-.24-.179-.349-.264s-.253-.06-.3-.181a1.067,1.067,0,0,0-.433-.023c-.229,0-.229-.145-.458-.145s-.228.12-.457.12h-.445c-.229,0-.229-.1-.458-.1s-.228.061-.445.061a.7.7,0,0,1-.494-.169.689.689,0,0,1-.121-.493c0-.265-.011-.265-.011-.518s-.025-.253-.025-.517-.1-.253-.1-.518.157-.253.157-.517-.085-.253-.085-.506a.664.664,0,0,1,.217-.47.7.7,0,0,1,.458-.253c.228,0,.228.133.469.133s.241-.109.482-.109.228.024.469.024.241-.036.482-.036.229.085.469.1a1.309,1.309,0,0,1,.434.048,1.337,1.337,0,0,1,.445.121c.121.084.145.277.241.4a1.3,1.3,0,0,1,.289.338c.072.132.205.24.229.4s-.073.3-.073.458S-420.535,4650.373-420.535,4650.542Zm-1.421-.085c0-.144-.012-.265-.012-.385a.564.564,0,0,0-.1-.361.152.152,0,0,0-.157-.061c-.217,0-.217.025-.433.025s-.205.012-.421.012-.217-.121-.422-.121-.216-.06-.373.084-.06.145-.06.362.06.2.06.409-.205.266-.048.4c.192.169.241.036.494.036s.252.037.505.037.253-.012.494-.012.277.084.517.012C-421.908,4650.771-421.956,4650.578-421.956,4650.457Z" fill="#4b4b4b"/>
          <path id="パス_17211" data-name="パス 17211" d="M-409,4649.1a3.038,3.038,0,0,1-.072.458c-.036.144-.072.3-.12.445s-.133.277-.2.421-.06.325-.145.458-.313.156-.409.276a.51.51,0,0,1-.385.23.593.593,0,0,1-.47-.085.669.669,0,0,1-.277-.433.7.7,0,0,1,.181-.482,2.914,2.914,0,0,0,.313-.361c.085-.144.048-.337.108-.482s.217-.265.253-.421a3.3,3.3,0,0,0,.06-.481c0-.145-.168-.265-.192-.41a2.494,2.494,0,0,0-.1-.4,2.168,2.168,0,0,0-.2-.361c-.085-.12-.036-.326-.121-.434s-.252-.144-.361-.24a4.076,4.076,0,0,1-.18.493c-.049.156,0,.361-.06.53s-.193.288-.265.457-.217.278-.29.434a4.419,4.419,0,0,1-.192.409c-.072.145-.121.277-.193.4-.084.144-.1.3-.18.42s-.1.314-.181.422-.3.157-.4.253c-.109.12-.132.325-.241.409s-.253.181-.373.265a3.244,3.244,0,0,1-.433.145,1.988,1.988,0,0,1-.434.12,1.967,1.967,0,0,1-.433.121l-.012-.1a2.423,2.423,0,0,1-.422-.108c-.144-.036-.313.011-.445-.048a1.714,1.714,0,0,1-.434-.169,1.687,1.687,0,0,1-.349-.313c-.1-.108-.06-.325-.132-.458a1.915,1.915,0,0,1-.193-.384c-.048-.133-.132-.253-.168-.386s-.048-.276-.06-.409a2.493,2.493,0,0,1-.024-.422,2.826,2.826,0,0,1,.06-.445,2.666,2.666,0,0,1,.084-.446c.036-.156.06-.3.108-.445a3.194,3.194,0,0,1,.205-.409,3.99,3.99,0,0,1,.192-.4c.085-.133.085-.325.181-.445a3.053,3.053,0,0,1,.373-.289,2.786,2.786,0,0,1,.3-.205c.1-.072.193-.156.289-.229-.036-.192-.108-.384-.156-.565s-.133-.373-.181-.566c-.036-.168.085-.313.169-.446s.156-.312.325-.348a.723.723,0,0,1,.53.023c.144.085.156.3.192.47s.157.3.193.469.072.29.108.446c.145-.036.241-.084.385-.109s.29.025.434.012.289-.048.433-.048c.109,0,.229.048.349.061.157.011.337.036.494.059.012-.168-.072-.348-.06-.517a.854.854,0,0,1,.228-.53.881.881,0,0,1,.554-.18.888.888,0,0,1,.506.253.832.832,0,0,1,.192.529c-.011.133-.036.266-.048.409s-.048.253-.06.386c.048.024.072.024.121.048a4.407,4.407,0,0,1,.373.277,2.731,2.731,0,0,1,.349.3c.1.108.265.181.361.3s.06.325.132.458c.1.144.313.228.374.373s0,.373.048.529a3.134,3.134,0,0,1,.1.482,3.521,3.521,0,0,1,.084.494A3.09,3.09,0,0,1-409,4649.1Zm-5.49.542c-.024-.145-.18-.265-.216-.421s.012-.314-.025-.458,0-.313-.036-.457-.108-.289-.132-.434-.024-.313-.048-.458-.169-.192-.193-.348a1.621,1.621,0,0,0-.3.336,2.456,2.456,0,0,0-.252.458,2.589,2.589,0,0,0-.241.494,3.818,3.818,0,0,0,.072.529c0,.133.024.266.036.4s-.024.278.024.4a.949.949,0,0,0,.325.409.8.8,0,0,0,.482.181,1.086,1.086,0,0,0,.577-.132C-414.439,4649.988-414.452,4649.795-414.488,4649.639Zm1.746-3.286c-.1,0-.18-.109-.265-.109h-.024c-.157,0-.313.06-.469.072s-.4,0-.554.037c.048.168.2.36.253.529s.108.325.144.493-.06.374-.024.542.072.337.108.494.133.3.169.469c.06-.109.12-.192.18-.313s.121-.241.181-.373.072-.325.132-.481.205-.277.265-.434-.024-.349.024-.506.109-.264.157-.433C-412.573,4646.328-412.622,4646.364-412.742,4646.353Z" fill="#4b4b4b"/>
          <path id="パス_17212" data-name="パス 17212" d="M-398.855,4645.124a.534.534,0,0,1-.422.192c-.229.025-.229.049-.47.073s-.228.085-.469.1-.229.036-.47.061-.24-.1-.481-.072-.217.2-.458.215-.229-.059-.457.013c-.06.145-.132.24-.2.385s-.18.266-.24.409-.013.35-.073.494-.156.277-.216.421-.145.289-.2.434-.193.277-.253.422-.072.312-.121.457a3.774,3.774,0,0,0-.132.458c-.048.156-.072.324-.108.468s-.109.314-.145.458c-.036.169-.06.326-.084.47a.76.76,0,0,1-.217.4.715.715,0,0,1-.433.215c-.036,0-.072-.095-.109-.108a.715.715,0,0,1-.469-.216.692.692,0,0,1-.084-.518c.024-.144.1-.3.132-.457s.121-.3.169-.457.024-.326.072-.483.024-.324.072-.481.072-.325.121-.482.228-.253.289-.409.1-.3.156-.457.084-.313.144-.458.145-.289.217-.445.133-.337.193-.482c-.169-.072-.205,0-.386.024-.024,0-.036.085-.06.085-.168,0-.276-.158-.4-.265a.647.647,0,0,1-.229-.386.763.763,0,0,1,.073-.529c.108-.133.325-.108.506-.121.288-.024.276-.132.553-.156s.313.12.59.036c.06-.133.192-.289.253-.421s.132-.266.205-.4.084-.289.156-.421l-.06-.037a.771.771,0,0,1,.409-.348.764.764,0,0,1,.542.023.7.7,0,0,1,.313.447.733.733,0,0,1-.012.529c-.084.144-.217.373-.3.529.253.072.277-.181.53-.2s.277.132.53.12.252-.12.505-.132.253,0,.517-.024a.658.658,0,0,1,.47.156.625.625,0,0,1,.181.445A.542.542,0,0,1-398.855,4645.124Zm1.215,6.489a2.919,2.919,0,0,1-.4.289c-.132.084-.241.241-.385.313s-.349-.012-.506.024a4.262,4.262,0,0,1-.469.145,3.4,3.4,0,0,1-.482.048,3.776,3.776,0,0,1-.517.048,2.313,2.313,0,0,1-.494-.132,2.867,2.867,0,0,1-.482-.169,4.083,4.083,0,0,1-.457-.253l-.012.012a.842.842,0,0,1-.253-.5.767.767,0,0,1,.132-.53.679.679,0,0,1,.482-.229.623.623,0,0,1,.458.169,1.735,1.735,0,0,0,.541.264,2.586,2.586,0,0,0,.6-.024,2.477,2.477,0,0,0,.505.049c.169-.036.278-.229.434-.3a2.036,2.036,0,0,0,.409-.253.734.734,0,0,1,.53-.144.684.684,0,0,1,.47.24.739.739,0,0,1,.168.506A.708.708,0,0,1-397.64,4651.613Zm-.385-3.624a.64.64,0,0,1-.47.217c-.252.012-.216.1-.505.108-.168.012-.349,0-.53,0s-.361.048-.517.048c-.289.025-.266-.059-.518-.036s-.265-.036-.518-.023c-.012,0-.024-.036-.036-.036a.546.546,0,0,1-.433-.145.656.656,0,0,1-.265-.422.73.73,0,0,1,.2-.481.58.58,0,0,1,.458-.12c.265-.025.265-.036.53-.048s.252-.1.505-.109.265-.1.518-.108.265.108.53.1.253-.036.517-.048a.788.788,0,0,1,.53.108c.121.109.1.337.108.518A.588.588,0,0,1-398.025,4647.989Z" fill="#4b4b4b"/>
          <path id="パス_17213" data-name="パス 17213" d="M-392.837,4652.1c-.084-.145-.024-.3.012-.482h.012c.037-.18.012-.422.157-.506s.361.025.542.073l.011-.061c.169.036.338-.023.494,0a3.655,3.655,0,0,0,.482.1v-.025c.169,0,.349.1.493.073a2.717,2.717,0,0,0,.47-.168,2.011,2.011,0,0,0,.409-.253l.048.084a1.312,1.312,0,0,0,.4-.421,1.615,1.615,0,0,0,.036-.554h.012c0-.024.06-.024.06-.036a1.75,1.75,0,0,0-.193-.506,1.042,1.042,0,0,0-.2-.481l-.036.036a1.128,1.128,0,0,0-.422-.205,1.847,1.847,0,0,0-.457-.156,4.524,4.524,0,0,0-.482-.073v-.011c-.193,0-.409.072-.65.1l-.012-.059c-.193.011-.409.048-.554-.085l.072-.073c-.144-.131-.337-.276-.337-.468h.073c0-.217-.013-.217-.013-.447s.109-.2.109-.42,0-.229,0-.446-.012-.217-.012-.433.036-.217.036-.434c.012-.192,0-.409.12-.518a.714.714,0,0,1,.53-.144v.06a.643.643,0,0,1,.482.132.655.655,0,0,1,.1.506h-.012c-.012.241-.012.241-.012.482s.108.241.1.481-.048.241-.048.481c.012,0,.024-.035.036-.035v-.012a3.279,3.279,0,0,1,.494.1,2.991,2.991,0,0,1,.469.12,2.893,2.893,0,0,1,.482.073,3.8,3.8,0,0,1,.446.2,2.571,2.571,0,0,1,.421.264l-.048.048a2.349,2.349,0,0,1,.409.362,2.221,2.221,0,0,1,.229.481,2.734,2.734,0,0,1,.024.542c.036.181.168.337.18.518h.013c0,.024-.049.036-.049.06h-.084c0,.156.133.325.108.482s-.228.253-.288.4a2.5,2.5,0,0,1-.145.445,2.384,2.384,0,0,1-.241.421,2.693,2.693,0,0,1-.409.241l-.024-.024c-.121.084-.181.277-.325.35s-.3.059-.446.108a2.872,2.872,0,0,1-.445.072,2.99,2.99,0,0,1-.446.06c-.156.013-.3.144-.457.144v-.06c-.144,0-.289.049-.434.036s-.289-.071-.445-.1c-.133-.024-.289-.06-.433-.1,0,0-.013-.012.023-.073A.629.629,0,0,1-392.837,4652.1Zm2.673-7.536c-.157-.025-.337.023-.494-.013l-.469-.108c-.157-.037-.289-.157-.446-.205s-.313-.06-.457-.12-.289-.169-.433-.229l-.013-.024v.06c-.168-.072-.216-.229-.289-.385a.585.585,0,0,1-.024-.47l-.048-.024a.631.631,0,0,1,.4-.3c.156-.06.361-.18.529-.108l-.024.036c.133.061.313.072.482.133s.288.18.457.228.337.036.494.073.313.156.481.18.337.048.494.072l.012-.06c.181.024.277.192.385.337a.553.553,0,0,1,.108.446h.013a.571.571,0,0,1-.217.361.537.537,0,0,1-.385.205v-.037c-.024,0-.06.048-.1.048a.117.117,0,0,0,0,.073C-389.863,4644.7-390.008,4644.6-390.164,4644.559Z" fill="#4b4b4b"/>
        </g>
      </g>
    </g>
    <rect id="長方形_262" data-name="長方形 262" width="140" height="240" transform="translate(36 25)" fill="#fff" opacity="0"/>
  </g>
</svg>
