<svg xmlns="http://www.w3.org/2000/svg" width="140" height="240" viewBox="0 0 140 240">
  <g id="aityaku_flow1" transform="translate(-36 -25)">
    <g id="レイヤー_4" data-name="レイヤー 4" transform="translate(547.04 -4197.179)">
      <g id="グループ_1472" data-name="グループ 1472" transform="translate(-15.364 -4)">
        <path id="パス_16995" data-name="パス 16995" d="M-377.456,4328.773l12.693,14.97-19.429,26.342-67.65-6.674-17.341-26.127" fill="#fff"/>
        <g id="グループ_1464" data-name="グループ 1464">
          <path id="パス_16996" data-name="パス 16996" d="M-390.275,4369.76c-7.325.472-14.7,2.265-22.188,2.767a146.7,146.7,0,0,1-24.82-.463c-16.065-1.658-41.863-16.31-29.468-32.126" fill="#fff"/>
          <g id="グループ_1463" data-name="グループ 1463">
            <path id="パス_16997" data-name="パス 16997" d="M-420.783,4372.049c.044,0,.066,0,0,0Z" fill="#4b4b4b"/>
            <path id="パス_16998" data-name="パス 16998" d="M-453.223,4366.236l-.027-.015-.024-.075Z" fill="#4b4b4b"/>
            <path id="パス_16999" data-name="パス 16999" d="M-457.752,4363.853l-.03-.011C-457.771,4363.833-457.767,4363.82-457.752,4363.853Z" fill="#4b4b4b"/>
            <path id="パス_17000" data-name="パス 17000" d="M-442,4370.511l.084.032Z" fill="#4b4b4b"/>
            <path id="パス_17001" data-name="パス 17001" d="M-410.723,4371.722h-.024l.058-.017Z" fill="#4b4b4b"/>
            <path id="パス_17002" data-name="パス 17002" d="M-410.836,4371.7c-.119.026.035.026.088.026a1.3,1.3,0,0,1-.4.052C-411.148,4371.742-410.894,4371.725-410.836,4371.7Z" fill="#4b4b4b"/>
            <path id="パス_17003" data-name="パス 17003" d="M-392.468,4369.382l-.057-.009Z" fill="#4b4b4b"/>
            <path id="パス_17004" data-name="パス 17004" d="M-443.084,4371.9l.078.027Z" fill="#4b4b4b"/>
            <path id="パス_17005" data-name="パス 17005" d="M-395.378,4369.738l-.04-.046Z" fill="#4b4b4b"/>
            <path id="パス_17006" data-name="パス 17006" d="M-453.274,4366.147l-.02-.034Z" fill="#4b4b4b"/>
            <path id="パス_17007" data-name="パス 17007" d="M-461.518,4361.193l-.051.013-.01-.008Z" fill="#4b4b4b"/>
            <path id="パス_17008" data-name="パス 17008" d="M-468.445,4342.414l.016.018-.084.065Z" fill="#4b4b4b"/>
            <path id="パス_17009" data-name="パス 17009" d="M-466.039,4357.008l.005-.026a6.271,6.271,0,0,1,.461.557l-.048.052Z" fill="#4b4b4b"/>
            <path id="パス_17010" data-name="パス 17010" d="M-470.678,4351.747l.345.6a11.134,11.134,0,0,1-.543-4.861l-.037.1c.041-.271.134-.4.582-3.319l-.014,0a1.432,1.432,0,0,0,.1-.295l-.077.511c.113-.292.292-.524.468-.9.019-.085,0-.12-.017-.134l.438-.924.067-.305c.205-.259.318-.064.631-.833-.03.325.282-.33.294-.213a1.912,1.912,0,0,1,.064-.2,13.079,13.079,0,0,1,1.085-1.317,13.559,13.559,0,0,0-.981,2.211c.3-.6.1-.149.081-.016l-.054.027c-.17.366-.089.4-.166.579l-.017-.018.024-.019c-.005-.021-.021-.015-.039,0-.016-.011-.039,0-.089.1l.02-.015a2.524,2.524,0,0,0-.267.52l.068.024a7.052,7.052,0,0,0-.616,2.243c-.039.382-.245.83-.268,1.307-.1.75.031.382.059.758.026.469-.083-.1-.1.09l.079.563c.024-.325.061-.148.088-.089-.041.485.147,1.227.021,1.384a6.31,6.31,0,0,0,.238.9c-.043-.087-.108-.265-.133-.263.111.247.006.124-.029.021-.017.413.69,1.957.6,2.06l.029-.007c-.09.118-.25,0-.231.289l.108.165.045.281c.114.164.108.069.122.065a7.07,7.07,0,0,0,.728,1.511l-.587-.421c.283.411.856,1.11.8,1.237l.252.2c.725.725.292.608.564.907l.391.346-.285-.4a7.07,7.07,0,0,0,.8.778v0l-.044-.029.039.055a1.247,1.247,0,0,0,.321.57,8.83,8.83,0,0,0,1.167,1.224l.043.209.486.386.077-.055c-.443-.4-1.142-1.239-1.628-1.8l.028-.033c.294.331.593.73.8.945.108.1.439.31.312.08l.116.249a14.992,14.992,0,0,0,2.32,2.046l-.141-.059c.219.22.449.432.574.439a12.725,12.725,0,0,0,2.188,1.429l.033.157c.174.111.545.164.522.328l.331.278a3.556,3.556,0,0,0,.65.42h0l.061.023-.01,0c.579.3-.07.068.6.4.251.066.132.238.454.407l.408.07a12.479,12.479,0,0,1,1.45.888c.44.168.714.166.516-.063a1.73,1.73,0,0,0,.562.463c.109-.007.064-.043-.013-.14.474.171.237.18.567.346.03.137.045.326.15.384l-.15-.035a4.946,4.946,0,0,0,1.146.575l.015-.052.428.23.066-.044.633.3-.1-.023a7.977,7.977,0,0,0,.934.4l.009-.037c.878.218,1.457.64,2.431.988l-.091-.112c.367.051.034.135.447.243l.064-.076c.29.232.46.141.722.178l-.169.073.469.123c.522.126.377-.039.332-.12l.3.2.114-.075c.2.191.255.066.668.259.053-.027-.049-.08.108-.053l.67.346-.414-.187-.011.158c.414.24.632.163.944.3l-.209-.107a2.626,2.626,0,0,0,.9.171c-.106,0-.267.008-.055.081.159.048.108-.029.267-.007,0,.1.371.253.742.295l-.022-.044a.57.57,0,0,0,.289.084l-.055-.127.27.167c.213.012.485.153.482.075l-.108-.046,1.555.269.046-.084c.121.147.856.1.767.239.314-.043,1.15.206,1.012.013a24.064,24.064,0,0,0,2.889.331,14.528,14.528,0,0,1,2.56.094c1.6.22,2.655.257,4.31.389,1.016-.176,2.485.193,3.572.076l.29.081c.723-.132,1.811.025,2.82-.1.246.035.375.046.432.049-.046,0-.116.02-.139.071.288-.037.869.008.829-.1l-.073-.01c-.041-.1.87.046,1.192-.044l-.177.112.544-.024-.145-.017c2.366.145,3.425-.259,5.653-.134-.3-.107.441.044.463-.089a3.612,3.612,0,0,1,1.49-.044l.034.022.794-.085c-.492-.125.588.088.137-.016,2.06-.329,4.78-.568,7.18-1l-.1.059a18.372,18.372,0,0,0,1.829-.3,4.709,4.709,0,0,1,1.218-.068c.523,0,.96-.221.743-.18a12.6,12.6,0,0,0,1.837-.158c.237-.177,2.093-.156,2.1-.306l.01.013c.966-.218,1.907-.17,2.958-.352l-.058-.017,2.189.3-.574.584-1.789.587c-1.648.143-3.3.315-4.958.528l-3.931.761c-3.223.481-6.489.95-9.8,1.2l-.717-.059c-1.929.329-4.42.177-6.505.428l-.043-.1a1.87,1.87,0,0,0-.694.082c-5.475.031-11.086-.242-15.973-.6-.483.027-1.906-.124-2.293-.092-1.6-.3-3.272-.607-4.839-.942l.055.025-.721-.2c-.034,0-.042.011-.021.025-.792-.281-2.1-.552-3.1-.825l.052.029a56.628,56.628,0,0,1-15.191-7.517,29.281,29.281,0,0,1-6.249-5.792C-468.245,4357.56-470.914,4352.356-470.678,4351.747Z" fill="#4b4b4b"/>
            <path id="パス_17011" data-name="パス 17011" d="M-469.872,4343.445l-.01.02C-469.93,4343.451-469.9,4343.425-469.872,4343.445Z" fill="#4b4b4b"/>
            <path id="パス_17012" data-name="パス 17012" d="M-467.949,4354.353l-.018-.03.131.09Z" fill="#4b4b4b"/>
            <path id="パス_17013" data-name="パス 17013" d="M-469.438,4347.632c0,.311-.012.325-.03.281A1.132,1.132,0,0,1-469.438,4347.632Z" fill="#4b4b4b"/>
            <path id="パス_17014" data-name="パス 17014" d="M-468.436,4340.947c.105-.154.091-.084.058.019a2.172,2.172,0,0,0-.184.265Z" fill="#4b4b4b"/>
            <path id="パス_17015" data-name="パス 17015" d="M-468.193,4341.844l.065-.033C-468.189,4341.9-468.2,4341.889-468.193,4341.844Z" fill="#4b4b4b"/>
          </g>
        </g>
        <g id="グループ_1466" data-name="グループ 1466">
          <path id="パス_17016" data-name="パス 17016" d="M-374.269,4333.036c8.316,2.4,14.629,8.654,13.383,16.4-1.453,9.039-11.4,13.238-19.971,17.26" fill="#fff"/>
          <g id="グループ_1465" data-name="グループ 1465">
            <path id="パス_17017" data-name="パス 17017" d="M-363.187,4341.857c-.013-.015-.01-.027,0,0Z" fill="#4b4b4b"/>
            <path id="パス_17018" data-name="パス 17018" d="M-364.848,4355.534l-.01.011-.071,0Z" fill="#4b4b4b"/>
            <path id="パス_17019" data-name="パス 17019" d="M-366.478,4357.468l-.007.014C-366.495,4357.472-366.508,4357.466-366.478,4357.468Z" fill="#4b4b4b"/>
            <path id="パス_17020" data-name="パス 17020" d="M-362.045,4350.7l.021-.037Z" fill="#4b4b4b"/>
            <path id="パス_17021" data-name="パス 17021" d="M-365.929,4338.315l.007.008-.032-.01Z" fill="#4b4b4b"/>
            <path id="パス_17022" data-name="パス 17022" d="M-365.922,4338.373c.055.027.015-.03,0-.05l.156.113C-365.8,4338.457-365.88,4338.375-365.922,4338.373Z" fill="#4b4b4b"/>
            <path id="パス_17023" data-name="パス 17023" d="M-373.487,4333.9l.02.021Z" fill="#4b4b4b"/>
            <path id="パス_17024" data-name="パス 17024" d="M-360.267,4351.264l.019-.037Z" fill="#4b4b4b"/>
            <path id="パス_17025" data-name="パス 17025" d="M-372.118,4334.367l-.013.052Z" fill="#4b4b4b"/>
            <path id="パス_17026" data-name="パス 17026" d="M-364.93,4355.541l-.03,0Z" fill="#4b4b4b"/>
            <path id="パス_17027" data-name="パス 17027" d="M-368.339,4359.044l.02.037-.005,0Z" fill="#4b4b4b"/>
            <path id="パス_17028" data-name="パス 17028" d="M-379.251,4366.007l0-.02.068.009Z" fill="#4b4b4b"/>
            <path id="パス_17029" data-name="パス 17029" d="M-371.057,4361.137l-.022-.008a2.091,2.091,0,0,1,.345-.235l.054.044Z" fill="#4b4b4b"/>
            <path id="パス_17030" data-name="パス 17030" d="M-373.572,4364.254l.27-.288c-1.143.528-1.6.888-2.615,1.269l.069,0c-.124.091-.362-.11-1.717.922l.007.011c-.054.023-.068,0-.157.081l.225-.193a3.528,3.528,0,0,0-.571.154c-.038.034-.039.063-.032.083l-.537.228-.115.146c-.185.036-.208-.147-.582.136.094-.179-.253.037-.234-.04l-.078.1a4.664,4.664,0,0,1-.913.3,13.174,13.174,0,0,0,1.053-.919c-.341.195-.1.031-.054-.037l.04.015c.2-.126.157-.191.252-.259l.006.021-.02,0,.024.023c.007.015.024.022.08-.01h-.016a2.485,2.485,0,0,0,.309-.152l-.034-.055c.226.029.967-.66,1.178-.764.169-.17.489-.211.733-.373.413-.221.16-.181.342-.33.243-.161-.012.089.1.042l.268-.228c-.189.082-.11,0-.091-.036.271-.139.629-.455.787-.388.331-.234.3-.277.456-.36-.039.046-.131.115-.117.137.113-.12.078-.023.025.017.262-.06,1.02-.777,1.145-.689l-.015-.021c.113.06.092.187.28.154l.075-.093.182-.044c.084-.083.016-.079.008-.089a4.68,4.68,0,0,0,.888-.5l-.141.41c.214-.2.586-.561.694-.515l.091-.163c.388-.431.4-.135.571-.292l.181-.231-.246.148a3.638,3.638,0,0,0,.438-.449h0l-.014.027.036-.019a.606.606,0,0,0,.386-.135,3.1,3.1,0,0,0,.788-.549l.169.018.237-.239-.061-.065c-.265.2-.82.509-1.2.727l-.032-.026c.218-.134.492-.257.63-.352.062-.054.169-.241,0-.2l.187-.024a7.667,7.667,0,0,0,1.357-1.038l-.028.077c.155-.086.311-.172.295-.251a3.973,3.973,0,0,0,.951-.976l.136.021c.076-.075.072-.282.227-.223l.209-.121c.1-.1.221-.124.3-.271h0l.014-.028.006.006c.209-.248.081.064.3-.231.022-.131.2-.015.312-.161v-.22c.156-.285.324-.238.661-.58.114-.194.052-.354-.137-.3.25-.082.137-.023.367-.2-.025-.062-.055-.046-.138-.027.09-.219.139-.087.25-.228.13.014.325.053.369.01l-.014.072a1.212,1.212,0,0,0,.428-.475l-.056-.019.165-.179-.058-.044.2-.271-.007.047a1.664,1.664,0,0,0,.263-.407l-.041-.012c.123-.391.453-.618.668-1.049l-.108.029c-.006-.172.143,0,.191-.185l-.094-.041c.207-.11.072-.206.076-.325l.105.089.073-.206c.067-.23-.1-.18-.183-.169l.171-.119-.106-.062c.175-.074.018-.117.16-.291-.038-.028-.081.015-.076-.056l.281-.28-.143.176.18.018c.205-.173.081-.28.182-.415l-.088.089c.128-.227.059-.256.069-.4.018.047.043.12.1.029.036-.069-.047-.05-.042-.12.129.007.234-.157.212-.326l-.047.009c.028-.038.063-.054.05-.129l-.14.021.155-.116c-.015-.095.11-.214.018-.215l-.038.048.123-.686-.1-.02c.169-.053.021-.374.191-.338-.087-.136.122-.506-.092-.441.018-.447.287-.689.157-1.236-.192-.19-.106-.722-.179-1.065a8.8,8.8,0,0,0-.137-1.822c-.316-.36-.241-1.031-.538-1.426l.047-.147c-.253-.236-.318-.713-.646-1.049a.868.868,0,0,0-.03-.189c.013.016.043.036.1.021-.09-.1-.194-.327-.29-.265l.006.032c-.1.065-.157-.343-.327-.416l.158.009-.149-.191.012.064c-.344-.99-.984-1.172-1.468-2.032-.022.175-.078-.186-.211-.11-.325-.077-.288-.365-.414-.533l.01-.027-.292-.236c.018.264-.078-.275-.051-.04a31.3,31.3,0,0,0-2.788-1.984l.073-.007a3.151,3.151,0,0,0-.79-.421c-.243-.051-.359-.331-.432-.38-.165-.191-.477-.147-.371-.112-.229-.131-.366-.373-.744-.474-.188.058-.864-.533-.967-.388l0-.013c-.51-.072-.829-.43-1.388-.485l.016.029-.815-.787.529-.407,1.138-.1a23.3,23.3,0,0,1,2.423,1.078,20.908,20.908,0,0,1,1.979.815,21,21,0,0,1,3.976,3l.139.323a12.683,12.683,0,0,1,2.144,2.363l-.1.07c.146.24.2.192.261.241a14.405,14.405,0,0,1,2.077,7.131c.11.221-.008.893.057,1.07-.19.744-.388,1.509-.539,2.246l.019-.026-.1.341.031.012a5.47,5.47,0,0,0-.484,1.462l.023-.023c-1.126,2.734-3.225,4.829-5.468,6.873a30.924,30.924,0,0,1-3.884,2.773A22.381,22.381,0,0,1-373.572,4364.254Z" fill="#4b4b4b"/>
            <path id="パス_17031" data-name="パス 17031" d="M-378.093,4366.291l.012,0C-378.057,4366.324-378.084,4366.318-378.093,4366.291Z" fill="#4b4b4b"/>
            <path id="パス_17032" data-name="パス 17032" d="M-372.653,4362.208l-.018.011.031-.09Z" fill="#4b4b4b"/>
            <path id="パス_17033" data-name="パス 17033" d="M-376.554,4364.165c.17-.1.185-.092.169-.065Z" fill="#4b4b4b"/>
            <path id="パス_17034" data-name="パス 17034" d="M-379.607,4366.906c-.092.047-.071.007-.032-.044l.168-.069Z" fill="#4b4b4b"/>
            <path id="パス_17035" data-name="パス 17035" d="M-379.553,4366.21l-.05-.017C-379.542,4366.175-379.538,4366.187-379.553,4366.21Z" fill="#4b4b4b"/>
          </g>
        </g>
        <g id="グループ_1468" data-name="グループ 1468">
          <path id="パス_17036" data-name="パス 17036" d="M-383.1,4362.517c.736,5.417,3.935,9.251,6.988,13.464-4.692.934-12.752-5.82-15.637-8.748" fill="#fff"/>
          <g id="グループ_1467" data-name="グループ 1467">
            <path id="パス_17037" data-name="パス 17037" d="M-380.062,4372.046Z" fill="#4b4b4b"/>
            <path id="パス_17038" data-name="パス 17038" d="M-381.028,4373.834l-.009,0,.008-.066Z" fill="#4b4b4b"/>
            <path id="パス_17039" data-name="パス 17039" d="M-382.606,4373.174h-.013C-382.611,4373.162-382.605,4373.148-382.606,4373.174Z" fill="#4b4b4b"/>
            <path id="パス_17040" data-name="パス 17040" d="M-377.528,4375.164l.025.014Z" fill="#4b4b4b"/>
            <path id="パス_17041" data-name="パス 17041" d="M-381.68,4369.111l0,.008-.023-.01Z" fill="#4b4b4b"/>
            <path id="パス_17042" data-name="パス 17042" d="M-381.7,4369.164c.036.027.026-.027.022-.045a.139.139,0,0,1,.083.109C-381.629,4369.246-381.665,4369.168-381.7,4369.164Z" fill="#4b4b4b"/>
            <path id="パス_17043" data-name="パス 17043" d="M-383.628,4363.311l-.012.021Z" fill="#4b4b4b"/>
            <path id="パス_17044" data-name="パス 17044" d="M-377.89,4377.028l.03.012Z" fill="#4b4b4b"/>
            <path id="パス_17045" data-name="パス 17045" d="M-383.4,4364.256l-.057.024Z" fill="#4b4b4b"/>
            <path id="パス_17046" data-name="パス 17046" d="M-381.029,4373.763v0Z" fill="#4b4b4b"/>
            <path id="パス_17047" data-name="パス 17047" d="M-383.99,4372.378l-.032.035,0,0Z" fill="#4b4b4b"/>
            <path id="パス_17048" data-name="パス 17048" d="M-391.02,4368.038l.02-.015-.005.054Z" fill="#4b4b4b"/>
            <path id="パス_17049" data-name="パス 17049" d="M-385.96,4371.335l.007-.021a.752.752,0,0,1,.229.138l-.038.066Z" fill="#4b4b4b"/>
            <path id="パス_17050" data-name="パス 17050" d="M-388.989,4371.2l.286.038a14.266,14.266,0,0,1-1.377-1.2l.007.049c-.1-.038.083-.322-1-.74l-.01.011c-.027-.027-.006-.049-.089-.07l.2.057a1.438,1.438,0,0,0-.185-.332l-.082.022-.252-.271-.149-.006c-.046-.116.132-.227-.164-.354.18-.022-.048-.166.029-.192l-.1-.006a1.638,1.638,0,0,1-.335-.513,5.711,5.711,0,0,0,.945.3c-.2-.145-.035-.057.034-.058l-.013.037c.132.076.194.011.265.043l-.02.015,0-.015-.022.03c-.014.013-.02.028.013.052v-.012l.162.141.052-.054c-.018.182.686.341.8.431.173.028.23.237.4.324.234.177.182.014.335.062.169.083-.086.042-.033.093l.234.063c-.09-.089-.008-.079.028-.086.153.114.467.2.415.354.24.11.278.065.368.127-.046,0-.118-.028-.138-.005.121.013.027.043-.015.028.081.149.8.3.72.446l.019-.024c-.049.119-.169.175-.127.3l.091,0,.052.111c.082.015.074-.034.083-.045a1.854,1.854,0,0,0,.524.372l-.386.124c.192.051.548.128.511.235l.155-.022c.418.052.146.231.3.265l.221.01-.148-.106a2.034,2.034,0,0,0,.43.089v0l-.025,0,.018.017c-.018.063.034.152.14.224.158.092.219.253.531.313l-.012.143.223.062.056-.082c-.181-.112-.486-.375-.7-.543l.023-.039c.13.095.254.24.346.295.053.016.224,0,.182-.1l.027.136a3.381,3.381,0,0,0,.967.541l-.068.014c.075.089.155.17.225.119a2.138,2.138,0,0,0,.87.3l-.02.125c.063.032.244-.063.189.1l.1.118c.088.04.106.127.235.123h0l.025,0-.005.008c.214.062-.055.09.2.154.11-.033,0,.174.123.211l.187-.087c.237.025.19.189.475.33.163.015.292-.081.26-.239.053.2.011.117.141.265.053-.045.041-.066.031-.135.176,0,.063.1.174.147-.021.124-.065.314-.032.339l-.059.012a.459.459,0,0,0,.371.208l.02-.057.135.09.04-.067.2.11-.037.008a.747.747,0,0,0,.306.124l.013-.041c.306-.005.464.212.773.332l-.014-.1c.131-.048-.012.137.127.137l.038-.1c.07.171.152.018.241-.009l-.074.124.152.018c.17-.009.141-.15.138-.225l.078.128.05-.115c.043.156.082-.007.2.1.021-.044-.007-.077.043-.087l.187.219-.12-.1-.019.181c.117.166.2.022.289.095l-.061-.069c.159.081.181.008.275-.028-.032.031-.083.078-.02.106.047.013.035-.062.082-.079a.15.15,0,0,0,.22.144l-.007-.045c.026.022.038.054.087.028l-.019-.135.082.134c.062-.032.147.073.142-.018l-.034-.03a1.378,1.378,0,0,0,.437-.039v-.107c.052.142.218-.078.225.106.065-.107.329.045.244-.156l.025,0h0l-.64,1.633h0v0l0,0-.005-.006-.009-.013-.032-.05-.053-.1-.083-.2a.981.981,0,0,0-.29-.412c-.23-.016-.426-.38-.6-.587-.253-.47-.4-.79-.676-1.262-.392-.12-.411-.707-.724-.922l.024-.136c-.262-.106-.31-.51-.624-.7a.573.573,0,0,0-.032-.151c.013.01.041.018.1-.011-.09-.053-.154-.24-.249-.16l0,.027c-.1.082-.11-.274-.256-.306l.143-.024-.116-.141.005.056c-.161-.827-.732-.889-.86-1.676-.079.158,0-.166-.146-.1-.264-.068-.129-.327-.154-.486l.02-.023-.144-.227c-.1.234.055-.246-.026-.038a11.964,11.964,0,0,1-1.082-2.181l.062.014c-.1-.182-.108-.454-.237-.575s.018-.371.008-.431c.032-.19-.183-.286-.153-.218-.033-.184.091-.4-.061-.619-.209-.036-.017-.71-.2-.674l.015-.007c-.2-.291-.03-.64-.217-.961l-.023.023.437-.782.67.1.622.473a11,11,0,0,0,.228,1.509l.562,1.1a20.59,20.59,0,0,0,1.185,2.73l-.023.259c.48.4.667,1.192,1.157,1.647l-.1.079c.091.158.148.106.19.132a33.109,33.109,0,0,0,2.9,4.147c.157.074.391.476.531.521l.036.093,0,.012,0,.006h0c.6-1.544-.824,2.1-.677,1.729h-.006l-.031,0-.061,0-.243-.011-.48,0a6.606,6.606,0,0,1-.913-.022l.022.016-.275-.046-.008.034a4.7,4.7,0,0,0-1.15-.164l.018.018c-2.115-.5-3.644-1.628-5.43-2.5a24.782,24.782,0,0,1-2.572-1.631A9.4,9.4,0,0,1-388.989,4371.2Z" fill="#4b4b4b"/>
            <path id="パス_17051" data-name="パス 17051" d="M-391.237,4369.032l.005.006C-391.268,4369.076-391.263,4369.053-391.237,4369.032Z" fill="#4b4b4b"/>
            <path id="パス_17052" data-name="パス 17052" d="M-387.027,4370.722l-.011-.007.085-.027Z" fill="#fff"/>
            <path id="パス_17053" data-name="パス 17053" d="M-389.1,4368.968c.1.067.1.08.073.084Z" fill="#4b4b4b"/>
            <path id="パス_17054" data-name="パス 17054" d="M-391.917,4368.249c-.051-.044-.011-.048.041-.046l.076.088Z" fill="#4b4b4b"/>
            <path id="パス_17055" data-name="パス 17055" d="M-391.232,4367.928l.014-.044C-391.2,4367.917-391.209,4367.927-391.232,4367.928Z" fill="#4b4b4b"/>
          </g>
        </g>
        <g id="グループ_1470" data-name="グループ 1470">
          <path id="パス_17056" data-name="パス 17056" d="M-375.26,4332.716c8.891-3.252,7.149-13.222,3.646-18.9-9.013-14.609-31.062-17.412-49.128-16.642-14.661.625-31.049,2.913-43.959,9.414-15.151,7.63-24.594,26.366-3.966,33.51" fill="#fff"/>
          <g id="グループ_1469" data-name="グループ 1469">
            <path id="パス_17057" data-name="パス 17057" d="M-391.14,4299.41c.074.018.106.036,0,0Z" fill="#4b4b4b"/>
            <path id="パス_17058" data-name="パス 17058" d="M-449.562,4300.123l-.055.016-.131-.018Z" fill="#4b4b4b"/>
            <path id="パス_17059" data-name="パス 17059" d="M-458.544,4303.082l-.052.024C-458.6,4303.093-458.614,4303.086-458.544,4303.082Z" fill="#4b4b4b"/>
            <path id="パス_17060" data-name="パス 17060" d="M-427.9,4296.909a.756.756,0,0,1,.161,0Z" fill="#4b4b4b"/>
            <path id="パス_17061" data-name="パス 17061" d="M-376.518,4307.084l-.027-.026.082.053Z" fill="#4b4b4b"/>
            <path id="パス_17062" data-name="パス 17062" d="M-376.619,4306.943c-.158-.116.015.056.074.114l-.5-.41C-377.013,4306.625-376.711,4306.9-376.619,4306.943Z" fill="#4b4b4b"/>
            <path id="パス_17063" data-name="パス 17063" d="M-371.736,4331.418l.081-.053Z" fill="#4b4b4b"/>
            <path id="パス_17064" data-name="パス 17064" d="M-428.693,4298.561l.141,0A.866.866,0,0,1-428.693,4298.561Z" fill="#4b4b4b"/>
            <path id="パス_17065" data-name="パス 17065" d="M-368.956,4327.662l.076-.03C-368.92,4327.666-368.942,4327.67-368.956,4327.662Z" fill="#4b4b4b"/>
            <path id="パス_17066" data-name="パス 17066" d="M-449.749,4300.121h0Z" fill="#4b4b4b"/>
            <path id="パス_17067" data-name="パス 17067" d="M-466.441,4306.635l-.016.054-.022.012Z" fill="#4b4b4b"/>
            <path id="パス_17068" data-name="パス 17068" d="M-473.585,4337.792l-.034.006-.112-.115Z" fill="#4b4b4b"/>
            <path id="パス_17069" data-name="パス 17069" d="M-475.246,4313.875l-.042.017a11.524,11.524,0,0,1,.9-.984l.085.01Z" fill="#4b4b4b"/>
            <path id="パス_17070" data-name="パス 17070" d="M-479.141,4324.27a8.008,8.008,0,0,1,.1-1.02,11.815,11.815,0,0,0,.071,7.43l-.028-.151c.354.25-.556.979,2.949,4.267l.012-.008a2,2,0,0,0,.361.334l-.666-.513a8.543,8.543,0,0,0,1.1,1.137c.125.078.185.09.213.084a11.659,11.659,0,0,0,1.342.987l.491.218a3.31,3.31,0,0,0,1.394.921c-.556-.139.588.378.4.343.076.017.239.067.372.1.746.4,2.284.98,2.629,1.19-.007.027-3.333-.986-4.183-1.385,1.088.556.273.166.035.085l-.051-.064c-.66-.326-.713-.264-1.05-.424l.034-.006.034.03c.039.006.028-.011,0-.036.021-.011-.006-.031-.172-.137l.027.027c-.245-.174-.689-.45-.883-.57l-.052.047c-.393-.332-2.971-2.06-3.325-2.686a8.5,8.5,0,0,1-1.382-1.965,13.235,13.235,0,0,0-.745-1.166c-.367-.772.147.134.024-.182a6.361,6.361,0,0,1-.421-.929c.152.565.021.271-.036.174a5.9,5.9,0,0,1-.464-2.469,9.821,9.821,0,0,1-.159-1.679,2.686,2.686,0,0,0,.067.509c-.052-.472.022-.225.031-.033-.042-.711.2-3.744.506-3.853l-.029-.006c.167-.14.2.14.415-.331l.045-.333.232-.466c.084-.329-.007-.18-.021-.183.33-.771.78-1.847,1.269-2.753l-.209,1.06a9.482,9.482,0,0,1,1.179-2.286l.192-.482c.831-1.534.8-.961,1.174-1.55l.461-.754-.558.7c.49-.735.719-1.012,1.124-1.6l.007,0-.044.076.086-.093a5.946,5.946,0,0,0,.918-.84c.627-.657,1.192-1.114,2.225-2.146l.366-.168.819-.74-.067-.06a35.459,35.459,0,0,0-3.4,2.987l-.051-.006c.568-.589,1.291-1.2,1.692-1.572.188-.186.634-.694.209-.407l.458-.281a50.953,50.953,0,0,1,4.662-3.419l-.2.166a6.294,6.294,0,0,0,1.156-.7c1.57-.917,3.3-1.633,4.3-2.238l.287-.019c.345-.162.795-.53,1.035-.484l.769-.295a13.8,13.8,0,0,0,1.361-.5h0l.1-.049,0,.01c1.1-.442.029.084,1.289-.427.382-.212.511-.049,1.126-.293l.57-.355a19.75,19.75,0,0,1,3.055-.864c.792-.277,1.145-.5.568-.45a6.862,6.862,0,0,0,1.369-.235c.133-.093.025-.074-.208-.058a7.475,7.475,0,0,1,1.211-.295,2.294,2.294,0,0,0,.711.093l-.248.087a17.573,17.573,0,0,0,2.3-.481l-.044-.041.879-.169.038-.074,1.252-.256-.167.054c.3-.047,1.257-.269,1.808-.379l-.029-.032c1.544-.375,2.87-.452,4.706-.75l-.255-.031c.614-.176.192.078.931-.078l.022-.093a3.322,3.322,0,0,0,1.3-.234l-.194.143.853-.132c.938-.158.558-.22.411-.263l.657.01.111-.118c.487.06.468-.078,1.3-.118.063-.048-.148-.044.13-.095l1.379-.015-.829.027.118.138c.866.007,1.157-.128,1.772-.147l-.426-.007a9.77,9.77,0,0,0,1.608-.2c-.172.043-.435.108-.029.092.3-.018.156-.067.435-.109a3.339,3.339,0,0,0,1.441-.021l-.068-.031a2.093,2.093,0,0,0,.541-.03l-.178-.1.562.057c.368-.07.913-.017.86-.089l-.212-.01,2.8-.187.035-.092c.283.108,1.528-.134,1.442.025.525-.125,2.088-.041,1.772-.2,1.854-.069,2.851.056,5.1-.017a32.494,32.494,0,0,1,4.45-.023c2.816.195,4.623.4,7.472.751a54.486,54.486,0,0,1,6.087.927l.472.174c1.247.119,3.013.705,4.71,1.05.386.156.591.231.682.262a.381.381,0,0,0-.252,0c.481.109,1.4.44,1.384.323l-.114-.047a15.882,15.882,0,0,1,1.931.614l-.333,0,.867.308-.219-.107c3.578,1.622,5.372,2.176,8.3,4.273-.3-.371.528.458.669.382a5.992,5.992,0,0,1,1.871,1.5l.017.051.97.829c-.423-.619.566.7.168.142a24.364,24.364,0,0,1,6.541,8.9l-.108-.132c.371.843.659,1.937.9,2.591a5.342,5.342,0,0,1,.23,1.758c.064.747.239,1.423.22,1.1.055.81-.1,1.574-.123,2.7.232.415-.785,3.03-.729,3.08l-.02.008a8.885,8.885,0,0,1-2.85,3.794.574.574,0,0,0,.09-.046,12.78,12.78,0,0,1-3.489,1.37l.642-.881a7.4,7.4,0,0,0,2.013-1.829,8.552,8.552,0,0,0,2.834-6.032,15.73,15.73,0,0,0-.933-5.367c-1.263-4.3-4.291-8.12-8.032-11.22l-.77-.7a38.688,38.688,0,0,0-8.962-4.611l-.01-.119a4.349,4.349,0,0,0-1.069-.322c-8.256-2.929-17.757-3.918-25.967-3.784-.795.05-3.209.056-3.832.161-2.673-.035-5.53.128-8.2.356l.1,0-1.263.092c-.053.014-.058.027-.017.031a44.11,44.11,0,0,0-5.389.6h.1c-10.065,1.25-19.5,3.11-28.333,7.337a33.664,33.664,0,0,0-11.6,8.328,35.263,35.263,0,0,0-3.231,4.54A18.721,18.721,0,0,0-479.141,4324.27Z" fill="#4b4b4b"/>
            <path id="パス_17071" data-name="パス 17071" d="M-475.031,4335.83l-.028-.023C-475.021,4335.776-474.992,4335.821-475.031,4335.83Z" fill="#4b4b4b"/>
            <path id="パス_17072" data-name="パス 17072" d="M-478.629,4318.753l-.029.057.049-.237Z" fill="#4b4b4b"/>
            <path id="パス_17073" data-name="パス 17073" d="M-480.418,4330.9c-.188-.538-.171-.57-.132-.5C-480.488,4330.6-480.454,4330.777-480.418,4330.9Z" fill="#4b4b4b"/>
            <path id="パス_17074" data-name="パス 17074" d="M-471.01,4338.354c.29.128.165.1-.022.049-.29-.139-.493-.234-.493-.234Z" fill="#4b4b4b"/>
            <path id="パス_17075" data-name="パス 17075" d="M-472.551,4338.293l.065.079C-472.646,4338.273-472.631,4338.266-472.551,4338.293Z" fill="#4b4b4b"/>
          </g>
        </g>
        <g id="グループ_1471" data-name="グループ 1471">
          <path id="パス_17076" data-name="パス 17076" d="M-438.864,4331.388a1.063,1.063,0,0,1-.368.683.947.947,0,0,1-.7.194c-.351,0-.351.174-.7.174s-.35-.21-.7-.21-.351.193-.7.193c-.333,0-.333-.018-.684-.018s-.351-.1-.7-.1-.351.052-.7.052c-.333,0-.333-.018-.683-.018s-.351-.122-.7-.122-.35.088-.7.088c-.333,0-.333.016-.684.016s-.35.053-.7.053-.351.053-.7.053c-.333,0-.333-.157-.684-.157s-.351-.036-.7-.036-.351.053-.684.053a1.054,1.054,0,0,1-.754-.158,1.032,1.032,0,0,1-.158-.736.931.931,0,0,1,.211-.7c.175-.194.42-.141.7-.141.351,0,.333-.21.7-.263.351-.035.369.193.737.193h.719c.368,0,.368.052.718.052.368,0,.368-.017.719-.017.368,0,.474.211.736-.035.246-.263.018-.369.018-.737,0-.35.088-.35.088-.718,0-.351-.246-.351-.246-.719,0-.351.456-.543.193-.789-.28-.263-.456-.053-.824-.053-.386,0-.386.1-.771.1s-.386.088-.754.088a1.027,1.027,0,0,1-.7-.333,1.125,1.125,0,0,1-.385-.7,1.123,1.123,0,0,1,.385-.7,1.009,1.009,0,0,1,.7-.316c.368,0,.368.158.754.158s.385-.088.771-.088.438.193.719-.07c.263-.263.175-.333.175-.7s-.263-.368-.263-.754c0-.368.088-.368.088-.736s.385-.56.14-.841c-.228-.246-.438-.035-.754-.035-.333,0-.333.228-.666.228s-.333.017-.666.017c-.316,0-.368-.3-.666-.192-.053.227-.158.49-.193.7-.035.228.158.473.122.684-.035.227-.245.421-.263.613a.791.791,0,0,1-.35.526c-.176.158-.316.456-.561.456-.035,0-.088-.088-.123-.1a.917.917,0,0,1-.649-.368,1,1,0,0,1-.175-.737c.017-.211-.018-.456.017-.7.036-.211.176-.438.211-.684.053-.21-.07-.473-.035-.719.052-.21.3-.4.35-.649.035-.227-.017-.473.035-.7.036-.227,0-.473.036-.718.052-.228.087-.456.122-.684.053-.229.071-.474.123-.7a1.139,1.139,0,0,1,.491-.614.963.963,0,0,1,.736-.071c.263.053.6.088.737.3a1.09,1.09,0,0,1,.052.789c-.052.245-.035.526-.088.772-.034.262-.21.613-.262.858.35.141.42-.245.806-.245.368,0,.368.175.754.175s.526.263.806.017c.264-.227-.1-.4-.1-.736s.052-.333.052-.666c0-.351.035-.351.035-.684a1.2,1.2,0,0,1,.158-.789,1.166,1.166,0,0,1,.789-.21,1.144,1.144,0,0,1,.771.21,1.2,1.2,0,0,1,.333.789c0,.333-.07.333-.07.684,0,.333-.07.333-.07.666s-.246.456,0,.684c.3.246.4.123.789.123.4,0,.4-.228.789-.228.4,0,.4.122.789.122s.385-.087.789-.087a1.146,1.146,0,0,1,.754.28,1.091,1.091,0,0,1,.193.754.985.985,0,0,1-.246.7,1.026,1.026,0,0,1-.7.3c-.4,0-.4.018-.789.018-.4,0-.4.053-.789.053s-.386-.193-.789-.193c-.386,0-.561-.246-.859.018-.263.263,0,.455,0,.823s-.018.368-.018.754c0,.368.07.368.07.736s-.228.474,0,.754c.193.246.316-.087.632-.087.3,0,.3.017.6.017s.3.018.6.018a1.036,1.036,0,0,1,.718.3.986.986,0,0,1,.176.719c0,.263.07.6-.1.772a1.169,1.169,0,0,1-.789.192c-.3,0-.3-.088-.6-.088s-.3.053-.6.053c-.316,0-.526-.28-.719-.053-.228.281.035.456.035.807,0,.368.193.368.193.719,0,.368-.105.368-.105.718,0,.368-.369.562-.106.824.228.247.439-.1.789-.1s.351-.017.7-.017c.334,0,.334.087.684.087s.351-.1.7-.1c.333,0,.333-.088.683-.088s.351.018.7.018c.263,0,.473.245.648.42s.421.386.421.666Z" fill="#4b4b4b"/>
          <path id="パス_17077" data-name="パス 17077" d="M-423.928,4324.479a1.169,1.169,0,0,1-.719.386c-.333,0-.333-.139-.648-.139-.316.017-.316.07-.649.07-.316,0-.369-.229-.666-.088.017.263.193.578.193.824.017.263-.071.508-.071.754a4.86,4.86,0,0,1,.772.263c.263.053.543.088.666.3a1.1,1.1,0,0,1,.21.771,1.087,1.087,0,0,1-.526.6,1.012,1.012,0,0,1-.718.176,2.2,2.2,0,0,1-.3-.053c-.018.263-.176.438-.211.684a4.82,4.82,0,0,1-.157.718,4.014,4.014,0,0,1-.229.685,3.832,3.832,0,0,1-.42.613,3.49,3.49,0,0,1-.526.491,2.546,2.546,0,0,1-.7.245,3.114,3.114,0,0,1-.7.175c-.228.035-.456.317-.7.317-.018,0-.018-.176-.018-.176-.017,0-.017.07-.017.07-.018,0-.018.053-.035.053a3.157,3.157,0,0,1-.807-.07,3.128,3.128,0,0,1-.719-.369,3.188,3.188,0,0,1-.631-.456c-.21-.174-.508-.28-.648-.507a2.732,2.732,0,0,1-.316-.738c-.07-.262.123-.543.123-.8,0-.018-.246-.036-.246-.088,0-.228.176-.439.228-.649.07-.211.07-.456.158-.649.105-.193.333-.316.491-.473a2.236,2.236,0,0,1,.456-.456,2.838,2.838,0,0,1,.508-.421c.193-.088.439-.07.649-.14.21-.053.42-.1.631-.14.21-.018.421-.018.649-.018.28-.017.543-.1.806-.1.105,0,.088-.018.193-.018-.018-.21.035-.385.017-.631,0-.21.176-.456.158-.683,0-.018-.122-.07-.122-.07-.351-.018-.351.174-.719.174-.351,0-.351-.192-.7-.174-.351,0-.351.052-.7.052-.351.018-.351-.017-.7-.017h-.7c-.369,0-.351.175-.719.175v-.228c-.263,0-.561.053-.736-.123a1.188,1.188,0,0,1-.369-.736,1.191,1.191,0,0,1,.369-.737c.175-.174.455-.14.718-.14.351,0,.351-.158.7-.175.333,0,.333.088.684.088s.351-.018.684-.018c.351,0,.351-.07.684-.07.35,0,.35-.053.684-.07.35,0,.42.333.736.228-.017-.228.035-.6,0-.824-.017-.229-.123-.562-.158-.789-.351-.123-.4.088-.789.07-.368,0-.368.069-.754.069-.368-.016-.368-.069-.736-.086h-.754c-.368-.018-.368.139-.754.122a1.1,1.1,0,0,1-.736-.369,1.024,1.024,0,0,1-.141-.736.842.842,0,0,1,.264-.648.845.845,0,0,1,.648-.193c.351.018.351-.052.684-.052.351.017.351-.123.684-.123.35,0,.333.14.684.158.333,0,.333.069.666.069a2.375,2.375,0,0,0,.7.018c-.018-.1.07-.369.053-.473l-.176.035a1.079,1.079,0,0,1,.176-.771,1.187,1.187,0,0,1,.648-.474c.263-.053.509.175.719.315a.922.922,0,0,1,.368.6,6.7,6.7,0,0,0,.176.7c.3.1.315.018.631.018s.316-.106.631-.088c.315,0,.315.192.631.192a.757.757,0,0,1,.6.264c.175.175.439.351.439.613a1.163,1.163,0,0,1-.3.754,1.2,1.2,0,0,1-.754.333l-.018-.053c-.386,0-.386-.157-.771-.157a1.588,1.588,0,0,0-.754.157c.017.229.105.316.122.544.018.21-.069.561-.052.79.316.1.368-.176.7-.194.351,0,.351-.017.684-.017s.333.035.683.035a1.074,1.074,0,0,1,.737.245c.176.176.123.473.123.754C-423.8,4324.024-423.752,4324.305-423.928,4324.479Zm-4.576,3.666c-.105,0-.14-.018-.263-.018-.228,0-.473.087-.719.087a4.2,4.2,0,0,0-.719.053,1.711,1.711,0,0,0-.648.281c-.281.21-.509.333-.544.683,0,0,.035,0,.035.018,0,0,.106,0,.106.018a.907.907,0,0,0,.227.666,1.446,1.446,0,0,0,.947.35.017.017,0,0,1,.018-.017l.017-.194a2.06,2.06,0,0,0,1-.1,1.432,1.432,0,0,0,.455-.789,2.069,2.069,0,0,0,.211-.527C-428.346,4328.5-428.5,4328.354-428.5,4328.145Z" fill="#4b4b4b"/>
          <path id="パス_17078" data-name="パス 17078" d="M-405.445,4330.563a.865.865,0,0,1-.579.369,2.775,2.775,0,0,1-.3.088c-.017,0-.017.035-.035.035-.193,0-.386-.194-.6-.245a2.1,2.1,0,0,1-.544-.211c-.192-.106-.49-.036-.648-.193a2.815,2.815,0,0,1-.4-.509c-.088-.175,0-.438-.053-.648a2.233,2.233,0,0,1-.018-.6,1.1,1.1,0,0,0-.035-.157c.018-.246.071-.491.071-.736s-.141-.474-.141-.719c0-.211.053-.421.053-.632s.123-.438.123-.648c-.018-.21-.141-.421-.141-.631-.017-.211-.175-.4-.193-.632a1.068,1.068,0,0,0-.21-.736c-.14-.14-.228-.333-.491-.351a1.844,1.844,0,0,0-.631.088,4.647,4.647,0,0,0-.526.315c-.123.088-.281.281-.526.474-.158.141-.3.333-.491.509-.158.14-.281.35-.456.525-.175.141-.368.281-.543.439-.158.158-.4.28-.579.456-.052.368.123.386.123.771v.754c0,.368-.175.386-.175.754,0,.386.034.386.052.754,0,.386.21.386.21.772.018.368-.14.368-.14.753a1.04,1.04,0,0,1-.175.737,1.111,1.111,0,0,1-.736.368c-.018,0-.018-.053-.018-.053-.263,0-.473-.228-.649-.386a.967.967,0,0,1-.386-.648c-.017-.316.124-.334.124-.649,0-.333.017-.333,0-.666,0-.333-.053-.333-.053-.666a1.083,1.083,0,0,0-.175-.6c-.176.193-.158.4-.334.579-.192.21-.35.4-.508.578-.193.229-.4.4-.526.544l-.158-.123c-.175.193-.333.491-.579.509a1.142,1.142,0,0,1-.736-.333.929.929,0,0,1-.263-.7.962.962,0,0,1,.158-.719c.14-.141.263-.368.438-.579.158-.157.4-.263.579-.456.158-.175.245-.421.421-.614l.508-.508c.158-.175.368-.316.526-.491.176-.175.421-.3.6-.473a1.471,1.471,0,0,0,.07-.614c0-.3-.14-.3-.14-.6-.017-.316.228-.386-.017-.578-.246-.211-.3.017-.614.035-.333.035-.316.087-.649.1-.315.035-.333-.122-.648-.087-.036,0-.053.14-.071.14a1.065,1.065,0,0,1-.683-.3,1.176,1.176,0,0,1-.351-.666.975.975,0,0,1,.333-.666c.158-.193.351-.473.614-.491.333-.035.35.175.7.14.351-.017.351,0,.684-.035.351-.017.473.1.684-.158.245-.28-.14-.368-.14-.736,0-.386,0-.386-.018-.754,0-.368.175-.386.175-.754a.757.757,0,0,1,.316-.6.776.776,0,0,1,.6-.334.987.987,0,0,1,.7.211.948.948,0,0,1,.228.7c0,.35.053.35.07.683,0,.351-.07.351-.07.7s.087.351.087.7c.018.352.141.352.141.7,0,.333-.228.35-.228.7,0,.333-.07.386.053.7.175-.158.491-.229.666-.368.175-.158.315-.333.491-.474.192-.157.28-.421.438-.543a6.152,6.152,0,0,1,.754-.228c.246-.106.438-.351.666-.421a4.239,4.239,0,0,1,.789-.1,3.4,3.4,0,0,1,.736.14c.228.07.368.333.579.456s.561.07.719.245c.175.176.21.474.333.684a2.935,2.935,0,0,1,.368.649,3.549,3.549,0,0,1,.035.754c0,.228.088.438.1.666.018.21-.175.456-.157.666,0,.229.157.439.175.666,0,.211-.018.439-.018.667,0,.263.105.525.105.772-.017.262-.228.507-.245.77,0,.035-.052.07-.052.07.017.229.262.194.28.211.035.018.017.158.3.158.035,0,.088.052.14.035a1.133,1.133,0,0,1,.772.123c.193.175.122.491.14.754A.737.737,0,0,1-405.445,4330.563Z" fill="#4b4b4b"/>
          <path id="パス_17079" data-name="パス 17079" d="M-390.929,4321.447a.785.785,0,0,1-.614.281c-.333.035-.333.07-.684.1-.35.017-.333.122-.683.14-.333.035-.333.052-.684.088-.333.017-.351-.141-.7-.106-.333.035-.316.3-.666.316-.333.035-.333-.087-.667.017-.087.211-.193.351-.3.562-.088.21-.263.385-.35.595-.106.211-.018.509-.106.719s-.227.4-.315.614c-.088.228-.211.421-.3.631-.088.228-.281.4-.368.613-.071.229-.106.457-.176.667a5.594,5.594,0,0,0-.192.666c-.071.228-.106.473-.159.684-.069.228-.157.456-.21.666-.052.246-.088.474-.123.684a1.1,1.1,0,0,1-.315.579,1.04,1.04,0,0,1-.631.315c-.053,0-.1-.14-.158-.158a1.044,1.044,0,0,1-.684-.315,1,1,0,0,1-.123-.754c.035-.21.141-.439.193-.666s.175-.439.246-.666c.052-.229.035-.474.105-.7.052-.228.035-.473.105-.7.088-.228.1-.473.175-.7.088-.21.333-.368.421-.6.07-.227.14-.438.228-.666.088-.211.123-.456.21-.666.088-.228.211-.42.316-.649.088-.21.193-.49.281-.7-.246-.106-.3,0-.562.035-.035,0-.052.123-.087.123-.246,0-.4-.228-.579-.386a.934.934,0,0,1-.333-.561,1.13,1.13,0,0,1,.105-.772c.158-.192.474-.157.737-.175.421-.035.4-.193.806-.228.421-.034.456.176.859.053.088-.193.281-.421.368-.614.106-.193.193-.385.3-.579.087-.192.122-.42.227-.613l-.087-.053a1.133,1.133,0,0,1,.6-.508,1.115,1.115,0,0,1,.789.036,1.019,1.019,0,0,1,.456.648,1.068,1.068,0,0,1-.018.772c-.122.21-.315.543-.438.771.368.1.4-.264.771-.3.386-.034.4.194.772.176.368-.035.368-.176.736-.192.368-.036.368,0,.754-.036a.955.955,0,0,1,.684.228.913.913,0,0,1,.263.648A.788.788,0,0,1-390.929,4321.447Zm1.771,9.449a4.216,4.216,0,0,1-.579.421c-.193.123-.35.351-.561.456-.228.088-.508-.017-.736.036a6.338,6.338,0,0,1-.684.21,4.973,4.973,0,0,1-.7.07,5.559,5.559,0,0,1-.754.07,3.321,3.321,0,0,1-.719-.193,4.084,4.084,0,0,1-.7-.245,6.073,6.073,0,0,1-.667-.368l-.017.017a1.245,1.245,0,0,1-.369-.736,1.126,1.126,0,0,1,.193-.772,1,1,0,0,1,.7-.333.911.911,0,0,1,.666.245,2.552,2.552,0,0,0,.789.386,3.765,3.765,0,0,0,.877-.035,3.554,3.554,0,0,0,.736.07c.245-.052.4-.333.631-.438a2.99,2.99,0,0,0,.6-.368,1.079,1.079,0,0,1,.772-.21,1,1,0,0,1,.684.35,1.077,1.077,0,0,1,.245.737A1.032,1.032,0,0,1-389.158,4330.9Zm-.561-5.277a.937.937,0,0,1-.684.317c-.368.017-.316.139-.737.157-.245.017-.508,0-.771,0-.263.017-.526.07-.754.07-.42.035-.385-.088-.753-.053-.386.018-.386-.052-.754-.035-.018,0-.036-.053-.053-.053a.8.8,0,0,1-.631-.209.959.959,0,0,1-.386-.614,1.064,1.064,0,0,1,.3-.7.84.84,0,0,1,.666-.175c.386-.035.386-.052.772-.07.368-.018.368-.141.736-.158.386-.034.386-.14.754-.157.386-.018.386.157.771.14.369-.017.369-.053.754-.07a1.148,1.148,0,0,1,.772.157c.175.158.14.491.157.754A.866.866,0,0,1-389.719,4325.619Z" fill="#4b4b4b"/>
          <path id="パス_17080" data-name="パス 17080" d="M-447.827,4350.177c-.245.227-.158.333-.4.56-.228.211-.281.159-.526.386s-.316.123-.561.351c-.246.211-.193.281-.438.491a.855.855,0,0,1-.649.176.777.777,0,0,1-.333-.123c-.176-.088-.456-.018-.561-.176a1.192,1.192,0,0,1-.123-.561l-.035-.7c-.018-.333-.053-.333-.053-.684-.017-.333.088-.35.071-.684-.018-.351.1-.351.087-.7-.018-.333-.245-.333-.263-.666-.017-.351.105-.351.088-.7-.018-.333.105-.333.088-.684-.018-.333-.088-.333-.106-.684,0-.333-.018-.333-.018-.684-.017-.333-.175-.333-.192-.684-.018-.333.158-.35.14-.683-.017-.351-.07-.351-.088-.684-.017-.351,0-.351,0-.684-.017-.35.018-.35,0-.683a.834.834,0,0,1,.333-.614.811.811,0,0,1,.579-.369,1.077,1.077,0,0,1,.789.141,1.272,1.272,0,0,1,.315.754c0,.351.018.351.036.7.017.333-.158.333-.141.684,0,.333.088.333.1.683a3.184,3.184,0,0,0,.088.685c.018.333-.088.333-.07.683,0,.333.018.333.035.684,0,.333,0,.333.018.684.017.333,0,.333,0,.683.017.333.14.333.157.666,0,.351-.122.351-.1.685.018.35-.14.386.123.6.211.158.088-.124.281-.316.193-.176.491-.123.736-.1a.729.729,0,0,1,.613.28.843.843,0,0,1,.246.649A.9.9,0,0,1-447.827,4350.177Zm7.889-5.908c-.175.174-.333.385-.6.4-.3,0-.3-.123-.578-.123-.3.017-.491-.176-.666.035-.211.263.193.421.21.754,0,.333-.122.333-.105.666,0,.333-.193.386-.088.7.211.018.491.035.684.053.21.035.421-.035.6,0a1.148,1.148,0,0,1,.719.368,1.2,1.2,0,0,1,.21.807,1.039,1.039,0,0,1-.473.613.971.971,0,0,1-.719.211c-.28-.035-.578-.194-.894-.229,0,.018-.018.141-.018.159a6.422,6.422,0,0,1,.053.806,5.572,5.572,0,0,1-.246.772,3.542,3.542,0,0,1-.28.754c-.105.192-.368.28-.526.437-.14.158-.21.439-.4.562a2.528,2.528,0,0,1-.649.158,2.012,2.012,0,0,1-.648.034h-.141a2.331,2.331,0,0,1-.7-.017,2.471,2.471,0,0,1-.719-.158,2.567,2.567,0,0,1-.579-.473,3.658,3.658,0,0,1-.4-.6,4.729,4.729,0,0,1-.3-.666c-.053-.229.105-.474.105-.72,0-.192-.175-.437-.14-.631a3.737,3.737,0,0,1,.3-.719,3.625,3.625,0,0,1,.491-.56,3.882,3.882,0,0,1,.526-.544,4.633,4.633,0,0,1,.684-.28,5.023,5.023,0,0,1,.719-.3c.245-.035.508.14.754.14.052,0,.21-.088.262-.088.018-.316-.157-.316-.157-.631-.018-.316.07-.316.07-.631s.175-.4-.07-.6c-.316-.245-.368-.157-.754-.139-.386,0-.386.122-.772.139-.385,0-.385-.122-.771-.1-.386,0-.386.262-.771.28l-.018-.088a.942.942,0,0,1-.631-.368.849.849,0,0,1-.281-.631.952.952,0,0,1,.158-.736.965.965,0,0,1,.737-.246c.385-.017.385-.087.771-.1.386,0,.386.053.771.035.386,0,.386-.123.772-.14.385,0,.561.456.824.175.28-.3-.035-.456-.053-.859,0-.4.053-.4.035-.807,0-.4-.07-.4-.07-.806a1.052,1.052,0,0,1,.193-.772,1.156,1.156,0,0,1,.771-.333c.264,0,.439.316.614.492a.744.744,0,0,1,.246.6c0,.4.07.4.07.807,0,.386.087.386.087.789s-.3.526-.07.859c.175.228.351-.193.631-.193.3,0,.3.1.579.1a.994.994,0,0,1,.7.263.919.919,0,0,1,.333.684C-439.534,4343.9-439.762,4344.075-439.938,4344.269Zm-3.8,4.277a2.206,2.206,0,0,0-.544.141c-.227.035-.49-.071-.613.017-.21.14-.228.386-.3.684-.018.07.052.123.052.192a.577.577,0,0,0,.211.474c.122.14.228.28.456.28.017,0,.017-.069.035-.069.333-.036.456.052.631-.211a2.252,2.252,0,0,0,.14-.684,2.856,2.856,0,0,0,.035-.683c0-.036-.052-.071-.052-.124,0-.017.123-.035.1-.035C-443.619,4348.528-443.672,4348.546-443.742,4348.546Zm4.541-6.978a.806.806,0,0,1-.211.578.835.835,0,0,1-.578.211c-.017,0-.017-.175-.035-.175-.21,0-.438.07-.579-.087a.957.957,0,0,1-.28-.6,4.41,4.41,0,0,0,.035-.474c0-.245-.018-.472-.018-.7a1.21,1.21,0,0,1,.193-.683c-.017-.228-.122-.456,0-.614a.959.959,0,0,1,.6-.158.659.659,0,0,1,.544.158.638.638,0,0,1,.263.508,2.531,2.531,0,0,1,.14.737c0,.228.018.491.018.753C-439.113,4341.2-439.184,4341.393-439.2,4341.568Zm2.157-1.525c-.018.192,0,.4,0,.648-.018.211-.018.439-.018.65a.641.641,0,0,1-.228.455.6.6,0,0,1-.456.176s-.017.21-.035.192c-.21,0-.3-.263-.438-.4-.14-.157-.386-.263-.386-.473.018-.228-.018-.456-.018-.667.018-.227.158-.437.158-.631.018-.386.018-.7.018-.7l.017.053a.72.72,0,0,1,.228-.562.872.872,0,0,1,.561-.28c.228.018.333.263.474.4a.623.623,0,0,1,.192.492A5.361,5.361,0,0,0-437.044,4340.043Z" fill="#4b4b4b"/>
          <path id="パス_17081" data-name="パス 17081" d="M-425.244,4346.425a7.5,7.5,0,0,1-.035.877c-.017.227-.053.472-.07.683-.035.245-.018.491-.053.7-.035.245-.175.456-.21.683s-.21.421-.263.649c-.035.228.158.508.105.736s-.228.421-.28.667a1.009,1.009,0,0,1-.351.525.966.966,0,0,1-.6.123c-.088,0-.175.14-.263.106-.263-.053-.368-.352-.491-.562s-.351-.456-.281-.718c.053-.21.228-.386.281-.6.053-.229-.018-.456.035-.667.035-.21.228-.386.263-.613.035-.21-.052-.439-.018-.666.035-.211.123-.4.141-.632.035-.21.035-.438.052-.649a4.174,4.174,0,0,0,.018-.648,3.18,3.18,0,0,0,0-.579,1.728,1.728,0,0,0-.14-.578c-.141-.21-.281-.106-.544-.159-.158-.034-.386-.262-.683-.28-.228-.017-.474.088-.737.088-.017,0,.052.018.035.018-.07.227-.245.4-.3.613s-.018.456-.07.667c-.053.227-.053.455-.105.666-.053.227-.088.438-.123.666-.053.21-.263.4-.316.613-.035.229-.105.439-.157.65-.053.227-.1.437-.158.648-.035.228.017.474-.018.684-.052.227-.228.421-.28.63-.035.229-.053.457-.105.667a.839.839,0,0,1-.246.561c-.175.141-.368.386-.6.386-.07,0-.105-.245-.158-.263a.723.723,0,0,1-.579-.315.877.877,0,0,1-.21-.685c.035-.227.018-.473.053-.7s.175-.439.21-.666.123-.456.175-.684c.036-.228-.035-.473.018-.7.035-.228.07-.474.123-.7.035-.229.087-.456.14-.685s.14-.437.193-.666.035-.473.087-.7c.071-.227.246-.438.316-.666-.263.018-.544,0-.771.018-.3.017-.544.088-.754.1a.871.871,0,0,1-.649-.3c-.193-.157-.386-.3-.4-.56a.9.9,0,0,1,.228-.7c.157-.194.35-.439.614-.456.21-.018.473.035.753.017.228-.017.491.07.754.053.245,0,.526-.088.772-.088.07-.21.193-.438.263-.648s-.036-.474.035-.684.122-.421.193-.632.122-.421.192-.631.141-.421.211-.631c.087-.246.386-.35.6-.456.228-.1.473-.262.719-.175a.944.944,0,0,1,.491.579.876.876,0,0,1,.087.7c-.07.21-.087.421-.157.631s-.263.385-.334.6c-.07.193.035.455-.017.666-.07.21-.245.421-.316.631.228.018.474-.017.684,0,.228.018.438-.035.631,0,.263.035.439.263.667.368a2.11,2.11,0,0,1,.6.439c.193.158.509.227.632.438a2.525,2.525,0,0,1,.263.719,3.64,3.64,0,0,1,.263.719A5.454,5.454,0,0,1-425.244,4346.425Zm3.559,1.263a.862.862,0,0,1-.544.472c-.1.035-.21.158-.315.158-.21,0-.351-.175-.508-.3-.158-.106-.333-.194-.4-.386-.087-.229-.175-.439-.245-.667-.088-.228-.053-.473-.14-.7s-.211-.421-.281-.649c-.087-.21-.228-.421-.316-.631-.069-.228-.14-.456-.21-.683-.07-.211-.123-.439-.193-.667-.087-.228-.14-.455-.21-.684-.07-.21-.193-.421-.263-.648-.053-.228-.228-.421-.3-.649l.175-.052a.747.747,0,0,1,.123-.666c.123-.211.193-.544.456-.632.263-.071.526.14.736.263.228.122.526.228.6.491.07.228.053.456.123.683.07.211-.017.474.052.7.071.21.141.438.211.649.07.227.3.385.368.613.07.211.14.421.21.648.088.211.193.421.264.632l.262.631c.071.228.176.421.264.649.069.211.017.473.105.684A.975.975,0,0,1-421.685,4347.688Z" fill="#4b4b4b"/>
          <path id="パス_17082" data-name="パス 17082" d="M-411.033,4345.916a.841.841,0,0,1-.473.509c-.3.14-.3.123-.6.263a6.175,6.175,0,0,0-.561.3c-.3.123-.263.211-.544.351-.3.123-.315.088-.613.211s-.263.192-.561.315c-.123.053-.3-.07-.438-.07a.841.841,0,0,1-.544-.122.978.978,0,0,1-.456-.824c.018-.351-.053-.351-.035-.7,0-.351.07-.351.088-.7,0-.334.017-.334.035-.684,0-.351-.105-.351-.105-.7,0-.333.175-.333.192-.684,0-.351-.07-.351-.07-.684.018-.35.053-.35.053-.7.017-.333-.053-.35-.035-.683,0-.351.105-.351.105-.685a.948.948,0,0,1,.228-.7,1.011,1.011,0,0,1,.7-.316,1.089,1.089,0,0,1,.649.386,1,1,0,0,1,.35.666c-.017.333.018.333.018.667,0,.351-.193.333-.193.684-.017.333.106.333.088.666,0,.333-.018.333-.018.666-.017.35.071.35.053.683,0,.333-.123.333-.123.667-.017.333-.245.473.053.614.386.158.368-.106.754-.263.385-.176.333-.281.718-.456.246-.1.509.1.754.192a.8.8,0,0,1,.526.421A.8.8,0,0,1-411.033,4345.916Zm4.331-2.033c-.018.227.035.456.017.683,0,.246-.087.456-.105.7-.017.227.018.456,0,.683-.017.246-.1.456-.14.684-.018.246.158.509.123.736-.053.211-.281.386-.334.579a5.273,5.273,0,0,1-.14.631c-.07.211,0,.474-.1.666a3.942,3.942,0,0,1-.385.544c-.123.175-.369.245-.509.421a5.556,5.556,0,0,1-.421.474,6.471,6.471,0,0,1-.578.333c-.176.122-.281.4-.474.49-.21.1-.491,0-.7.053a4.62,4.62,0,0,1-.614.28,4.441,4.441,0,0,1-.683.035v-.122c-.228,0-.439.1-.649.087-.21-.034-.438-.018-.649-.07a1.057,1.057,0,0,1-.648-.473c-.141-.211-.035-.491.034-.754.053-.263.071-.579.3-.719a1.2,1.2,0,0,1,.789-.035,3.618,3.618,0,0,0,.824.228,4.091,4.091,0,0,0,.648-.123,3.559,3.559,0,0,0,.666-.158,2.976,2.976,0,0,0,.579-.385,3.094,3.094,0,0,0,.4-.509c.123-.157.053-.455.141-.649s.3-.333.35-.543a3.748,3.748,0,0,0,.053-.649c.035-.21.21-.386.228-.613.035-.21.087-.421.105-.631.035-.211.035-.421.053-.65.017-.21.035-.42.052-.648,0-.21-.193-.421-.193-.648,0-.211.053-.421.053-.631s.123-.421.123-.632-.106-.421-.106-.631c-.017-.21,0-.421-.017-.631s-.018-.421-.035-.632a.987.987,0,0,1,.192-.736,1.186,1.186,0,0,1,.667-.455,1.143,1.143,0,0,1,.719.368.956.956,0,0,1,.315.648c.018.228.158.439.175.666s0,.457,0,.684c.018.211-.105.456-.105.666,0,.229.141.456.141.685S-406.7,4343.637-406.7,4343.883Z" fill="#4b4b4b"/>
          <path id="パス_17083" data-name="パス 17083" d="M-395.992,4349.9c-.28.263-.421.1-.7.369-.281.28-.176.4-.456.666s-.333.21-.614.473-.333.21-.613.473a.937.937,0,0,1-.614.333.852.852,0,0,1-.35-.087.992.992,0,0,1-.474-.315,1.021,1.021,0,0,1-.228-.527c-.018-.35.175-.35.158-.7,0-.351-.053-.351-.07-.684-.018-.35-.035-.35-.035-.684-.018-.351-.053-.351-.071-.684,0-.35-.034-.35-.034-.7-.018-.333-.035-.333-.053-.683,0-.333-.035-.333-.053-.684-.017-.333.018-.333.018-.684-.018-.333.088-.35.088-.684-.018-.351-.193-.333-.193-.684-.018-.333.14-.35.122-.683-.017-.351.018-.351,0-.7-.017-.333-.087-.333-.087-.666-.018-.35.105-.35.087-.7a.781.781,0,0,1,.211-.614.873.873,0,0,1,.6-.315,1.026,1.026,0,0,1,.736.158,1.057,1.057,0,0,1,.281.7c0,.351-.053.28-.035.684.017.209-.018.438-.018.683.018.229.035.456.053.684,0,.228-.018.456,0,.684,0,.245.123.473.123.666.017.4-.018.351-.018.684.018.333.035.333.052.666,0,.351.106.351.123.684s-.07.333-.052.684c.017.333-.088.333-.071.666,0,.351-.245.578.106.6.473.017.315-.263.666-.578a1.019,1.019,0,0,1,.719-.3c.245,0,.438.211.631.4.175.194.438.4.438.65A1.326,1.326,0,0,1-395.992,4349.9Zm7.942-1.368a1.169,1.169,0,0,1-.789.088c-.263-.035-.561-.053-.894-.07,0,.017-.122,0-.122.017,0,.264.21.544.175.807a4,4,0,0,1-.263.772,4.385,4.385,0,0,1-.281.754,2.931,2.931,0,0,1-.438.508,2,2,0,0,1-.473.473,2.87,2.87,0,0,1-.632.264,2.974,2.974,0,0,1-.666-.053c-.052,0-.088.07-.123.07l-.017.157a2.592,2.592,0,0,1-.737-.122,2.889,2.889,0,0,1-.613-.4c-.21-.123-.509-.176-.666-.334-.158-.175-.176-.473-.281-.684a2.521,2.521,0,0,1-.21-.648,2.8,2.8,0,0,1-.14-.666,3.8,3.8,0,0,1-.018-.631,2.628,2.628,0,0,1,.368-.649c.1-.21.1-.526.263-.7a2.505,2.505,0,0,1,.649-.4,3.289,3.289,0,0,1,.666-.3c.246-.087.438-.333.684-.368s.526.141.772.141c.052,0,.017-.088.069-.088.018-.3-.035-.28-.035-.579s.106-.3.088-.6c0-.3.3-.491.07-.666-.28-.228-.438-.053-.789-.035-.368,0-.35.192-.718.192-.351.018-.351.036-.72.053-.35,0-.35-.192-.7-.175-.368,0-.35.228-.719.245l-.017-.158a1,1,0,0,1-.719-.21,1.129,1.129,0,0,1-.386-.7,1.136,1.136,0,0,1,.386-.719.91.91,0,0,1,.7-.193c.351-.018.351-.053.719-.07.351,0,.351.07.719.052.351,0,.351-.087.7-.1.369,0,.369,0,.719-.018.368,0,.544.3.807.053.227-.211-.141-.4-.141-.72s.035-.315.018-.631c0-.315.123-.315.105-.63,0-.316.035-.316.018-.631,0-.264-.053-.562.105-.737.175-.175.473-.14.736-.14a.94.94,0,0,1,.7.157.978.978,0,0,1,.281.7c0,.316-.123.316-.123.631s.263.3.263.613c.018.316-.035.316-.035.632s-.228.351,0,.561c.228.227.246-.035.579-.053.263,0,.421.3.6.474a.793.793,0,0,1,.333.578.861.861,0,0,1-.3.614c-.175.175-.316.4-.6.421-.316,0-.4-.281-.7-.123-.281.14.052.421.052.736s.053.316.053.631a1.685,1.685,0,0,0,.088.6c.21.017.28.07.473.087.21.035.4.123.578.158.263.035.6.035.754.227a1.259,1.259,0,0,1,.228.825A1.211,1.211,0,0,1-388.05,4348.528Zm-3.594-.087c0-.017-.035,0-.035,0-.052,0-.088-.07-.14-.07a2.461,2.461,0,0,0-.561.1,1.108,1.108,0,0,0-.474.3c-.21.14-.49.158-.561.455-.017.071.088.159.088.229a.781.781,0,0,0,.245.525c.141.141.281.334.526.351.018,0,.018-.122.035-.122a.567.567,0,0,0,.562-.333,2.185,2.185,0,0,0,.157-.65c.035-.192.246-.419.246-.666C-391.556,4348.528-391.644,4348.476-391.644,4348.441Z" fill="#4b4b4b"/>
        </g>
      </g>
      <g id="グループ_1473" data-name="グループ 1473">
        <path id="パス_17084" data-name="パス 17084" d="M-433.183,4428.194h-4.461l-4.149,31.272h12.759Z" fill="#c69c6d"/>
        <path id="パス_17085" data-name="パス 17085" d="M-433.547,4462.025h-3.732a6.539,6.539,0,0,1-4.938-2.187,6.538,6.538,0,0,1-1.519-5.182l2.962-22.324c.428-3.225,2.288-6.7,5.361-6.7s4.933,3.472,5.361,6.7l2.961,22.324a6.536,6.536,0,0,1-1.518,5.181A6.538,6.538,0,0,1-433.547,4462.025Zm-1.866-30.254A6.373,6.373,0,0,0-435.7,4433l-2.961,22.323a1.393,1.393,0,0,0,.294,1.138,1.394,1.394,0,0,0,1.089.441h3.732a1.392,1.392,0,0,0,1.088-.441,1.4,1.4,0,0,0,.3-1.137L-435.126,4433h0A6.38,6.38,0,0,0-435.413,4431.771Z" fill="#505050"/>
      </g>
      <g id="グループ_1474" data-name="グループ 1474">
        <path id="パス_17086" data-name="パス 17086" d="M-455.75,4405.506c13.83,6.765,20.462,23.689,20.462,23.689s-15.791,5.954-29.621-.811-20.462-23.689-20.462-23.689S-469.58,4398.74-455.75,4405.506Z" fill="#8bd800"/>
        <path id="パス_17087" data-name="パス 17087" d="M-449.925,4434.189a36.52,36.52,0,0,1-16.108-3.507c-14.557-7.121-21.435-24.325-21.72-25.054a2.558,2.558,0,0,1,.044-1.973,2.559,2.559,0,0,1,1.436-1.355c.687-.258,16.995-6.259,31.647.908h0c14.557,7.121,21.435,24.325,21.72,25.054a2.556,2.556,0,0,1-.044,1.973,2.561,2.561,0,0,1-1.435,1.355A48.048,48.048,0,0,1-449.925,4434.189Zm-31.9-27.892c2.376,4.78,8.388,15.066,18.04,19.788,9.444,4.618,20.105,2.764,24.949,1.508-2.376-4.78-8.388-15.066-18.04-19.788h0C-466.319,4403.186-476.98,4405.041-481.824,4406.3Z" fill="#505050"/>
      </g>
      <g id="グループ_1475" data-name="グループ 1475">
        <path id="パス_17088" data-name="パス 17088" d="M-414.826,4405.506c-13.83,6.765-20.462,23.689-20.462,23.689s15.79,5.954,29.62-.811,20.463-23.689,20.463-23.689S-401,4398.74-414.826,4405.506Z" fill="#8bd800"/>
        <path id="パス_17089" data-name="パス 17089" d="M-420.651,4434.189a48,48,0,0,1-15.54-2.6,2.563,2.563,0,0,1-1.436-1.355,2.556,2.556,0,0,1-.044-1.973c.286-.729,7.163-17.933,21.721-25.054,14.654-7.168,30.96-1.167,31.647-.908a2.559,2.559,0,0,1,1.436,1.355,2.557,2.557,0,0,1,.044,1.973c-.286.729-7.163,17.933-21.72,25.054A36.531,36.531,0,0,1-420.651,4434.189Zm-11.09-6.6c4.842,1.258,15.5,3.112,24.949-1.508,9.651-4.722,15.663-15.006,18.04-19.788-4.842-1.257-15.5-3.113-24.95,1.508C-423.353,4412.527-429.365,4422.811-431.741,4427.593Z" fill="#505050"/>
      </g>
    </g>
    <rect id="長方形_260" data-name="長方形 260" width="140" height="240" transform="translate(36 25)" fill="#fff" opacity="0"/>
  </g>
</svg>
