<?xml version="1.0" encoding="UTF-8"?><svg id="_レイヤー_2" xmlns="http://www.w3.org/2000/svg" viewBox="0 0 90.00208 78.006"><defs><style>.cls-1{fill:#f54fa5;}</style></defs><g id="_レイヤー_1-2"><g id="_グループ_291"><g id="_グループ_280"><path id="_パス_990" class="cls-1" d="m12.53101,55.52934h-2.57495c-5.49609-.00598-9.95007-4.45996-9.95605-9.95605v-1.01599c.00598-5.49609,4.45996-9.95007,9.95605-9.95605h1.12097c.97729-.02393,1.78882.7489,1.81274,1.7262.02393.97717-.7489,1.78882-1.7262,1.81274-.02881.00073-.05774.00073-.08655,0h-1.12097c-3.54199.00439-6.41211,2.875-6.41602,6.41699v1.01599c.00391,3.54199,2.87402,6.4126,6.41602,6.41699h2.57397c.97729.02393,1.75012.83557,1.7262,1.81274-.02307.9436-.78259,1.70312-1.7262,1.7262l.00098.00024Z"/><path id="_パス_991" class="cls-1" d="m80.04602,55.52934h-2.573c-.97729.02393-1.78882-.7489-1.81274-1.7262-.02393-.97717.74878-1.78882,1.72607-1.81274.02881-.00073.05786-.00073.08667,0h2.573c3.54248-.00391,6.41309-2.87463,6.41699-6.41699v-1.01599c-.00391-3.54236-2.87451-6.41309-6.41699-6.41699h-1.12109c-.97729-.02393-1.75-.83557-1.72607-1.81274.02295-.9436.78247-1.70312,1.72607-1.7262h1.12109c5.49609.00598,9.94995,4.45996,9.95605,9.95605v1.01599c-.0061,5.49597-4.45996,9.94983-9.95605,9.95581Z"/></g><g id="_グループ_281"><path id="_パス_992" class="cls-1" d="m44.25806,78.00359c-15.19751.17847-28.74255-9.55371-33.422-24.01404-.33081-.91748.14478-1.92944,1.06226-2.26038.9176-.33081,1.92957.14478,2.26038,1.06238.00781.02185.01538.04382.02234.06604,4.28992,13.26538,16.85352,22.07996,30.78699,21.59998,14.27197-.29199,26.37097-8.77502,30.82495-21.61401.32104-.92041,1.32764-1.40613,2.24805-1.08508.92041.32117,1.40601,1.32764,1.08496,2.24805-4.94312,14.25098-18.323,23.66797-34.08594,23.98999-.25989.005-.52295.00708-.78198.00708Z"/><path id="_パス_993" class="cls-1" d="m11.05713,38.65544c-.09143.00061-.18274-.00647-.27295-.021-.96448-.15112-1.6239-1.05542-1.47302-2.02002,1.2533-8.41455,5.43127-16.11853,11.80005-21.75903,6.61316-5.76221,15.16675-8.80005,23.93298-8.5,18.24194.37195,32.8999,12.81201,35.65112,30.25.15259.96289-.50415,1.86731-1.46704,2.02002s-1.86743-.50415-2.02002-1.46704h0c-2.47803-15.71594-15.73401-26.927-32.23706-27.26404-16.41101-.35205-29.63098,10.87695-32.17004,27.26501-.13306.86047-.87341,1.49548-1.74402,1.49609Z"/></g><path id="_パス_994" class="cls-1" d="m44.75195,64.96341c-4.56274.0498-8.8031-2.34607-11.11499-6.28003-.50562-.83667-.23718-1.92468.59949-2.4303s1.92468-.23718,2.4303.59949c.0061.01013.01221.02039.01819.03076,1.71765,2.91687,4.89514,4.65833,8.27795,4.53699,3.37512-.00696,6.51233-1.73877,8.31702-4.59094.51025-.83337,1.59961-1.09534,2.43311-.58508.83325.51038,1.09521,1.59973.58496,2.43311h0c-2.43188,3.88354-6.68091,6.25354-11.26294,6.28198-.09399.00305-.18909.00403-.28308.00403Z"/><path id="_パス_995" class="cls-1" d="m44.27,25.11443c-.68604-.00024-1.37085-.05579-2.04797-.16602-3.28894-.52783-6.2301-2.34949-8.16797-5.05896-.5708-.79333-.39038-1.89929.40295-2.47009.79346-.57068,1.89929-.39026,2.47009.40308,2.9082,4.04126,8.54175,4.95972,12.58301,2.05151,4.04114-2.9082,4.95959-8.54175,2.05139-12.58301-2.07141-2.87854-5.63806-4.27515-9.1134-3.56848-.95312.21716-1.90186-.37952-2.1189-1.33264-.21716-.95312.37952-1.90186,1.33264-2.1189.02869-.00659.05737-.01233.0863-.01746,6.7959-1.37964,13.42346,3.01111,14.8031,9.80688,1.37964,6.7959-3.01123,13.42346-9.80701,14.8031-.81299.16504-1.6405.24915-2.47009.25098h-.00415Z"/><path id="_パス_996" class="cls-1" d="m42.01995,15.1225c-1.73169.02124-3.40552-.62317-4.67603-1.80005-1.99243-1.89429-2.79004-4.7262-2.07898-7.38196.76501-2.85095,3.11499-4.91895,6.44897-5.67798.95691-.19995,1.89465.4137,2.0946,1.37061.19482.93262-.38354,1.85217-1.30859,2.08044-2.04102.46399-3.40002,1.57996-3.81604,3.14294-.36792,1.38806.03979,2.8667,1.06702,3.87,1.10034.94055,2.64709,1.15527,3.96204.55005.91443-.34558,1.93579.11572,2.28137,1.03015s-.11572,1.93579-1.03015,2.28137c-.02588.00977-.052.01892-.07825.02747-.91992.32947-1.88892.50085-2.86597.50696Z"/><g id="_グループ_282"><path id="_パス_997" class="cls-1" d="m59.32898,51.54143c-1.65112-.00061-2.9895-1.33887-2.98999-2.98999v-3.10999c.00415-1.65137,1.34619-2.98657,2.99756-2.98242,1.64551.00427,2.97827,1.33704,2.98242,2.98242v3.10803c.00098,1.65137-1.33667,2.99084-2.98804,2.99194h-.00195Z"/><path id="_パス_998" class="cls-1" d="m30.67395,51.54143c-1.65137,0-2.98999-1.33862-2.98999-2.98999v-3.10999c.00415-1.65137,1.34631-2.98657,2.99756-2.98242,1.64539.00427,2.97827,1.33704,2.98242,2.98242v3.10803c.00049,1.65186-1.33813,2.99133-2.98999,2.99194Z"/></g></g></g></svg>