<?xml version="1.0" encoding="UTF-8"?><svg id="_レイヤー_2" xmlns="http://www.w3.org/2000/svg" viewBox="0 0 110 110"><defs><style>.cls-1{fill:#ea6da4;}.cls-2{fill:#fff;}</style></defs><g id="_レイヤー_1-2"><g id="_グループ_826"><g id="_レイヤー_1-3"><circle id="_楕円形_122" class="cls-1" cx="55" cy="55" r="55"/></g><g id="Layer_1"><path id="_パス_1974" class="cls-2" d="m55.84601,29.76294c-8.521-13.16211-25.76703-5.99194-25.76703,8.34595,0,10.76709,23.64398,27.60889,25.76703,29.80005,2.138-2.18896,24.60602-19.03101,24.60602-29.80005,0-14.22998-16.06897-21.50806-24.60602-8.34595Z"/><g id="_グループ_825"><path id="_パス_1975" class="cls-2" d="m40.888,89.82188c-1.72101.43042-3.49127.63232-5.26501.6001-1.33264-.00806-2.64685-.31177-3.84802-.88892-.96368-.47168-1.72363-1.27686-2.13898-2.26611-.13055-.28589-.13055-.61401,0-.8999.11884-.28882.35248-.51538.64502-.625.28204-.12988.60693-.12988.88898,0,.28467.12183.5069.35498.61499.64502.31256.61841.86237,1.08398,1.52399,1.29004.95062.32837,1.95398.47729,2.95898.43896,1.3822-.03076,2.75598-.22388,4.09302-.57593.30035-.08032.62073-.0271.87903.146.26532.16479.45477.42798.52698.73193.06683.302.01074.61841-.15601.87891-.16016.26538-.42096.45483-.72296.5249Zm-1.79999-10.68604c-.74194-.18945-1.49561-.32959-2.25598-.41992-.7879-.09644-1.58032-.15186-2.37402-.16602-.73022-.01489-1.46069.01099-2.18799.07788-.30945.0437-.62335-.04077-.86902-.23389-.24927-.18726-.40857-.4707-.43903-.78101-.0437-.30933.04077-.62329.23401-.8689.18719-.24951.47058-.40869.78101-.43896.85718-.08032,1.71875-.10352,2.57898-.06909.93799.03271,1.85303.10132,2.745.20605.7865.08521,1.56653.22192,2.33502.40991.29993.08179.55811.27368.72302.53711.16748.25732.21698.57397.13599.87012-.14124.62817-.76508,1.02319-1.39337.88184l-.01263-.00293-.00098-.0022Z"/><path id="_パス_1976" class="cls-2" d="m60.42303,89.82188c-1.7207.43042-3.4906.63208-5.26398.6001-1.33295-.00806-2.64752-.31177-3.849-.88892-.96381-.47144-1.72382-1.27661-2.13898-2.26611-.13092-.28564-.13092-.61426,0-.8999.11865-.28857.35193-.51489.64398-.625.2821-.12988.60687-.12988.88898,0,.28455.12183.50684.35498.61499.64502.31244.61865.8623,1.08398,1.52399,1.29004.95056.32837,1.95398.47729,2.95898.43896,1.3822-.03076,2.75598-.22388,4.09302-.57593.30035-.08032.62073-.0271.87903.146.26575.16479.45557.42773.52802.73193.06665.302.0105.61816-.15601.87891-.16022.26538-.42102.45483-.72302.5249Zm-1.79999-10.68604c-.74194-.18945-1.49554-.32983-2.25598-.41992-.7876-.09644-1.57965-.15186-2.37299-.16602-.73022-.01489-1.46069.01099-2.18799.07788-.30945.0437-.62329-.04077-.86902-.23389-.24963-.18726-.4093-.47046-.44-.78101-.04352-.30933.04102-.62329.23401-.8689.18701-.24976.47052-.40894.78101-.43896.85718-.08032,1.71875-.10352,2.57898-.06909.93738.03271,1.85229.10132,2.745.20605.78619.08521,1.56586.22217,2.33398.40991.29993.08179.55811.27368.72302.53711.16797.25708.21783.57373.13702.87012-.14124.62817-.76508,1.02319-1.39337.88184l-.01263-.00293-.00104-.0022Z"/><path id="_パス_1977" class="cls-2" d="m74.15601,91.40489c-.31134.01831-.61609-.09497-.84003-.31201-.23077-.21338-.37073-.50732-.39099-.82104-.02649-.65259.48047-1.20337,1.133-1.23096,1.26898.01318,2.51788-.31763,3.61401-.95703.84442-.54419,1.33545-1.49658,1.289-2.5.06305-.85938-.42206-1.66528-1.211-2.01196-.48767-.22021-1.01794-.33032-1.55298-.32202-.66998.00635-1.33282.13867-1.95398.38989-.77478.31665-1.48615.77026-2.09998,1.33911-.36469.31201-.73566.63794-1.11298.97705s-.73535.6521-1.07397.93799c-.23352.20386-.54053.30249-.849.27295-.30957-.02051-.59656-.16895-.79199-.40991-.20294-.24194-.29828-.55615-.26398-.87012.02496-.30493.17749-.58521.41998-.77197.54669-.44214,1.12927-.93652,1.74799-1.48389.61859-.54712,1.23401-1.11377,1.84601-1.69995.61206-.58569,1.1817-1.16235,1.70898-1.729.52734-.56665.97961-1.09106,1.35699-1.573.37799-.49463.50836-.86572.39099-1.11401-.11731-.2478-.495-.34546-1.133-.29297l-.59998.05908c-.26666.02612-.55005.05957-.84998.1001-.29999.04077-.56366.07397-.79102.1001-.22797.02661-.37439.04614-.43903.05908-.30829.04419-.62079-.04443-.85999-.2439-.24384-.19507-.3988-.48022-.42999-.79102-.04376-.30786.04492-.61987.24402-.85889.18964-.24048.46759-.39526.77197-.42993.20801-.02612.49133-.052.84998-.07788s.73297-.05518,1.12299-.08789c.3913-.03271.72467-.05518,1-.06812.74463-.08496,1.49872.00879,2.20001.27295.52435.19995.96277.57617,1.23999,1.06396.25092.48755.32349,1.04761.20502,1.58301-.15045.67139-.46991,1.29346-.92798,1.80688-.19537.24731-.4527.55005-.77197.90796s-.59601.66724-.83002.92798c.54425-.20996,1.12823-.29663,1.71002-.25391.53888.02441,1.07019.13672,1.573.33203.74353.30615,1.37921.82666,1.82599,1.49512.46814.73706.703,1.59814.67401,2.47095.06488,1.60205-.63013,3.14062-1.875,4.15088-1.53052,1.11377-3.38251,1.69824-5.27515,1.66431Z"/></g></g></g></g></svg>