<?xml version="1.0" encoding="UTF-8"?><svg id="_レイヤー_2" xmlns="http://www.w3.org/2000/svg" viewBox="0 0 110 110"><defs><style>.cls-1{fill:#fff;}.cls-2{fill:#ffb301;}</style></defs><g id="_レイヤー_1-2"><g id="_グループ_824"><g id="_レイヤー_1-3"><circle id="_楕円形_121" class="cls-2" cx="55" cy="55" r="55"/></g><g id="_2"><g id="_グループ_822"><path id="_パス_1961" class="cls-1" d="m48.771,58.177c-.14398-.1001-.34497-.23511-.38397-.26709-.70453-.51001-1.3067-1.14819-1.77502-1.8811-1.73499-2.59204-1.508-6.64209-.18103-9.83105.03302-.08008.02802-.06494.01001-.021,1.52399-3.125,1.5-5.93311.09998-7.62012-2.26599-2.73804-7.36298-2.26001-11.383,1.06812-3.73102,3.08911-5.22198,7.54712-3.60602,10.36206.10986.22949.25574.4397.43201.62305.10504.12573.21649.24585.33398.36011,1.88159,2.05444,3.48834,4.34473,4.78003,6.81299,1.38928,2.43262,2.50031,5.01392,3.31201,7.69507.01501.05298.03198.1001.047.14697,1.06104,3.19409,4.51044,4.9231,7.70441,3.86206,3.12457-1.03809,4.85968-4.37012,3.91858-7.52515-.55768-1.65039-1.74786-3.01172-3.30896-3.78491Z"/><path id="_パス_1962" class="cls-1" d="m46.34601,35.23291c1.90741-.57471,2.98792-2.58667,2.41333-4.49414s-2.58667-2.98779-4.49408-2.41333c-1.90747.57471-2.98792,2.58667-2.41333,4.49414l.00006.00024c.57513,1.90698,2.58673,2.98706,4.49402,2.41309Z"/><path id="_パス_1963" class="cls-1" d="m38.22205,35.72705c1.43622-.43286,2.24957-1.948,1.81671-3.38428-.43286-1.43604-1.948-2.24951-3.38422-1.81665-1.43622.43286-2.24957,1.948-1.81671,3.38428.00006.00024.00018.00049.00024.00073.43414,1.43506,1.94818,2.24756,3.38397,1.81592Z"/><path id="_パス_1964" class="cls-1" d="m32.60706,38.8479c1.3515-.40771,2.11652-1.83374,1.7088-3.1853-.40778-1.35156-1.83386-2.11646-3.18536-1.70874-1.35059.40747-2.11572,1.83203-1.70941,3.18311.40656,1.35181,1.83197,2.11816,3.18384,1.71167.00073-.00024.0014-.00049.00214-.00073Z"/><path id="_パス_1965" class="cls-1" d="m27.60803,39.35205c-1.2074.36328-1.8916,1.63672-1.52826,2.84399.36334,1.20752,1.63666,1.8916,2.84406,1.52832s1.8916-1.63672,1.52826-2.84399c0-.00024-.00006-.00024-.00006-.00024-.3634-1.20728-1.63666-1.89136-2.84399-1.52808Z"/><path id="_パス_1966" class="cls-1" d="m74.13403,28.36694c-4.12701-3.19409-9.23602-3.50488-11.41199-.69312-1.34003,1.73096-1.276,4.53906.349,7.61304-.01898-.04199-.02502-.05908.01099.02002,1.43201,3.14502,1.79102,7.18408.14203,9.83301-.44373.7478-1.02454,1.40552-1.71198,1.93799-.039.03394-.23499.17407-.375.27905-1.53455.82446-2.67908,2.22437-3.18201,3.89209-.88556,3.24634,1.02832,6.59619,4.27478,7.48169,3.2179.87769,6.54346-.99487,7.46124-4.20166.01599-.0459.02899-.1001.04401-.14795.72351-2.7063,1.74896-5.32275,3.05701-7.80005,1.211-2.50879,2.7417-4.85034,4.55402-6.96606.11401-.11816.2215-.24219.32202-.37207.17059-.18823.30939-.40308.41101-.63599,1.52283-2.8689-.11414-7.2749-3.94513-10.23999Z"/><path id="_パス_1967" class="cls-1" d="m62.80701,24.34399c1.92517.51196,3.90088-.63354,4.41284-2.55884.51202-1.92505-.63361-3.90088-2.55878-4.41284-1.92523-.51196-3.90088.63354-4.4129,2.55884l-.00018.00073c-.51147,1.92505.63416,3.90015,2.55902,4.41211Z"/><path id="_パス_1968" class="cls-1" d="m70.94299,24.57007c1.44983.38477,2.93701-.47852,3.3219-1.92822.38489-1.44995-.47852-2.93701-1.92822-3.32202-1.44946-.38477-2.93628.47803-3.32166,1.92725-.3844,1.44995.47852,2.93701,1.92798,3.323Z"/><path id="_パス_1969" class="cls-1" d="m76.659,27.5061c1.3645.36182,2.76392-.45068,3.12585-1.81519s-.45068-2.76392-1.81519-3.12598c-1.36401-.36182-2.76318.45044-3.12561,1.81421-.36255,1.36426.44958,2.76416,1.81384,3.12671.00037,0,.00073.00024.0011.00024Z"/><path id="_パス_1970" class="cls-1" d="m81.67004,27.84692c-1.21802-.32373-2.4679.40112-2.79175,1.61914-.32373,1.21802.40112,2.46777,1.61914,2.79175,1.2179.32373,2.46765-.40112,2.79163-1.6189.32336-1.21802-.40125-2.46777-1.61902-2.79199Z"/></g></g><g id="Layer_1"><g id="_グループ_823"><path id="_パス_1971" class="cls-1" d="m33.08301,91.13013c-.31158-.03052-.59601-.19067-.784-.44092-.19366-.24658-.2785-.56152-.23499-.87207.04395-.31201.20972-.59399.461-.78394.24005-.19214.54846-.2771.85303-.23511.36438.05127.73334.06128,1.09998.03003.31543-.03345.60962-.1748.83301-.3999.29706-.33228.51483-.72754.63702-1.15601.22357-.72266.38092-1.46387.46997-2.21509.1178-.63745.12457-1.29028.02002-1.92993-.07428-.42358-.35321-.78296-.745-.95996-.5589-.19727-1.15613-.26099-1.74402-.18604-.31335,1.07202-.68567,2.14331-1.117,3.21411-.41809,1.04395-.89899,2.06128-1.44,3.04712-.49719.91357-1.07092,1.78345-1.71503,2.6001-.18896.24414-.46753.40283-.77399.44092-.30927.04883-.625-.03271-.87201-.2251-.24255-.19897-.40027-.48291-.44098-.79395-.04968-.30664.04016-.61938.245-.85303.823-1.02246,1.52966-2.1333,2.10699-3.31201.63275-1.26392,1.16766-2.57422,1.59998-3.91992-.40002.05298-.82001.1001-1.245.14697s-.84601.08789-1.26398.12695c-.30621.02783-.61139-.06348-.85199-.25488-.25037-.18799-.41034-.47241-.44098-.78394-.03009-.31421.06476-.62744.26398-.87207.18573-.24536.46808-.39917.77502-.42212.56134-.06689,1.12799-.12231,1.70001-.16602.57202-.04419,1.13367-.07983,1.685-.10791.26038-1.10815.43097-2.2356.51001-3.37109.01898-.31201.15973-.604.39203-.81299.22626-.21289.53406-.31641.84302-.28394.62878.01929,1.1228.54468,1.10358,1.17334-.00067.02075-.00183.04126-.0036.06177-.0387.48364-.10071.98657-.18597,1.50903-.08527.52271-.1853,1.05811-.29999,1.60693,1.78998.02612,2.99866.50269,3.62598,1.42993.68506,1.29248.8797,2.78931.54797,4.21411-.12024,1.30249-.46143,2.57495-1.00897,3.76294-.36755.79614-1.01703,1.42773-1.823,1.77295-.89386.30713-1.85095.38306-2.7821.2207Zm11.01501-5.80005c-.27057.15576-.59369.19214-.89203.1001-.29919-.08545-.55481-.28125-.71503-.5481-.25031-.46289-.53198-.90845-.84302-1.33301-.33997-.47021-.68964-.92407-1.04901-1.36206-.32037-.39551-.66364-.77173-1.02802-1.12695-.22748-.20532-.36206-.4939-.37299-.80005-.01605-.3064.09802-.60522.31403-.823.20929-.22925.50275-.36353.81299-.37207.30939-.01758.61182.09595.83301.31299.44702.42236.86902.87061,1.26398,1.34204.42395.50269.82404,1.01587,1.20001,1.53906.3432.4751.65424.97241.93103,1.48901.16699.26904.21002.59692.11798.8999-.08289.2998-.29199.54883-.57294.68213Z"/><path id="_パス_1972" class="cls-1" d="m53.81799,91.36816c-.31128.0061-.61176-.11401-.83301-.33301-.22589-.21533-.35651-.51196-.36298-.82397-.00623-.31128.11389-.61182.33301-.83301.21527-.22534.51141-.35547.823-.36206,3.65802-.06665,5.487-1.1123,5.487-3.13599.02875-.60107-.22498-1.18115-.68597-1.56812-.52112-.39941-1.16718-.60083-1.823-.56812-.90118.01416-1.78845.22485-2.59998.61694-.93359.44043-1.76477,1.07129-2.44,1.85205-.16876.19531-.40179.32373-.65698.36206-.25012.04858-.5094.01074-.73499-.10791-.21906-.10107-.39337-.27905-.48999-.5-.10461-.2229-.13947-.47217-.09998-.71509.09064-.54858.19067-1.14331.29999-1.78394s.23035-1.29077.36298-1.94995c.1333-.65942.26404-1.27051.39203-1.83301.05402-.31055.24451-.58032.51898-.73511.26794-.16113.58978-.20703.89203-.12695.6308.1604,1.01544.7981.86298,1.43091-.09204.36621-.19971.78735-.323,1.26392-.12335.47656-.25061.98315-.38202,1.51904,1.2937-.94873,2.84534-1.48169,4.44897-1.52808.87433-.02051,1.74097.16772,2.52802.54907.69171.34131,1.27277.87158,1.67603,1.52905.40991.69336.61774,1.48755.59998,2.29297.04175,1.54785-.67505,3.01831-1.91998,3.93896-1.27606.99292-3.23376,1.50928-5.87311,1.54932Zm3.13501-12.271c-.4187-.2085-.89233-.43408-1.42102-.67603s-1.05762-.47754-1.58698-.70605-.99603-.42114-1.40002-.57788c-.28491-.11401-.50165-.35254-.58801-.64697-.1051-.29346-.09106-.61646.039-.8999.12585-.28662.36884-.50513.66699-.6001.29401-.09766.61316-.08691.90002.03003.43066.16943.89734.36182,1.40002.57788.50269.21582,1.00903.43799,1.51898.66602.50928.22852.97296.44727,1.39099.65601.27936.13574.49896.36963.617.65698.1239.28369.12756.60571.01001.89209-.12744.28418-.35901.50854-.64697.62695-.28571.13062-.61401.13086-.90002.00098Z"/><path id="_パス_1973" class="cls-1" d="m67.90997,91.29004c-.26746-.16016-.45874-.42163-.53003-.7251-.08105-.30005-.03125-.62061.13696-.88208.53137-.86621.98425-1.77808,1.35303-2.7251.39795-1.01221.73486-2.04761,1.00903-3.1001.28137-1.07129.50696-2.12305.677-3.15503-.37927.03882-.74829.07227-1.10706.1001-.35864.02808-.69507.05396-1.00903.07788-.31042.01953-.61621-.08228-.85303-.28394-.23828-.19727-.38318-.48511-.40002-.79395-.01831-.31201.08728-.61865.29395-.85303.19922-.23657.49084-.37598.80005-.38208.3927-.02686.80762-.05322,1.245-.0791.43726-.02612.87842-.06519,1.323-.11792.03931-.44336.06531-.86792.078-1.27295.0127-.40552.0127-.79053,0-1.15601-.01929-.30908.08667-.61304.29395-.84302.20203-.23169.49268-.36743.80005-.37305.30981-.01904.61414.08936.84204.30005.23181.20752.36694.50195.37305.81299.02417.74512.00452,1.49097-.05896,2.23389.28735-.05176.56494-.10107.83301-.14697.26794-.04614.5127-.09497.73401-.14697.3064-.06885.62756-.01245.89197.15698.26147.1604.44312.42358.5.7251.06982.3042.00964.62402-.16602.88208-.16858.2561-.43384.43286-.73499.48999-.32605.06665-.68542.13354-1.078.19995-.3927.06665-.81067.1333-1.25403.19995-.18335,1.18921-.43164,2.42114-.745,3.69507-.30444,1.24365-.6842,2.46753-1.13696,3.66504-.40161,1.08154-.90698,2.12183-1.50903,3.10596-.16003.26733-.42163.45825-.72498.52905-.29871.07935-.61694.0293-.87695-.1377Zm13.64099-.43091c-1.63806.44458-3.36328.45801-5.00806.03906-1.26941-.32178-2.34607-1.16016-2.96899-2.31201-.14282-.27515-.17432-.59448-.08801-.89209.07861-.302.28174-.5564.55896-.69995.27014-.15576.59302-.19214.89099-.1001.30139.08521.55457.29077.69995.56812.41272.71606,1.13916,1.19531,1.95996,1.29297,1.16504.15771,2.34961.08984,3.48901-.19995.30444-.06714.62317-.00684.88196.16699.26489.16309.44946.42969.50903.73511.06873.30762.00842.63013-.16699.89209-.17053.26904-.44617.45386-.75977.50977h.00195Zm-.94104-7.48608c-.50256-.11328-1.01367-.18555-1.52795-.21606-.57715-.03931-1.15588-.04883-1.73401-.02905-.54236.01514-1.08289.07104-1.61694.16699-.30066.05469-.61072-.01221-.86206-.18604-.25244-.16357-.42883-.42139-.48999-.71606-.05432-.30396.01294-.61719.18701-.87207.1637-.25928.43188-.43433.73499-.47998.64368-.12036,1.29553-.19238,1.94995-.21509.68286-.02563,1.3667-.01245,2.04797.04004.62671.04419,1.24915.13574,1.86206.27393.29614.06006.55151.24585.69995.50903.16101.2644.21375.58081.14697.88306-.07263.29614-.26404.54932-.52905.69995-.25964.15967-.57202.21021-.86877.14038l-.00012.00098Zm1.39099-3.80005c-.16602.15576-.39001.23413-.61694.21606-.22888-.00586-.44556-.10474-.59998-.27393-.15662-.18262-.35669-.40454-.59998-.66602-.24341-.26147-.46228-.49023-.65698-.68604-.13318-.13623-.20728-.31958-.20605-.51001-.00525-.21216.07593-.41724.22498-.56812.13977-.14185.32996-.22266.52905-.2251.20544-.00757.40686.05835.56799.18604.25549.18262.4978.3833.72498.6001.24414.22314.47327.46191.68604.71509.15393.16016.23254.37842.21594.6001-.01489.22827-.11023.44409-.26892.60889l-.00012.00293Zm.54895-1.78296c-.16931-.18311-.38464-.39575-.646-.63696-.26135-.24146-.49622-.44727-.70496-.61792-.13464-.13794-.2179-.31812-.23596-.51001-.02673-.20605.03796-.41357.177-.56812.12573-.15479.31006-.25024.50903-.26392.20081-.02222.40283.02979.56799.146.27051.16479.52917.34814.77405.54907.25647.2019.50183.41748.73499.646.16394.15723.25879.37305.26404.6001.00574.23047-.08276.45312-.245.61694-.30396.34155-.82739.37207-1.16895.06812-.01062-.00952-.02087-.01904-.03101-.02905l.00476-.00024Z"/></g></g></g></g></svg>