<?xml version="1.0" encoding="UTF-8"?><svg id="_レイヤー_2" xmlns="http://www.w3.org/2000/svg" viewBox="0 0 110 110"><defs><style>.cls-1{fill:#fff;}.cls-2{fill:#4dac27;}</style></defs><g id="_レイヤー_1-2"><g id="_グループ_799"><g id="_グループ_793"><g id="_レイヤー_1-3"><circle id="_楕円形_118" class="cls-2" cx="55" cy="55" r="55"/></g><g id="Layer_1"><path id="_パス_1940" class="cls-1" d="m53.19601,21.623c-12.06268-.00122-22.79559,7.65625-26.71899,19.06299-.04102.10791-.073.21509-.10602.31812-.20776.65649-.31232,1.34131-.31,2.03003.00055,3.77417,3.05676,6.83545,6.83099,6.84204h11.26501c-1.93298,2.82642-1.20868,6.68457,1.61768,8.61768,1.03168.70557,2.2525,1.08276,3.50232,1.08228h6.40002l2.54199,8.46094h4.21899l-2.54303-8.46094h0c1.95166,2.4248,4.89728,3.83447,8.01001,3.83301.35101.00024.70184-.01782,1.05103-.05396,7.04095-.54468,12.47754-6.41504,12.48102-13.47705.00171-15.6001-12.64093-28.24902-28.24103-28.25513Z"/><g id="_グループ_792"><path id="_パス_1941" class="cls-1" d="m38.74702,91.5859c-.29865.09302-.62177.06494-.90002-.07788-.28119-.13721-.49329-.38428-.586-.68311-.09174-.29077-.05536-.60669.09998-.8689.1474-.27344.40039-.47437.70001-.55591.91583-.24829,1.73987-.75732,2.37201-1.46509.49915-.61841.76526-1.39233.75201-2.18701.01044-.6853-.22113-1.35254-.65399-1.88403-.50195-.58105-1.17523-.98779-1.92297-1.16211-.20294.97241-.51422,1.91895-.92798,2.82202-.3877.85425-.86896,1.66284-1.435,2.41089.06781.15259.15308.29688.25403.42993.17871.25562.24249.57422.17603.87891-.0611.30615-.24457.57422-.508.74194-.25256.16821-.56342.22461-.85901.15601-.30634-.06104-.5744-.24463-.742-.50806-.54333.45093-1.15234.81616-1.80603,1.08301-.61047.24976-1.26343.37915-1.92297.3811-.81549.03271-1.61462-.23486-2.24597-.75195-.64691-.65869-.96851-1.57031-.87799-2.48901-.01031-.9436.20026-1.87646.61499-2.72412.41742-.83618.99066-1.58496,1.68903-2.20605.71716-.64575,1.52588-1.18213,2.40002-1.59106-.01331-.36475-.01001-.72925.01001-1.09399.02002-.3645.04266-.73584.06799-1.11401-1.18469.06665-2.25134.08643-3.20001.05908-.30719-.00488-.5979-.13965-.79999-.37109-.20453-.22241-.31018-.51831-.29303-.82007.02106-.30249.15747-.58521.38098-.79004.216-.20923.50989-.31812.81-.30005.49402.01392,1.03101.01611,1.61102.01001s1.16803-.02295,1.76703-.04907c.052-.28687.104-.57007.15601-.8501s.11072-.56299.17603-.84912c.0528-.30762.2348-.57812.5-.74292.25677-.16699.57019-.22339.86902-.15601.30029.05762.56244.23901.72198.5.1684.26318.22461.58301.15601.88794-.039.16895-.07501.34204-.10699.51807s-.06201.34912-.08801.51807c.55933-.05273,1.09631-.11133,1.61102-.17603s.99298-.13135,1.435-.19995c.29834-.06787.61139-.00366.85901.17603.25275.17163.42261.44092.46899.74292.05084.29834-.0213.60474-.20001.84912-.16302.25415-.42542.42798-.72302.479-.56.07739-1.16235.15234-1.80701.2251s-1.31134.13452-2,.18506c-.052.54688-.091,1.08716-.117,1.62109.69208-.15625,1.39948-.23462,2.10901-.23389,1.2467-.03638,2.48633.2002,3.63202.69312.91925.40234,1.70239,1.06226,2.255,1.8999.52039.83008.78821,1.79346.771,2.77295.00415.85083-.16174,1.69409-.48798,2.47998-.33612.79565-.86255,1.49658-1.53302,2.04102-.7912.6272-1.70428,1.08301-2.68121,1.33838Zm-7.77197-2.69507c.44952-.0083.89081-.12231,1.28802-.33301.46899-.23926.90277-.54199,1.289-.8999-.52289-1.29395-.86481-2.65381-1.01599-4.04102-.76111.4624-1.4057,1.09375-1.88397,1.84497-.45428.70801-.69489,1.53198-.69299,2.37305-.0285.29199.05914.58325.24402.81104.21429.1814.49219.26953.77185.24512l.00006-.00024Zm4.237-3.30005c.27795-.47729.52289-.97314.73297-1.48389.21619-.52539.3891-1.06763.51703-1.62109-.29932.01343-.5993.03931-.90002.07788-.29041.03687-.57758.0957-.85901.17603.03717.49097.09924.97949.18597,1.46411.08533.46875.19299.93115.323,1.38721l.00006-.00024Z"/><path id="_パス_1942" class="cls-1" d="m48.14003,91.01998c-.27393-.15332-.46936-.41626-.53699-.7229-.07355-.30054-.02075-.61816.146-.87891.5293-.86279.98041-1.771,1.34802-2.71411.39661-1.00732.73254-2.0376,1.00598-3.08496.27936-1.06689.50403-2.11475.67401-3.14404-.37799.03809-.745.07104-1.09998.1001s-.69397.052-1.00598.07788c-.3089.0188-.6131-.08276-.849-.28296-.2384-.1958-.38354-.48291-.40002-.79102-.01801-.31055.08734-.61572.29303-.84912.19922-.23633.49097-.37476.79999-.37988.37732-.02661.784-.05273,1.21997-.07788s.87531-.0647,1.31799-.11792c.03864-.44214.06464-.86499.078-1.26904.01337-.40381.01337-.78833,0-1.15308-.01959-.30933.08893-.61304.29999-.84009.20697-.23047.50037-.3645.81-.37012.63483-.03345,1.17651.4541,1.20996,1.08887.00043.00806.00079.01611.00104.02417.01263.32544.01263.6731,0,1.04395-.0127.37085-.03864.76465-.078,1.18188.586-.10352,1.11334-.20117,1.58197-.29297.30212-.06665.61829-.0105.87903.15601.26495.15723.44983.42041.508.7229.06934.30298.00916.62109-.16602.87793-.16772.25537-.43182.43188-.73199.48901-.32532.06665-.68665.13354-1.08398.19995-.39734.06665-.81732.13306-1.26001.19995-.18201,1.18481-.42932,2.41138-.742,3.67993-.3028,1.23828-.67773,2.45776-1.12299,3.6521-.39392,1.08032-.89435,2.1189-1.49402,3.1001-.15955.2666-.42047.45679-.72302.5271-.30145.07544-.62073.02002-.87897-.15283Zm13.591-.42993c-1.63226.44214-3.35101.45557-4.98999.03906-1.2674-.32324-2.34503-1.15552-2.97803-2.30005-.14264-.27393-.17413-.59229-.08801-.88892.07983-.29907.28204-.55078.55701-.69312.26935-.15503.59094-.19116.888-.1001.29871.08594.54913.29053.69299.56592.42206.7124,1.151,1.18872,1.97302,1.28906,1.15375.15894,2.32745.09277,3.45599-.19507.30627-.06836.6272-.00854.888.16602.26013.16504.44098.42969.5.73193.06866.30688.00867.62842-.16602.88989-.16663.25854-.43188.4375-.73401.49512l.00104.00024Zm-.95697-7.45996c-.49786-.11133-1.00378-.18335-1.513-.21509-.57184-.03857-1.1452-.0481-1.71802-.02905-.54657.0166-1.09131.07202-1.63.16602-.61255.10547-1.19891-.29199-1.328-.8999-.06793-.30005-.00781-.61499.16602-.8689.1626-.25854.42987-.43359.73199-.479.64264-.10889,1.29169-.17554,1.94299-.19995.68036-.02612,1.36163-.01636,2.04102.02905.62439.03809,1.24475.12646,1.85498.26392.30023.0564.56073.24121.71301.5061.16101.26343.20691.58154.12701.87988-.06128.29346-.24646.54639-.508.69312-.26349.16504-.5813.22021-.88507.15356l.00507.00024Z"/><path id="_パス_1943" class="cls-1" d="m72.58802,91.56686c-.91925.04492-1.82703-.21997-2.578-.75195-.67041-.54175-1.03497-1.37598-.97699-2.23608-.02808-.82568.33795-1.61548.98602-2.12793.76166-.56714,1.69769-.85034,2.646-.80005.39111,0,.78192.01978,1.17102.05908l-.05798-2.20703c-1.354.03931-2.5517.03931-3.59302,0-.30811-.01636-.59509-.16162-.79102-.3999-.19812-.22974-.29956-.5271-.28302-.83008.02191-.30371.16626-.58569.40002-.78101.22607-.20361.52716-.30298.83002-.27393.49469.02661,1.03168.04297,1.61102.04907.57935.00586,1.16833.00269,1.76703-.01001-.01263-.3125-.01898-.625-.01898-.93701s-.00702-.61694-.02002-.91699c-.63733.01343-1.25562.01685-1.85498.01001-.5993-.00659-1.146-.01636-1.64001-.02905-.30701-.00415-.5965-.14355-.79102-.3811-.20081-.23633-.30225-.5415-.28302-.85107.02203-.30371.16638-.58569.40002-.78101.22607-.20361.52728-.30249.83002-.27295.96265.06665,2.06262.08618,3.29999.05908v-1.67896c-.00604-.3103.11371-.60962.33197-.83008.21307-.22412.51074-.34839.82001-.34204.64398-.00342,1.1687.51611,1.172,1.15991v.76416c0,.2666.00665.54956.02002.84912.53333-.03882,1.04767-.08105,1.54303-.12695s.9447-.09473,1.34802-.14697c.3017-.0415.60754.03955.849.2251.24689.17651.40662.4502.43903.75195.04327.30811-.03766.62061-.22498.8689-.17682.24658-.45032.40625-.75201.43896-.45599.052-.953.1001-1.49402.13696s-1.09998.07104-1.66901.1001c0,.29932.00299.60498.00897.91699.00702.31299.01599.625.02899.93701.52069-.02539,1.01868-.06104,1.49402-.10693s.91467-.09448,1.31799-.146c.30066-.05493.61029.02319.849.21411.24591.18188.40497.45801.43903.76196.04163.302-.03943.60815-.22498.8501-.17712.24634-.45044.40576-.75201.43896-.44269.05127-.92438.09668-1.44501.13599-.52069.03931-1.06732.073-1.64001.1001.02533.52075.04138,1.01514.04797,1.48389.00665.46875.0163.90454.02899,1.30811.737.21533,1.45532.48975,2.14801.82104.62695.29565,1.22894.64185,1.79999,1.03491.25848.16724.43262.4375.47803.74194.12085.62622-.28888,1.23218-.91522,1.35303-.00726.00122-.01453.00269-.02179.00391-.30292.06152-.6178-.00586-.86902-.18604-.38806-.2749-.79248-.52612-1.211-.75195-.44934-.2439-.91205-.46216-1.38599-.65405.02197.87012-.3512,1.70312-1.01501,2.26611-.76239.52002-1.6759.77197-2.59711.71655Zm-.02002-2.20703c.37524.04883.75452-.05298,1.05499-.28296.18274-.22925.27332-.51855.25403-.81104v-.37109c-.43207-.07739-.87006-.1167-1.30902-.11792-.32056-.02466-.64087.05054-.91699.21509-.19049.13306-.30078.35352-.29303.58594,0,.52173.40338.78198,1.21002.78223v-.00024Z"/></g></g></g></g></g></svg>