<svg xmlns="http://www.w3.org/2000/svg" width="138.002" height="155.502" viewBox="0 0 138.002 155.502">
  <g id="グループ_1639" data-name="グループ 1639" transform="translate(49.001 -17304.77)">
    <g id="グループ_1637" data-name="グループ 1637" transform="translate(-49.001 17322.27)">
      <path id="パス_17573" data-name="パス 17573" d="M69,0A69,69,0,1,1,0,69,69,69,0,0,1,69,0Z" transform="translate(0 0)" fill="#fff"/>
      <g id="グループ_1621" data-name="グループ 1621" transform="translate(33.209 26.588)">
        <path id="パス_17568" data-name="パス 17568" d="M3296.907,1599.23l-4.493-23.534-3.863-20.231-3.863-20.231-.334-1.748a11.855,11.855,0,0,0-11.632-9.622h-23.115a11.855,11.855,0,0,0-11.633,9.622l-.333,1.748-3.863,20.231-3.863,20.231-4.493,23.534a1.289,1.289,0,0,0,1.266,1.531h19.2a1.289,1.289,0,0,0,1.289-1.289v-2.22h29.214v2.22a1.289,1.289,0,0,0,1.289,1.289h17.96a1.289,1.289,0,0,0,1.266-1.531Zm-56.4-65.262a9.274,9.274,0,0,1,9.1-7.527h23.115a9.275,9.275,0,0,1,9.1,7.527l.041.217h-41.4Zm-.534,2.8h42.382l3.37,17.653H3236.6Zm-3.863,20.231h50.107l3.371,17.653h-56.848Zm42.858,41.188v-2.221a1.289,1.289,0,0,0-1.289-1.289h-31.792a1.289,1.289,0,0,0-1.289,1.289v2.221h-16.351l4-20.957h57.833l4,20.957Z" transform="translate(-3225.4 -1523.863)" fill="#00b9ef"/>
        <path id="パス_17569" data-name="パス 17569" d="M3402.135,1613.122a2.31,2.31,0,0,0-.585.068,1.848,1.848,0,0,0-.531.245l-1.551.966a.924.924,0,0,0-.456.524.772.772,0,0,0,.129.646q.422.694,1.184.191l.83-.558v6.558q0,.9.816.9t.8-.9v-7.742Q3402.774,1613.122,3402.135,1613.122Z" transform="translate(-3366.09 -1596.207)" fill="#00b9ef"/>
        <path id="パス_17570" data-name="パス 17570" d="M3402.2,1722.167a3,3,0,0,0-1.422-.333,2.531,2.531,0,0,0-1.646.551,2.708,2.708,0,0,0-.912,1.558.774.774,0,0,0,.123.7.749.749,0,0,0,.6.252.736.736,0,0,0,.585-.218,1.821,1.821,0,0,0,.326-.626.9.9,0,0,1,.925-.667,1.11,1.11,0,0,1,.851.313,1.312,1.312,0,0,1,.279.952,1.563,1.563,0,0,1-.245.728,4.659,4.659,0,0,1-.6.782q-.367.395-.776.789a10.9,10.9,0,0,0-1.313,1.456,4.756,4.756,0,0,0-.687,1.286,4.005,4.005,0,0,0-.2,1.258q0,.49.9.49h3.456q.9,0,.9-.749t-.9-.735h-2.613a2.3,2.3,0,0,1,.537-.844q.456-.517,1.041-1.1.612-.585,1.082-1.1a4.928,4.928,0,0,0,.748-1.041,2.628,2.628,0,0,0,.292-1.184,2.928,2.928,0,0,0-.333-1.558A2.426,2.426,0,0,0,3402.2,1722.167Z" transform="translate(-3365.355 -1684.317)" fill="#00b9ef"/>
        <path id="パス_17571" data-name="パス 17571" d="M3401.62,1831.212a2.228,2.228,0,0,0,.925-.81,2.193,2.193,0,0,0,.367-1.245,2.575,2.575,0,0,0-.354-1.36,2.437,2.437,0,0,0-.979-.912,3.132,3.132,0,0,0-1.469-.327,2.561,2.561,0,0,0-2.136,1.1.73.73,0,0,0-.17.673.754.754,0,0,0,.442.456.745.745,0,0,0,.619.027,1.983,1.983,0,0,0,.537-.422,1.335,1.335,0,0,1,.3-.2.809.809,0,0,1,.367-.082,1.385,1.385,0,0,1,.789.238.983.983,0,0,1,.354.878,1.465,1.465,0,0,1-.279.911,1.081,1.081,0,0,1-.919.367.742.742,0,1,0,0,1.483,1.363,1.363,0,0,1,1.068.4,1.537,1.537,0,0,1,.361,1.068,1.291,1.291,0,0,1-.374,1.061,1.555,1.555,0,0,1-1,.3,1.078,1.078,0,0,1-.442-.082,1.439,1.439,0,0,1-.333-.2,2.3,2.3,0,0,0-.531-.415.8.8,0,0,0-.626-.007.676.676,0,0,0-.34,1.116,2.653,2.653,0,0,0,2.313,1.143,3.093,3.093,0,0,0,2.211-.762,2.721,2.721,0,0,0,.81-2.082,2.5,2.5,0,0,0-.422-1.428A2.293,2.293,0,0,0,3401.62,1831.212Z" transform="translate(-3364.983 -1769.195)" fill="#00b9ef"/>
      </g>
    </g>
    <g id="グループ_1638" data-name="グループ 1638" transform="translate(-38.339 17304.77)">
      <g id="グループ_1363" data-name="グループ 1363" transform="translate(0 0)">
        <path id="パス_16573" data-name="パス 16573" d="M17.286,0H99.393a17.394,17.394,0,0,1,17.286,17.5A17.394,17.394,0,0,1,99.393,35H17.286A17.394,17.394,0,0,1,0,17.5,17.394,17.394,0,0,1,17.286,0Z" fill="#ffff08"/>
        <path id="パス_17616" data-name="パス 17616" d="M-25.16-.36a5.642,5.642,0,0,1-2.18-.35,2.19,2.19,0,0,1-1.18-1.15A5.29,5.29,0,0,1-28.88-4v-6.54a5.29,5.29,0,0,1,.36-2.14,2.19,2.19,0,0,1,1.18-1.15,5.642,5.642,0,0,1,2.18-.35,5.628,5.628,0,0,1,2.19.35,2.194,2.194,0,0,1,1.17,1.15,5.29,5.29,0,0,1,.36,2.14v6.56a5.216,5.216,0,0,1-.36,2.13A2.2,2.2,0,0,1-22.97-.71,5.628,5.628,0,0,1-25.16-.36ZM-37.38,1.22a1.5,1.5,0,0,1-.96.2,1.035,1.035,0,0,1-.8-.52A1.114,1.114,0,0,1-39.3.04a1.013,1.013,0,0,1,.54-.68,7.915,7.915,0,0,0,2.64-2.28,6.936,6.936,0,0,0,1.18-3.46h-2.74a1.06,1.06,0,0,1-.81-.33,1.114,1.114,0,0,1-.31-.79,1.114,1.114,0,0,1,.31-.79,1.06,1.06,0,0,1,.81-.33h2.78v-3h-1.08q-.26.46-.54.89t-.54.79a1.306,1.306,0,0,1-.76.5,1.137,1.137,0,0,1-.92-.16,1.067,1.067,0,0,1-.48-.65.834.834,0,0,1,.14-.77,21.106,21.106,0,0,0,1.53-2.41,14.228,14.228,0,0,0,1.11-2.53,1.135,1.135,0,0,1,.58-.67,1.136,1.136,0,0,1,.9-.05,1.025,1.025,0,0,1,.66.57,1.144,1.144,0,0,1,.04.89q-.14.34-.29.7t-.31.7h3.96a1.045,1.045,0,0,1,.8.32,1.1,1.1,0,0,1,.3.78,1.1,1.1,0,0,1-.3.78,1.045,1.045,0,0,1-.8.32h-1.72v3h2.26a1.053,1.053,0,0,1,.82.33,1.134,1.134,0,0,1,.3.79,1.134,1.134,0,0,1-.3.79,1.053,1.053,0,0,1-.82.33h-2.3a1.544,1.544,0,0,1-.01.17,1.287,1.287,0,0,1-.03.17q.4.64.97,1.41t1.17,1.5q.6.73,1.06,1.23a1.035,1.035,0,0,1,.31.85,1.237,1.237,0,0,1-.43.81,1.223,1.223,0,0,1-.92.33,1.175,1.175,0,0,1-.86-.43q-.44-.52-.98-1.28t-1.06-1.56A8.987,8.987,0,0,1-35.04-.7,10.653,10.653,0,0,1-37.38,1.22ZM-25.16-2.6a1.471,1.471,0,0,0,1.11-.31,1.843,1.843,0,0,0,.27-1.17v-6.38a1.838,1.838,0,0,0-.27-1.18,1.5,1.5,0,0,0-1.11-.3,1.5,1.5,0,0,0-1.12.3,1.893,1.893,0,0,0-.26,1.18V-4.1a1.947,1.947,0,0,0,.26,1.18A1.437,1.437,0,0,0-25.16-2.6ZM-14.8,2.08a1.194,1.194,0,0,1-.85-.33A1.14,1.14,0,0,1-16,.88V-5.6a4.59,4.59,0,0,1,.35-1.99,1.973,1.973,0,0,1,1.16-1,6.763,6.763,0,0,1,2.21-.29h4.52a6.763,6.763,0,0,1,2.21.29,1.973,1.973,0,0,1,1.16,1A4.59,4.59,0,0,1-4.04-5.6v4.58A4.492,4.492,0,0,1-4.34.8a1.747,1.747,0,0,1-.97.93A5.023,5.023,0,0,1-7.14,2a1.351,1.351,0,0,1-.93-.31A1.182,1.182,0,0,1-8.46.86,1.18,1.18,0,0,1-8.2.06a.994.994,0,0,1,.72-.4,1.98,1.98,0,0,0,.88-.2q.18-.14.18-.66v-.4H-13.6V.88a1.14,1.14,0,0,1-.35.87A1.194,1.194,0,0,1-14.8,2.08ZM-3.02-8.82l-.71-.62q-.39-.34-.85-.72-1.06.08-2.38.17t-2.76.18q-1.44.09-2.87.17t-2.71.13l-2.26.09a1.122,1.122,0,0,1-.82-.28,1.054,1.054,0,0,1-.36-.78.993.993,0,0,1,.28-.78,1.136,1.136,0,0,1,.84-.3l1.46-.04,1.62-.04q.26-.36.54-.79t.54-.81h-4.86a.893.893,0,0,1-.7-.29.974.974,0,0,1-.26-.67.928.928,0,0,1,.26-.67.927.927,0,0,1,.7-.27h7.02v-.94a1.126,1.126,0,0,1,.37-.9,1.288,1.288,0,0,1,.87-.32,1.241,1.241,0,0,1,.87.32,1.158,1.158,0,0,1,.35.9v.94H-1.7a.92.92,0,0,1,.71.27.949.949,0,0,1,.25.67,1,1,0,0,1-.25.67.887.887,0,0,1-.71.29H-5.08q.66.42,1.34.91t1.29.95q.61.46,1.01.82a1.129,1.129,0,0,1,.4.76,1.115,1.115,0,0,1-.3.84,1.151,1.151,0,0,1-.82.42A1.109,1.109,0,0,1-3.02-8.82ZM-13.6-3.38h7.18v-.9H-13.6Zm.02-2.66h7.14a.923.923,0,0,0-.38-.75,2.356,2.356,0,0,0-1.12-.19h-4.14a2.356,2.356,0,0,0-1.12.19A.923.923,0,0,0-13.58-6.04Zm1.96-5.7q1.24-.04,2.45-.1t2.25-.12a.722.722,0,0,1-.14-.09.375.375,0,0,0-.12-.07.978.978,0,0,1-.41-.52.887.887,0,0,1,.03-.6h-3.02q-.2.3-.48.7ZM12.42,1.78a1.179,1.179,0,0,1-.84-.32,1.1,1.1,0,0,1-.34-.84v-2.1H9.76a1.141,1.141,0,0,1-.84-.34,1.141,1.141,0,0,1-.34-.84,1.151,1.151,0,0,1,.34-.83,1.125,1.125,0,0,1,.84-.35h1.48V-7.72q-.86,1.4-1.89,2.78A21.361,21.361,0,0,1,7.38-2.62a1.386,1.386,0,0,1-.87.41,1.061,1.061,0,0,1-.89-.33V.56a1.118,1.118,0,0,1-.34.82,1.159,1.159,0,0,1-1.64,0A1.118,1.118,0,0,1,3.3.56V-8.56q-.2.3-.41.59t-.43.57a1.077,1.077,0,0,1-.77.44A1.151,1.151,0,0,1,.8-7.22a1.1,1.1,0,0,1-.4-.73,1.027,1.027,0,0,1,.2-.79,19.475,19.475,0,0,0,1.55-2.24q.77-1.28,1.42-2.59a24.914,24.914,0,0,0,1.05-2.39,1.123,1.123,0,0,1,.63-.69,1.293,1.293,0,0,1,.91-.01,1.077,1.077,0,0,1,.63.55,1.11,1.11,0,0,1,.01.89q-.24.66-.54,1.35t-.64,1.39v8.32q.58-.58,1.24-1.38T8.2-7.25q.68-.91,1.27-1.78t1.01-1.57H7.28a1.071,1.071,0,0,1-.77-.32,1.045,1.045,0,0,1-.33-.78,1.045,1.045,0,0,1,.33-.78,1.071,1.071,0,0,1,.77-.32h3.96v-2.92a1.1,1.1,0,0,1,.34-.84,1.179,1.179,0,0,1,.84-.32,1.154,1.154,0,0,1,.82.32,1.1,1.1,0,0,1,.34.84v2.92h4.3a1.1,1.1,0,0,1,.79.32,1.045,1.045,0,0,1,.33.78,1.045,1.045,0,0,1-.33.78,1.1,1.1,0,0,1-.79.32H14.26q.42.7,1.03,1.54t1.29,1.7q.68.86,1.37,1.63T19.2-4.38a1.214,1.214,0,0,1,.36.84,1.114,1.114,0,0,1-.38.88,1.315,1.315,0,0,1-.91.37,1.145,1.145,0,0,1-.89-.37,25.35,25.35,0,0,1-1.94-2.32q-1.02-1.36-1.86-2.7v3.84h1.5a1.134,1.134,0,0,1,.83.35,1.134,1.134,0,0,1,.35.83,1.125,1.125,0,0,1-.35.84,1.151,1.151,0,0,1-.83.34h-1.5V.62a1.1,1.1,0,0,1-.34.84A1.154,1.154,0,0,1,12.42,1.78Zm20.56-.06a1.009,1.009,0,0,1-.73-.28A.982.982,0,0,1,31.96.7V-2.6A24.326,24.326,0,0,1,30-.9,26.5,26.5,0,0,1,27.84.64a1.4,1.4,0,0,1-.87.23.939.939,0,0,1-.75-.45.99.99,0,0,1-.13-.77.892.892,0,0,1,.45-.63q.66-.36,1.42-.86t1.49-1.05q.73-.55,1.29-1.05h-3.3a.869.869,0,0,1-.67-.27.923.923,0,0,1-.25-.65.949.949,0,0,1,.25-.67.869.869,0,0,1,.67-.27h4.52v-.44A1.007,1.007,0,0,1,32.25-7a1.009,1.009,0,0,1,.73-.28A1.018,1.018,0,0,1,33.7-7a.989.989,0,0,1,.3.76v.44h4.56a.894.894,0,0,1,.69.27.949.949,0,0,1,.25.67.923.923,0,0,1-.25.65.894.894,0,0,1-.69.27h-3.4a19.5,19.5,0,0,0,1.91,1.5q1.09.76,2.01,1.28a.868.868,0,0,1,.44.64.992.992,0,0,1-.16.78.959.959,0,0,1-.74.41,1.377,1.377,0,0,1-.86-.23q-.9-.6-1.92-1.42T34-2.6V.7a.965.965,0,0,1-.3.74A1.018,1.018,0,0,1,32.98,1.72ZM22.46,1.64a1.2,1.2,0,0,1-.89-.33A1.219,1.219,0,0,1,21.2.54a1.194,1.194,0,0,1,.25-.82,1.177,1.177,0,0,1,.77-.42,1.17,1.17,0,0,0,.7-.22,1.07,1.07,0,0,0,.14-.66V-5.1q-.26.1-.51.2l-.45.18a1.288,1.288,0,0,1-.92-.02,1.089,1.089,0,0,1-.64-.72,1.135,1.135,0,0,1,.06-.91,1.1,1.1,0,0,1,.7-.57q.36-.1.81-.26l.95-.34V-11.2H21.74a.989.989,0,0,1-.76-.3,1.044,1.044,0,0,1-.28-.74,1.079,1.079,0,0,1,.28-.75.973.973,0,0,1,.76-.31h1.32v-2.5a1.022,1.022,0,0,1,.33-.81,1.156,1.156,0,0,1,.79-.29,1.12,1.12,0,0,1,.78.29,1.037,1.037,0,0,1,.32.81v2.5h.88a1,1,0,0,1,.77.31,1.058,1.058,0,0,1,.29.75,1.024,1.024,0,0,1-.29.74,1.022,1.022,0,0,1-.77.3h-.88v2.82a4.66,4.66,0,0,1,.6-.24.894.894,0,0,1,.76.02.9.9,0,0,1,.52.58,1.1,1.1,0,0,1-.66,1.4l-.57.26q-.31.14-.65.3V-1.1A2.821,2.821,0,0,1,24.61.97,2.946,2.946,0,0,1,22.46,1.64ZM31.88-11.9a3.606,3.606,0,0,1-2.2-.5,2.177,2.177,0,0,1-.62-1.78,2.173,2.173,0,0,1,.62-1.79,3.664,3.664,0,0,1,2.2-.49H34.2a5.193,5.193,0,0,1,1.67.21,1.386,1.386,0,0,1,.83.71,3.188,3.188,0,0,1,.24,1.36,3.188,3.188,0,0,1-.24,1.36,1.386,1.386,0,0,1-.83.71,5.193,5.193,0,0,1-1.67.21Zm4.1,5.14a5.408,5.408,0,0,1-1.63-.19,1.248,1.248,0,0,1-.79-.68,3.559,3.559,0,0,1-.22-1.41,3.572,3.572,0,0,1,.22-1.4,1.276,1.276,0,0,1,.79-.7,5.153,5.153,0,0,1,1.63-.2,5.32,5.32,0,0,1,1.67.2,1.241,1.241,0,0,1,.78.7,3.725,3.725,0,0,1,.21,1.4,3.712,3.712,0,0,1-.21,1.41,1.214,1.214,0,0,1-.78.68A5.584,5.584,0,0,1,35.98-6.76Zm-6.02,0a5.512,5.512,0,0,1-1.64-.19,1.216,1.216,0,0,1-.79-.68,3.712,3.712,0,0,1-.21-1.41,3.725,3.725,0,0,1,.21-1.4,1.243,1.243,0,0,1,.79-.7,5.252,5.252,0,0,1,1.64-.2,5.222,5.222,0,0,1,1.66.2,1.24,1.24,0,0,1,.77.7,3.725,3.725,0,0,1,.21,1.4,3.712,3.712,0,0,1-.21,1.41,1.212,1.212,0,0,1-.77.68A5.48,5.48,0,0,1,29.96-6.76Zm2.02-6.82H34a1.2,1.2,0,0,0,.62-.11q.16-.11.16-.49t-.16-.49a1.2,1.2,0,0,0-.62-.11H31.98a1.143,1.143,0,0,0-.6.11q-.16.11-.16.49t.16.49A1.143,1.143,0,0,0,31.98-13.58Zm4,5.16a1.1,1.1,0,0,0,.65-.12.693.693,0,0,0,.13-.5.73.73,0,0,0-.13-.52,1.1,1.1,0,0,0-.65-.12,1.1,1.1,0,0,0-.64.12.693.693,0,0,0-.14.52.658.658,0,0,0,.14.5A1.1,1.1,0,0,0,35.98-8.42Zm-6.02,0a1.1,1.1,0,0,0,.64-.12.658.658,0,0,0,.14-.5.693.693,0,0,0-.14-.52,1.1,1.1,0,0,0-.64-.12,1.1,1.1,0,0,0-.64.12.693.693,0,0,0-.14.52.658.658,0,0,0,.14.5A1.1,1.1,0,0,0,29.96-8.42Z" transform="translate(58.339 25.5)" fill="#00b9ef"/>
      </g>
    </g>
  </g>
</svg>
