<?xml version="1.0" encoding="UTF-8"?><svg id="_レイヤー_2" xmlns="http://www.w3.org/2000/svg" viewBox="0 0 475.5 20"><defs><style>.cls-1{fill:#fff;}</style></defs><g id="_レイヤー_1-2"><path id="_パス_1277" class="cls-1" d="m475,0c-14.847,0-14.847,6.69397-29.694,6.69397s-14.847-6.69397-29.694-6.69397-14.845,6.69397-29.69,6.69397-14.845-6.69397-29.69-6.69397-14.845,6.69397-29.69,6.69397-14.84198-6.69397-29.689-6.69397-14.84201,6.69397-29.685,6.69397-14.84201-6.69397-29.68399-6.69397-14.841,6.69397-29.68201,6.69397-14.84399-6.69397-29.68799-6.69397-14.84299,6.69397-29.686,6.69397-14.84299-6.69397-29.685-6.69397-14.84299,6.69397-29.68503,6.69397S74.21497,0,59.37201,0s-14.84302,6.69397-29.685,6.69397S14.84399,0,0,0v20h475.5l-.5-20Z"/></g></svg>