<svg xmlns="http://www.w3.org/2000/svg" width="475.5" height="20" viewBox="0 0 475.5 20">
  <path id="パス_1035" data-name="パス 1035" d="M-141,884.5c-14.847,0-14.847,6.694-29.694,6.694s-14.847-6.694-29.694-6.694-14.845,6.694-29.69,6.694-14.845-6.694-29.69-6.694-14.845,6.694-29.69,6.694S-304.3,884.5-319.147,884.5s-14.842,6.694-29.685,6.694-14.842-6.694-29.684-6.694-14.841,6.694-29.682,6.694-14.844-6.694-29.688-6.694-14.843,6.694-29.686,6.694-14.843-6.694-29.685-6.694-14.843,6.694-29.685,6.694-14.843-6.694-29.686-6.694-14.843,6.694-29.685,6.694S-601.156,884.5-616,884.5v20h475.5Z" transform="translate(616 -884.5)" fill="#f54fa5"/>
</svg>
