<svg xmlns="http://www.w3.org/2000/svg" width="355" height="135.027" viewBox="0 0 355 135.027">
  <g id="グループ_1724" data-name="グループ 1724" transform="translate(-19 -18.171)">
    <g id="長方形_256" data-name="長方形 256" transform="translate(19 39.199)" fill="#fff" stroke="#fff" stroke-width="1" opacity="0.5">
      <rect width="355" height="113.999" stroke="none"/>
      <rect x="0.5" y="0.5" width="354" height="112.999" fill="none"/>
    </g>
    <g id="グループ_1614" data-name="グループ 1614" transform="translate(-2.389 -11629.023)">
      <g id="グループ_1373" data-name="グループ 1373" transform="translate(49.234 11695.236)">
        <g id="グループ_1353" data-name="グループ 1353" transform="translate(25.548 0)">
          <path id="パス_16566" data-name="パス 16566" d="M195.262,127.71l-5.241,14.027a2.654,2.654,0,0,0,1.328,3.352,2.352,2.352,0,0,0,3.117-1.431l.04-.109,12.813,1.646,2.654-7.1-10.305-8.353.04-.109a2.654,2.654,0,0,0-1.328-3.352A2.349,2.349,0,0,0,195.262,127.71Z" transform="translate(-177.212 -120.349)" fill="#ed6b00"/>
          <path id="パス_16567" data-name="パス 16567" d="M262.679,151.9c-2.073.458-4.935-.263-6.916-.919-7.366-8.113-19.881-11.917-30.773-5.2,1.225-8.279-3.739-16.248-11.45-18.063-8-1.881-15.893,3.567-17.642,12.166a16.7,16.7,0,0,0,4.205,14.871c-4.42,7.546-9.309,20.791,2.542,30.776,19.062,16.062,56.978,6.143,59.334-16.686C271.751,159.266,265.968,151.176,262.679,151.9Zm-35.894-.3s13.277-10.2,27.055,5.886C253.839,157.485,239.544,170.3,226.785,151.6Z" transform="translate(-167.167 -118.017)" fill="#ffc400"/>
          <ellipse id="楕円形_165" data-name="楕円形 165" cx="4.659" cy="5.012" rx="4.659" ry="5.012" transform="translate(36.307 15.651)" fill="#fff"/>
          <ellipse id="楕円形_166" data-name="楕円形 166" cx="3.346" cy="3.599" rx="3.346" ry="3.599" transform="translate(37.577 17.031)" fill="#1a1311"/>
          <ellipse id="楕円形_167" data-name="楕円形 167" cx="1.265" cy="1.36" rx="1.265" ry="1.36" transform="translate(39.074 18.422)" fill="#fff"/>
          <path id="パス_16568" data-name="パス 16568" d="M188.444,128.244a3.376,3.376,0,0,1,2.279-4.059,3.113,3.113,0,0,1,3.776,2.45c.412,1.8-1.3,8.3-1.3,8.3S188.859,130.042,188.444,128.244Z" transform="translate(-179.998 -124.087)" fill="#00b9ef"/>
          <path id="パス_16569" data-name="パス 16569" d="M187.4,132.261a3.5,3.5,0,0,1-1.056-4.6,2.993,2.993,0,0,1,4.28-1.136c1.471.956,4.537,6.862,4.537,6.862S188.872,133.217,187.4,132.261Z" transform="translate(-184.58 -120.454)" fill="#00b9ef"/>
          <path id="パス_16570" data-name="パス 16570" d="M189.3,135.876a3.109,3.109,0,0,1-3.773-2.45,3.374,3.374,0,0,1,2.279-4.059c1.669-.444,7.721,1.4,7.721,1.4S190.971,135.433,189.3,135.876Z" transform="translate(-185.434 -114.38)" fill="#00b9ef"/>
        </g>
        <g id="グループ_1612" data-name="グループ 1612" transform="translate(4.787 81.887)">
          <path id="パス_17654" data-name="パス 17654" d="M5.76.756A1.05,1.05,0,0,1,4.95.99,1.078,1.078,0,0,1,4.212.576a1.063,1.063,0,0,1-.234-.819A1.084,1.084,0,0,1,4.392-.99,8.7,8.7,0,0,0,6.426-3.231,8.436,8.436,0,0,0,7.551-6.048a8.383,8.383,0,0,0,.027-3.168,1.128,1.128,0,0,1,.18-.837,1.008,1.008,0,0,1,.7-.441,1.069,1.069,0,0,1,.837.162,1.019,1.019,0,0,1,.441.72,1.269,1.269,0,0,1,.045.27q.009.144.027.288a15.529,15.529,0,0,0,2.439-.279,2.724,2.724,0,0,0,1.1-.432.676.676,0,0,0,.279-.495.74.74,0,0,0-.234-.585,1.648,1.648,0,0,0-1.008-.207H2.862a1.086,1.086,0,0,1-.783-.324,1.042,1.042,0,0,1-.333-.774,1.034,1.034,0,0,1,.333-.783,1.1,1.1,0,0,1,.783-.315h9.522q3.564,0,3.564,2.9a2.624,2.624,0,0,1-.621,1.791A3.969,3.969,0,0,1,13.365-7.47a17,17,0,0,1-3.519.5A10.711,10.711,0,0,1,8.622-2.628,10.364,10.364,0,0,1,5.76.756ZM31.968-.558A26.529,26.529,0,0,1,26.559-.1a5.13,5.13,0,0,1-3.1-.963,3.184,3.184,0,0,1-1.062-1.6A8.539,8.539,0,0,1,22.1-5.058v-7.308a1.063,1.063,0,0,1,.333-.792,1.086,1.086,0,0,1,.783-.324,1.077,1.077,0,0,1,.792.324,1.077,1.077,0,0,1,.324.792v3.978q1.458-.36,3.033-.837t2.835-.963a1.1,1.1,0,0,1,.882.009,1.067,1.067,0,0,1,.576.639,1.066,1.066,0,0,1-.027.846,1,1,0,0,1-.621.576q-1.53.558-3.3,1.044t-3.375.846v1.17A5.042,5.042,0,0,0,24.5-3.537a1.567,1.567,0,0,0,.5.729,2.666,2.666,0,0,0,1.17.441,9.167,9.167,0,0,0,2.1.045q1.323-.09,3.375-.432a.982.982,0,0,1,.819.189,1.113,1.113,0,0,1,.441.747,1.027,1.027,0,0,1-.2.81A1.161,1.161,0,0,1,31.968-.558ZM49.608-2.34a6.705,6.705,0,0,1-2.736.522,2.466,2.466,0,0,1-1.827-.855,3.521,3.521,0,0,1-.657-2.313V-10.71a1.063,1.063,0,0,1,.333-.792,1.086,1.086,0,0,1,.783-.324,1.048,1.048,0,0,1,.783.324,1.093,1.093,0,0,1,.315.792v5.382q0,1.71,2.07.954.81-.306,1.773-.72t1.719-.774a1.121,1.121,0,0,1,.846-.063,1.067,1.067,0,0,1,.648.549,1.063,1.063,0,0,1,.081.846,1.007,1.007,0,0,1-.549.648q-.828.4-1.782.819T49.608-2.34ZM37.818-1.188a1.116,1.116,0,0,1-.846.027,1.069,1.069,0,0,1-.63-.567,1.138,1.138,0,0,1-.027-.855,1,1,0,0,1,.567-.621,6.8,6.8,0,0,0,2.3-1.665A5.858,5.858,0,0,0,40.392-7.1a9.692,9.692,0,0,0,.36-2.691,1.077,1.077,0,0,1,.324-.792,1.056,1.056,0,0,1,.774-.324,1.048,1.048,0,0,1,.783.324,1.093,1.093,0,0,1,.315.792A10.134,10.134,0,0,1,41.6-4.5,8.352,8.352,0,0,1,37.818-1.188ZM64.926-.054A1.1,1.1,0,0,1,64.08-.18a1.043,1.043,0,0,1-.5-.666,1.039,1.039,0,0,1,.126-.819,1.049,1.049,0,0,1,.666-.495,5.4,5.4,0,0,0,2.943-1.692,4.576,4.576,0,0,0,.945-2.97,4.091,4.091,0,0,0-.5-2.034,3.921,3.921,0,0,0-1.431-1.458A5.241,5.241,0,0,0,64.1-11a23.794,23.794,0,0,1-1.089,5.229,10.419,10.419,0,0,1-1.8,3.4,2.912,2.912,0,0,1-2.169,1.2,2.965,2.965,0,0,1-1.746-.558,3.742,3.742,0,0,1-1.251-1.6,6.19,6.19,0,0,1-.459-2.5,6.947,6.947,0,0,1,.567-2.8,6.951,6.951,0,0,1,1.611-2.3,7.569,7.569,0,0,1,2.457-1.548,8.382,8.382,0,0,1,3.1-.558,8.159,8.159,0,0,1,3.645.783,6.219,6.219,0,0,1,2.511,2.178A5.775,5.775,0,0,1,70.4-6.822,6.721,6.721,0,0,1,69-2.475,7.365,7.365,0,0,1,64.926-.054Zm-5.868-3.33q.324,0,.747-.549A7.335,7.335,0,0,0,60.66-5.49a17.055,17.055,0,0,0,.792-2.385,20.952,20.952,0,0,0,.54-3.051,5.3,5.3,0,0,0-2.358,1.035,5,5,0,0,0-1.44,1.818,5.408,5.408,0,0,0-.5,2.2,3.587,3.587,0,0,0,.387,1.854A1.134,1.134,0,0,0,59.058-3.384ZM76.518-.108a1.14,1.14,0,0,1-.855-.081,1.074,1.074,0,0,1-.549-.657,1.125,1.125,0,0,1,.081-.846,1,1,0,0,1,.639-.54,16.382,16.382,0,0,0,2.835-1.206,23.169,23.169,0,0,0,2.808-1.773,23.48,23.48,0,0,0,2.5-2.115,14.578,14.578,0,0,0,1.9-2.232,1.062,1.062,0,0,1,.7-.468,1.024,1.024,0,0,1,.828.18,1.015,1.015,0,0,1,.477.7,1.092,1.092,0,0,1-.171.828,16.24,16.24,0,0,1-2.106,2.475A26.15,26.15,0,0,1,82.8-3.465a26.687,26.687,0,0,1-3.15,2A18.692,18.692,0,0,1,76.518-.108ZM79.092-9.27q-.252-.216-.711-.54t-.945-.639a9.015,9.015,0,0,0-.846-.495,1.048,1.048,0,0,1-.522-.666,1.045,1.045,0,0,1,.108-.846,1.036,1.036,0,0,1,.684-.522,1.149,1.149,0,0,1,.846.108q.4.216.963.585t1.107.747a9.909,9.909,0,0,1,.846.648,1.022,1.022,0,0,1,.351.774,1.14,1.14,0,0,1-.3.81,1.03,1.03,0,0,1-.774.342A1.218,1.218,0,0,1,79.092-9.27ZM77.184-5.94a8.567,8.567,0,0,0-.729-.495q-.477-.3-.99-.585t-.873-.45a1.037,1.037,0,0,1-.558-.648,1.085,1.085,0,0,1,.054-.846,1.068,1.068,0,0,1,.657-.549,1.092,1.092,0,0,1,.837.063q.432.2,1.017.522t1.143.675q.558.351.882.6a1.021,1.021,0,0,1,.4.747,1.089,1.089,0,0,1-.27.819,1.021,1.021,0,0,1-.747.4A1.126,1.126,0,0,1,77.184-5.94Zm8.55-4.752a.687.687,0,0,1-.549.225.719.719,0,0,1-.549-.261q-.234-.252-.567-.6t-.621-.621a.631.631,0,0,1-.2-.45.684.684,0,0,1,.2-.522.729.729,0,0,1,.486-.216.8.8,0,0,1,.522.144,6.671,6.671,0,0,1,.675.549,7.978,7.978,0,0,1,.639.639.7.7,0,0,1,.216.558A.831.831,0,0,1,85.734-10.692Zm.486-1.638q-.234-.234-.594-.567t-.666-.567a.662.662,0,0,1-.234-.45.653.653,0,0,1,.162-.522.638.638,0,0,1,.459-.261.877.877,0,0,1,.531.117,6.869,6.869,0,0,1,.711.495,7.459,7.459,0,0,1,.693.6.734.734,0,0,1,.243.54.823.823,0,0,1-.207.576.714.714,0,0,1-.531.252A.714.714,0,0,1,86.22-12.33Zm8.928,12.1a.964.964,0,0,1-.693-.288.921.921,0,0,1-.3-.684.884.884,0,0,1,.3-.684,1,1,0,0,1,.693-.27h4.968a4.477,4.477,0,0,0,1.026-.09.735.735,0,0,0,.513-.414,2.791,2.791,0,0,0,.189-.99H95.22a.919.919,0,0,1-.675-.279.919.919,0,0,1-.279-.675.941.941,0,0,1,.279-.693.919.919,0,0,1,.675-.279h6.606a2.051,2.051,0,0,0-.225-.855.787.787,0,0,0-.513-.36,4.357,4.357,0,0,0-.954-.081h-4.77a.95.95,0,0,1-.684-.279.905.905,0,0,1-.288-.675.926.926,0,0,1,.288-.693.95.95,0,0,1,.684-.279h4.77a7.666,7.666,0,0,1,1.818.18,2.146,2.146,0,0,1,1.125.639,2.763,2.763,0,0,1,.576,1.3,11.077,11.077,0,0,1,.171,2.151,11.221,11.221,0,0,1-.171,2.16,2.836,2.836,0,0,1-.576,1.314,2.118,2.118,0,0,1-1.125.648,7.666,7.666,0,0,1-1.818.18ZM117-1.08a14.24,14.24,0,0,1-3.051-.27,3.9,3.9,0,0,1-1.863-.9,3.363,3.363,0,0,1-.927-1.674,10.888,10.888,0,0,1-.261-2.592,10.888,10.888,0,0,1,.261-2.592,3.363,3.363,0,0,1,.927-1.674,3.9,3.9,0,0,1,1.863-.9,14.24,14.24,0,0,1,3.051-.27,14.216,14.216,0,0,1,3.06.27,3.9,3.9,0,0,1,1.854.9,3.363,3.363,0,0,1,.927,1.674,10.888,10.888,0,0,1,.261,2.592,10.888,10.888,0,0,1-.261,2.592,3.363,3.363,0,0,1-.927,1.674,3.9,3.9,0,0,1-1.854.9A14.216,14.216,0,0,1,117-1.08Zm0-2.2a12.271,12.271,0,0,0,2.043-.135,2.454,2.454,0,0,0,1.17-.477,1.693,1.693,0,0,0,.54-.981,8.215,8.215,0,0,0,.135-1.647,8.215,8.215,0,0,0-.135-1.647,1.693,1.693,0,0,0-.54-.981,2.454,2.454,0,0,0-1.17-.477A12.271,12.271,0,0,0,117-9.756a12.3,12.3,0,0,0-2.034.135,2.464,2.464,0,0,0-1.179.477,1.693,1.693,0,0,0-.54.981,8.215,8.215,0,0,0-.135,1.647,8.215,8.215,0,0,0,.135,1.647,1.693,1.693,0,0,0,.54.981,2.464,2.464,0,0,0,1.179.477A12.3,12.3,0,0,0,117-3.276ZM138.96.81a22.074,22.074,0,0,1-4.068.261,8.107,8.107,0,0,1-2.655-.495,3.05,3.05,0,0,1-1.449-1.107,2.828,2.828,0,0,1-.45-1.575,3.644,3.644,0,0,1,1.089-2.52,9.171,9.171,0,0,1,3.159-2.052,1.413,1.413,0,0,0-.7-.486,2.253,2.253,0,0,0-1.773.2,6.557,6.557,0,0,0-1.7,1.368,1.142,1.142,0,0,1-.8.351.973.973,0,0,1-.8-.3,1.086,1.086,0,0,1-.261-.792,1,1,0,0,1,.369-.738,10.81,10.81,0,0,0,1.557-1.638,11.327,11.327,0,0,0,1.143-1.818q-.774.018-1.449.027t-1.161-.009a1.012,1.012,0,0,1-.756-.315,1.057,1.057,0,0,1-.306-.765,1,1,0,0,1,.342-.738,1.058,1.058,0,0,1,.774-.27q.63.018,1.521.009t1.863-.027q.09-.342.162-.666t.126-.648a1.173,1.173,0,0,1,.4-.729.959.959,0,0,1,.774-.225,1.038,1.038,0,0,1,.72.4,1.031,1.031,0,0,1,.216.792,3.662,3.662,0,0,1-.072.486q-.054.252-.126.5.684-.036,1.278-.081t1.062-.117a1.079,1.079,0,0,1,.8.207,1,1,0,0,1,.4.711,1.013,1.013,0,0,1-.225.792.991.991,0,0,1-.711.378q-.666.072-1.53.126t-1.8.09a15.339,15.339,0,0,1-.864,1.656,3.038,3.038,0,0,1,.828-.063,3.436,3.436,0,0,1,.756.135,3.427,3.427,0,0,1,1.053.495,3.274,3.274,0,0,1,.909.981q.882-.252,1.881-.468t2.115-.378a1.016,1.016,0,0,1,.792.189.986.986,0,0,1,.414.711.975.975,0,0,1-.2.792,1.106,1.106,0,0,1-.72.414q-1.044.126-1.926.3t-1.638.369q.09.486.144,1.062t.054,1.242a1.041,1.041,0,0,1-.315.765,1.042,1.042,0,0,1-.765.315,1.012,1.012,0,0,1-.756-.315,1.057,1.057,0,0,1-.306-.765,11.131,11.131,0,0,0-.108-1.638,6.252,6.252,0,0,0-2.133,1.3,2,2,0,0,0-.657,1.341.9.9,0,0,0,.576.792,4.664,4.664,0,0,0,1.926.342,25.017,25.017,0,0,0,3.69-.27,1.078,1.078,0,0,1,.792.207.986.986,0,0,1,.414.711,1,1,0,0,1-.216.774A1.094,1.094,0,0,1,138.96.81ZM5.31,26.306a1.063,1.063,0,0,1-.846.009,1.138,1.138,0,0,1-.63-.585,1.157,1.157,0,0,1-.018-.873,1.035,1.035,0,0,1,.576-.621,17.772,17.772,0,0,0,4.743-3.024,11.1,11.1,0,0,0,2.817-3.834,1.529,1.529,0,0,0,.126-1.359q-.27-.459-1.332-.459H4a1.042,1.042,0,0,1-.774-.333,1.119,1.119,0,0,1,0-1.575A1.056,1.056,0,0,1,4,13.328h6.84a4.62,4.62,0,0,1,2.565.6,2.35,2.35,0,0,1,1.071,1.674,4.8,4.8,0,0,1-.432,2.511,13.8,13.8,0,0,1-3.285,4.635A19.139,19.139,0,0,1,5.31,26.306ZM16.488,15.434a1.818,1.818,0,1,1,0-3.636,1.732,1.732,0,0,1,1.269.531,1.825,1.825,0,0,1,0,2.574A1.732,1.732,0,0,1,16.488,15.434Zm0-1.044a.774.774,0,1,0,0-1.548.777.777,0,0,0-.558.225.761.761,0,0,0,0,1.1A.777.777,0,0,0,16.488,14.39Zm9.9,9.792a5.145,5.145,0,0,1-3.915.135q-1.431-.711-1.431-3V15.146a1.063,1.063,0,0,1,.333-.792,1.112,1.112,0,0,1,1.9.792v5.94q0,.954.54,1.2a2.784,2.784,0,0,0,1.8-.153,19.618,19.618,0,0,0,3.519-1.521,25.626,25.626,0,0,0,3.177-2.043,1.16,1.16,0,0,1,.837-.216A1.1,1.1,0,0,1,34.1,19.6a1.118,1.118,0,0,1-.423.747,21.559,21.559,0,0,1-2.133,1.431q-1.2.711-2.52,1.332A26.139,26.139,0,0,1,26.388,24.182ZM51.354,25.8a30.653,30.653,0,0,1-3.6.189,9.6,9.6,0,0,1-2.5-.324,4.267,4.267,0,0,1-1.656-.873,3.461,3.461,0,0,1-1.062-1.728,9.065,9.065,0,0,1-.252-2.232v-2.3q-1.242.18-2.4.342t-1.953.288a1.149,1.149,0,0,1-1.26-.954,1.039,1.039,0,0,1,.207-.828,1.114,1.114,0,0,1,.729-.432q.81-.09,2.07-.252t2.61-.342V13.364a1.034,1.034,0,0,1,.333-.783,1.1,1.1,0,0,1,.783-.315,1.048,1.048,0,0,1,.783.324,1.093,1.093,0,0,1,.315.792v2.664q1.062-.144,1.863-.243t1.107-.153a4.891,4.891,0,0,1,2.9.189,2.237,2.237,0,0,1,1.17,1.791,2.8,2.8,0,0,1-.7,2.376,6.4,6.4,0,0,1-3.186,1.6,1.192,1.192,0,0,1-.837-.09.981.981,0,0,1-.531-.648,1.1,1.1,0,0,1,.081-.837,1.011,1.011,0,0,1,.657-.531,7.055,7.055,0,0,0,1.764-.666.765.765,0,0,0,.432-.7.412.412,0,0,0-.27-.423,2.833,2.833,0,0,0-1.026.027q-.378.054-1.305.18t-2.115.306v2.61a5.29,5.29,0,0,0,.153,1.467,1.9,1.9,0,0,0,.459.8,3.486,3.486,0,0,0,1.962.63,23.111,23.111,0,0,0,4.068-.144,1.11,1.11,0,0,1,.819.252,1.149,1.149,0,0,1,.153,1.566A1.029,1.029,0,0,1,51.354,25.8Zm.666-10.314a.688.688,0,0,1-.549.2.748.748,0,0,1-.549-.27q-.216-.252-.549-.612t-.6-.648a.622.622,0,0,1-.18-.459.742.742,0,0,1,.216-.513.693.693,0,0,1,.486-.207.793.793,0,0,1,.522.171q.27.216.657.567a6.4,6.4,0,0,1,.639.657.766.766,0,0,1,.18.558A.8.8,0,0,1,52.02,15.488Zm.54-1.638q-.234-.234-.585-.576t-.657-.594a.663.663,0,0,1-.207-.45.683.683,0,0,1,.171-.522.724.724,0,0,1,.477-.243.749.749,0,0,1,.513.135,5.329,5.329,0,0,1,.7.513q.4.333.684.621a.721.721,0,0,1,.225.549.89.89,0,0,1-.225.567.66.66,0,0,1-.531.234A.772.772,0,0,1,52.56,13.85ZM58.716,25.3a1.062,1.062,0,0,1-.855-.036,1.1,1.1,0,0,1-.585-.63,1.062,1.062,0,0,1,.036-.855,1.1,1.1,0,0,1,.63-.585,24.442,24.442,0,0,0,2.907-1.242,29.165,29.165,0,0,0,2.808-1.611,25.353,25.353,0,0,0,2.448-1.8,13.464,13.464,0,0,0,1.809-1.791,1.149,1.149,0,0,1,.765-.414.979.979,0,0,1,.8.252,1.084,1.084,0,0,1,.414.747,1.03,1.03,0,0,1-.252.819,14.64,14.64,0,0,1-1.962,1.917,29.959,29.959,0,0,1-2.736,2.007q-1.512.99-3.114,1.836A23.918,23.918,0,0,1,58.716,25.3Zm1.548-7.092q-.684-.576-1.53-1.2a17.2,17.2,0,0,0-1.53-1.017,1.11,1.11,0,0,1-.5-.693,1.082,1.082,0,0,1,.126-.837,1.146,1.146,0,0,1,.693-.513,1.014,1.014,0,0,1,.837.135q.486.306,1.107.747t1.206.873q.585.432.963.738a1.118,1.118,0,0,1,.423.747,1.035,1.035,0,0,1-.225.819,1.118,1.118,0,0,1-.747.423A1.035,1.035,0,0,1,60.264,18.206ZM79.9,26.774a1.106,1.106,0,0,1-1.1-1.1V13.238a1.048,1.048,0,0,1,.324-.783,1.072,1.072,0,0,1,.774-.315,1.093,1.093,0,0,1,.792.315,1.048,1.048,0,0,1,.324.783v4.338a1.108,1.108,0,0,1,.648-.477,1.09,1.09,0,0,1,.81.081q1.062.558,2.169,1.278a19.238,19.238,0,0,1,1.917,1.4,1.067,1.067,0,0,1,.405.765,1.114,1.114,0,0,1-1.017,1.224,1.108,1.108,0,0,1-.828-.243q-.5-.4-1.161-.846t-1.314-.873q-.657-.423-1.2-.729a1.158,1.158,0,0,1-.432-.4v6.912a1.056,1.056,0,0,1-.324.774A1.077,1.077,0,0,1,79.9,26.774ZM99,22.706a.894.894,0,0,1-.63-.252.957.957,0,0,1-.306-.63q-.054-.684-.1-1.566t-.1-1.809q-.054-.927-.09-1.773t-.054-1.494q-.018-.648-.018-.954V12.446a1.185,1.185,0,0,1,.369-.882A1.274,1.274,0,0,1,99,11.2a1.3,1.3,0,0,1,.945.36,1.185,1.185,0,0,1,.369.882v1.782q0,.306-.027.954t-.063,1.494q-.036.846-.081,1.773t-.1,1.809q-.054.882-.108,1.566a.887.887,0,0,1-.288.63A.916.916,0,0,1,99,22.706ZM99,27.1a1.536,1.536,0,1,1,1.08-.45A1.473,1.473,0,0,1,99,27.1Z" transform="translate(134 -46)" fill="#989898"/>
        </g>
      </g>
    </g>
    <g id="グループ_1645" data-name="グループ 1645" transform="translate(-203.382 -4259.766)">
      <path id="パス_17554" data-name="パス 17554" d="M520.864,4321a233.222,233.222,0,0,0-144.147,0q-4.243-13.056-8.485-26.112a260.689,260.689,0,0,1,161.116,0Q525.107,4307.941,520.864,4321Z" transform="translate(-50.709 -2.791)" fill="#ffa76e"/>
      <g id="グループ_1608" data-name="グループ 1608" transform="translate(335.488 4286.617)">
        <path id="パス_17555" data-name="パス 17555" d="M429.247,4338.237a1.065,1.065,0,0,1-.645.42.92.92,0,0,1-.751-.144,1.049,1.049,0,0,1-.418-.638.862.862,0,0,1,.149-.728,8.3,8.3,0,0,0,1.335-2.886,6.529,6.529,0,0,0-.056-3.067,2.018,2.018,0,0,0-.946-1.416,2.241,2.241,0,0,0-1.6-.127,3.41,3.41,0,0,0-1.308.667,5.345,5.345,0,0,0-1.129,1.263.978.978,0,0,1-.634.4.965.965,0,0,1-.738-.164.945.945,0,0,1-.392-.636.956.956,0,0,1,.159-.721,6.242,6.242,0,0,1,1.65-1.71,5.956,5.956,0,0,1,1.952-.892,4.811,4.811,0,0,1,2.119-.076,3.327,3.327,0,0,1,1.717.924,4.206,4.206,0,0,1,1.045,2.023,8.7,8.7,0,0,1,.08,3.953A9.369,9.369,0,0,1,429.247,4338.237Zm-1.57-11.446q-.745-.017-1.567-.077c-.548-.038-1.084-.095-1.607-.167s-.985-.15-1.386-.232a.945.945,0,0,1-.611-.431.927.927,0,0,1-.13-.733.884.884,0,0,1,.446-.614,1.015,1.015,0,0,1,.754-.119q.88.153,1.987.277t2.138.139a.921.921,0,0,1,.687.294.965.965,0,0,1,.281.7.922.922,0,0,1-.294.686A.957.957,0,0,1,427.677,4326.791Z" transform="translate(-422.095 -4317.577)" fill="#fff"/>
        <path id="パス_17556" data-name="パス 17556" d="M460.025,4330.67a.95.95,0,0,1-1.105-.76l-.657-3.535q-.2.468-.384.927t-.346.87a.877.877,0,0,1-.526.522.964.964,0,0,1-.74,0,.949.949,0,0,1-.509-.545.927.927,0,0,1,.02-.744q.349-.713.839-1.793t1.092-2.222l-.383-2.057a.553.553,0,0,1-.108.044.421.421,0,0,0-.121.064c-.114.044-.275.118-.482.224l-.592.3c-.187.1-.317.162-.387.2a1,1,0,0,1-1.294-.523.952.952,0,0,1,0-.749.93.93,0,0,1,.525-.53c.092-.04.236-.1.43-.189s.4-.174.624-.265l.564-.229a4.47,4.47,0,0,1,.5-.192l-.43-2.313a.948.948,0,1,1,1.864-.346l.49,2.634a1.366,1.366,0,0,1,.545.431,1.414,1.414,0,0,1,.244.419,8.53,8.53,0,0,1,1.314-1.291,3.284,3.284,0,0,1,1.414-.663,2.748,2.748,0,0,1,2.726.715,5.658,5.658,0,0,1,.957,3.721q.015,1.061.049,1.7a6.71,6.71,0,0,0,.1.953,1.064,1.064,0,0,0,.164.436.58.58,0,0,0,.24.17.983.983,0,0,0,.824-.127,2.929,2.929,0,0,0,.828-.827.832.832,0,0,1,.649-.354,1,1,0,0,1,.724.231.893.893,0,0,1,.363.656,1.055,1.055,0,0,1-.205.728,4.285,4.285,0,0,1-1.907,1.542,3.058,3.058,0,0,1-2.109.1,2,2,0,0,1-.965-.718,3.387,3.387,0,0,1-.513-1.418,15.219,15.219,0,0,1-.16-2.381,10.669,10.669,0,0,0-.174-2.187,1.476,1.476,0,0,0-.5-.937,1.136,1.136,0,0,0-.845-.117,2.111,2.111,0,0,0-.995.55,7.231,7.231,0,0,0-1.021,1.171,18.228,18.228,0,0,0-1,1.564l1.123,6.042a.951.951,0,0,1-.759,1.106Z" transform="translate(-443.535 -4312.016)" fill="#fff"/>
        <path id="パス_17557" data-name="パス 17557" d="M511.695,4323.477a4.541,4.541,0,0,1-3.177-.584,3.94,3.94,0,0,1-1.5-2.967l-1.078-8.645a.981.981,0,1,1,1.946-.242l1.078,8.645a2.146,2.146,0,0,0,.752,1.6,2.541,2.541,0,0,0,1.737.261,3.616,3.616,0,0,0,1.823-.771,3.83,3.83,0,0,0,1.221-1.9.939.939,0,0,1,.5-.573.949.949,0,0,1,.752-.045.859.859,0,0,1,.563.489,1.068,1.068,0,0,1,.054.768,5.453,5.453,0,0,1-1.776,2.726A5.6,5.6,0,0,1,511.695,4323.477Z" transform="translate(-477.97 -4308.105)" fill="#fff"/>
        <path id="パス_17558" data-name="パス 17558" d="M546.144,4322.482a2.7,2.7,0,0,1-1.458-.25,3.375,3.375,0,0,1-1.284-1.13,7.506,7.506,0,0,1-.87-1.811,14.655,14.655,0,0,1-.6-2.41,17.562,17.562,0,0,1-.233-2.613,1.011,1.011,0,0,1,.274-.7.87.87,0,0,1,.679-.281.951.951,0,0,1,.979.97,16.839,16.839,0,0,0,.159,2.225,11.4,11.4,0,0,0,.436,1.954,5.845,5.845,0,0,0,.665,1.44,1.094,1.094,0,0,0,.989.607q.7-.06,1.08-1.542a.98.98,0,0,1,.453-.594.926.926,0,0,1,.746-.1.882.882,0,0,1,.585.445.935.935,0,0,1,.1.739,4.761,4.761,0,0,1-1.087,2.207A2.67,2.67,0,0,1,546.144,4322.482Zm8.7-3.44a.927.927,0,0,1-.76.017,1.01,1.01,0,0,1-.55-.522,6.833,6.833,0,0,0-.739-1.181,9.663,9.663,0,0,0-1-1.114,6.58,6.58,0,0,0-1.112-.862.981.981,0,0,1-.449-.61.857.857,0,0,1,.133-.746.9.9,0,0,1,.621-.4,1.072,1.072,0,0,1,.739.166,9.023,9.023,0,0,1,1.42,1.072,11.469,11.469,0,0,1,1.293,1.392,6.5,6.5,0,0,1,.9,1.482,1.021,1.021,0,0,1,.016.76A.882.882,0,0,1,554.849,4319.042Z" transform="translate(-501.81 -4310.177)" fill="#fff"/>
        <path id="パス_17559" data-name="パス 17559" d="M587.12,4317.224a.962.962,0,0,1-.768.015,1.037,1.037,0,0,1-.577-.526,1.048,1.048,0,0,1-.023-.792.937.937,0,0,1,.518-.568,16.133,16.133,0,0,0,4.282-2.783,10.1,10.1,0,0,0,2.526-3.5,1.387,1.387,0,0,0,.1-1.234q-.249-.416-1.213-.406l-6.128.054a.947.947,0,0,1-.706-.3,1.017,1.017,0,0,1-.013-1.431.962.962,0,0,1,.7-.3l6.21-.055a4.2,4.2,0,0,1,2.334.526,2.136,2.136,0,0,1,.986,1.512,4.35,4.35,0,0,1-.372,2.282,12.517,12.517,0,0,1-2.945,4.235A17.374,17.374,0,0,1,587.12,4317.224Zm10.061-9.962a1.65,1.65,0,1,1-.029-3.3,1.568,1.568,0,0,1,1.156.471,1.657,1.657,0,0,1,.021,2.337A1.572,1.572,0,0,1,597.182,4307.262Zm-.009-.947a.7.7,0,1,0-.012-1.405.7.7,0,0,0-.5.209.69.69,0,0,0,.009,1A.705.705,0,0,0,597.173,4306.314Z" transform="translate(-530.556 -4303.962)" fill="#fff"/>
        <path id="パス_17560" data-name="パス 17560" d="M636.37,4320.017a4.671,4.671,0,0,1-3.556-.078,2.734,2.734,0,0,1-1.145-2.79l.314-5.6a.966.966,0,0,1,.342-.7.993.993,0,0,1,.726-.254,1.005,1.005,0,0,1,.955,1.069l-.3,5.384q-.049.866.428,1.113a2.531,2.531,0,0,0,1.64-.047,17.739,17.739,0,0,0,3.268-1.2,23.1,23.1,0,0,0,2.984-1.69,1.056,1.056,0,0,1,.77-.152,1,1,0,0,1,.8,1.183,1.014,1.014,0,0,1-.421.655,19.575,19.575,0,0,1-2.007,1.189q-1.122.584-2.352,1.079A23.841,23.841,0,0,1,636.37,4320.017Z" transform="translate(-561.763 -4308.383)" fill="#fff"/>
        <path id="パス_17561" data-name="パス 17561" d="M685.124,4323.343a27.731,27.731,0,0,1-3.265-.226,8.72,8.72,0,0,1-2.219-.568,3.866,3.866,0,0,1-1.4-.968,3.143,3.143,0,0,1-.767-1.675,8.2,8.2,0,0,1,.018-2.039l.253-2.077q-1.139.026-2.2.043t-1.792.045a1.042,1.042,0,0,1-1.03-1,.941.941,0,0,1,.277-.724,1.013,1.013,0,0,1,.7-.309q.739.007,1.893,0t2.39-.021l.329-2.692a.942.942,0,0,1,.386-.67,1,1,0,0,1,.74-.2.953.953,0,0,1,.67.378.992.992,0,0,1,.2.748l-.293,2.4c.649-.008,1.217-.014,1.706-.014s.827-.005,1.015-.016a4.456,4.456,0,0,1,2.591.488,2.036,2.036,0,0,1,.857,1.745,2.544,2.544,0,0,1-.894,2.064,5.812,5.812,0,0,1-3.047,1.093,1.085,1.085,0,0,1-.745-.174.89.89,0,0,1-.407-.642,1,1,0,0,1,.165-.746.92.92,0,0,1,.651-.407,6.34,6.34,0,0,0,1.663-.406.693.693,0,0,0,.466-.585.374.374,0,0,0-.2-.411,2.575,2.575,0,0,0-.928-.089q-.346.008-1.2.019t-1.939.043l-.287,2.353a4.8,4.8,0,0,0-.024,1.338,1.723,1.723,0,0,0,.326.772,3.166,3.166,0,0,0,1.7.784,21.014,21.014,0,0,0,3.682.317,1.011,1.011,0,0,1,.71.317.942.942,0,0,1,.265.723.953.953,0,0,1-.3.706A.935.935,0,0,1,685.124,4323.343Zm1.735-9.222a.623.623,0,0,1-.516.118.678.678,0,0,1-.465-.3q-.167-.25-.427-.611c-.174-.24-.331-.458-.472-.65a.565.565,0,0,1-.112-.435.671.671,0,0,1,.251-.437.627.627,0,0,1,.461-.134.724.724,0,0,1,.452.212q.22.225.53.583a5.973,5.973,0,0,1,.5.663.7.7,0,0,1,.1.522A.728.728,0,0,1,686.858,4314.121Zm.667-1.418q-.185-.234-.464-.583t-.527-.607a.6.6,0,0,1-.137-.428.62.62,0,0,1,.211-.452.66.66,0,0,1,.457-.167.68.68,0,0,1,.448.177,5.044,5.044,0,0,1,.576.541q.32.345.548.635a.654.654,0,0,1,.143.519.8.8,0,0,1-.266.487.6.6,0,0,1-.5.152A.7.7,0,0,1,687.525,4312.7Z" transform="translate(-589.129 -4308.159)" fill="#fff"/>
        <path id="パス_17562" data-name="パス 17562" d="M723.544,4330.117a.965.965,0,0,1-.757-.176.993.993,0,0,1-.417-.66.964.964,0,0,1,.176-.757.991.991,0,0,1,.66-.416,22.116,22.116,0,0,0,2.8-.621,26.444,26.444,0,0,0,2.776-.967,23,23,0,0,0,2.486-1.2,12.211,12.211,0,0,0,1.914-1.3,1.048,1.048,0,0,1,.752-.241.892.892,0,0,1,.673.359.982.982,0,0,1,.244.735.934.934,0,0,1-.362.688,13.1,13.1,0,0,1-2.072,1.382,27.079,27.079,0,0,1-2.778,1.333q-1.515.63-3.086,1.116A21.729,21.729,0,0,1,723.544,4330.117Zm2.57-6.069q-.514-.627-1.165-1.323a15.608,15.608,0,0,0-1.195-1.165,1.007,1.007,0,0,1-.333-.7.985.985,0,0,1,.253-.727,1.045,1.045,0,0,1,.7-.341.917.917,0,0,1,.724.262c.255.235.542.521.862.853s.63.658.93.98.545.6.736.819a1.016,1.016,0,0,1,.252.738.94.94,0,0,1-.338.692,1.009,1.009,0,0,1-.737.252A.933.933,0,0,1,726.114,4324.048Z" transform="translate(-622.208 -4314.508)" fill="#fff"/>
        <path id="パス_17563" data-name="パス 17563" d="M768.279,4338.063a1,1,0,0,1-.733-1.2l2.669-10.974a.956.956,0,0,1,.454-.622.976.976,0,0,1,.75-.111.991.991,0,0,1,.631.449.951.951,0,0,1,.118.76l-.931,3.827a1.025,1.025,0,0,1,1.371-.037q.817.721,1.639,1.593a17.518,17.518,0,0,1,1.39,1.65.97.97,0,0,1,.193.762,1.011,1.011,0,0,1-1.16.862,1,1,0,0,1-.678-.393q-.36-.457-.843-1t-.972-1.052q-.489-.515-.9-.9a1.043,1.043,0,0,1-.3-.441l-1.483,6.1a.956.956,0,0,1-.452.613A.977.977,0,0,1,768.279,4338.063Z" transform="translate(-652.307 -4318.064)" fill="#fff"/>
      </g>
      <g id="グループ_1611" data-name="グループ 1611" transform="translate(292.145 4277.937)">
        <g id="グループ_1609" data-name="グループ 1609">
          <path id="パス_17564" data-name="パス 17564" d="M392.248,4285.272v-7.336l-12.385,10.779Q386.019,4286.838,392.248,4285.272Z" transform="translate(-350.606 -4277.937)" fill="#ffa76e"/>
          <path id="パス_17565" data-name="パス 17565" d="M330.1,4279.376c-7.589,1.162-25.322,4.795-37.954,14.62l13.27,9.152-6.226,17.8a158.518,158.518,0,0,1,22.693-7.818l-6.9-20.565Z" transform="translate(-292.145 -4278.896)" fill="#ffa76e"/>
        </g>
        <g id="グループ_1610" data-name="グループ 1610" transform="translate(170.229)">
          <path id="パス_17566" data-name="パス 17566" d="M802.527,4285.272v-7.336l12.385,10.779Q808.756,4286.838,802.527,4285.272Z" transform="translate(-802.527 -4277.937)" fill="#ffa76e"/>
          <path id="パス_17567" data-name="パス 17567" d="M813.585,4279.376c7.589,1.162,25.322,4.795,37.953,14.62l-13.269,9.152,6.226,17.8a158.518,158.518,0,0,0-22.692-7.818l6.9-20.565Z" transform="translate(-809.897 -4278.896)" fill="#ffa76e"/>
        </g>
      </g>
    </g>
  </g>
</svg>
