<svg xmlns="http://www.w3.org/2000/svg" xmlns:xlink="http://www.w3.org/1999/xlink" width="428" height="284" viewBox="0 0 428 284">
  <defs>
    <clipPath id="clip-path">
      <rect id="長方形_257" data-name="長方形 257" width="428" height="284" transform="translate(0 4160)" fill="#fff" stroke="#707070" stroke-width="1"/>
    </clipPath>
  </defs>
  <g id="マスクグループ_2" data-name="マスクグループ 2" transform="translate(0 -4160)" clip-path="url(#clip-path)">
    <g id="円のテキスト" transform="translate(-4804.212 2579.999)">
      <g id="グループ_635" data-name="グループ 635">
        <rect id="長方形_161" data-name="長方形 161" width="85" height="185" transform="translate(4976.212 1628.878)" fill="#f8eb86"/>
        <path id="パス_1589" data-name="パス 1589" d="M5018.212,1629.691a142,142,0,1,0,0,184.374,141.977,141.977,0,0,1,0-184.374Z" fill="#ffe6d5"/>
        <path id="パス_1590" data-name="パス 1590" d="M5126.212,1579.878a141.678,141.678,0,0,0-108,49.813,141.977,141.977,0,0,1,0,184.374,142,142,0,1,0,108-234.187Z" fill="#fbfbbf"/>
      </g>
      <g id="グループ_637" data-name="グループ 637" transform="translate(4839.124 1650.767)">
        <g id="グループ_636" data-name="グループ 636" transform="translate(0 0)">
          <path id="パス_1591" data-name="パス 1591" d="M4876.192,1718.209q-4.9,0-4.894-5.774v-9.2h-20.945q-5.872,0-5.873-4.013a13.871,13.871,0,0,1,.491-3.914,16.881,16.881,0,0,1,1.467-3.426l22.708-38.56a7.275,7.275,0,0,1,2.788-3.035,8.412,8.412,0,0,1,4.062-.881q5.186,0,5.187,5.775v38.854H4885q5.776,0,5.776,4.6t-4.209,4.6h-5.382v9.2Q4881.183,1718.211,4876.192,1718.209Zm-21.238-24.174H4871.3v-27.99Z" transform="translate(-4844.481 -1648.624)" fill="#ff6601"/>
          <path id="パス_1592" data-name="パス 1592" d="M4924.091,1719.176q-7.831,0-12.233-3.913t-6.215-11.745a106.947,106.947,0,0,1,0-39.2q1.811-7.878,6.215-11.794t12.233-3.916q7.828,0,12.185,3.916t6.167,11.794a107.032,107.032,0,0,1,0,39.2q-1.814,7.831-6.167,11.745T4924.091,1719.176Zm0-9.982a7.381,7.381,0,0,0,5.726-2.3q2.1-2.3,3.083-7.782a118.886,118.886,0,0,0,0-30.436q-.981-5.48-3.083-7.782a7.384,7.384,0,0,0-5.726-2.3,7.532,7.532,0,0,0-5.774,2.3q-2.154,2.3-3.083,7.782a125.149,125.149,0,0,0,0,30.436q.93,5.483,3.083,7.782A7.529,7.529,0,0,0,4924.091,1709.194Z" transform="translate(-4845.355 -1648.612)" fill="#ff6601"/>
        </g>
      </g>
      <g id="グループ_639" data-name="グループ 639" transform="translate(5050.944 1657.979)">
        <g id="グループ_638" data-name="グループ 638" transform="translate(0)">
          <path id="パス_1593" data-name="パス 1593" d="M5082.206,1717.394a3.714,3.714,0,0,1-2.64-1.01,3.534,3.534,0,0,1-1.075-2.7v-4.17q-2.542.522-5.9,1.14t-6.614,1.173q-3.26.553-5.6.945a3.091,3.091,0,0,1-2.541-.555,3.5,3.5,0,0,1-1.3-2.182,2.627,2.627,0,0,1,.586-2.313,3.469,3.469,0,0,1,2.281-1.205l3.388-.456V1685.27h-3.91a2.774,2.774,0,0,1-2.084-.88,2.939,2.939,0,0,1-.849-2.118,2.977,2.977,0,0,1,.849-2.085,2.734,2.734,0,0,1,2.084-.912h55.711a2.673,2.673,0,0,1,2.021.912,2.985,2.985,0,0,1,.847,2.085,2.947,2.947,0,0,1-.847,2.118,2.71,2.71,0,0,1-2.021.88h-28.67v28.41a3.533,3.533,0,0,1-1.076,2.7A3.709,3.709,0,0,1,5082.206,1717.394Zm-3.258-40.2a25.22,25.22,0,0,1-7.755-.912,5.9,5.9,0,0,1-3.681-3.095,18.864,18.864,0,0,1,0-12.184,5.789,5.789,0,0,1,3.681-3.063,26.16,26.16,0,0,1,7.755-.88h15.7a26.491,26.491,0,0,1,7.785.88,5.806,5.806,0,0,1,3.714,3.063,18.855,18.855,0,0,1,0,12.184,5.914,5.914,0,0,1-3.714,3.095,25.538,25.538,0,0,1-7.785.912Zm-8.667,11.078h8.21v-3h-8.21Zm0,7.884h8.21v-3h-8.21Zm0,8.8q2.28-.325,4.4-.651l3.813-.586v-2.672h-8.21Zm3.715-40.2h25.672a2.453,2.453,0,0,0-1.3-2.116,11.1,11.1,0,0,0-3.713-.425h-15.7a10.811,10.811,0,0,0-3.649.425A2.446,2.446,0,0,0,5074,1664.743Zm4.952,7.3h15.7a10.364,10.364,0,0,0,3.713-.456,2.541,2.541,0,0,0,1.3-2.151H5074a2.388,2.388,0,0,0,1.271,2.151A10.382,10.382,0,0,0,5078.947,1672.042Zm13.358,42.875a5.336,5.336,0,0,1-3.129.685,3.2,3.2,0,0,1-2.476-1.662,3.568,3.568,0,0,1-.392-2.672,3.106,3.106,0,0,1,1.76-2.15,42.876,42.876,0,0,0,7.95-4.887,33.074,33.074,0,0,1-5.539-10.555h-1.108a2.734,2.734,0,0,1-2.085-.912,3.057,3.057,0,0,1-.847-2.151,2.977,2.977,0,0,1,.847-2.085,2.734,2.734,0,0,1,2.085-.912h14.074a10,10,0,0,1,5.995,1.5,5.071,5.071,0,0,1,2.15,3.975,9.889,9.889,0,0,1-1.563,5.408,34.392,34.392,0,0,1-4.236,5.864,37.281,37.281,0,0,0,3.714,2.248,38.112,38.112,0,0,0,4.431,1.987,3.324,3.324,0,0,1,1.955,2.052,3.454,3.454,0,0,1-.261,2.77,3.154,3.154,0,0,1-2.28,1.76,4.972,4.972,0,0,1-3.062-.326,34.08,34.08,0,0,1-5.019-2.573,52.01,52.01,0,0,1-4.431-3.1A61.041,61.041,0,0,1,5092.306,1714.918Zm8.47-15.118a20.531,20.531,0,0,0,2.346-3.192q.911-1.5.555-2.215t-2.314-.716h-4.169A22.413,22.413,0,0,0,5100.775,1699.8Z" transform="translate(-5055.944 -1655.948)" fill="#ff6601"/>
          <path id="パス_1594" data-name="パス 1594" d="M5143.462,1717.247a3.632,3.632,0,0,1-2.574-1.01,3.457,3.457,0,0,1-1.076-2.64v-12.771q-1.695,2.412-3.583,4.757a49.339,49.339,0,0,1-3.388,3.845,4.225,4.225,0,0,1-2.477,1.237,2.966,2.966,0,0,1-2.541-.847,3.11,3.11,0,0,1-1.043-2.183,2.573,2.573,0,0,1,.848-2.117q1.5-1.434,3.356-3.518t3.584-4.269q1.725-2.182,2.9-3.812h-5.8a3.176,3.176,0,0,1-2.346-.911,3.21,3.21,0,0,1,2.346-5.473h8.145V1683.1H5130.3a2.912,2.912,0,0,1-2.249-.88,3,3,0,0,1-.814-2.117,3.092,3.092,0,0,1,.814-2.183,2.913,2.913,0,0,1,2.249-.88h4.821q-.456-1.107-.879-2.249t-.619-1.726a2.992,2.992,0,0,1,.064-2.378,2.579,2.579,0,0,1,1.76-1.4l.195-.065h-3.975a2.834,2.834,0,0,1-2.184-.88,3.164,3.164,0,0,1,0-4.236,2.837,2.837,0,0,1,2.184-.879h7.95v-3.845a3.2,3.2,0,0,1,1.075-2.476,3.87,3.87,0,0,1,2.705-.977,3.957,3.957,0,0,1,2.768.977,3.2,3.2,0,0,1,1.075,2.476v3.845h7.819a2.809,2.809,0,0,1,2.215.879,3.257,3.257,0,0,1,0,4.236,2.807,2.807,0,0,1-2.215.88h-3.648a2.694,2.694,0,0,1,1.792,1.466,3.1,3.1,0,0,1,.033,2.378q-.261.653-.684,1.759t-.945,2.216h4.431a2.814,2.814,0,0,1,2.215.88,3.17,3.17,0,0,1,.782,2.183,3.079,3.079,0,0,1-.782,2.117,2.814,2.814,0,0,1-2.215.88h-8.993v4.431h7.363a3.093,3.093,0,0,1,2.378.945,3.353,3.353,0,0,1,0,4.528,3.147,3.147,0,0,1-2.378.911h-6.646q.844.914,2.248,2.216t2.868,2.509q1.465,1.208,2.378,1.857a3.161,3.161,0,0,1,.327,4.562,3.154,3.154,0,0,1-2.281,1.075,3.33,3.33,0,0,1-2.346-.88q-1.564-1.5-3.91-3.91v12.25a3.51,3.51,0,0,1-3.583,3.65Zm-1.76-40.2h3.257q.522-1.3,1.239-3.127t1.174-3a2.755,2.755,0,0,1,1.563-1.695h-11.208a3.368,3.368,0,0,1,1.01.62,2.692,2.692,0,0,1,.749,1.14,14.942,14.942,0,0,1,.652,1.662q.392,1.139.846,2.345T5141.7,1677.043Zm34.991,40.008a3.676,3.676,0,0,1-2.6-1.042,3.582,3.582,0,0,1-1.109-2.736v-29.192h-5.408a66.805,66.805,0,0,1-2.086,17.43,38.859,38.859,0,0,1-6.385,13,4.309,4.309,0,0,1-2.7,1.6,4.008,4.008,0,0,1-3.029-.619,3.38,3.38,0,0,1-1.4-2.313,2.943,2.943,0,0,1,.684-2.509,27.714,27.714,0,0,0,4.4-7.265,37.3,37.3,0,0,0,2.378-9.188,87.581,87.581,0,0,0,.717-11.891v-10.1a15.927,15.927,0,0,1,.879-5.832,6.862,6.862,0,0,1,2.867-3.388,17.441,17.441,0,0,1,5.247-1.922q2.539-.52,5.832-1.466t5.9-1.726a4.183,4.183,0,0,1,3.129.032,3.242,3.242,0,0,1,1.823,1.921,4.344,4.344,0,0,1,0,2.966,2.957,2.957,0,0,1-2.084,1.857q-2.8.717-5.733,1.434t-5.8,1.369a7.494,7.494,0,0,0-3.649,1.694,5.445,5.445,0,0,0-.978,3.714v4.1h16.616a3.3,3.3,0,0,1,2.573,1.043,3.648,3.648,0,0,1,.945,2.541,3.562,3.562,0,0,1-.945,2.475,3.3,3.3,0,0,1-2.573,1.043h-3.715v29.192a3.587,3.587,0,0,1-1.107,2.736A3.761,3.761,0,0,1,5176.693,1717.051Z" transform="translate(-5056.987 -1655.931)" fill="#ff6601"/>
        </g>
      </g>
      <g id="グループ_640" data-name="グループ 640" transform="translate(4847.944 1735.358)">
        <path id="パス_1595" data-name="パス 1595" d="M4871.2,1755.822a1.972,1.972,0,0,1-1.42-.028,1.592,1.592,0,0,1-.9-1.047,1.625,1.625,0,0,1,.111-1.311,1.714,1.714,0,0,1,1.076-.842c.295-.091.611-.2.952-.316l1.062-.372v-15.394a1.685,1.685,0,0,1,.512-1.284,1.719,1.719,0,0,1,1.227-.482,1.758,1.758,0,0,1,1.255.482,1.686,1.686,0,0,1,.51,1.284v14.125q1.407-.552,2.717-1.076t2.249-.911a1.539,1.539,0,0,1,1.283-.041,1.37,1.37,0,0,1,.787.843,1.608,1.608,0,0,1-1.021,2.179q-.938.442-2.29,1.006t-2.828,1.174q-1.475.607-2.869,1.145T4871.2,1755.822Zm8.056,2.7a2.543,2.543,0,0,1-1.559.055,1.488,1.488,0,0,1-.952-.91,1.688,1.688,0,0,1,.069-1.421,1.967,1.967,0,0,1,1.228-.924,19.031,19.031,0,0,0,4.717-2.041,9.743,9.743,0,0,0,3.131-3.145,13.893,13.893,0,0,0,1.738-4.815,38.873,38.873,0,0,0,.539-7.021v-1.875a1.615,1.615,0,0,1,.524-1.269,1.875,1.875,0,0,1,2.483,0,1.62,1.62,0,0,1,.524,1.269v1.875a38.259,38.259,0,0,1-.58,7.077,20.077,20.077,0,0,1-1.738,5.338q.689.5,1.559,1.213t1.683,1.422c.542.468.99.86,1.338,1.173a1.824,1.824,0,0,1,.593,1.255,1.656,1.656,0,0,1-.483,1.282,1.939,1.939,0,0,1-1.269.579,1.634,1.634,0,0,1-1.3-.468q-.469-.5-1.158-1.145t-1.435-1.324q-.745-.675-1.352-1.228a13.724,13.724,0,0,1-3.6,3.007A23.194,23.194,0,0,1,4879.251,1758.526Zm3.394-15.174q-.5-.523-1.284-1.24t-1.572-1.407q-.787-.69-1.338-1.1a1.487,1.487,0,0,1-.58-1.091,1.512,1.512,0,0,1,.387-1.172,1.778,1.778,0,0,1,1.159-.621,1.7,1.7,0,0,1,1.241.372c.388.276.859.648,1.42,1.117s1.112.948,1.656,1.435.979.9,1.311,1.228a1.686,1.686,0,0,1,.565,1.228,1.6,1.6,0,0,1-.538,1.228,1.7,1.7,0,0,1-1.213.51A1.607,1.607,0,0,1,4882.645,1743.352Z" transform="translate(-4853.659 -1734.469)" fill="#333"/>
        <path id="パス_1596" data-name="パス 1596" d="M4900.705,1757.7a1.552,1.552,0,0,1-1.158-.483,1.584,1.584,0,0,1-.469-1.145,1.617,1.617,0,0,1,.469-1.172,1.548,1.548,0,0,1,1.158-.483h8.58v-18.18a1.658,1.658,0,0,1,.524-1.283,1.771,1.771,0,0,1,1.241-.483,1.728,1.728,0,0,1,1.228.483,1.684,1.684,0,0,1,.51,1.283v6.731h8.387a1.645,1.645,0,0,1,1.187.483,1.574,1.574,0,0,1,.5,1.172,1.7,1.7,0,0,1-1.683,1.683h-8.387v8.111h10.152a1.65,1.65,0,0,1,1.656,1.655,1.564,1.564,0,0,1-.484,1.145,1.6,1.6,0,0,1-1.172.483Z" transform="translate(-4854.105 -1734.466)" fill="#333"/>
        <path id="パス_1597" data-name="パス 1597" d="M4943.058,1756.961a1.684,1.684,0,0,1-1.3-.193,1.639,1.639,0,0,1-.579-2.276,1.611,1.611,0,0,1,1.02-.76,8.271,8.271,0,0,0,4.511-2.592,7.011,7.011,0,0,0,1.449-4.553,6.278,6.278,0,0,0-.773-3.117,6.012,6.012,0,0,0-2.193-2.234,8.049,8.049,0,0,0-3.407-1.049,36.466,36.466,0,0,1-1.669,8.015,15.963,15.963,0,0,1-2.758,5.214,4.465,4.465,0,0,1-3.324,1.834,4.545,4.545,0,0,1-2.677-.855,5.749,5.749,0,0,1-1.917-2.454,9.51,9.51,0,0,1-.7-3.835,10.6,10.6,0,0,1,3.338-7.807,11.6,11.6,0,0,1,3.766-2.373,12.84,12.84,0,0,1,4.758-.856,12.507,12.507,0,0,1,5.587,1.2,9.529,9.529,0,0,1,3.848,3.338,8.844,8.844,0,0,1,1.407,4.979,10.3,10.3,0,0,1-2.139,6.663A11.282,11.282,0,0,1,4943.058,1756.961Zm-8.992-5.1q.494,0,1.145-.842a11.309,11.309,0,0,0,1.311-2.386,26.233,26.233,0,0,0,1.213-3.655,32.221,32.221,0,0,0,.828-4.676,8.12,8.12,0,0,0-3.614,1.586,7.651,7.651,0,0,0-2.207,2.786,8.278,8.278,0,0,0-.772,3.38,5.5,5.5,0,0,0,.593,2.842A1.739,1.739,0,0,0,4934.066,1751.857Z" transform="translate(-4854.542 -1734.504)" fill="#333"/>
        <path id="パス_1598" data-name="パス 1598" d="M4856.469,1794.339a2.235,2.235,0,0,1-1.38-.373,1.472,1.472,0,0,1-.634-1.173,1.7,1.7,0,0,1,.385-1.3,1.908,1.908,0,0,1,1.3-.579,1.832,1.832,0,0,0,1.1-.3,1.331,1.331,0,0,0,.249-.937v-4.525c-.295.111-.57.217-.828.318s-.488.188-.69.261a2.193,2.193,0,0,1-1.5.07,1.459,1.459,0,0,1-.923-1.007,1.508,1.508,0,0,1,.083-1.3,1.856,1.856,0,0,1,1.1-.828q.551-.194,1.269-.441t1.49-.525v-4.578h-2.538a1.44,1.44,0,0,1-1.076-.455,1.478,1.478,0,0,1-.441-1.062,1.507,1.507,0,0,1,1.518-1.517h2.538v-3.862a1.475,1.475,0,0,1,.468-1.145,1.625,1.625,0,0,1,1.132-.429,1.585,1.585,0,0,1,1.1.429,1.475,1.475,0,0,1,.469,1.145v3.862h1.71a1.512,1.512,0,0,1,1.076,2.579,1.443,1.443,0,0,1-1.076.455h-1.71v3.475q.414-.136.785-.275t.649-.248a1.624,1.624,0,0,1,1.255-.041,1.283,1.283,0,0,1,.758.814,1.772,1.772,0,0,1,.014,1.131,1.557,1.557,0,0,1-.9.855q-.442.193-1.118.483c-.452.192-.934.391-1.448.593v6.263a4.259,4.259,0,0,1-.952,3.117A4.893,4.893,0,0,1,4856.469,1794.339Zm14.235-14.263a13.039,13.039,0,0,1-3.67-.414,3.156,3.156,0,0,1-1.917-1.393,5.328,5.328,0,0,1-.566-2.662v-5.38a1.412,1.412,0,0,1,.456-1.117,1.629,1.629,0,0,1,2.138,0,1.435,1.435,0,0,1,.441,1.117v2.152q1.075-.248,2.428-.635t2.662-.814q1.311-.427,2.275-.814a1.692,1.692,0,0,1,1.312-.07,1.281,1.281,0,0,1,.785.815,1.492,1.492,0,0,1,.029,1.158,1.336,1.336,0,0,1-.772.773,44.322,44.322,0,0,1-4.264,1.283q-2.357.594-4.455.978v.194a2.338,2.338,0,0,0,.249,1.172,1.381,1.381,0,0,0,.923.593,8.7,8.7,0,0,0,1.946.166h1.6a9.086,9.086,0,0,0,1.972-.166,2.026,2.026,0,0,0,1.048-.538,2.555,2.555,0,0,0,.539-1.035,1.459,1.459,0,0,1,.854-.979,1.632,1.632,0,0,1,1.325.041,1.436,1.436,0,0,1,.854.773,1.733,1.733,0,0,1,.029,1.186,5.152,5.152,0,0,1-1.076,2.123,4.009,4.009,0,0,1-2.028,1.146,14.314,14.314,0,0,1-3.518.345Zm-.606,14.069a9.371,9.371,0,0,1-3.147-.427,2.864,2.864,0,0,1-1.653-1.435,6.2,6.2,0,0,1-.5-2.717v-3.724a6.1,6.1,0,0,1,.5-2.7,2.87,2.87,0,0,1,1.653-1.421,9.371,9.371,0,0,1,3.147-.428h1.765a9.335,9.335,0,0,1,3.159.428,2.868,2.868,0,0,1,1.641,1.421,6.1,6.1,0,0,1,.5,2.7v3.724a6.193,6.193,0,0,1-.5,2.717,2.862,2.862,0,0,1-1.641,1.435,9.336,9.336,0,0,1-3.159.427Zm-2.125-7.779h5.988v-.524a1.877,1.877,0,0,0-.414-1.448,2.827,2.827,0,0,0-1.683-.346H4870.1a2.9,2.9,0,0,0-1.7.346,1.834,1.834,0,0,0-.428,1.448Zm2.125,5.021h1.765a2.735,2.735,0,0,0,1.683-.36,1.924,1.924,0,0,0,.414-1.461v-.662h-5.988v.662a1.879,1.879,0,0,0,.428,1.461A2.8,2.8,0,0,0,4870.1,1791.386Z" transform="translate(-4853.434 -1734.969)" fill="#333"/>
        <path id="パス_1599" data-name="パス 1599" d="M4898.84,1794.69a1.73,1.73,0,0,1-1.186-.414,1.479,1.479,0,0,1-.5-1.1,1.36,1.36,0,0,1,.373-1.035,1.6,1.6,0,0,1,1.09-.483,6.7,6.7,0,0,0,1.158-.152.637.637,0,0,0,.47-.4,2.722,2.722,0,0,0,.109-.882v-.441h-8.165q.414.276,1.007.744c.4.314.675.534.841.663a1.63,1.63,0,0,1,.593,1.02,1.365,1.365,0,0,1-.345,1.132,1.576,1.576,0,0,1-1.077.607,1.4,1.4,0,0,1-1.157-.359q-.387-.331-1.007-.855t-.953-.773a1.348,1.348,0,0,1-.538-.951,1.425,1.425,0,0,1,.29-1.062l.165-.166h-5.323a1.152,1.152,0,0,1-.91-.372,1.3,1.3,0,0,1-.332-.9,1.265,1.265,0,0,1,.332-.868,1.152,1.152,0,0,1,.91-.372h15.669v-1.076h-3.971a18.52,18.52,0,0,1-4.387-.429,6.982,6.982,0,0,1-2.924-1.475q-.773.44-1.711.952c-.625.341-1.14.611-1.544.814a1.409,1.409,0,0,1-1.146.11,1.462,1.462,0,0,1-.909-1.793,1.371,1.371,0,0,1,.758-.8q.525-.222,1.311-.607t1.5-.717v-2.731a1.323,1.323,0,0,0-.248-.966,1.514,1.514,0,0,0-.965-.222h-1.214a1.278,1.278,0,0,1-.965-.371,1.422,1.422,0,0,1,0-1.89,1.252,1.252,0,0,1,.965-.386h1.931a3.727,3.727,0,0,1,2.648.758,3.765,3.765,0,0,1,.772,2.719v2.951a4.79,4.79,0,0,0,1.421,1.036,6.463,6.463,0,0,0,1.917.523,21.2,21.2,0,0,0,2.787.153h11.173a1.109,1.109,0,0,1,.84.331,1.308,1.308,0,0,1,0,1.71,1.109,1.109,0,0,1-.84.331h-3.945v1.076h4.055a1.158,1.158,0,0,1,.911.372,1.266,1.266,0,0,1,.331.868,1.3,1.3,0,0,1-.331.9,1.159,1.159,0,0,1-.911.372h-4.055v1.021a3.783,3.783,0,0,1-1.035,2.994A5.833,5.833,0,0,1,4898.84,1794.69Zm-11.256-21.27c-.165-.147-.4-.341-.717-.579s-.621-.473-.925-.7-.547-.409-.73-.538a1.189,1.189,0,0,1-.551-.868,1.3,1.3,0,0,1,.249-1.007,1.464,1.464,0,0,1,.951-.607,1.428,1.428,0,0,1,1.09.221q.275.166.731.5l.924.677q.469.344.772.593a1.338,1.338,0,0,1,.565.979,1.578,1.578,0,0,1-.317,1.145,1.394,1.394,0,0,1-.966.509A1.378,1.378,0,0,1,4887.584,1773.42Zm9.132,9.545a8.652,8.652,0,0,1-2.566-.3,2.177,2.177,0,0,1-1.324-1.021,4.089,4.089,0,0,1-.386-1.931v-2.484a4.094,4.094,0,0,1,.386-1.931,2.179,2.179,0,0,1,1.324-1.02,8.615,8.615,0,0,1,2.566-.3h.274c.056-.128.117-.262.181-.4s.133-.27.207-.4h-5.933a.979.979,0,0,1-.8-.331,1.164,1.164,0,0,1-.276-.772,1.208,1.208,0,0,1,.276-.8.981.981,0,0,1,.8-.33h3.394c-.092-.166-.184-.322-.276-.469s-.184-.285-.275-.414a1.091,1.091,0,0,1-.083-.979,1.271,1.271,0,0,1,.662-.7,1.447,1.447,0,0,1,1.076-.124,1.322,1.322,0,0,1,.8.621,8.636,8.636,0,0,1,.594.993c.211.405.4.763.566,1.076h2.511c.128-.294.248-.574.358-.842s.23-.548.359-.841a1.617,1.617,0,0,1,.773-.841,1.5,1.5,0,0,1,1.186-.042,1.265,1.265,0,0,1,.855.7,1.207,1.207,0,0,1-.056,1.062,2.855,2.855,0,0,0-.207.372,4.107,4.107,0,0,1-.233.428h4.248a1.027,1.027,0,0,1,.814.33,1.177,1.177,0,0,1,.29.8,1.135,1.135,0,0,1-.29.772,1.025,1.025,0,0,1-.814.331h-6.9c-.074.129-.144.258-.207.386s-.134.266-.207.414h1.819a8.6,8.6,0,0,1,2.581.3,2.186,2.186,0,0,1,1.311,1.02,4.106,4.106,0,0,1,.386,1.931v2.484a4.1,4.1,0,0,1-.386,1.931,2.184,2.184,0,0,1-1.311,1.021,8.638,8.638,0,0,1-2.581.3Zm-1.269-4.111h8.027v-.8h-8.027Zm.027-2.291h7.973a.765.765,0,0,0-.442-.661,3.756,3.756,0,0,0-1.215-.138h-4.661a3.614,3.614,0,0,0-1.2.138A.823.823,0,0,0,4895.475,1776.564Zm1.655,4.608h4.661a3.751,3.751,0,0,0,1.215-.138.766.766,0,0,0,.442-.662h-7.973a.825.825,0,0,0,.456.662A3.61,3.61,0,0,0,4897.13,1781.172Z" transform="translate(-4853.875 -1734.962)" fill="#333"/>
        <path id="パス_1600" data-name="パス 1600" d="M4915.718,1794.282a2.365,2.365,0,0,1-1.394-.083,1.443,1.443,0,0,1-.842-1.021,1.519,1.519,0,0,1,.18-1.283,1.558,1.558,0,0,1,1.145-.676,17.01,17.01,0,0,0,4.759-1.5,8.606,8.606,0,0,0,3.131-2.607h-7.89a1.367,1.367,0,0,1-1.352-1.352,1.334,1.334,0,0,1,.4-.979,1.3,1.3,0,0,1,.952-.4h9.133a5.446,5.446,0,0,0,.178-.7,7.134,7.134,0,0,0,.1-.73h-5.9a1.352,1.352,0,0,1,0-2.7h5.985v-1.434h-5.958a1.293,1.293,0,0,1-.84-.3,1.376,1.376,0,0,1-.484-.744,1.483,1.483,0,0,1-1.3.578,1.655,1.655,0,0,1-1.132-.413,1.434,1.434,0,0,1-.469-1.131v-1.214a3.905,3.905,0,0,1,1.036-3.062,5.377,5.377,0,0,1,3.544-.911h5.462v-1.323a1.6,1.6,0,0,1,.525-1.214,1.867,1.867,0,0,1,2.538,0,1.611,1.611,0,0,1,.523,1.214v1.323h5.573a5.38,5.38,0,0,1,3.544.911,3.9,3.9,0,0,1,1.036,3.062v1.214a1.434,1.434,0,0,1-.47,1.131,1.648,1.648,0,0,1-1.13.413,1.562,1.562,0,0,1-1.27-.523,1.344,1.344,0,0,1-.47.7,1.284,1.284,0,0,1-.828.29h-6.125v1.434h6.125a1.259,1.259,0,0,1,.938.4,1.366,1.366,0,0,1,0,1.9,1.255,1.255,0,0,1-.937.4h-6.179c-.02.239-.046.479-.083.717s-.083.478-.139.717h9.932a1.3,1.3,0,0,1,.952.4,1.335,1.335,0,0,1,.4.979,1.368,1.368,0,0,1-1.352,1.352h-8.11a11.15,11.15,0,0,0,3.337,2.455,19.224,19.224,0,0,0,4.718,1.573,1.586,1.586,0,0,1,1.076.676,1.553,1.553,0,0,1,.194,1.255,1.425,1.425,0,0,1-.91,1.116,2.736,2.736,0,0,1-1.518.1,19.592,19.592,0,0,1-3.918-1.366,16.724,16.724,0,0,1-3.476-2.181,12.637,12.637,0,0,1-2.621-2.882,11.436,11.436,0,0,1-3.918,3.959A20.259,20.259,0,0,1,4915.718,1794.282Zm1.6-17.684a1.164,1.164,0,0,1,1.021-.469h5.958v-1.9h-5.214a2.224,2.224,0,0,0-1.393.317,1.37,1.37,0,0,0-.373,1.09Zm17.408-.055v-.91a1.341,1.341,0,0,0-.386-1.09,2.287,2.287,0,0,0-1.406-.317h-5.325v1.9h6.125A1.351,1.351,0,0,1,4934.726,1776.543Z" transform="translate(-4854.316 -1734.968)" fill="#333"/>
        <path id="パス_1601" data-name="パス 1601" d="M4948.438,1794.388a1.4,1.4,0,0,1-.992-.358,1.321,1.321,0,0,1-.386-1.021v-10.345c-.535.073-1.048.138-1.545.193s-.939.1-1.324.138a1.663,1.663,0,0,1-1.132-.276,1.225,1.225,0,0,1-.524-.939,1.371,1.371,0,0,1,1.408-1.489l.607-.028q.248-.385.8-1.186t1.213-1.793c-.276-.222-.612-.473-1.006-.76s-.783-.561-1.159-.827-.694-.474-.952-.621a1.355,1.355,0,0,1-.566-.841,1.188,1.188,0,0,1,.179-.979,1.437,1.437,0,0,1,.884-.593,1.29,1.29,0,0,1,1.021.179l.166.109q.3-.5.676-1.145c.247-.431.482-.845.7-1.24a9.8,9.8,0,0,0,.47-.924,1.294,1.294,0,0,1,.772-.7,1.347,1.347,0,0,1,1.049.069,1.193,1.193,0,0,1,.7.785,1.246,1.246,0,0,1-.124,1.008q-.248.414-.649,1.062c-.266.432-.538.874-.812,1.324s-.525.85-.747,1.2l.938.661q.718-1.048,1.242-1.849c.35-.533.553-.835.607-.909a1.419,1.419,0,0,1,.884-.649,1.344,1.344,0,0,1,1.076.153,1.251,1.251,0,0,1,.565.883,1.457,1.457,0,0,1-.234,1.076c-.056.093-.241.359-.552.8l-1.145,1.614q-.677.952-1.408,1.986t-1.366,1.89c.479-.036.951-.078,1.422-.124s.914-.078,1.337-.1c-.055-.093-.106-.183-.151-.276l-.125-.248a1.264,1.264,0,0,1-.068-.952,1.111,1.111,0,0,1,.675-.7,1.305,1.305,0,0,1,.967-.069,1.32,1.32,0,0,1,.772.621c.147.258.331.6.551,1.034s.437.865.649,1.3.38.8.509,1.089a1.322,1.322,0,0,1,.042,1.008,1.3,1.3,0,0,1-.73.731,1.32,1.32,0,0,1-1.036.068,1.206,1.206,0,0,1-.7-.73,1.011,1.011,0,0,0-.109-.291,1.912,1.912,0,0,1-.139-.316c-.275.036-.565.078-.868.124s-.631.088-.98.124v10.676a1.323,1.323,0,0,1-.386,1.021A1.365,1.365,0,0,1,4948.438,1794.388Zm-4.91-3.2a1.115,1.115,0,0,1-.7-.607,1.081,1.081,0,0,1-.042-.938q.249-.581.523-1.407c.184-.552.365-1.121.538-1.711s.308-1.094.4-1.517a1.254,1.254,0,0,1,.524-.786,1.155,1.155,0,0,1,.938-.18,1.3,1.3,0,0,1,.8.539,1.164,1.164,0,0,1,.194.952q-.139.69-.386,1.572t-.539,1.724q-.289.841-.51,1.476a1.418,1.418,0,0,1-.691.786A1.34,1.34,0,0,1,4943.528,1791.189Zm9.544-1.683a1.289,1.289,0,0,1-1.047,0,1.179,1.179,0,0,1-.636-.773q-.137-.442-.358-1.09t-.427-1.31c-.138-.443-.245-.81-.319-1.1a1.315,1.315,0,0,1,.1-1.062,1.207,1.207,0,0,1,.813-.51,1.277,1.277,0,0,1,.966.1,1.069,1.069,0,0,1,.524.732c.092.276.211.625.358,1.049s.3.845.455,1.269.28.771.373,1.048a1.152,1.152,0,0,1,0,.979A1.387,1.387,0,0,1,4953.073,1789.507Zm1.877,4.662a1.829,1.829,0,0,1-1.186.1,1.28,1.28,0,0,1-.855-.7,1.421,1.421,0,0,1-.056-1.159,1.239,1.239,0,0,1,.773-.745q.523-.193,1.269-.538t1.517-.718q.773-.372,1.325-.647a3.313,3.313,0,0,1-2.373-.911,3.738,3.738,0,0,1-.635-2.4v-3.7a4.579,4.579,0,0,1,.346-1.945,2.032,2.032,0,0,1,1.2-1.048,7.043,7.043,0,0,1,2.373-.317h4.164a7.16,7.16,0,0,1,2.4.317,2.043,2.043,0,0,1,1.2,1.048,4.6,4.6,0,0,1,.344,1.945v3.7a3.82,3.82,0,0,1-.606,2.373,3.174,3.174,0,0,1-2.319.911q.582.3,1.339.675t1.518.718q.758.344,1.283.538a1.28,1.28,0,0,1,.786.745,1.328,1.328,0,0,1-.068,1.159,1.282,1.282,0,0,1-.855.7,1.83,1.83,0,0,1-1.187-.1q-.606-.248-1.406-.634t-1.587-.814q-.786-.429-1.393-.786a1.314,1.314,0,0,1-.593-.829,1.3,1.3,0,0,1,.151-.992,1.108,1.108,0,0,1,.277-.331H4959.5a1.315,1.315,0,0,1,.275.331,1.3,1.3,0,0,1,.152.992,1.314,1.314,0,0,1-.593.829q-.58.358-1.379.786t-1.6.814Q4955.556,1793.92,4954.95,1794.169Zm-.966-15.532a.965.965,0,0,1-.771-.317,1.115,1.115,0,0,1-.276-.759,1.07,1.07,0,0,1,.276-.746.988.988,0,0,1,.771-.3h5.16v-.938h-3.752a.791.791,0,0,1-.677-.318,1.113,1.113,0,0,1-.234-.675,1.045,1.045,0,0,1,.234-.676.822.822,0,0,1,.677-.291h3.752v-.909h-4.856a.891.891,0,0,1-.73-.317,1.112,1.112,0,0,1-.263-.731,1.02,1.02,0,0,1,.263-.69.911.911,0,0,1,.73-.3h4.856v-.773a1.4,1.4,0,0,1,1.488-1.517,1.451,1.451,0,0,1,1.049.4,1.481,1.481,0,0,1,.414,1.117v.773h5.077a.913.913,0,0,1,.729.3,1.021,1.021,0,0,1,.263.69,1.113,1.113,0,0,1-.263.731.892.892,0,0,1-.729.317H4962.1v.909h3.973a.819.819,0,0,1,.675.291,1.041,1.041,0,0,1,.235.676,1.108,1.108,0,0,1-.235.675.788.788,0,0,1-.675.318H4962.1v.938h5.517a.951.951,0,0,1,.759.3,1.1,1.1,0,0,1,.261.746,1.151,1.151,0,0,1-.261.759.928.928,0,0,1-.759.317Zm3.643,3.723h6.234c-.019-.422-.138-.689-.359-.8a3.231,3.231,0,0,0-1.269-.166h-2.979a3.118,3.118,0,0,0-1.255.166C4957.787,1781.671,4957.663,1781.938,4957.626,1782.36Zm0,2.677h6.234v-.912h-6.234Zm1.627,2.786h2.979a3.208,3.208,0,0,0,1.284-.167q.316-.164.345-.854h-6.234q.054.69.372.854A3.1,3.1,0,0,0,4959.253,1787.823Z" transform="translate(-4854.745 -1734.965)" fill="#333"/>
      </g>
      <g id="グループ_641" data-name="グループ 641" transform="translate(5042.795 1734.474)">
        <path id="パス_1602" data-name="パス 1602" d="M5050.557,1758.436a2.481,2.481,0,0,1-1.393.3,1.682,1.682,0,0,1-1.435-2.054,1.624,1.624,0,0,1,.841-1.063,22.965,22.965,0,0,0,5.007-3.7,15.907,15.907,0,0,0,3.379-4.785,13.839,13.839,0,0,0,1.214-5.807V1735.9a1.6,1.6,0,0,1,.51-1.256,1.752,1.752,0,0,1,1.2-.454,1.734,1.734,0,0,1,1.213.454,1.622,1.622,0,0,1,.5,1.256v4.5a14.643,14.643,0,0,0,.773,4.787,15.7,15.7,0,0,0,2.153,4.152,19.612,19.612,0,0,0,3.171,3.435,20.458,20.458,0,0,0,3.862,2.606,1.655,1.655,0,0,1,.814,1.091,1.733,1.733,0,0,1-.207,1.365,1.765,1.765,0,0,1-1.2.785,2.024,2.024,0,0,1-1.475-.261,22.849,22.849,0,0,1-5.6-4.635,20.892,20.892,0,0,1-3.808-6.235,18.194,18.194,0,0,1-2.164,4.249,21.42,21.42,0,0,1-3.27,3.752A22.234,22.234,0,0,1,5050.557,1758.436Z" transform="translate(-5047.673 -1733.578)" fill="#333"/>
        <path id="パス_1603" data-name="パス 1603" d="M5079.118,1759.4a1.53,1.53,0,0,1-1.544-1.571v-19.312a4.074,4.074,0,0,1,1.034-3.174,5.18,5.18,0,0,1,3.434-.909h1.821a5.231,5.231,0,0,1,3.462.909,4.075,4.075,0,0,1,1.035,3.174v1.435a5.026,5.026,0,0,1-.455,2.359,2.456,2.456,0,0,1-1.435,1.172,8.358,8.358,0,0,1-2.607.331h-3.173v14.015a1.508,1.508,0,0,1-.455,1.131A1.545,1.545,0,0,1,5079.118,1759.4Zm1.572-18.041h2.87a2.7,2.7,0,0,0,1.338-.234,1.226,1.226,0,0,0,.428-1.007h-4.635Zm.028-3.283h4.58a1.218,1.218,0,0,0-.414-.979,2.614,2.614,0,0,0-1.324-.235h-1.1a2.621,2.621,0,0,0-1.31.235A1.187,1.187,0,0,0,5080.718,1738.08Zm7.917,18.318a4.974,4.974,0,0,1-3.49-1.007,4.337,4.337,0,0,1-1.062-3.269v-2.29a4.281,4.281,0,0,1,1.062-3.269,5.073,5.073,0,0,1,3.49-.979h1.463a5.013,5.013,0,0,1,3.476.979,4.318,4.318,0,0,1,1.048,3.269v2.29a4.375,4.375,0,0,1-1.048,3.269,4.915,4.915,0,0,1-3.476,1.007Zm-1.6-6.593h4.662a1.851,1.851,0,0,0-.428-1.367,2.453,2.453,0,0,0-1.531-.344h-.771a2.457,2.457,0,0,0-1.532.344A1.789,1.789,0,0,0,5087.036,1749.8Zm1.932,4.083h.771a2.36,2.36,0,0,0,1.531-.36,1.9,1.9,0,0,0,.428-1.379h-4.662a1.831,1.831,0,0,0,.4,1.379A2.364,2.364,0,0,0,5088.968,1753.888Zm7.862,5.351a1.762,1.762,0,0,1-1.256-.427,1.685,1.685,0,0,1-.51-1.145,1.452,1.452,0,0,1,.331-1.159,1.631,1.631,0,0,1,1.1-.579,2.267,2.267,0,0,0,1.283-.414,1.689,1.689,0,0,0,.234-1.048v-10.649h-3.283a8.384,8.384,0,0,1-2.593-.331,2.453,2.453,0,0,1-1.448-1.172,5.019,5.019,0,0,1-.456-2.359v-1.408a4.079,4.079,0,0,1,1.048-3.2,5.242,5.242,0,0,1,3.449-.909h1.931a5.181,5.181,0,0,1,3.435.909,4.118,4.118,0,0,1,1.034,3.2v16.719a3.98,3.98,0,0,1-1.007,3.035A4.76,4.76,0,0,1,5096.83,1759.239Zm-3.531-21.159h4.717a1.276,1.276,0,0,0-.441-.979,2.608,2.608,0,0,0-1.324-.235h-1.186a2.708,2.708,0,0,0-1.325.235A1.167,1.167,0,0,0,5093.3,1738.08Zm1.766,3.283h2.951v-1.241H5093.3a1.219,1.219,0,0,0,.427,1.007A2.7,2.7,0,0,0,5095.064,1741.363Z" transform="translate(-5048.114 -1733.582)" fill="#333"/>
        <path id="パス_1604" data-name="パス 1604" d="M5109.186,1759.1a2.087,2.087,0,0,1-1.338-.1,1.385,1.385,0,0,1-.758-.924,1.354,1.354,0,0,1,.193-1.214,1.556,1.556,0,0,1,1.077-.662,9.3,9.3,0,0,0,4.206-1.641,5.259,5.259,0,0,0,1.834-3.159h-4.966a1.461,1.461,0,0,1-1.462-1.462,1.44,1.44,0,0,1,.428-1.062,1.409,1.409,0,0,1,1.034-.428h5.159v-2.593h-.937a1.444,1.444,0,0,1-.925-.317,1.54,1.54,0,0,1-.538-.786q-.911.718-1.89,1.366a19,19,0,0,1-1.972,1.145,1.77,1.77,0,0,1-1.242.151,1.356,1.356,0,0,1-.938-.758,1.319,1.319,0,0,1-.042-1.132,1.573,1.573,0,0,1,.842-.854,21.8,21.8,0,0,0,3.614-2.235c-.331-.313-.729-.666-1.2-1.063s-.833-.694-1.088-.9a1.1,1.1,0,0,1-.456-.91,1.347,1.347,0,0,1,.373-.993,1.445,1.445,0,0,1,.95-.469,1.283,1.283,0,0,1,1.007.331q.275.22.746.607t.979.813q.511.429.841.732a14.754,14.754,0,0,0,1.6-1.848q.746-1.048-.551-1.048h-4.442a1.228,1.228,0,0,1-.91-.4,1.292,1.292,0,0,1-.386-.925,1.279,1.279,0,0,1,.386-.938,1.249,1.249,0,0,1,.91-.385h5.3a4.2,4.2,0,0,1,2.484.621,2.063,2.063,0,0,1,.91,1.614,3.506,3.506,0,0,1-.744,2.152,21.822,21.822,0,0,1-2.9,3.393h9.738a23.859,23.859,0,0,1-4.993-6.676,1.311,1.311,0,0,1-.056-1.049,1.475,1.475,0,0,1,.69-.8,1.753,1.753,0,0,1,1.131-.124,1.223,1.223,0,0,1,.883.648c.222.386.45.767.689,1.145s.479.75.717,1.117q.414-.332.883-.745t.883-.786c.275-.249.478-.437.606-.565a1.549,1.549,0,0,1,1.007-.4,1.382,1.382,0,0,1,1.007.4,1.311,1.311,0,0,1,.428.966,1.191,1.191,0,0,1-.428.965l-.73.648c-.322.285-.663.579-1.021.883s-.677.566-.953.786q.3.3.593.607c.194.2.381.4.566.607.257-.222.565-.483.924-.786s.7-.6,1.034-.9.571-.514.717-.662a1.463,1.463,0,0,1,.994-.4,1.414,1.414,0,0,1,1.42,1.365,1.222,1.222,0,0,1-.4.966c-.147.147-.373.35-.676.607s-.621.524-.952.8-.634.534-.91.772a24.288,24.288,0,0,0,3.006,1.849,1.281,1.281,0,0,1,.759.911,1.6,1.6,0,0,1-.152,1.186,1.511,1.511,0,0,1-1.047.745,1.87,1.87,0,0,1-1.325-.221,24.218,24.218,0,0,1-3.366-2.207,1.494,1.494,0,0,1-.481.979,1.461,1.461,0,0,1-1.036.4h-1.242v2.593h5.132a1.461,1.461,0,0,1,1.49,1.49,1.408,1.408,0,0,1-.428,1.035,1.439,1.439,0,0,1-1.062.428h-5.132v2.924a1.472,1.472,0,0,0,.482,1.3,3.816,3.816,0,0,0,1.945.331,2.931,2.931,0,0,0,1.724-.372,2.52,2.52,0,0,0,.759-1.337,1.581,1.581,0,0,1,.8-1.007,1.633,1.633,0,0,1,1.27-.069,1.537,1.537,0,0,1,1.007.745,1.775,1.775,0,0,1,.124,1.186,4.337,4.337,0,0,1-1.9,3.035,7.292,7.292,0,0,1-3.806.883,11.575,11.575,0,0,1-3.2-.359,2.92,2.92,0,0,1-1.78-1.323,5.515,5.515,0,0,1-.564-2.759V1751.4h-2.622a8.234,8.234,0,0,1-2.426,5.021A11.943,11.943,0,0,1,5109.186,1759.1Zm8.47-10.649h2.483v-2.593h-2.483Z" transform="translate(-5048.532 -1733.578)" fill="#333"/>
        <path id="パス_1605" data-name="パス 1605" d="M5152.663,1758.868a34.593,34.593,0,0,1-6.814-.538,8.578,8.578,0,0,1-4.111-1.945l-.91.648q-.526.372-1.008.7c-.321.221-.566.386-.731.5a1.561,1.561,0,0,1-1.241.262,1.4,1.4,0,0,1-1.047-.731,1.634,1.634,0,0,1-.18-1.228,1.366,1.366,0,0,1,.76-.952c.274-.147.657-.346,1.145-.593s.933-.492,1.337-.732v-6.1a1.468,1.468,0,0,0-.207-.91,1.126,1.126,0,0,0-.869-.248h-1.049a1.371,1.371,0,0,1-1.048-.414,1.545,1.545,0,0,1,0-2.041,1.367,1.367,0,0,1,1.048-.414H5140a2.559,2.559,0,0,1,2.9,2.9v7.008a6.767,6.767,0,0,0,1.945,1.228,10.347,10.347,0,0,0,2.745.648,40.922,40.922,0,0,0,4.166.221,1.473,1.473,0,0,1-.744-.538,1.521,1.521,0,0,1-.3-.952v-.828h-5.71a1.241,1.241,0,1,1,0-2.483h5.71v-1.187h-4.193a1.178,1.178,0,0,1-.882-.371,1.241,1.241,0,0,1-.36-.9,1.227,1.227,0,0,1,1.242-1.24h4.193v-.939a.881.881,0,0,1,.027-.247h-5.048a1.272,1.272,0,0,1-1.27-1.27,1.179,1.179,0,0,1,.373-.882,1.25,1.25,0,0,1,.9-.359h2.1c-.093-.221-.184-.428-.277-.621s-.165-.355-.221-.483a1.29,1.29,0,0,1-.054-.828h-2.566a1.228,1.228,0,0,1-1.242-1.241,1.229,1.229,0,0,1,.36-.91,1.2,1.2,0,0,1,.882-.359h6.042v-1.186h-4.524a1.228,1.228,0,0,1-1.241-1.241,1.23,1.23,0,0,1,.359-.91,1.2,1.2,0,0,1,.882-.359h4.524v-.635a1.5,1.5,0,0,1,.47-1.172,1.78,1.78,0,0,1,2.317,0,1.507,1.507,0,0,1,.47,1.172v.635h4.606a1.228,1.228,0,0,1,1.27,1.269,1.2,1.2,0,0,1-.359.882,1.231,1.231,0,0,1-.911.36h-4.606v1.186h6.427a1.245,1.245,0,0,1,.9.359,1.21,1.21,0,0,1,.373.91,1.176,1.176,0,0,1-.373.882,1.241,1.241,0,0,1-.9.36h-2.842a1.553,1.553,0,0,1-.054.828c-.057.128-.129.289-.222.483s-.185.4-.276.621h2.207a1.225,1.225,0,0,1,1.242,1.241,1.244,1.244,0,0,1-.359.9,1.18,1.18,0,0,1-.883.373h-5.24v1.186h4.248a1.248,1.248,0,0,1,.9.359,1.18,1.18,0,0,1,.373.882,1.271,1.271,0,0,1-1.27,1.269h-4.248v1.187h6.345a1.241,1.241,0,1,1,0,2.483h-6.345v.828a1.588,1.588,0,0,1-.29.952,1.407,1.407,0,0,1-.76.538q2.428,0,4.276-.055t3.228-.166a1.66,1.66,0,0,1,1.228.345,1.28,1.28,0,0,1,.482,1.034,1.532,1.532,0,0,1-.4,1.091,1.648,1.648,0,0,1-1.255.427q-.828,0-1.89.015t-2.166.027q-1.1.015-2.1.015Zm-12-19.091q-.278-.331-.786-.841t-1.036-1.022a10.715,10.715,0,0,0-.883-.785,1.232,1.232,0,0,1-.441-.966,1.356,1.356,0,0,1,.414-.994,1.68,1.68,0,0,1,1.062-.538,1.4,1.4,0,0,1,1.117.372c.222.185.514.442.883.773s.732.661,1.089.992.631.6.814.8a1.452,1.452,0,0,1-.11,2.207,1.586,1.586,0,0,1-1.076.455A1.338,1.338,0,0,1,5140.663,1739.777Zm10.289,4.166h2.87q.138-.44.358-.993t.387-.938h-4.359q.165.386.373.938T5150.952,1743.943Z" transform="translate(-5048.978 -1733.569)" fill="#333"/>
        <path id="パス_1606" data-name="パス 1606" d="M5175.907,1759.476a1.825,1.825,0,0,1-1.3-.414,1.629,1.629,0,0,1-.5-1.1,1.4,1.4,0,0,1,.441-1.131,1.84,1.84,0,0,1,1.242-.469,5.32,5.32,0,0,0,1.683-.3,1.5,1.5,0,0,0,.855-.869,4.989,4.989,0,0,0,.248-1.779,5.3,5.3,0,0,0-.083-.966h-10.732a1.321,1.321,0,0,1-1.035-.414,1.436,1.436,0,0,1-.373-.993,1.461,1.461,0,0,1,.359-.993,1.151,1.151,0,0,1,.909-.414h9.6c-.056-.055-.106-.11-.152-.166s-.1-.12-.151-.193a1.185,1.185,0,0,1-.29-1.021,1.48,1.48,0,0,1,.538-.938,1.519,1.519,0,0,1,1.1-.345,1.681,1.681,0,0,1,1.021.372c.036.037.083.078.138.124s.1.088.138.124l.773-.441.58-.331q.468-.3.386-.607c-.057-.2-.267-.3-.634-.3h-7.974a1.258,1.258,0,0,1-.979-.414,1.439,1.439,0,0,1,0-1.931,1.254,1.254,0,0,1,.979-.414h9.849a3.406,3.406,0,0,1,1.945.5,2.269,2.269,0,0,1,.952,1.241,2.214,2.214,0,0,1-.152,1.573,3.635,3.635,0,0,1-1.366,1.49c-.479.313-.938.606-1.379.883s-.891.542-1.352.8h8.608a1.473,1.473,0,0,1,1.131.414,1.4,1.4,0,0,1,.387.993,1.436,1.436,0,0,1-.373.993,1.321,1.321,0,0,1-1.036.414h-8.137a7.88,7.88,0,0,1,.083,1.1q0,3.256-1.421,4.593A6.468,6.468,0,0,1,5175.907,1759.476Zm-7.421-13.572a1.585,1.585,0,0,1-1.1-.429,1.441,1.441,0,0,1-.468-1.116v-1.27a4.01,4.01,0,0,1,.994-3.047,5.08,5.08,0,0,1,3.42-.952c-.055-.073-.106-.143-.151-.207a1.507,1.507,0,0,1-.124-.207q-.111-.248-.387-.731c-.184-.321-.368-.645-.551-.967s-.322-.555-.414-.7a1.267,1.267,0,0,1-.138-1.062,1.344,1.344,0,0,1,.69-.841,1.6,1.6,0,0,1,1.159-.166,1.526,1.526,0,0,1,.965.69c.2.295.461.69.773,1.186s.551.91.717,1.241a1.547,1.547,0,0,1,.207.91,1.258,1.258,0,0,1-.428.828h4.056a2.3,2.3,0,0,1-.207-.235.959.959,0,0,1-.152-.29c-.073-.166-.207-.436-.4-.813s-.382-.754-.565-1.131-.322-.639-.415-.786a1.344,1.344,0,0,1-.1-1.076,1.4,1.4,0,0,1,.7-.828,1.491,1.491,0,0,1,1.158-.138,1.64,1.64,0,0,1,.967.717q.191.3.483.841l.579,1.075q.289.539.456.87a1.688,1.688,0,0,1,.151.966,1.218,1.218,0,0,1-.51.828h2.179q.33-.579.813-1.434t.952-1.7q.468-.841.689-1.31a1.4,1.4,0,0,1,1.021-.828,1.875,1.875,0,0,1,1.242.138,1.571,1.571,0,0,1,.813.883,1.4,1.4,0,0,1-.124,1.241q-.305.553-.814,1.393l-.979,1.614h.5a5.491,5.491,0,0,1,3.628.938,3.941,3.941,0,0,1,1.062,3.089v1.27a1.441,1.441,0,0,1-.468,1.116,1.588,1.588,0,0,1-1.1.429,1.72,1.72,0,0,1-1.131-.387,1.345,1.345,0,0,1-.469-1.1v-1.269a1.34,1.34,0,0,0-.387-1.09,2.292,2.292,0,0,0-1.406-.318h-13.987a2.3,2.3,0,0,0-1.407.318,1.339,1.339,0,0,0-.386,1.09v1.269a1.344,1.344,0,0,1-.469,1.1A1.719,1.719,0,0,1,5168.485,1745.9Z" transform="translate(-5049.42 -1733.571)" fill="#333"/>
        <path id="パス_1607" data-name="パス 1607" d="M5210.895,1756.961a1.684,1.684,0,0,1-1.3-.193,1.659,1.659,0,0,1,.441-3.036,8.271,8.271,0,0,0,4.51-2.592,7.011,7.011,0,0,0,1.449-4.553,6.278,6.278,0,0,0-.773-3.117,6.019,6.019,0,0,0-2.193-2.234,8.051,8.051,0,0,0-3.407-1.049,36.44,36.44,0,0,1-1.669,8.015,15.982,15.982,0,0,1-2.758,5.214,4.464,4.464,0,0,1-3.325,1.834,4.545,4.545,0,0,1-2.676-.855,5.746,5.746,0,0,1-1.917-2.454,9.494,9.494,0,0,1-.7-3.835,10.6,10.6,0,0,1,3.338-7.807,11.6,11.6,0,0,1,3.766-2.373,12.839,12.839,0,0,1,4.759-.856,12.506,12.506,0,0,1,5.587,1.2,9.527,9.527,0,0,1,3.848,3.338,8.84,8.84,0,0,1,1.408,4.979,10.308,10.308,0,0,1-2.138,6.663A11.285,11.285,0,0,1,5210.895,1756.961Zm-8.993-5.1q.5,0,1.146-.842a11.309,11.309,0,0,0,1.311-2.386,26.233,26.233,0,0,0,1.213-3.655,32.158,32.158,0,0,0,.827-4.676,8.123,8.123,0,0,0-3.613,1.586,7.649,7.649,0,0,0-2.206,2.786,8.263,8.263,0,0,0-.773,3.38,5.5,5.5,0,0,0,.593,2.842A1.738,1.738,0,0,0,5201.9,1751.857Z" transform="translate(-5049.865 -1733.621)" fill="#333"/>
        <path id="パス_1608" data-name="パス 1608" d="M5108.085,1790.606a1.688,1.688,0,0,1-1.311-.124,1.506,1.506,0,0,1-.7-.952,1.4,1.4,0,0,1,.153-1.214,1.685,1.685,0,0,1,1.062-.662c.369-.093.763-.184,1.187-.276s.855-.194,1.3-.3V1781.2h-1.849a1.364,1.364,0,0,1-1.049-.415,1.47,1.47,0,0,1,0-1.985,1.363,1.363,0,0,1,1.049-.414h1.849v-5.021h-2.042a1.369,1.369,0,0,1-1.049-.414,1.443,1.443,0,0,1-.386-1.021,1.4,1.4,0,0,1,.386-.993,1.367,1.367,0,0,1,1.049-.414h7.145a1.332,1.332,0,0,1,1.021.414,1.4,1.4,0,0,1,.387.993,1.439,1.439,0,0,1-.387,1.021,1.334,1.334,0,0,1-1.021.414h-2.041v5.021h1.628a1.359,1.359,0,0,1,1.048.414,1.468,1.468,0,0,1,0,1.985,1.36,1.36,0,0,1-1.048.415h-1.628v5.1c.369-.093.727-.189,1.076-.29s.671-.2.965-.29a1.407,1.407,0,0,1,1.1.055,1.288,1.288,0,0,1,.636.828q.359,1.269-1.021,1.738-.937.331-2.3.759t-2.773.828Q5109.106,1790.331,5108.085,1790.606Zm7.531,2.594a1.278,1.278,0,0,1-.979-.4,1.348,1.348,0,0,1-.373-.952,1.38,1.38,0,0,1,.373-.979,1.276,1.276,0,0,1,.979-.4h6.539v-2.675h-3.778a1.275,1.275,0,0,1-.981-.4,1.344,1.344,0,0,1-.372-.951,1.389,1.389,0,0,1,.372-.98,1.284,1.284,0,0,1,.981-.4h3.778v-2.51h-.855a5.175,5.175,0,0,1-3.449-.924,4.083,4.083,0,0,1-1.048-3.188v-4.3a4.083,4.083,0,0,1,1.048-3.186,5.18,5.18,0,0,1,3.449-.925h4.745a5.235,5.235,0,0,1,3.462.925,4.053,4.053,0,0,1,1.063,3.186v4.3a4.053,4.053,0,0,1-1.063,3.188,5.23,5.23,0,0,1-3.462.924h-.828v2.51h4.056a1.318,1.318,0,0,1,1.008.4,1.385,1.385,0,0,1,.372.98,1.34,1.34,0,0,1-.372.951,1.309,1.309,0,0,1-1.008.4h-4.056v2.675h5.38a1.268,1.268,0,0,1,.994.4,1.416,1.416,0,0,1,.357.979,1.382,1.382,0,0,1-.357.952,1.27,1.27,0,0,1-.994.4Zm4.166-18.153h2.373v-2.511h-.525a2.257,2.257,0,0,0-1.461.345,1.682,1.682,0,0,0-.387,1.283Zm1.848,4.992h.525v-2.565h-2.373v.938a1.682,1.682,0,0,0,.387,1.283A2.264,2.264,0,0,0,5121.63,1780.04Zm3.587-4.992h2.4v-.883a1.678,1.678,0,0,0-.387-1.283,2.254,2.254,0,0,0-1.461-.345h-.553Zm0,4.992h.553a2.26,2.26,0,0,0,1.461-.344,1.678,1.678,0,0,0,.387-1.283v-.938h-2.4Z" transform="translate(-5048.532 -1734.106)" fill="#333"/>
        <path id="パス_1609" data-name="パス 1609" d="M5150.042,1778.537a1.239,1.239,0,0,1-.9-.36,1.174,1.174,0,0,1-.373-.882,1.247,1.247,0,0,1,.3-.828c-.294.295-.583.574-.869.841s-.556.51-.814.731a1.434,1.434,0,0,1-1.116.359,1.477,1.477,0,0,1-1.034-.5,1.156,1.156,0,0,1-.346-.814,1.483,1.483,0,0,1,.207-.841,1.1,1.1,0,0,1-.3.027h-8.054a1.2,1.2,0,0,1-.925-.372,1.271,1.271,0,0,1-.344-.9,1.306,1.306,0,0,1,.344-.924,1.2,1.2,0,0,1,.925-.373h8.054a1.189,1.189,0,0,1,.939.373,1.343,1.343,0,0,1,.331.924,1.571,1.571,0,0,1-.056.385q1.3-1.1,2.594-2.428t2.263-2.482a3.277,3.277,0,0,1,2.5-1.379,3.517,3.517,0,0,1,2.579,1.379q.689.745,1.656,1.668t2.055,1.808q1.089.882,2.056,1.573a1.274,1.274,0,0,1,.55.952,1.543,1.543,0,0,1-.275,1.062,1.522,1.522,0,0,1-1.035.621,1.469,1.469,0,0,1-1.171-.317q-.858-.689-1.919-1.655t-2.068-1.945q-1.009-.98-1.67-1.669a.78.78,0,0,0-1.406,0q-.664.8-1.587,1.793t-1.89,1.959a1.08,1.08,0,0,1,.8-.3h6.786a1.229,1.229,0,0,1,1.27,1.269,1.2,1.2,0,0,1-.36.882,1.228,1.228,0,0,1-.91.36Zm-11.946,1.628a1.212,1.212,0,0,1-.953-.386,1.373,1.373,0,0,1,0-1.821,1.209,1.209,0,0,1,.953-.386h5.489a1.164,1.164,0,0,1,.938.386,1.417,1.417,0,0,1,0,1.821,1.167,1.167,0,0,1-.938.386Zm0,3.889a1.212,1.212,0,0,1-.953-.385,1.373,1.373,0,0,1,0-1.821,1.209,1.209,0,0,1,.953-.386h5.489a1.164,1.164,0,0,1,.938.386,1.417,1.417,0,0,1,0,1.821,1.166,1.166,0,0,1-.938.385Zm.027-11.641a1.2,1.2,0,0,1-.952-.4,1.374,1.374,0,0,1-.343-.924,1.359,1.359,0,0,1,.343-.938,1.212,1.212,0,0,1,.952-.387h5.436a1.21,1.21,0,0,1,.951.387,1.357,1.357,0,0,1,.344.938,1.373,1.373,0,0,1-.344.924,1.193,1.193,0,0,1-.951.4Zm2.815,21.077a6.314,6.314,0,0,1-2.443-.386,2.328,2.328,0,0,1-1.269-1.269,6.319,6.319,0,0,1-.372-2.4,6.415,6.415,0,0,1,.372-2.429,2.274,2.274,0,0,1,1.269-1.254,8.237,8.237,0,0,1,4.9,0,2.281,2.281,0,0,1,1.254,1.254,6.415,6.415,0,0,1,.372,2.429,6.319,6.319,0,0,1-.372,2.4,2.336,2.336,0,0,1-1.254,1.269A6.3,6.3,0,0,1,5140.938,1793.49Zm0-2.539a1.286,1.286,0,0,0,.979-.275,3.418,3.418,0,0,0,0-2.483,1.854,1.854,0,0,0-1.946,0,3.231,3.231,0,0,0,0,2.483A1.29,1.29,0,0,0,5140.938,1790.951Zm4.165-14.7a1.146,1.146,0,0,0,.91-.856c-.109.093-.216.18-.316.263a3.51,3.51,0,0,0-.29.262l-.166.166A1.028,1.028,0,0,0,5145.1,1776.247Zm2.593,18.069a1.346,1.346,0,0,1-.924-.358,1.237,1.237,0,0,1-.4-.966v-9.325a5.354,5.354,0,0,1,.372-2.193,2.243,2.243,0,0,1,1.311-1.173,7.505,7.505,0,0,1,2.593-.36h5.573a7.387,7.387,0,0,1,2.58.36,2.3,2.3,0,0,1,1.311,1.173,5.182,5.182,0,0,1,.387,2.193v7.587a3.163,3.163,0,0,1-.662,2.124,2.529,2.529,0,0,1-1.9.828,1.794,1.794,0,0,1-1.063-.276,1.269,1.269,0,0,1-.593-.855.847.847,0,0,1-.026-.207v-.207a.948.948,0,0,1-.346.7,1.2,1.2,0,0,1-.786.262,1.174,1.174,0,0,1-.772-.276.949.949,0,0,1-.331-.772v-4.828h-1.324v4.828a.951.951,0,0,1-.332.772,1.208,1.208,0,0,1-.8.276,1.158,1.158,0,0,1-.787-.276.969.969,0,0,1-.316-.772v-4.828h-1.408v5.242a1.235,1.235,0,0,1-.4.966A1.384,1.384,0,0,1,5147.7,1794.316Zm1.352-9.242h1.408v-2.537a1.738,1.738,0,0,0-1.133.3,1.656,1.656,0,0,0-.275,1.13Zm3.642,0h1.324v-2.537h-1.324Zm3.56,0h1.572v-1.1a1.639,1.639,0,0,0-.29-1.158,1.938,1.938,0,0,0-1.255-.276h-.026Zm0,7.505a1.173,1.173,0,0,1,.827-1.214,1.316,1.316,0,0,0,.608-.3,1.056,1.056,0,0,0,.137-.635v-2.676h-1.572Z" transform="translate(-5048.965 -1734.092)" fill="#333"/>
      </g>
      <g id="グループ_643" data-name="グループ 643" transform="translate(4948.011 1690.542)">
        <g id="グループ_642" data-name="グループ 642" transform="translate(0 0)">
          <path id="パス_1610" data-name="パス 1610" d="M4970.267,1716.416a1.813,1.813,0,0,1-1.268-.5,1.7,1.7,0,0,1-.54-1.312v-4.838h-11.949a1.515,1.515,0,1,1,0-3.031h3.789v-2.448a6.779,6.779,0,0,1,.5-2.856,2.913,2.913,0,0,1,1.7-1.5,9.951,9.951,0,0,1,3.366-.452h2.594v-3.323h-5.974q-.847,1.254-1.779,2.4t-1.866,2.113a2.153,2.153,0,0,1-1.3.642,1.624,1.624,0,0,1-1.326-.437,1.533,1.533,0,0,1-.582-1.151,1.608,1.608,0,0,1,.525-1.239,23.467,23.467,0,0,0,2.316-2.653q1.122-1.485,2.084-3.031a27.451,27.451,0,0,0,1.574-2.856,1.692,1.692,0,0,1,1.006-.874,1.793,1.793,0,0,1,2.171.975,1.47,1.47,0,0,1-.087,1.24,18.42,18.42,0,0,1-.875,1.749h15.068a1.545,1.545,0,0,1,1.546,1.545,1.542,1.542,0,0,1-.453,1.107,1.469,1.469,0,0,1-1.093.466h-7.345v3.323h5.509a1.443,1.443,0,0,1,1.08.452,1.587,1.587,0,0,1,0,2.186,1.443,1.443,0,0,1-1.08.451h-5.509v4.169h8.627a1.515,1.515,0,1,1,0,3.031h-8.627v4.838a1.723,1.723,0,0,1-.524,1.312A1.8,1.8,0,0,1,4970.267,1716.416Zm-6.382-9.676h4.575v-4.169h-2.594a2.806,2.806,0,0,0-1.6.306q-.376.306-.377,1.414Z" transform="translate(-4954.995 -1688.98)" fill="#ff6601"/>
        </g>
      </g>
      <g id="グループ_645" data-name="グループ 645" transform="translate(5186.554 1700.482)">
        <g id="グループ_644" data-name="グループ 644" transform="translate(0 0)">
          <path id="パス_1611" data-name="パス 1611" d="M5207.9,1718.961a1.685,1.685,0,0,1-1.3-.193,1.64,1.64,0,0,1-.58-2.276,1.614,1.614,0,0,1,1.021-.76,8.278,8.278,0,0,0,4.51-2.592,7.014,7.014,0,0,0,1.449-4.553,6.283,6.283,0,0,0-.772-3.118,6.025,6.025,0,0,0-2.193-2.234,8.051,8.051,0,0,0-3.407-1.049,36.463,36.463,0,0,1-1.669,8.015,15.981,15.981,0,0,1-2.758,5.214,4.464,4.464,0,0,1-3.325,1.834,4.544,4.544,0,0,1-2.676-.855,5.738,5.738,0,0,1-1.917-2.454,9.484,9.484,0,0,1-.7-3.835,10.6,10.6,0,0,1,3.338-7.807,11.6,11.6,0,0,1,3.766-2.372,12.841,12.841,0,0,1,4.759-.856,12.5,12.5,0,0,1,5.586,1.2,9.527,9.527,0,0,1,3.848,3.338,8.848,8.848,0,0,1,1.408,4.979,10.305,10.305,0,0,1-2.138,6.663A11.287,11.287,0,0,1,5207.9,1718.961Zm-8.994-5.1q.5,0,1.146-.841a11.307,11.307,0,0,0,1.311-2.386,26.251,26.251,0,0,0,1.213-3.655,32.162,32.162,0,0,0,.827-4.676,8.131,8.131,0,0,0-3.614,1.587,7.654,7.654,0,0,0-2.206,2.786,8.279,8.279,0,0,0-.773,3.38,5.505,5.505,0,0,0,.593,2.842A1.739,1.739,0,0,0,5198.9,1713.857Z" transform="translate(-5193.58 -1699.069)" fill="#333"/>
        </g>
      </g>
      <g id="グループ_647" data-name="グループ 647">
        <g id="グループ_646" data-name="グループ 646">
          <path id="パス_1612" data-name="パス 1612" d="M5005.154,1740.469q-2.826,2.762-4.779.807-1.953-2.019.808-4.779l13.4-13.4-13.4-13.4q-2.828-2.828-.808-4.779,1.953-1.952,4.779.875l13.4,13.4,13.463-13.463q2.826-2.826,4.779-.807,1.952,1.953-.875,4.779l-13.4,13.4,13.329,13.4q2.826,2.828.875,4.779-1.885,1.885-4.78-.875l-13.4-13.329Z" fill="#fff"/>
        </g>
      </g>
    </g>
  </g>
</svg>
