<?xml version="1.0" encoding="UTF-8"?><svg id="_レイヤー_2" xmlns="http://www.w3.org/2000/svg" xmlns:xlink="http://www.w3.org/1999/xlink" viewBox="0 0 186.92699 106.033"><defs><style>.cls-1{fill:none;}.cls-2{clip-path:url(#clippath);}.cls-3{fill:#fa8b8f;}.cls-4{fill:#f54fa5;}.cls-5{fill:#00b9ef;}.cls-6{fill:#f1d598;}.cls-7{fill:#fff;}.cls-8{fill:#fff8e5;}.cls-9{fill:#fff2d3;}.cls-10{fill:#ffb301;}.cls-11{fill:#ff6601;}.cls-12{fill:#4dac27;}.cls-13{clip-path:url(#clippath-1);}</style><clipPath id="clippath"><rect class="cls-1" x="13.93298" width="154" height="106.033"/></clipPath><clipPath id="clippath-1"><rect class="cls-1" x="21.13" y="6.31104" width="139.005" height="214.912"/></clipPath></defs><g id="_レイヤー_1-2"><g id="_グループ_666"><g id="_グループ_662"><g class="cls-2"><g id="_グループ_661"><g id="_グループ_660"><g class="cls-13"><g id="_グループ_659"><g id="_グループ_48"><path id="_パス_181" class="cls-9" d="m136.12298,142.25c-1.02899-13.37195-3.651-37.43799-7.155-50.36804-3.39999-12.55505-13.66699-48.01196-13.46799-54.68298,0,0-3.13599-2-3.03601-2.91895l-21.83099,1.36401-21.83099-1.36401c.10001.91602-3.03601,2.91895-3.03601,2.91895.20001,6.672-10.064,42.12903-13.46799,54.68298-3.50601,12.93005-6.12601,37-7.15601,50.36804-.66382,7.44043-.60019,14.92786.19,22.35596,2.311,19.41699,24.83398,30.04199,45.29999,29.09998,20.46301.94299,42.98599-9.68103,45.29999-29.09998.79349-7.42773.86047-14.91516.20001-22.35596"/><path id="_パス_194" class="cls-9" d="m74.41998,13.00403s-10.57001-5.78699-14.89999.51099c-3.276,4.75903-.92499,10.35596,2.215,14.42603,3.13998,4.07007,7.87201-12.71704,12.685-14.93701"/><path id="_パス_195" class="cls-6" d="m70.39199,20.36707s-6.29099-5.59998-7.918-2.41394c-.95801,1.87903,4.25201,5.73401,4.25201,5.73401"/><path id="_パス_196" class="cls-9" d="m106.846,13.00403s10.569-5.78699,14.89999.51099c3.276,4.75903.92401,10.35596-2.21399,14.42603-3.138,4.07007-7.87299-12.71704-12.685-14.93701"/><path id="_パス_197" class="cls-6" d="m110.867,20.36707s6.29099-5.59998,7.918-2.41394c.95901,1.87903-4.25299,5.73401-4.25299,5.73401"/><path id="_パス_198" class="cls-9" d="m119.46398,35.03711c0,17.38599-17.67001,28.72705-28.82999,28.72705s-28.832-11.34094-28.832-28.72705c.00967-15.92297,12.92557-28.82312,28.84851-28.81348,15.90924.00964,28.8038,12.90417,28.81348,28.81348"/><path id="_パス_199" class="cls-8" d="m101.742,44.76709c0,6.30005-6.18201,10.41504-11.10901,10.41504s-11.11099-4.11206-11.11099-10.41504c.39502-6.13586,5.68936-10.78979,11.82526-10.39478,5.58514.35962,10.03519,4.80957,10.39474,10.39478"/><path id="_パス_200" d="m95.526,44.26111c-.35599-2.02405-3.26099-2.448-4.89301-2.448s-4.53699.42395-4.89401,2.448c-.02429.14099-.03668.28394-.03699.427,0,1.37805,2.20599,4.05896,4.931,4.05896s4.92999-2.67603,4.92999-4.05896c.00085-.14307-.01083-.28601-.035-.427"/><path id="_パス_201" class="cls-3" d="m90.63,50.45203h0c-1.56104.08325-3.11313.28882-4.642.61499,0,.75195,1.91599,2.33801,4.642,2.33801s4.64301-1.58203,4.64301-2.33801c-1.52917-.32617-3.08163-.53186-4.64301-.61499"/><path id="_パス_202" d="m97.432,47.95911s.73801,1.97705-2.034,2.41504c-1.58267.11597-3.17383.00012-4.72299-.34399v-.00696h-.08401v.00696c-1.54953.34412-3.14099.45996-4.724.34399-2.772-.43799-2.03299-2.41504-2.03299-2.41504-.64404.68066-.61588,1.75415.06299,2.40002.0928.0885.1955.16589.306.23096,1.483,1.05298,4.836.69995,6.42999.18799,1.59299.51599,4.94501.86206,6.42999-.18799.80734-.47717,1.07581-1.51794.60001-2.32605-.06506-.11047-.14258-.21313-.23099-.30603"/><path id="_パス_203" d="m81.43899,34.20508c.78162.76709.7934,2.02258.02628,2.80432-.12643.12878-.26984.23975-.42627.32971-1.10699.93201-2.651,1.40002-3.621.24597-.97479-1.0769-.89197-2.74023.185-3.71497,1.07693-.97485,2.7402-.89197,3.715.18494.04401.04895.086.09998.12701.151"/><path id="_パス_204" class="cls-7" d="m80.23898,34.1311c0,.19336-.15668.34998-.34998.34998s-.35001-.15662-.35004-.34998c0-.19287.1561-.34937.349-.34998h0c.1933,0,.35001.15674.35001.34998"/><path id="_パス_205" d="m99.82598,34.20508c-.78174.76624-.79434,2.02112-.02811,2.80286.12686.12939.27094.24084.4281.33118,1.10699.93201,2.64999,1.40002,3.62201.24597.97479-1.0769.89197-2.74023-.185-3.71497-1.07693-.97485-2.7402-.89197-3.715.18494-.04401.04895-.086.09998-.12601.151"/><path id="_パス_206" class="cls-7" d="m101.02999,34.1311c0,.19336.15668.34998.34998.34998s.35001-.15662.35004-.34998c0-.1925-.15549-.34888-.34802-.34998h0c-.19345,0-.35043.15649-.35101.34998"/><path id="_パス_207" class="cls-9" d="m67.95999,62.349s-12.60999,1.19995-18.61401-9.00806c-5.68799-9.66895-11.70999-21.32104-20.71201-17.11304-7.32101,3.41602-9.60699,9.60803-5.39999,21.61694,3.271,9.349,12.31,32.12695,35.12799,43.53503"/><path id="_パス_208" d="m29.177,51.29602c.681.14441,1.38687-.09082,1.845-.61499.62201-.69995,1.29999-1.32202,1.98999-1.97998,1.974-1.90002,5.116-1.16003,4.89999-3.56799-.22296-1.25793-1.14362-2.27881-2.37201-2.63-3.02231-.98682-6.29779.49841-7.547,3.422-.70279,1.24792-.86707,2.72827-.45499,4.09998.31406.65637.91724,1.12781,1.63,1.27405"/><path id="_パス_209" d="m27.24798,42.99609c.35696.50781.23468,1.20898-.27319,1.56592-.50784.35693-1.20895.23462-1.56592-.27319-.28018-.39856-.27167-.93237.02112-1.32178.51694-.47632,1.31653-.4635,1.81799.02905"/><path id="_パス_210" d="m29.56198,40.7301c.49017.50452.49896,1.30469.01999,1.81995-.80905.27466-1.68753-.15857-1.96216-.96765-.15945-.46985-.08392-.98767.20316-1.39233.63101-.31152,1.39548-.0741,1.73901.54004"/><path id="_パス_211" d="m32.72799,39.94409c.27173.64795-.01181,1.39526-.64499,1.69995-.569.15503-1.20599-.35303-1.41901-1.13696-.27243-.64771.0108-1.39526.64401-1.69995.57001-.15503,1.20599.354,1.42001,1.13696"/><path id="_パス_212" d="m35.76098,40.2821c-.039.73096-.5,1.30005-1.03201,1.27197s-.92999-.64197-.89001-1.37195.5-1.30005,1.03101-1.27197.92999.64294.89099,1.37195"/><path id="_パス_213" d="m25.898,45.84705c.37128.41772.33362,1.05737-.08414,1.42871-.41779.37134-1.05743.33362-1.42871-.08411-.29202-.32861-.33853-.80811-.11514-1.18665.41376-.47827,1.13-.54773,1.62799-.15796"/><path id="_パス_214" class="cls-9" d="m113.307,62.349s12.60999,1.19995,18.61401-9.00806c5.68701-9.66895,11.70999-21.31702,20.71701-17.11401,7.32001,3.41602,9.60699,9.60706,5.40002,21.61694-3.271,9.349-12.31,32.12598-35.12799,43.53503"/><path id="_パス_215" d="m152.08901,51.297c-.68097.14429-1.38672-.09106-1.845-.61499-.62201-.69995-1.29999-1.32202-1.98999-1.97998-1.96899-1.90002-5.11801-1.16003-4.89999-3.56799.22342-1.25781,1.14389-2.27832,2.37201-2.63,3.02258-.98718,6.29852.49866,7.547,3.42297.70294,1.24792.86725,2.72827.45502,4.09998-.31433.65588-.91748,1.12695-1.63,1.27295"/><path id="_パス_216" d="m154.01797,42.99609c-.35754.50818-.23547,1.20996.27264,1.5675.50818.35754,1.2099.23547,1.56744-.27271.28088-.39917.27234-.93384-.02112-1.32385-.51709-.47693-1.31738-.46411-1.81897.02905"/><path id="_パス_217" d="m151.704,40.7301c-.19977.58838.11523,1.22717.70361,1.427.58832.19971,1.22717-.11536,1.42694-.70361.15674-.46179-.00177-.97192-.39258-1.26343-.63074-.3114-1.39484-.07397-1.73798.54004"/><path id="_パス_218" d="m148.53799,39.94604c-.27188.64771.0112,1.3949.64401,1.69995.57101.15503,1.207-.354,1.42001-1.13696.27173-.64795-.01178-1.39526-.64499-1.69995-.569-.15601-1.20499.354-1.41901,1.13599"/><path id="_パス_219" d="m145.50399,40.2821c.04001.72998.5,1.30005,1.03201,1.27197s.92999-.64197.892-1.37305-.5-1.30005-1.03201-1.27197-.92999.64294-.892,1.37305"/><path id="_パス_220" d="m155.36898,45.84705c-.37177.41736-.33478,1.05701.08258,1.42883.41736.3717,1.05707.33472,1.42883-.08264.29224-.32812.33936-.80737.11658-1.18616-.4129-.47937-1.12964-.54993-1.62799-.16003"/></g></g></g></g></g></g></g><g id="_グループ_663"><path id="_パス_1646" class="cls-5" d="m22.44598,26.7351l-.71899-1.245-7.078,4.08704v-8.17297h-1.43701v8.17297l-8.582-4.95496-.71899,1.245,8.582,4.95496-8.582,4.95496.71899,1.245,8.582-4.95496v9.91003h1.43701v-9.91003l7.078,4.08704.71899-1.245-7.078-4.08704,7.078-4.08704Z"/><circle id="_楕円形_89" class="cls-5" cx="13.933" cy="18.88205" r="3.593"/><circle id="_楕円形_90" class="cls-5" cx="13.933" cy="43.42307" r="3.593"/><circle id="_楕円形_91" class="cls-12" cx="13.933" cy="30.83505" r="3.593"/><circle id="_楕円形_92" class="cls-4" cx="24.27299" cy="24.85202" r="3.593"/><circle id="_楕円形_93" class="cls-11" cx="3.593" cy="36.79209" r="3.593"/><circle id="_楕円形_94" class="cls-10" cx="24.27299" cy="36.79209" r="3.593"/><circle id="_楕円形_95" class="cls-10" cx="3.593" cy="24.85202" r="3.593"/></g><g id="_グループ_665"><path id="_パス_1656" class="cls-5" d="m183.23398,72.005l-.48999-.84802-4.82501,2.78601v-5.57104h-.98001v5.57104l-5.85001-3.37695-.48999.84802,5.85001,3.37695-5.85001,3.37695.48999.849,5.85001-3.37695v6.755h.98001v-6.75598l4.82501,2.78503.48999-.84802-4.82501-2.78601,4.82501-2.78503Z"/><circle id="_楕円形_96" class="cls-5" cx="177.42999" cy="66.652" r="2.449"/><circle id="_楕円形_97" class="cls-5" cx="177.42999" cy="83.38002" r="2.449"/><circle id="_楕円形_98" class="cls-12" cx="177.42999" cy="74.80007" r="2.449"/><circle id="_楕円形_99" class="cls-4" cx="184.47799" cy="70.72109" r="2.449"/><circle id="_楕円形_100" class="cls-11" cx="170.38199" cy="78.85903" r="2.449"/><circle id="_楕円形_101" class="cls-10" cx="184.47799" cy="78.85903" r="2.449"/><circle id="_楕円形_102" class="cls-10" cx="170.38199" cy="70.72109" r="2.449"/></g></g></g></svg>