<?xml version="1.0" encoding="UTF-8"?><svg id="_レイヤー_2" xmlns="http://www.w3.org/2000/svg" viewBox="0 0 213.28803 102.92122"><defs><style>.cls-1{fill:none;}.cls-2{stroke:#333;stroke-linecap:round;stroke-linejoin:round;stroke-width:1.814px;}.cls-2,.cls-3,.cls-4{fill:#fff;}.cls-5{fill:#fa8b8f;}.cls-6{fill:#f54fa5;}.cls-7{fill:#f1d598;}.cls-8{fill:#fef2d3;}.cls-9{fill:#fff8e5;}.cls-10{fill:#fff2d3;}.cls-11{fill:#ffb301;}.cls-12{fill:#ff6601;}.cls-13{fill:#333;}.cls-14{fill:#4dac27;}.cls-4{opacity:0;}</style></defs><g id="_レイヤー_1-2"><g id="_グループ_657"><path id="_パス_214" class="cls-10" d="m134.98841,59.99714s5.64,10.19995,16.51201,9.45398c10.29999-.70496,22.26999-2.18396,23.758,6.83899,1.20999,7.33301-2.29999,12.28601-13.60699,15.33398-8.79999,2.37402-30.789,7.34399-51.30701-4.05505"/><path id="_パス_215" d="m163.52941,83.7032c-.46317-.4425-.65097-1.10071-.491-1.72095.211-.83801.32599-1.677.46899-2.54004.418-2.479-1.77701-4.48804.16101-5.57703,1.07083-.48425,2.32404-.31592,3.229.43396,2.32004,1.78174,2.89432,5.04065,1.323,7.50806-.58218,1.18213-1.62112,2.07593-2.87701,2.47498-.66132.10266-1.33258-.11011-1.814-.57495"/><path id="_パス_216" d="m170.83541,80.85518c-.57101-.00623-1.03897.45166-1.0452,1.02271s.45166,1.03894,1.02267,1.04517c.44724.00488.84689-.27832.99051-.7019.09311-.64062-.33276-1.24158-.96799-1.36597"/><path id="_パス_217" d="m171.3544,77.92329c-.55048.15405-.87189.7251-.71786,1.27563.15399.55042.7251.87183,1.27557.71777.43201-.12085.73697-.50623.75528-.95447-.09113-.64075-.66849-1.09753-1.31299-1.03894"/><path id="_パス_218" d="m170.30341,75.1092c-.4567.34375-.54828.99268-.20453,1.44934.34372.45667.99265.54834,1.44934.20459.35934-.27051.5029-.74207.35519-1.16687-.3186-.56238-1.02206-.77661-1.60001-.48706"/><path id="_パス_219" d="m168.4724,72.98128c-.29218.4231-.18604,1.00293.23706,1.29517.4231.29211,1.00293.18604,1.2951-.23706.22919-.33191.21863-.77356-.02615-1.09412-.43146-.39111-1.09375-.37524-1.50601.03601"/><path id="_パス_220" d="m169.37241,83.36116c-.51053-.06567-.9776.29492-1.04327.80554-.06567.5105.29498.97754.80551,1.04321.40173.05164.79086-.16199.96277-.52881.14835-.56287-.17044-1.14319-.72501-1.31995"/><path id="_パス_221" class="cls-8" d="m69.17439,97.78621c3.08667-.21277,6.1212-.90625,8.994-2.05505,0,0,3.407,7.47205,17.631,7.07605,0,0,4.56799-5.19299,5.8-8.06104l-1.918-8.68396-23.31599-.61401-7.19101,12.33801Z"/><path id="_パス_223" class="cls-8" d="m145.5074,95.11824c-.882-11.44299-3.12399-8.65796-6.12399-19.724-2.91299-10.74402-11.7-41.08899-11.52901-46.80005,0,0-2.683-1.71301-2.60001-2.5l-18.68401,1.16797-18.68401-1.16797c.088.78503-2.60001,2.5-2.60001,2.5.17,5.70996-8.61301,36.05103-11.526,46.80005-3,11.06494-5.243,8.27905-6.12399,19.724"/><path id="_パス_224" class="cls-8" d="m83.77141,69.64924s10.278-1.02795,11.563,5.40002-.507,22.01697-4.882,22.09998c-14.34.25598-12.858-6.37805-12.84799-6.42297-.567,2.5-5.14999,7.13196-7.45599,7.45203-6.463.90002-14.12801-5.24902-13.87601-10.78894.495-10.83105,13.27299-21.151,18.86501-29.84998,2.506-3.90002,5.2-5.474,8.11501-9.07703"/><path id="_パス_225" class="cls-7" d="m76.1664,95.01826c.90086-.71289,1.73254-1.50903,2.48399-2.37805,1.589,4.44995,2.55499,7.96899,15.39999,10.28101,0,0-12.84801-.51404-16.44499-5.91003-.58701-.87695-6.92999,1.02405-6.937,1.02795,2.00342-.66089,3.86789-1.6853,5.5-3.02197"/><path id="_パス_226" class="cls-7" d="m81.1594,73.54316s10-1.44299,14.132,3.08301c5.39999,5.91003,5.653,13.87598,5.653,13.87598,0,0-3.60001-12.07703-10.789-14.90002-2.92586-.97693-5.94019-1.66553-9-2.05603"/><path id="_パス_230" class="cls-8" d="m92.6994,10.19722s-9.045-4.953-12.756.43896c-2.80701,4.07397-.789,8.85901,1.89999,12.34595s6.741-10.88599,10.85699-12.78503"/><path id="_パス_231" class="cls-7" d="m89.25441,16.50227s-5.384-4.79395-6.77699-2.06604c-.821,1.60803,3.64,4.90698,3.64,4.90698"/><path id="_パス_232" class="cls-8" d="m120.4514,10.19722s9.045-4.953,12.756.43896c2.80701,4.07397.789,8.85901-1.89999,12.34595s-6.741-10.88403-10.85699-12.78296"/><path id="_パス_233" class="cls-7" d="m123.8974,16.50227s5.384-4.79395,6.776-2.06604c.821,1.60803-3.64,4.90698-3.64,4.90698"/><path id="_パス_234" class="cls-8" d="m131.24941,29.0583c0,14.87903-15.12199,24.58398-24.674,24.58398s-24.675-9.70605-24.675-24.58398c.12289-13.62708,11.26944-24.57434,24.89651-24.45154,13.4536.12134,24.33015,10.99792,24.45148,24.45154"/><path id="_パス_235" class="cls-9" d="m116.0844,37.38325c0,5.39502-5.291,8.91394-9.508,8.91394s-9.508-3.51904-9.508-8.91394c.34074-5.2511,4.87386-9.23181,10.12498-8.89099,4.77611.30994,8.5811,4.11487,8.89102,8.89099"/><path id="_パス_236" d="m110.7634,36.9532c-.30499-1.73206-2.791-2.09497-4.188-2.09497s-3.883.36401-4.188,2.09497c-.02118.12048-.03189.24268-.032.36499,0,1.17896,1.888,3.46899,4.21899,3.46899s4.21899-2.29004,4.21899-3.46899c.00066-.12231-.00972-.24451-.03101-.36499"/><path id="_パス_238" d="m98.70641,28.34517c.66679.66101.67152,1.7373.01054,2.40417-.10748.1084-.2291.2019-.36154.27783-.95599.80005-2.26801,1.19995-3.10001.20996-.80629-.94629-.69281-2.36694.25346-3.17334.92926-.79175,2.32031-.69849,3.13553.21033l.05701.06799"/><path id="_パス_239" class="cls-3" d="m97.67639,28.28316c-.00003.16565-.13437.29993-.30005.29993s-.29997-.1344-.29996-.30005c.00003-.16565.13434-.29993.3-.29993h0c.16568,0,.3.13428.3.30005h0"/><path id="_パス_240" d="m114.44339,28.34517c-.66679.66101-.67152,1.7373-.01054,2.40417.10748.1084.2291.2019.36154.27783.95599.80005,2.26801,1.19995,3.10001.20996.84239-.91431.78413-2.33838-.13014-3.18079-.91428-.84229-2.33833-.78406-3.18074.13025-.01979.02148-.03917.04333-.05812.06555-.026.02905-.052.06006-.076.08997"/><path id="_パス_241" class="cls-3" d="m115.4704,28.28316c.00003.16565.13437.29993.30005.29993s.29997-.1344.29996-.30005c-.00003-.16565-.13434-.29993-.3-.29993h0c-.16568,0-.3.13428-.3.30005h0"/><path id="_パス_242" d="m95.52939,98.46016c.13734,1.10437.81091,2.06982,1.8,2.57996-.13464-1.10547-.80902-2.07202-1.8-2.57996"/><path id="_パス_243" d="m97.06841,96.35127c.05598,1.2179.73651,2.3208,1.8,2.91699-.02206-1.22815-.71217-2.34656-1.8-2.91699"/><path id="_パス_244" d="m99.9744,91.91218s-.672.91895,1.633,2.83301c.07974-1.18799-.56508-2.30664-1.633-2.83301"/><path id="_パス_245" d="m98.5484,94.06221s-.664,1.04004,1.64101,2.95398c.08649-1.22278-.55711-2.38135-1.64101-2.95398"/><path id="_パス_246" d="m94.19541,100.42915s-.166,1.18896,1.61099,2.37805c0,0,.34-1.34094-1.61099-2.37805"/><rect id="_長方形_162" class="cls-1" x="56.2714" y="4.47322" width="100.609" height="98.448"/><g id="_グループ_654"><path id="_パス_1636" class="cls-3" d="m70.58741,60.11922l-.661-1.14502-6.51199,3.76001v-7.52002h-1.32201v7.52002l-7.89999-4.55896-.661,1.14502,7.89999,4.55896-7.89999,4.55896.661,1.14502,7.89999-4.55896v9.11804h1.32201v-9.11804l6.51199,3.76001.661-1.14502-6.51199-3.76001,6.51199-3.76001Z"/><circle id="_楕円形_75" class="cls-3" cx="62.7524" cy="52.89322" r="3.305"/><circle id="_楕円形_76" class="cls-3" cx="62.7524" cy="75.47222" r="3.305"/><circle id="_楕円形_77" class="cls-14" cx="62.7524" cy="63.89122" r="3.305"/><circle id="_楕円形_78" class="cls-6" cx="72.2654" cy="58.38622" r="3.305"/><circle id="_楕円形_79" class="cls-12" cx="53.2384" cy="69.37122" r="3.305"/><circle id="_楕円形_80" class="cls-11" cx="72.2654" cy="69.37122" r="3.305"/><circle id="_楕円形_81" class="cls-11" cx="53.2384" cy="58.38622" r="3.305"/></g><g id="_グループ_655"><path id="_パス_1637" class="cls-3" d="m58.6274,34.05723l-.42999-.74402-4.23199,2.44299v-4.88696h-.86101v4.88696l-5.131-2.96301-.42999.74402,5.131,2.96301-5.131,2.96301.42999.74402,5.131-2.96301v5.92505h.85899v-5.92505l4.23199,2.44299.42999-.74402-4.23199-2.44299,4.23401-2.44299Z"/><circle id="_楕円形_82" class="cls-3" cx="53.5354" cy="29.36222" r="2.148"/><circle id="_楕円形_83" class="cls-3" cx="53.5354" cy="44.03522" r="2.148"/><circle id="_楕円形_84" class="cls-14" cx="53.5354" cy="36.50922" r="2.148"/><circle id="_楕円形_85" class="cls-6" cx="59.7184" cy="32.93122" r="2.148"/><circle id="_楕円形_86" class="cls-12" cx="47.3534" cy="40.07022" r="2.148"/><circle id="_楕円形_87" class="cls-11" cx="59.7184" cy="40.07022" r="2.148"/><circle id="_楕円形_88" class="cls-11" cx="47.3534" cy="32.93122" r="2.148"/></g><path id="_パス_1638" class="cls-2" d="m136.1154,45.41121c1.91701-2.96106,1.96001-13.97498,6.41-24.047,3.47-7.84998,12.129-14.245,20.01001-16.58301,7.79019-2.19666,16.00003-2.45044,23.91101-.73901,6.60901,1.52197,14.39999,5.80005,18.79199,11.27795,4.8262,6.27417,7.34406,14.01929,7.13,21.93201-.12949,6.29712-1.77167,12.4707-4.78799,18-6.91699,13.25696-24.94601,16.53406-30.79999,16.26501-21.625-.99304-34.061-17.04895-36.931-17.97595-2.10001-.677-13.121-2.06006-14.05701-.92505.00397.0011,7.75397-3.24292,10.32297-7.20496Z"/><g id="_グループ_656"><path id="_パス_1639" class="cls-13" d="m165.31839,33.29613c-.88431.04993-1.7543-.23975-2.43201-.81006-.62003-.60535-.94507-1.45117-.89001-2.31604.00403-.14893.01706-.29761.039-.44495.026-.19202.05667-.41431.09201-.66699-.245-.04297-.478-.09094-.70001-.14404l-.608-.14404c-.20172-.05469-.37076-.1925-.465-.37903-.09879-.18018-.12009-.39282-.05899-.58899.06622-.19592.2041-.3595.38599-.45801.17584-.10364.38742-.12769.582-.06604.37369.11157.75412.1991,1.13901.26196.04266-.25269.09067-.51001.14401-.77197s.10135-.52856.14401-.80005c-.23599-.04395-.453-.08801-.65399-.13196s-.366-.08301-.5-.11804c-.19669-.05762-.36179-.19214-.45801-.37305-.10336-.1759-.12735-.38745-.06601-.58203.0538-.20007.18616-.36987.367-.47095.17813-.10437.39218-.12842.58899-.06604.10468.02734.24402.06067.418.09998.17401.03931.37033.08105.58899.125l.19-1.11804c.04941-.27051.08282-.54358.10001-.81799.01343-.20996.12161-.40234.29401-.52295.16583-.12683.37491-.18323.582-.15698.20807.02039.39795.12744.52301.29504.12949.16455.18619.37476.15701.58203-.026.21802-.06799.5-.12399.85596s-.129.73999-.21701,1.15796c.14001.026.26801.047.38599.05896s.22501.02795.32101.04602c.20212.03113.38461.13855.51001.30005.26025.33276.20145.8136-.13138,1.07385-.0022.00171-.00439.00342-.00662.00513-.16147.12439-.36609.17871-.56799.151-.10501-.00903-.22699-.02405-.366-.047s-.284-.04102-.43201-.05896c-.052.2533-.10199.50635-.14999.75903-.04797.25269-.09399.50098-.138.745l.5.052c.16101.01794.311.03198.452.04004.20459.00708.39682.09949.53.255.13855.151.21063.35132.20001.55603-.00357.20715-.09656.40259-.255.53601-.15552.13904-.35968.21094-.56799.19995-.17499-.01697-.358-.03296-.54999-.04602s-.388-.03296-.58899-.05896c-.05359.28931-.08701.58203-.10001.87598,0,1.04663.59732,1.56958,1.79199,1.56897.44003.01636.87421-.10498,1.242-.34705.31552-.20862.53223-.53699.60001-.90906.10394-.73499-.20312-1.46777-.79999-1.90906-.15442-.14172-.23425-.34717-.216-.55603.00909-.21436.10602-.41541.26801-.55603.1442-.1449.3454-.21814.54901-.19995.20636.01672.40045.10486.54901.24902.45651.41418.80667.93213,1.021,1.51001.18939.52563.23868,1.09155.14301,1.64197-.108.75427-.50183,1.43811-1.10001,1.91003-.64545.49475-1.44229.75061-2.2551.72437Z"/><path id="_パス_1640" class="cls-13" d="m175.27637,32.81322c-.18402.0282-.37146-.02185-.517-.13794-.14944-.11108-.2464-.27905-.26801-.46399-.01962-.18542.03464-.37122.151-.51697.11148-.14905.27917-.24585.46399-.26794.68039-.07153,1.3447-.25281,1.96701-.53699.41461-.18311.76694-.48303,1.01401-.86304.18765-.30957.26187-.67468.20999-1.03296-.02466-.39136-.2095-.75525-.51099-1.00598-.35214-.22656-.77551-.31531-1.189-.24902-.28.01733-.60501.05408-.97501.10999-.371.05798-.75299.12-1.14499.19104s-.767.146-1.125.229-.66699.16003-.92899.229c-.17944.05347-.37286.03174-.53601-.06006-.16434-.08887-.28317-.24341-.327-.42505-.05267-.17749-.03101-.36877.06-.53003.0871-.16687.24203-.28784.42499-.33203.27869-.07874.608-.15735.98801-.23596s.77634-.15491,1.189-.229c.41467-.07471.82034-.13794,1.21701-.18994.39999-.052.74701-.09094,1.05301-.11694.76022-.10046,1.53043.08838,2.15799.52905.57486.45312.93881,1.12219,1.00699,1.85095.09753.61047-.00342,1.23621-.28799,1.78503-.33252.61816-.83679,1.12695-1.452,1.46497-.81503.44849-1.71442.72253-2.64102.80481Z"/><path id="_パス_1641" class="cls-13" d="m190.0694,32.93016c-1.21164.18994-2.44388.20984-3.66101.05896-.88202-.08569-1.71805-.43408-2.39999-1-.57339-.54102-.88171-1.30554-.84399-2.09302-.01968-.70117.18414-1.39038.582-1.96802.43097-.58276.98163-1.06653,1.61499-1.41895-.06134-.33936-.14835-.72705-.26099-1.16296-.11267-.43604-.23032-.86926-.353-1.30005-.12265-.43262-.23199-.79712-.328-1.09302-.06119-.19739-.03461-.41162.073-.58801.09766-.18359.26477-.32043.46399-.38.2038-.06226.42441-.03613.608.07202.18304.10278.31735.27466.37299.47705.14798.5061.29398,1.05298.43799,1.64099.14398.58801.26434,1.15271.36099,1.69397.41867-.16602.86331-.31641,1.33401-.45105.47067-.13464.95901-.25903,1.465-.37305.20007-.05396.41357-.02087.58801.09094.17694.10522.3006.28101.34.48303.04819.20532.01218.42139-.10001.59998-.1073.17419-.28302.29504-.48401.33301-.90198.17493-1.78949.4176-2.655.72595-.55737.19238-1.08362.46533-1.56201.81006-.31573.22754-.57172.52808-.746.87598-.13263.29382-.20084.61267-.20001.93506,0,.68933.41833,1.17566,1.255,1.45898,1.2854.29565,2.61993.30652,3.91.03198.20676-.03784.41968.01746.582.151.16449.12463.27103.31104.29501.51599.02917.20728-.02753.41748-.15701.58203-.12793.16821-.32135.27405-.53195.29114Z"/><path id="_パス_1642" class="cls-13" d="m161.75238,51.42125c-.17108.12024-.38397.16504-.58899.12402-.2038-.03125-.38705-.14148-.51001-.30701-.29666-.42798-.63-.87268-1-1.33398s-.73834-.90405-1.10501-1.328c-.36667-.42273-.698-.78235-.99399-1.07898-.4389-.39868-.79059-.88391-1.03299-1.42505-.17471-.42603-.17001-.90454.013-1.32703.25952-.54297.62897-1.02625,1.08499-1.41895.18335-.16455.40369-.37402.66101-.62805.25735-.25403.53003-.52441.81799-.81104.28799-.28735.56702-.57507.83701-.86304s.51401-.54529.73199-.77197c.14349-.15454.34512-.24194.556-.24097.21085-.00842.41602.06958.56799.21594.15573.13684.24408.33472.242.54199.00879.21094-.06927.41626-.216.56799-.30536.33337-.64301.68433-1.013,1.05298s-.72968.72205-1.07901,1.06006c-.34933.33337-.64932.61462-.89999.84399-.2695.22546-.49759.49622-.67401.80005-.11023.20618-.11023.45386,0,.66003.16824.29797.37726.57092.621.81104.29666.30603.63467.67261,1.01401,1.09998s.76068.87195,1.14401,1.33398.71902.90234,1.00699,1.32104c.13074.16357.1814.3772.138.58203-.03168.21008-.14853.39771-.323.51892Z"/><path id="_パス_1643" class="cls-13" d="m168.19342,51.62914c-.41873-.0011-.75793-.34033-.759-.75903v-3.37402c-.24399.22729-.49466.46301-.75201.70703s-.51236.48804-.76501.73206c-.1489.14417-.34875.22363-.556.22095-.20367.00415-.40005-.07581-.543-.22095-.13751-.15442-.20929-.35645-.20001-.56299-.00125-.20544.0871-.40112.242-.53601.40933-.3833.82999-.76929,1.26199-1.15796.43198-.38867.87-.75696,1.314-1.10498v-1.72498c-.14801.026-.33899.06494-.57501.11804s-.46701.09998-.69299.15601-.405.09204-.53601.11804c-.20181.04639-.41379.01038-.58899-.09998-.17725-.10535-.30099-.28149-.34-.48401-.04547-.20605-.00772-.42163.10501-.59998.10547-.17651.28113-.2998.483-.33899.069-.01794.20001-.04199.38-.07202s.38699-.06799.61401-.11096.44501-.08301.65399-.11804.375-.06494.5-.08997v-1.88403c0-.41919.33981-.75903.759-.75903s.759.33984.759.75903v1.88403c.2663.09119.49557.26672.65302.5.11606.17383.17319.38025.16299.58899-.0098.25476-.06046.50635-.14999.745.401-.21069.82169-.38147,1.25601-.51001.3989-.11914.81271-.18066,1.229-.18298.93591-.06238,1.85889.24536,2.57001.85706.60986.59875.93698,1.4281.89999,2.28198.01608,1.29724-.68927,2.49609-1.83099,3.11206-.81451.44531-1.70703.72986-2.629.83801-.20493.03796-.41632-.01257-.582-.13904-.16928-.12439-.28424-.3092-.32101-.51599-.03796-.20569.01453-.41772.14401-.58203.12317-.16528.30634-.27551.51001-.30701.87842-.0752,1.72177-.37927,2.44601-.88196.45551-.37366.71548-.93494.70599-1.52405.02689-.45239-.15079-.89282-.48401-1.19995-.41647-.31299-.93259-.46362-1.452-.42395-.54156.00244-1.07639.12-1.569.34497-.54956.25232-1.07108.56165-1.556.92297v4.63c-.00107.4187-.34027.75793-.759.75903l-.00803-.01038Z"/><path id="_パス_1644" class="cls-13" d="m182.0134,51.17015c-.8891.05176-1.76627-.22473-2.465-.77698-.65503-.66125-.98444-1.57812-.89999-2.505v-6.96997c-.01547-.43323.32321-.797.7565-.8125.43326-.0155.79703.32324.8125.75647.00067.01868.00067.03735,0,.05603v6.96997c-.05466.49109.10495.98193.43799,1.34705.39151.28345.87119.41809,1.353.38.53864.00073,1.06677-.14893,1.52499-.43201.51566-.33582.9187-.8186,1.15701-1.38599.18777-.39258.65826-.55872,1.05087-.37085.00272.00122.00543.00256.00812.00391.19421.07959.34152.24341.39999.44495.06567.20203.05392.42114-.03299.61499-.34561.81763-.93195,1.51074-1.681,1.98706-.72415.4585-1.56491.69897-2.422.69287Z"/><path id="_パス_1645" class="cls-13" d="m194.39041,51.42125c-.17099.12036-.38397.16528-.58899.12402-.20392-.03088-.38727-.14124-.51001-.30701-.29733-.42798-.63068-.87268-1-1.33398s-.73764-.90405-1.10501-1.328c-.366-.42273-.69733-.78235-.99399-1.07898-.4386-.39893-.79025-.88403-1.03299-1.42505-.17426-.42615-.16959-.90442.013-1.32703.25992-.54309.6297-1.02625,1.086-1.41895.18268-.16455.40302-.37402.66101-.62805.25803-.25403.53033-.52441.81699-.81104.289-.28796.56699-.57495.83801-.86304s.51401-.54504.73199-.77197c.14362-.1543.34518-.2417.556-.24097.21118-.00867.41672.06934.569.21594.15582.13672.2442.33472.242.54199.00787.21082-.07007.41565-.216.56799-.306.33203-.64301.68298-1.01401,1.05298s-.73001.724-1.07901,1.06006-.64899.61694-.89999.84399c-.26898.22595-.49701.49658-.67401.80005-.10901.20654-.10901.45349,0,.66003.16895.29773.37827.57068.62201.81104.29532.30603.633.67261,1.013,1.09998s.76166.87195,1.14499,1.33398.71899.90234,1.00699,1.32104c.13074.16357.1814.3772.138.58203-.03195.21045-.1496.39832-.32498.51892Z"/></g><path id="_パス_201" class="cls-5" d="m106.83539,42.2043h0c-1.43629.07654-2.86435.26587-4.271.56604,0,.69202,1.763,2.151,4.271,2.151s4.272-1.45605,4.272-2.151c-1.40698-.30017-2.83537-.4895-4.272-.56604"/><path id="_パス_237" d="m112.3944,40.11726s.633,1.69104-1.74001,2.06604c-1.3548.099-2.71678,0-4.043-.29395v-.00598h-.071v.00598c-1.32622.29395-2.6882.39307-4.043.29395-2.37399-.375-1.74001-2.06604-1.74001-2.06604-.55258.58264-.52818,1.50293.05447,2.05554.00018.00012.00035.00037.00052.00049.07899.07654.16658.14355.261.19995,1.269.90002,4.138.59998,5.5.16003,1.36301.43896,4.23199.73999,5.5-.16003.69174-.40674.92276-1.29724.51601-1.98901h0c-.05618-.09546-.12331-.18408-.2-.26404"/></g><rect class="cls-4" width="212.38103" height="102.92122"/></g></svg>