<?xml version="1.0" encoding="UTF-8"?><svg id="_レイヤー_2" xmlns="http://www.w3.org/2000/svg" xmlns:xlink="http://www.w3.org/1999/xlink" viewBox="0 0 220.6639 102.92122"><defs><style>.cls-1{fill:none;}.cls-2{stroke:#333;stroke-linecap:round;stroke-linejoin:round;stroke-width:1.814px;}.cls-2,.cls-3,.cls-4{fill:#fff;}.cls-5{clip-path:url(#clippath);}.cls-6{fill:#f54fa5;}.cls-7{fill:#00b9ef;}.cls-8{fill:#f1d598;}.cls-9{fill:#fef2d3;}.cls-10{fill:#fff8e5;}.cls-11{fill:#ffb301;}.cls-12{fill:#ff6601;}.cls-13{fill:#333;}.cls-14{fill:#4dac27;}.cls-4{opacity:0;}</style><clipPath id="clippath"><rect class="cls-1" x="58.97962" y="2.45768" width="101.77" height="100"/></clipPath></defs><g id="_レイヤー_1-2"><g id="_グループ_585"><g id="_グループ_582"><g class="cls-5"><g id="_グループ_581"><g id="_グループ_50"><path id="_パス_221" class="cls-9" d="m72.03162,97.24165c3.12377-.21643,6.19435-.92102,9.1-2.08801,0,0,3.446,7.58899,17.835,7.18799,0,0,4.621-5.27502,5.868-8.18799l-1.941-8.82104-23.585-.62402-7.277,12.53308Z"/><path id="_パス_222" class="cls-9" d="m147.67362,97.24165c-3.12376-.21655-6.19432-.92102-9.1-2.08801,0,0-3.446,7.58899-17.835,7.18799,0,0-4.621-5.27502-5.868-8.18799l1.941-8.82104,23.585-.62402,7.277,12.53308Z"/><path id="_パス_223" class="cls-9" d="m149.24562,94.53169c-.892-11.62402-3.161-8.79504-6.2-20.03503-2.947-10.91394-11.831-41.73596-11.662-47.53894,0,0-2.714-1.73999-2.628-2.53699l-18.9,1.18604-18.9-1.18604c.089.80005-2.628,2.53699-2.628,2.53699.172,5.80005-8.712,36.62-11.659,47.53796-3.035,11.23999-5.3,8.41003-6.2,20.03503"/><path id="_パス_224" class="cls-9" d="m86.79662,68.65669s10.4-1.04395,11.7,5.48096-.513,22.36401-4.939,22.44604c-14.505.26001-13.007-6.47803-13-6.52502-.573,2.53503-5.209,7.245-7.542,7.56897-6.538.91101-14.292-5.33203-14.036-10.95898.5-11,13.426-21.48401,19.083-30.31995,2.535-3.96106,5.257-5.56104,8.208-9.21997"/><path id="_パス_225" class="cls-8" d="m79.09962,94.42867c.91168-.72424,1.75307-1.53284,2.513-2.41504,1.607,4.52002,2.585,8.09497,15.581,10.44299,0,0-13-.52197-16.635-6-.594-.89099-7.01,1.04102-7.018,1.04395,2.02607-.67212,3.91065-1.71265,5.559-3.06897"/><path id="_パス_226" class="cls-8" d="m84.15362,72.61665s10.115-1.46594,14.3,3.13196c5.459,6,5.719,14.09399,5.719,14.09399,0,0-3.638-12.26697-10.914-15.13794-2.95779-.99182-6.00571-1.69116-9.1-2.08801"/><path id="_パス_227" class="cls-9" d="m132.93362,68.65669s-10.4-1.04395-11.7,5.48096.513,22.36401,4.939,22.44604c14.505.26001,13.007-6.47803,13-6.52502.573,2.53503,5.209,7.245,7.542,7.56897,6.538.91101,14.292-5.33203,14.035-10.95898-.5-11-13.426-21.48401-19.083-30.31995-2.535-3.96106-5.257-5.56104-8.208-9.21997"/><path id="_パス_228" class="cls-8" d="m140.62862,94.42867c-.91157-.72473-1.75325-1.53333-2.514-2.41504-1.606,4.52002-2.585,8.09497-15.58,10.44299,0,0,13-.52197,16.635-6,.594-.89099,7.01,1.04102,7.018,1.04395-2.02599-.67236-3.91053-1.71277-5.559-3.06897"/><path id="_パス_229" class="cls-8" d="m135.57462,72.61665s-10.115-1.46594-14.3,3.13196c-5.459,6-5.719,14.09399-5.719,14.09399,0,0,3.638-12.26697,10.914-15.13794,2.95791-.99133,6.00579-1.69067,9.1-2.08801"/><path id="_パス_230" class="cls-9" d="m95.82762,8.27571s-9.15-5.03101-12.9.44604c-2.839,4.13794-.8,9,1.921,12.54102s6.819-11.05701,10.982-12.98596"/><path id="_パス_231" class="cls-8" d="m92.34262,14.67659s-5.446-4.86902-6.855-2.09998c-.831,1.63306,3.682,4.98401,3.682,4.98401"/><path id="_パス_232" class="cls-9" d="m123.89961,8.27571s9.15-5.03101,12.9.44604c2.839,4.13794.8,9-1.921,12.54102s-6.819-11.05505-10.982-12.98401"/><path id="_パス_233" class="cls-8" d="m127.38562,14.67659s5.446-4.86902,6.854-2.09998c.831,1.63306-3.682,4.98401-3.682,4.98401"/><path id="_パス_234" class="cls-9" d="m134.82262,27.43074c0,15.11401-15.3,24.97205-24.959,24.97205s-24.959-9.85901-24.959-24.97205c.05348-13.8125,11.29411-24.96643,25.10665-24.91296h.00235c13.69628.11047,24.75621,11.21631,24.81,24.91296"/><path id="_パス_235" class="cls-10" d="m119.48262,35.88667c0,5.479-5.352,9.05396-9.617,9.05396s-9.618-3.57495-9.618-9.05396c.15835-5.15491,4.46289-9.20703,9.618-9.05396,5.15494-.15308,9.45919,3.89917,9.617,9.05396"/><path id="_パス_236" d="m114.10162,35.44771c-.309-1.75903-2.823-2.12805-4.237-2.12805s-3.928.37-4.237,2.12805c-.02125.12219-.03196.24597-.032.37,0,1.19995,1.909,3.52405,4.268,3.52405s4.268-2.32605,4.268-3.52405c.00074-.12402-.00964-.2478-.031-.37"/><path id="_パス_237" d="m115.74961,38.66267s.641,1.71802-1.76,2.09998c-1.37067.1001-2.74862-.00098-4.09-.30005v-.00598h-.075v.00598c-1.34137.29919-2.71933.40027-4.09.30005-2.4-.38-1.76-2.09998-1.76-2.09998-.55954.59302-.53451,1.52673.056,2.08899.08006.07654.16864.14368.264.19995,1.284.91504,4.186.61096,5.566.16296,1.379.44604,4.281.75195,5.566-.16296.70031-.41541.93356-1.31848.522-2.021-.05613-.09668-.12324-.18665-.2-.26794"/><path id="_パス_238" d="m101.90362,26.70564c.67833.66895.68594,1.76111.01699,2.43945-.10956.11108-.23369.20679-.36899.28455-.967.81201-2.295,1.21899-3.135.21301-.82678-.9519-.73031-2.3927.216-3.22595.94215-.82788,2.37708-.73535,3.20501.20679.00267.00305.00533.0061.00799.00916l.058.06897"/><path id="_パス_239" class="cls-3" d="m100.86262,26.64168c.00003.16565-.13427.30005-.29995.30005h-.00005c-.16568,0-.3-.13428-.3-.30005h0c-.00003-.16565.13427-.30005.29995-.30005h.00005c.16568,0,.3.13428.3.30005h0"/><path id="_パス_240" d="m117.82262,26.70577c-.67781.66943-.68457,1.76172-.0151,2.43945.1107.11206.23624.2085.3731.2865.967.81201,2.295,1.21899,3.135.21301.83387-.9458.74765-2.38745-.193-3.22705-.93697-.83301-2.37178-.74866-3.20474.18835-.00344.00378-.00686.00769-.01026.0116-.027.02905-.052.06006-.077.09204"/><path id="_パス_241" class="cls-3" d="m118.86161,26.64168c-.00003.16565.13427.30005.29995.30005h.00005c.16569,0,.3-.13428.3-.30005h0c.00003-.16565-.13427-.30005-.29995-.30005h-.00005c-.16569,0-.3.13428-.3.30005h0"/><path id="_パス_242" d="m98.69062,97.92561c.13876,1.12073.82116,2.10083,1.824,2.62-.1359-1.12183-.81915-2.10315-1.824-2.62"/><path id="_パス_243" d="m100.24762,95.78377c.05591,1.23523.74405,2.35449,1.821,2.96204-.02151-1.24548-.71933-2.38062-1.821-2.96204"/><path id="_パス_244" d="m103.18562,91.27474s-.68.93396,1.652,2.87805c.08191-1.20508-.57006-2.34094-1.652-2.87805"/><path id="_パス_245" d="m101.74362,93.45772s-.672,1.05603,1.66,3c.08833-1.24023-.5623-2.41602-1.66-3"/><path id="_パス_246" d="m97.34161,99.92561s-.168,1.20801,1.63,2.41602c0,0,.344-1.36206-1.63-2.41602"/><path id="_パス_247" d="m121.03862,97.92561c-.13843,1.12085-.82093,2.1012-1.824,2.62.13624-1.12158.81938-2.10291,1.824-2.62"/><path id="_パス_248" d="m119.47462,95.78377c-.05515,1.23547-.7435,2.3551-1.821,2.96204.02237-1.24524.71994-2.37988,1.821-2.96204"/><path id="_パス_249" d="m116.54062,91.27474s.68.93396-1.652,2.87805c-.08164-1.20508.57026-2.34082,1.652-2.87805"/><path id="_パス_250" d="m117.97862,93.45772s.672,1.05603-1.66,3c-.08755-1.23999.56286-2.41553,1.66-3"/><path id="_パス_251" d="m122.38661,99.92561s.168,1.20801-1.63,2.41602c0,0-.344-1.36206,1.63-2.41602"/></g></g></g></g><g id="_グループ_583"><path id="_パス_1498" class="cls-7" d="m73.50662,58.98771l-.671-1.16199-6.608,3.81494v-7.63098h-1.342v7.63098l-8.013-4.62598-.671,1.16199,8.013,4.62598-8.013,4.62598.671,1.16199,8.013-4.62598v9.25195h1.342v-9.25195l6.608,3.81494.671-1.16199-6.609-3.81604,6.609-3.81384Z"/><circle id="_楕円形_57" class="cls-7" cx="65.55562" cy="51.65567" r="3.354"/><circle id="_楕円形_58" class="cls-7" cx="65.55562" cy="74.56867" r="3.354"/><circle id="_楕円形_59" class="cls-14" cx="65.55562" cy="62.81567" r="3.354"/><circle id="_楕円形_60" class="cls-6" cx="75.20962" cy="57.22967" r="3.354"/><circle id="_楕円形_61" class="cls-12" cx="55.90162" cy="68.37667" r="3.354"/><circle id="_楕円形_62" class="cls-11" cx="75.20962" cy="68.37667" r="3.354"/><circle id="_楕円形_63" class="cls-11" cx="55.90162" cy="57.22967" r="3.354"/></g><g id="_グループ_584"><path id="_パス_1499" class="cls-7" d="m61.36863,32.50675l-.436-.755-4.294,2.479v-4.95898h-.872v4.95898l-5.207-3.00598-.436.755,5.207,3.00598-5.207,3.00598.436.755,5.207-3.00598v6.01294h.872v-6.01294l4.294,2.479.436-.755-4.294-2.479,4.294-2.479Z"/><circle id="_楕円形_64" class="cls-7" cx="56.20362" cy="27.74266" r="2.18"/><circle id="_楕円形_65" class="cls-7" cx="56.20362" cy="42.63266" r="2.18"/><circle id="_楕円形_66" class="cls-14" cx="56.20362" cy="34.99466" r="2.18"/><circle id="_楕円形_67" class="cls-6" cx="62.47662" cy="31.36466" r="2.18"/><circle id="_楕円形_68" class="cls-12" cx="49.92962" cy="38.60866" r="2.18"/><circle id="_楕円形_69" class="cls-11" cx="62.47662" cy="38.60866" r="2.18"/><circle id="_楕円形_70" class="cls-11" cx="49.92962" cy="31.36466" r="2.18"/></g></g><g id="_グループ_587"><path id="_パス_1500" class="cls-2" d="m140.47662,45.80656c1.993-3.021,2.038-14.25696,6.664-24.53296,3.607-8.00806,12.609-14.53296,20.8-16.91797,8.10518-2.2417,16.63071-2.50073,24.857-.755,6.871,1.55298,14.974,5.91797,19.535,11.50598,5.00524,6.36523,7.62722,14.2804,7.412,22.375-.13694,6.43628-1.84592,12.74146-4.978,18.36597-7.191,13.52405-25.932,16.86804-32.014,16.59399-22.48-1.01294-35.408-17.39404-38.391-18.33997-2.179-.69104-13.64-2.09998-14.613-.94397.00099.00195,8.05999-3.30908,10.72799-7.35107Z"/><g id="_グループ_586"><path id="_パス_1501" class="cls-13" d="m166.31462,33.51859c-1.20205.29968-2.43841.43921-3.677.41504-.93044-.00586-1.84804-.21765-2.687-.62-.67297-.32971-1.20371-.89209-1.494-1.58301-.09068-.19958-.09068-.42847,0-.62805.08351-.20154.2468-.35938.451-.43604.19655-.09143.42345-.09143.62,0,.19874.08447.35415.24683.43.44897.21788.43188.60192.75684,1.064.90002.66366.22961,1.36425.33374,2.066.30701.96085-.0199,1.91592-.15417,2.845-.40002.214-.05811.4426-.02161.628.09998.18548.11487.31782.29871.368.51099.09201.43933-.17887.87292-.614.98303v.00208Zm-1.255-7.46301c-.51834-.13232-1.04481-.23047-1.576-.29395-.55033-.06689-1.10372-.10559-1.658-.11597-.50996-.0094-1.02005.00891-1.528.05505-.21665.02148-.43344-.03955-.607-.17102-.17536-.12646-.28733-.32263-.307-.53796-.03104-.21643.02786-.43616.163-.60803.13096-.17383.3285-.28503.545-.30701.59825-.05615,1.1996-.07227,1.8-.04797.65533.02271,1.294.07031,1.916.14294.54925.06018,1.09404.15576,1.631.28601.21144.04944.39372.18262.505.36902.23668.38672.11502.89209-.27174,1.12878-.18408.11267-.40511.14832-.61526.09924l.003.00085Zm3.219-.04102c-.11697.1095-.27753.15955-.436.13599-.16106-.01147-.3097-.0907-.409-.21802-.1-.13696-.23-.30005-.389-.48401s-.307-.35205-.443-.5c-.17899-.22913-.14922-.55774.068-.75098.09411-.09741.22569-.14954.361-.14294.14381.00549.28128.06055.389.15601.16911.13928.33098.28711.485.44299.16313.16064.31577.33167.457.51196.09823.12305.14484.2793.13.43604-.01107.16064-.08774.30957-.212.41199l-.001.00098Zm1.269-1.18701c-.10991.10925-.26128.16638-.416.15698-.15821-.00085-.30894-.0675-.416-.18396-.118-.12805-.261-.28003-.429-.45801s-.326-.33496-.471-.46997c-.09173-.09363-.14522-.21802-.15-.349-.00695-.14502.0475-.28625.15-.38904.09434-.10608.22726-.1698.369-.177.144-.01184.28708.03186.4.12195.17876.12585.34974.26245.512.40906.1745.15051.33668.3147.485.49097.10618.11145.16249.26123.156.41504-.00622.16272-.07373.31702-.189.43201l-.001.00098Z"/><path id="_パス_1502" class="cls-13" d="m178.42562,34.75956c-.83224.01135-1.656-.16833-2.408-.52502-1.18785-.56677-1.93637-1.77393-1.916-3.08997-.0013-.77942.30233-1.52844.846-2.08704-.68267.08203-1.35133.15942-2.006.23206l-1.718.18994c-.21481.02234-.42942-.04407-.594-.18396-.16638-.13721-.26789-.33765-.28-.55298-.02008-.21228.04666-.42371.185-.58606.12891-.1676.32665-.26782.538-.27295.237-.01794.479-.04102.73-.06897l.744-.08105c.51916-.24817,1.01484-.54272,1.481-.88.96259-.69446,1.84145-1.49817,2.619-2.39502.33865-.38745.6507-.79749.934-1.22705.1173-.1842.3048-.3125.519-.35498.43875-.08838.86615.19543.955.63403.04657.21521.00166.44019-.124.62097-.41442.61426-.89717,1.17957-1.439,1.68506-.59583.56897-1.23071,1.09558-1.9,1.57605.73333-.0907,1.43567-.18396,2.107-.28003.67133-.09595,1.25566-.18433,1.753-.26501.20965-.04785.42973-.00574.607.11597.18072.1134.30303.30005.335.51099.04694.20972.00494.42944-.116.60706-.11345.1814-.30047.30408-.512.33606-.20934.03528-.45033.07166-.723.10901s-.56866.07837-.888.12305c-.50523.04248-.99222.20874-1.418.48401-.32952.22058-.5951.52417-.77.88-.1571.32312-.23914.67761-.24,1.03699-.00443.56287.24679,1.09729.683,1.453.59371.44067,1.32273.65991,2.061.62.2169.00452.42309.09509.573.25195.15192.15308.23124.36377.218.57898.00307.21912-.08578.42944-.245.57996-.15541.15662-.37079.23865-.59099.22498Zm-4.83-9.04395l-1.338-1.33801c-.15326-.15063-.23724-.35815-.232-.573-.00354-.21875.07991-.42981.232-.58704.15106-.15332.35883-.2373.574-.23206.21869-.00354.42983.07996.587.23206l1.323,1.33704c.31649.32239.31172.84033-.01065,1.15674-.1503.14758-.35173.23145-.56235.23425-.2145.00537-.42176-.07776-.573-.22998Zm7.407.76294c-.11509.1084-.27182.16101-.429.14404-.15948-.00964-.30881-.08142-.416-.19995-.10867-.1333-.245-.2926-.409-.47803-.164-.18103-.314-.34094-.45-.47705-.0902-.09875-.1389-.22839-.136-.36206.00204-.14551.06048-.28467.163-.38794.09691-.099.23053-.15332.369-.15002.14504-.0022.28637.04578.4.13599.17262.13062.33693.27197.492.42297.16875.15881.32803.32751.477.505.1074.11328.15999.2677.144.42297-.01403.16174-.08699.31262-.205.42407Zm.4-1.24194c-.118-.12744-.266-.27502-.444-.44299s-.339-.31604-.484-.44397c-.093-.09534-.1484-.22107-.156-.354-.02707-.2887.18501-.54468.47369-.57178.00543-.00049.01087-.00085.01631-.00122.14167-.00842.2822.02991.4.10901.18169.11768.35509.24768.519.38904.2.16699.372.32495.518.46997.10704.11182.16593.26123.164.41602.00075.15881-.05773.31213-.164.43005-.10585.11743-.25794.1825-.416.17798-.16187.00305-.31768-.06152-.43-.1781h.003Z"/><path id="_パス_1503" class="cls-13" d="m182.75562,34.11747c-.20007-.08081-.35467-.24524-.423-.44995-.08271-.20227-.07764-.42969.014-.62805.15467-.33325.35233-.75598.593-1.26794.24067-.51196.50467-1.06702.792-1.66504.28667-.59998.58-1.21362.88-1.84094.3-.6272.59567-1.23657.887-1.828.29067-.59192.55733-1.13098.8-1.61694.24266-.48596.44733-.88391.614-1.19397.09538-.19568.2733-.33838.485-.38904.20986-.06067.43568-.02832.62.08899.19179.10742.33206.28772.389.5.05943.21021.0271.43591-.089.62097-.12733.22668-.294.53564-.5.927s-.43367.83264-.683,1.32397c-.25.4906-.50667,1.00427-.77,1.54102.30564-.13196.63507-.20007.968-.19995.6996-.07983,1.38567.23535,1.781.81799.33385.70264.366,1.51111.089,2.23804-.13721.32019-.14934.6803-.034,1.00903.14724.19788.38905.302.634.27295.20844,0,.41396-.04895.6-.14294.2402-.14233.44177-.34143.587-.57996.25635-.40259.46698-.83264.628-1.28198.07685-.2041.23464-.36731.436-.45105.19793-.09009.42308-.09973.628-.02698.42689.16919.63953.64917.478,1.07898-.26421.85461-.72957,1.63342-1.357,2.271-.56736.50513-1.30786.77173-2.067.74402-.50581.01697-1.0065-.10583-1.447-.35498-.39274-.2384-.67311-.62476-.778-1.07202-.12154-.59692-.0836-1.21533.11-1.79297.12605-.29163.14028-.61951.04-.92102-.14314-.19849-.38477-.30103-.627-.26599-.41337.00122-.81544.13513-1.147.38196-.45476.38831-.81027.87964-1.037,1.43298-.037.07202-.1.21594-.2.42896s-.2.448-.307.69995-.211.48401-.307.68896-.157.34302-.184.41602c-.08726.20459-.24472.37122-.444.46997-.20439.10071-.44264.10693-.65199.01697Z"/><path id="_パス_1504" class="cls-13" d="m199.99062,34.48551c-.92746.05408-1.84245-.23462-2.571-.81104-.68152-.69055-1.02333-1.64685-.934-2.61304v-7.271c-.01579-.45203.33786-.8313.7899-.84705.45204-.01587.83131.33777.8471.78979.00066.01917.00066.03821,0,.05725v7.271c-.05723.51282.10972,1.02527.458,1.40601.40753.29749.908.43933,1.411.40002.56153.00085,1.11216-.15503,1.59-.44995.53796-.35034.95843-.85413,1.207-1.44604.19568-.40967.68639-.58313,1.09603-.38745.003.00146.00599.00293.00897.00439.20206.08325.35518.25403.416.46399.06819.21057.05571.43909-.035.64099-.36011.85254-.97119,1.5752-1.752,2.07202-.75737.47815-1.63638.72815-2.53201.72009Zm1.993-7.39404c-.2329.21912-.59933.20789-.81845-.0249-.00495-.00537-.0098-.01062-.01455-.01611-.10867-.12732-.24734-.28174-.416-.46301-.168-.18298-.325-.34094-.47-.479-.19601-.20886-.1898-.53589.014-.73706.09772-.09875.22917-.15698.368-.16296.14413-.01123.28714.03271.4.12305.17981.12708.35086.26599.512.41602.17317.15479.33492.3219.484.5.09977.11768.15122.2688.144.42297-.00636.1626-.08031.31519-.204.42102h.00101Zm.382-1.255c-.118-.12598-.266-.27405-.444-.44299s-.343-.31702-.5-.44299c-.09374-.08948-.14957-.21155-.156-.34094-.03648-.2821.16261-.54028.44468-.57678.01074-.00146.02151-.00244.03232-.00317.13927-.01343.27922.01733.4.08801.18197.11792.35755.24536.526.38196.18291.14514.35783.29993.524.46399.11409.10828.17849.25879.178.41602.00037.1582-.05768.31091-.163.42896-.10525.11646-.25314.1853-.41.19104-.16083.00879-.31795-.05042-.43301-.16309h.00101Z"/><path id="_パス_1505" class="cls-13" d="m165.66762,53.1746c-.94525-.10889-1.85413-.4281-2.66-.93396-.65845-.42261-1.19651-1.00818-1.562-1.69995-.33537-.63965-.51103-1.35083-.512-2.073-.00523-.70227.13896-1.39771.423-2.04004.28218-.63245.70167-1.19397,1.228-1.64404-.546.08203-1.12833.17529-1.747.28003-.61867.10461-1.21633.20923-1.793.31396-.577.09998-1.085.19995-1.522.27905-.21452.04065-.43609-.01416-.607-.15002-.17292-.12793-.28801-.31921-.32-.53198-.03986-.21375.01204-.43445.143-.60803.12885-.17517.32345-.29028.539-.31897.29067-.04602.66333-.1073,1.118-.18396.45467-.07666.964-.16101,1.528-.25305.56467-.08997,1.14233-.18542,1.733-.28601l1.739-.29504c.568-.09534,1.08867-.18396,1.562-.26599.47333-.08203.85966-.14868,1.159-.19995.20811-.03735.42249.01135.594.13501.17735.11389.29858.29724.334.505.04796.20984.01208.43018-.1.61401-.10459.18518-.28939.31116-.5.34094-.59135.08386-1.16105.28076-1.678.57996-.46466.271-.87797.6217-1.221,1.03601-.31912.3833-.57255.81677-.75,1.28296-.16372.42444-.24943.875-.253,1.32996-.03101.80981.2986,1.5918.9,2.13501.69622.58289,1.55227.94189,2.456,1.03003.2138.03381.40527.15149.532.32703.13337.16943.18796.3877.15.59998-.0223.21814-.13651.41638-.314.54504-.16938.13269-.3871.18713-.59901.15002Zm1.733-5.57996c-.25335.20056-.62126.15771-.82176-.0957-.00348-.00439-.00689-.00879-.01024-.01331l-.382-.48499c-.15467-.19604-.29567-.36621-.423-.51099-.08254-.10193-.12392-.23108-.116-.36206.0052-.1416.07251-.27356.184-.36096.10035-.0968.23566-.1488.375-.14404.1439.00586.28133.06128.389.15698.1651.14624.32233.30115.471.46399.177.18994.325.36401.443.51794.09871.12268.14086.28149.116.43701-.01783.15674-.09781.2998-.222.39709l-.003-.00098Zm1.309-1.17395c-.11108.11633-.26863.17651-.429.16394-.16075-.00464-.31196-.07727-.416-.19995-.11-.12695-.248-.28198-.416-.46399s-.321-.33997-.457-.47803c-.1969-.20801-.19067-.53552.014-.73596.09695-.09912.22935-.15564.368-.15698.14453-.00659.28659.03918.4.12903.17593.1272.34298.26611.5.41602.17025.15588.32994.32288.478.5.10633.11133.16079.26245.15.41602-.01008.15588-.07866.30225-.19201.40979v.00012Z"/><path id="_パス_1506" class="cls-13" d="m174.56962,53.69352c-.20732.06323-.42911.06079-.635-.00696-.20082-.06494-.3661-.20959-.457-.40002-.09053-.20239-.10019-.43176-.027-.64099.06364-.2074.21988-.37366.423-.44995.58285-.20276,1.1272-.50256,1.61-.88696.36246-.30066.63998-.69092.805-1.13196-.28475.13953-.59695.21399-.914.21802-.63349.02759-1.25662-.16772-1.761-.552-.47128-.40613-.72393-1.01025-.682-1.63098-.03286-.64246.22799-1.26489.709-1.69202.49928-.41858,1.13591-.63733,1.787-.61401.064,0,.123,0,.178.00696s.113.01196.178.02002c-.027-.15503-.048-.31396-.061-.47803s-.026-.33606-.035-.51904c-.90933.03674-1.80267.08899-2.68.15698-.87733.06787-1.694.13831-2.45.21106-.21041.02087-.42075-.04041-.587-.17102-.16901-.12488-.27784-.31506-.3-.52405-.02166-.21558.04227-.43103.178-.59998.12638-.16797.32287-.26855.533-.27295.772-.06665,1.61333-.12366,2.524-.17102s1.834-.09033,2.77-.12903v-1.177c-.00779-.43677.33998-.79724.77677-.80493.00774-.00024.01549-.00024.02323-.00012.21904-.00671.43122.07678.587.23096.1531.15125.23703.35889.232.57397v1.11804c.75467-.01794,1.47767-.03394,2.169-.04797s1.32833-.02527,1.911-.03406c.21527-.00476.42179.08521.565.24597.29872.32471.28089.82922-.04,1.13196-.15791.14307-.36747.21533-.58.19995-1.164-.04602-2.50533-.04602-4.024,0,.008.31799.025.63696.048.95496s.043.62195.061.91394c.46449.60352.69692,1.35364.655,2.11401.02155,1.06531-.29109,2.11047-.894,2.98901-.63616.88745-1.54943,1.53796-2.59599,1.84924Zm.805-4.70801c.225.00439.44442-.07031.62-.21106.15738-.15027.23982-.36279.225-.57996-.00052-.0824-.00754-.16467-.021-.24597-.013-.08997-.029-.18103-.048-.27197-.18316-.22449-.4604-.35095-.75-.34204-.23637-.00659-.46693.07385-.648.22595-.17905.15491-.2771.38342-.266.62-.01423.23059.07921.45483.253.60706.17827.14526.40574.21619.635.198Z"/><path id="_パス_1507" class="cls-13" d="m186.97362,53.06461c-.21677-.02112-.41462-.13257-.545-.30701-.13488-.17163-.19376-.39099-.163-.60706.02973-.21741.1449-.41382.32-.54602.16704-.13391.382-.19287.594-.16296.25278.03516.50872.04187.763.02002.21966-.02356.42449-.12219.58-.27905.20654-.23169.35828-.50684.444-.80505.15509-.50317.26453-1.01917.327-1.54199.08263-.44385.08737-.89856.014-1.34399-.05087-.29492-.24501-.54529-.518-.66797-.38889-.13782-.80474-.18237-1.214-.13-.21867.74609-.478,1.4917-.778,2.23706-.29012.72656-.62407,1.43481-1,2.12097-.34604.63538-.74548,1.24023-1.194,1.80798-.13152.17017-.32557.28064-.539.30701-.21519.03406-.43488-.02246-.607-.15601-.16917-.13843-.27901-.33618-.307-.55298-.03489-.21313.02748-.43066.17-.59302.57255-.71228,1.06454-1.4856,1.467-2.30603.44016-.87976.81192-1.79211,1.112-2.729-.282.03662-.571.07007-.867.09998-.3.03198-.589.06006-.88.08899-.21319.01904-.42554-.04468-.593-.17798-.17447-.13037-.28591-.32825-.307-.54504-.02184-.21912.04436-.43787.184-.60803.12915-.17078.32547-.27783.539-.29395.39067-.04602.786-.08459,1.186-.11597.4-.03125.79134-.0564,1.174-.07495.18151-.77112.2999-1.55566.354-2.34595.01394-.21692.1123-.41968.274-.56494.1571-.14917.37153-.22217.587-.19995.21759.00549.42292.10193.566.26599.14795.16028.22068.37585.2.59302-.02734.33667-.07066.68701-.13,1.05103-.059.36304-.129.73596-.211,1.11804.95505-.10535,1.90028.26917,2.524,1,.47724.89978.61292,1.94189.382,2.93396-.08282.90674-.31954,1.79272-.7,2.62-.25587.55408-.70797.99377-1.269,1.23401-.62264.21558-1.28982.26953-1.93902.15686Zm7.668-4.03796c-.18816.10803-.41271.13293-.62.06897-.20943-.0592-.38831-.19629-.5-.38306-.17455-.3219-.37066-.63159-.587-.927-.236-.32727-.479-.64331-.729-.948-.22332-.27563-.46274-.53772-.717-.78503-.15813-.1438-.25153-.34534-.259-.55896-.01099-.21338.06853-.42139.219-.573.14541-.15991.34989-.25354.566-.25903.21505-.01184.42517.06726.579.21802.31105.29419.60487.60596.88.93396.29533.35071.573.70764.833,1.07104.23836.33154.45482.67822.648,1.03796.11658.18774.14612.41687.081.62805-.05629.20911-.20138.38318-.397.47607h.003Z"/><path id="_パス_1508" class="cls-13" d="m200.17362,50.46061c-.3712-.00513-.68081-.28528-.723-.65405l-.069-1.36499c-.03427-.37964.03484-.76147.2-1.10498.2557-.35535.62683-.61084,1.05-.72302.36921-.11511.69824-.33252.949-.62695.21474-.29663.32292-.6571.307-1.02295.02374-.4729-.14344-.93555-.464-1.28406-.33324-.32751-.78837-.50049-1.255-.47705-.41809-.00977-.82626.12805-1.153.38904-.32129.25659-.54503.61548-.634,1.01697-.05795.23901-.21712.44092-.436.55298-.22048.12195-.4797.15344-.723.08801-.23335-.06226-.43081-.21777-.546-.43005-.119-.21289-.15463-.46228-.1-.69995.1156-.48694.34718-.93884.675-1.31702.34206-.39368.76591-.70801,1.242-.92102.52578-.23303,1.09594-.34912,1.671-.33997.65109-.01355,1.2962.12659,1.883.40906.5338.26135.98123.67053,1.289,1.17896.3249.55615.4877,1.19214.47,1.83606.0238.66919-.20786,1.32239-.648,1.82703-.45507.49744-1.03104.86877-1.672,1.078-.17096.04651-.32613.13843-.449.26599-.08916.151-.13227.32483-.124.5l-.04,1.17395c-.00807.1792-.08986.34717-.226.46399-.12931.1189-.29835.1853-.47401.18604Zm0,3.10999c-.64285.00232-1.16582-.51709-1.16808-1.15991-.00227-.64282.51704-1.16577,1.1599-1.16809.64285-.0022,1.16582.51709,1.16808,1.15991.00109.31018-.12161.60791-.3409.82715-.21423.2218-.51064.34521-.819.34094Z"/></g></g><rect class="cls-4" width="219.7569" height="102.92122"/></g></svg>