<?xml version="1.0" encoding="UTF-8"?><svg id="_レイヤー_2" xmlns="http://www.w3.org/2000/svg" viewBox="0 0 89.99707 81.99937"><defs><style>.cls-1{fill:#ff6601;}</style></defs><g id="_レイヤー_1-2"><g id="_グループ_292"><g id="_グループ_284"><path id="_パス_999" class="cls-1" d="m12.66821,59.12827h-2.6001c-5.55786-.00598-10.06201-4.51001-10.06812-10.06799v-1.02698c.00659-5.55774,4.5105-10.0614,10.06812-10.06799h1.13306c.98828,0,1.78955.80115,1.78955,1.78955,0,.98828-.80127,1.78943-1.78955,1.78943h-1.13306c-3.58154.0061-6.4834,2.90833-6.48901,6.48999v1.02698c.0061,3.5813,2.90771,6.48291,6.48901,6.48901h2.6001c.98828,0,1.78955.80115,1.78955,1.78955,0,.98828-.80127,1.78943-1.78955,1.78943v-.00098Z"/><path id="_パス_1000" class="cls-1" d="m79.92896,59.12827h-2.6001c-.98828,0-1.78955-.80115-1.78955-1.78943,0-.9884.80127-1.78955,1.78955-1.78955h2.6001c3.5813-.0061,6.48291-2.90771,6.48901-6.48901v-1.02698c-.00562-3.58167-2.90747-6.48389-6.48901-6.48999h-1.13403c-.98828,0-1.78955-.80115-1.78955-1.78955,0-.98828.80127-1.78943,1.78955-1.78943h1.13403c5.55762.00659,10.06152,4.51025,10.06812,10.06799v1.02698c-.0061,5.55811-4.51001,10.06238-10.06812,10.06897Z"/></g><g id="_グループ_285"><path id="_パス_1001" class="cls-1" d="m44.25708,81.99937c-15.37207,0-28.38989-9.46106-33.30005-24.28503-.31226-.92944.177-1.93774,1.1001-2.26794.91602-.31018,1.90991.18091,2.21997,1.09692.00317.00903.0061.01807.00903.0271,4.17188,13.3363,16.71167,22.26453,30.67896,21.84302,14.21997-.30005,26.2771-8.875,30.71509-21.85803.30469-.91724,1.29517-1.4137,2.2124-1.10901.00903.00293.01782.00598.02661.00903.92261.33679,1.40479,1.35083,1.08398,2.27905-4.927,14.41199-18.25903,23.93396-33.96606,24.26099-.26001.00183-.52197.00391-.78003.00391Z"/><path id="_パス_1002" class="cls-1" d="m11.14917,41.87217c-.09131.00024-.18262-.00671-.27295-.021-.96777-.16187-1.62354-1.0741-1.46899-2.04297C12.60718,18.82517,25.58911,7.00815,45.0293,7.3502c19.44019.34204,32.3999,12.18396,35.55103,32.44702.15723.96875-.49658,1.88281-1.46411,2.047-.96362.14722-1.86401-.51465-2.01123-1.47815-.00073-.00366-.00122-.0072-.00171-.01086-1.32007-8.49194-4.64404-15.62805-9.61304-20.64001-5.61206-5.66003-13.19092-8.61597-22.5249-8.78699-10.28198-.18604-28.1001,3.38403-32.08105,29.42798-.12476.86438-.86182,1.50818-1.73511,1.51599Z"/></g><path id="_パス_1003" class="cls-1" d="m44.74512,71.17435c-4.61401.05017-8.9021-2.3728-11.23999-6.35095-.51489-.84387-.24829-1.94543.5957-2.46033s1.94556-.24817,2.46045.5957c.00903.01501.01807.03027.02686.04565,1.7356,2.95105,4.94971,4.71265,8.37109,4.58801,3.41333-.0072,6.58594-1.75854,8.41089-4.64294.51636-.84302,1.61841-1.10791,2.46143-.59143.84302.51636,1.10791,1.61841.59155,2.46143h0c-2.45996,3.92639-6.75659,6.32263-11.38989,6.35205l-.28809.00281Z"/><g id="_グループ_286"><path id="_パス_1004" class="cls-1" d="m59.48706,57.88938c-1.67017,0-3.02393-1.354-3.02393-3.02405v-3.14197c0-1.67017,1.354-3.02405,3.02393-3.02405,1.67017,0,3.02417,1.35388,3.02417,3.02405v3.14197c0,1.67017-1.35376,3.02405-3.02393,3.02405h-.00024Z"/><path id="_パス_1005" class="cls-1" d="m30.50708,57.88938c-1.66968-.00061-3.02295-1.35437-3.02295-3.02405v-3.14197c0-1.66992,1.35376-3.02356,3.02344-3.02356,1.66992,0,3.02368,1.35364,3.02368,3.02356h0v3.14197c0,1.67017-1.35376,3.02405-3.02393,3.02405h-.00024Z"/></g><path id="_パス_1006" class="cls-1" d="m25.64007,43.61234c-5.04883.00513-10.07666-.64526-14.95801-1.93506-.94336-.29565-1.46851-1.30005-1.17285-2.24341.28784-.91833,1.25049-1.4447,2.17896-1.19165.30688.08899,28.19995,7.96106,40.43506-10.38696.32227-.48645.86182-.78503,1.44507-.80005.58472-.02026,1.14111.25183,1.48389.72595.0791.10803,8.22095,10.93994,17.83911,11.40002.9873.04724,1.74927.88574,1.70215,1.87292-.04736.98718-.88574,1.74927-1.87305,1.70203-8.7251-.41504-15.98096-7.51599-19.02295-10.98499-5.80005,7.33606-14.79199,11.40698-26.15991,11.80701-.64111.02356-1.27344.03491-1.89746.03418Z"/><path id="_パス_1007" class="cls-1" d="m52.79801,11.14927c-.09375.00012-.1875-.0072-.28003-.02197-.46924-.07422-.8894-.33228-1.16797-.71704l-5.48901-7.56995c-.57983-.80078-.40088-1.92004.3999-2.49988.80078-.57996,1.92017-.40088,2.5.3999l4.43701,6.12,6.19409-4.5c.80078-.57996,1.92017-.40088,2.5.40002.58008.80078.40088,1.92004-.3999,2.5l-7.64404,5.54895c-.30542.22131-.67285.34033-1.05005.33997Z"/></g></g></svg>