<?xml version="1.0" encoding="UTF-8"?><svg id="_レイヤー_1" xmlns="http://www.w3.org/2000/svg" viewBox="0 0 514.4844 514.4844"><defs><style>.cls-1{fill:#00b9ef;}.cls-2{fill:#fff;opacity:0;}</style></defs><path class="cls-1" d="m512.30921,33.33984c0,113.60001-84.60001,207.5-194.20001,222-7.10001-53.39999-30.60001-101.60001-65.3-139.3C291.1092,47.63984,364.30921,1.33984,448.30921,1.33984h32c17.70001,0,32,14.3,32,32ZM.30921,97.33984c0-17.7,14.3-32,32-32h32c123.7,0,224,100.3,224,224v192c0,17.70001-14.29999,32-32,32s-32-14.29999-32-32v-160C100.60921,321.33984.30921,221.03984.30921,97.33984Z"/><rect class="cls-2" x="-.15862" y="-.15862" width="515" height="515"/></svg>