<?xml version="1.0" encoding="UTF-8"?><svg id="_レイヤー_1" xmlns="http://www.w3.org/2000/svg" viewBox="0 0 514.4844 514.4844"><defs><style>.cls-1{fill:#00b9ef;}.cls-2{fill:#fff;opacity:0;}</style></defs><path class="cls-1" d="m80.30921,65.33984C80.30921,30.03984,109.00921,1.33984,144.30921,1.33984h224c35.29999,0,64,28.7,64,64v384c0,35.29999-28.70001,64-64,64h-224c-35.3,0-64-28.70001-64-64V65.33984Zm208,384c0-17.67313-14.32689-32-32-32s-32,14.32687-32,32,14.32689,32,32,32,32-14.32687,32-32Zm80-384h-224v320h224V65.33984Z"/><rect class="cls-2" x="-.15862" y="-.15862" width="515" height="515"/></svg>