<?xml version="1.0" encoding="UTF-8"?><svg id="_レイヤー_1" xmlns="http://www.w3.org/2000/svg" viewBox="0 0 514.4844 514.4844"><defs><style>.cls-1{fill:#00b9ef;}.cls-2{fill:#fff;opacity:0;}</style></defs><path class="cls-1" d="m48.30921,65.33985C21.80921,65.33985.30921,86.83985.30921,113.33985c0,15.1,7.1,29.3,19.2,38.39999l217.6,163.20001c11.39999,8.5,26.99998,8.5,38.40001,0l217.59998-163.20001c12.10001-9.10001,19.20001-23.3,19.20001-38.4,0-26.5-21.5-48-48-48,0,0-416,0-416,0ZM.30921,177.33985v208c0,35.29999,28.7,64,64,64h384c35.29999,0,64-28.70001,64-64v-208l-217.60001,163.20001c-22.79999,17.10001-54,17.10001-76.8,0L.30921,177.33985Z"/><rect class="cls-2" x="-.15862" y="-.15862" width="515" height="515"/></svg>