<?xml version="1.0" encoding="UTF-8"?><svg id="_レイヤー_2" xmlns="http://www.w3.org/2000/svg" viewBox="0 0 317.60899 175.90943"><defs><style>.cls-1{fill:#f54fa5;}.cls-2{fill:#00b9ef;}.cls-3{fill:#ef8200;}.cls-4{fill:#ea6da4;}.cls-5{fill:#fff;}.cls-6{fill:#ffb301;}.cls-7{fill:#ff6601;}.cls-8{fill:#4d4d4d;}.cls-9{fill:#4dac27;}</style></defs><g id="_レイヤー_1-2"><polygon class="cls-2" points="263.40819 30.54021 261.70701 27.59392 244.95311 37.2669 244.95311 17.92059 241.55076 17.92059 241.55076 37.2669 221.23631 25.53826 219.53514 28.48455 239.84978 40.21331 219.53514 51.94207 221.23631 54.88836 241.55076 43.15972 241.55076 66.61687 244.95311 66.61687 244.95311 43.15972 261.70701 52.83269 263.40819 49.88641 246.65404 40.21331 263.40819 30.54021"/><circle class="cls-2" cx="243.25179" cy="11.95166" r="8.50394"/><circle class="cls-9" cx="243.25179" cy="40.24516" r="8.50394"/><circle class="cls-1" cx="267.72715" cy="26.08252" r="8.50394"/><circle class="cls-3" cx="218.77642" cy="54.34424" r="8.50394"/><circle class="cls-6" cx="267.72715" cy="54.34424" r="8.50394"/><circle class="cls-6" cx="218.77642" cy="26.08252" r="8.50394"/><rect class="cls-2" y="134.32632" width="317.60899" height="41.58312" rx="11.33858" ry="11.33858"/><path class="cls-4" d="m266.45055,77.8023c-5.18652,0-6.02734-3.71436-6.02734-6.02686,0-2.17285.77051-6.02734,6.02734-6.02734h33.21973c2.59277,0,8.75977,0,8.75977,6.79834,0,4.83545-4.34473,14.0166-9.18066,21.30518,2.10254,1.68213,7.3584,5.95654,13.94629,13.24561,2.10254,2.38281,4.13574,4.62598,4.13574,7.3584,0,3.50488-3.36426,6.51855-6.72852,6.51855-2.66309,0-3.57422-1.05176-7.3584-5.60742-4.55566-5.46582-9.18164-9.6709-11.49414-11.77344-5.74707,6.16699-11.2832,11.2832-20.81445,16.75-2.17285,1.19141-4.3457,2.3125-6.58789,2.3125-4.97656,0-6.37793-4.69531-6.37793-6.86816,0-3.08398,1.19141-3.71484,5.81738-6.16699,22.00586-11.56445,29.50488-29.92578,29.50488-31.32764,0-.49072-.28027-.49072-1.33203-.49072h-25.50977Z"/><path class="cls-5" d="m19.82274,152.90789c3.00391,0,4.3999,2.35059,4.3999,4.8418,0,2.65039-1.55518,5.12402-4.82373,5.12402-1.85547,0-3.07471-.90137-3.69336-1.66113-.75977-.9541-1.48389-2.31445-1.48389-5.53027,0-3.19824.67139-7.98633,5.37158-7.98633,3.26855,0,4.41748,2.31445,4.41748,3.26855,0,.38867-.28271,1.20117-1.43164,1.20117-1.07764,0-1.23682-.45898-1.48389-1.0957-.2124-.54688-.67139-.88281-1.48438-.88281-.8833,0-1.60791.31738-2.03223,1.74902-.22949.77734-.26514,1.51953-.28271,1.92578.53027-.45898,1.11328-.9541,2.52686-.9541Zm-2.56201,4.94727c0,1.71484.84814,2.52734,1.96143,2.52734,1.23682,0,1.94336-.91895,1.94336-2.54492,0-1.78418-.86572-2.52637-1.92578-2.52637-1.18408,0-1.979.88379-1.979,2.54395Z"/><path class="cls-5" d="m38.85057,153.06707c.97168,0,1.27197.61816,1.27197,1.2373,0,.77734-.44189,1.25391-1.27197,1.25391h-2.03223c-.30029,2.80957-.90088,5.2832-3.71045,6.94434-1.29004.75977-2.66846,1.11328-3.21582,1.11328-1.00732,0-1.25488-.98926-1.25488-1.41309,0-.83105.63623-.99023.98975-1.07812.8833-.22949,2.17334-.54785,3.25098-1.82031.91895-1.07812,1.11328-2.43848,1.23682-3.74609h-2.91553c-.75977,1.2373-1.67822,2.58008-2.59717,2.58008-.74219,0-1.36084-.61816-1.36084-1.27246,0-.44141.17676-.61816.76025-1.27246,1.25439-1.39551,1.7666-3.10938,2.04932-4.02832.12402-.40625.30078-.98926,1.1665-.98926.51221,0,1.43115.15918,1.43115,1.13086,0,.2998-.10596.70703-.31836,1.36035h6.52051Z"/><path class="cls-5" d="m46.56297,158.75652c-.12354,1.30762-.30029,2.49121-.91846,3.83496-.70703,1.55469-1.20166,1.60742-1.69629,1.60742-.84814,0-1.69629-.58301-1.69629-1.29004,0-.37109.14111-.63574.47705-1.16602.51221-.88379,1.396-2.34961,1.396-6.13086v-5.31934c0-1.85547.84766-2.34961,2.34961-2.34961h8.04004c1.44873,0,2.36768.45898,2.36768,2.34961v11.3623c0,2.40234-1.29004,2.40234-3.76367,2.40234-.67139,0-1.64307,0-1.99658-.12305-.72461-.24805-.84814-.90137-.84814-1.37891,0-1.3252.8833-1.3252,1.30762-1.3252,0,0,1.36035.05371,1.60791.05371.56543,0,.93652-.01758.93652-.58301v-1.94434h-7.56299Zm7.56299-6.59082v-1.00684c0-.35352-.17676-.54785-.54785-.54785h-6.21973c-.40625,0-.54785.24707-.54785.54785v1.00684h7.31543Zm-7.31543,2.47363v1.62598h7.31543v-1.62598h-7.31543Z"/><path class="cls-5" d="m74.76024,156.88348c-.75977.5127-1.979,1.11328-3.55176,1.11328-1.57227,0-2.7207-.68848-3.28613-1.02441-1.07812-.63672-2.08545-1.2373-3.4458-1.2373-.79492,0-1.57275.24707-2.2085.74219-.5835.44141-.70703.53027-1.06055.53027-.54736,0-1.0249-.42383-1.0249-1.06055,0-.38867.12402-.72461.91895-1.25391.54785-.37109,1.76709-1.14844,3.46338-1.14844,1.64307,0,2.82715.6709,3.53369,1.05957,1.43164.79492,2.15576,1.21973,3.18066,1.21973.68945,0,1.57275-.24805,2.2793-.74219.65381-.45996.74219-.5127,1.06055-.5127.47705,0,1.07764.37109,1.07764,1.14844,0,.31836-.12354.60059-.93652,1.16602Z"/><path class="cls-5" d="m81.92869,156.15887c-.63574,0-1.18359-.22949-1.18359-1.13086,0-.83008.44141-1.13086,1.18359-1.13086h.26514c1.396,0,1.64355-1.13086,1.64355-1.96094,0-.9541-.5127-1.74902-1.62598-1.74902-.75977,0-1.66064.14062-1.87256,1.58984-.0708.42383-.15918,1.13086-1.37842,1.13086-.75977,0-1.41357-.2998-1.41357-1.23633s.77734-3.97559,4.62939-3.97559c3.18066,0,4.61182,1.99609,4.61182,4.13379,0,.58398-.12354,1.34375-.58301,2.03223-.35352.49512-.68945.68945-.91895.84863.49463.35352,1.96143,1.37793,1.96143,3.62207,0,1.39551-.5127,2.52637-1.25439,3.26855-.81299.7959-1.85547,1.27246-3.71094,1.27246-1.71387,0-3.12744-.38867-4.08154-1.62598-.60107-.75977-.9541-1.71387-.9541-2.45605,0-.75977.45947-1.27148,1.41357-1.27148,1.28955,0,1.39551.61816,1.51953,1.41309.01758.10645.22949,1.44922,2.01416,1.44922,1.11328,0,2.06738-.56543,2.06738-2.0498,0-.63574-.10596-1.34277-.68896-1.78418-.33594-.2832-1.00732-.38965-1.37842-.38965h-.26514Z"/><path class="cls-5" d="m101.6992,155.3991c.05322.61914.17676,1.6084.40625,2.45605.15918-.26465.84814-1.58984.91895-1.69629.10596-.14062.28271-.35254.74219-.35254.38867,0,1.0957.22949,1.0957.88281,0,.68945-.86621,2.36816-1.82031,3.62207.2124.40723.38867.76074.67139.76074.2124,0,.35352-.26562.5127-.58398.12354-.22949.30029-.42383.67139-.42383.86572,0,1.25439.58301,1.25439,1.04297,0,.6709-.8833,3.05664-2.54443,3.05664-1.16602,0-1.99658-1.27246-2.40283-1.9082-.70703.63574-1.81982,1.57227-2.56201,1.57227s-1.20166-.75977-1.20166-1.36035c0-.54785.28271-.72461.75977-1.02539-.19434-.28223-.56543-2.1377-.56543-2.2793,0-.54785.63623-.61816.86572-.61816.38867,0,.54785.19434.68896.58301.0708.17676.30078.91895.40674,1.44922.12354-.08887.26514-.17676.60059-.47754-.56543-1.55469-.86572-3.62207-.97168-4.7002h-6.20215c-.28271,0-.44189.15918-.44189.45996v1.73145c0,2.10254-.21191,3.07422-.51221,4.54102-.28271,1.30762-.58301,1.89062-1.41357,1.89062-.68896,0-1.44873-.45898-1.44873-1.21875,0-.21191.05273-.35352.10596-.54785.49463-1.44922.83008-2.47363.83008-4.87695v-1.97949c0-1.53711.65381-2.10254,2.08545-2.10254h6.83789c0-.08789-.01758-.60059-.01758-.70703h-8.729c-.28271,0-1.09521,0-1.09521-1.04199,0-1.00684.83008-1.02441,1.09521-1.02441h1.44922v-1.36133c0-.9541.44141-1.30762,1.34277-1.30762,1.11328,0,1.29004.6543,1.29004,1.30762v1.36133h2.17334v-2.06738c0-.75977.33545-1.14941,1.36035-1.14941,1.27246,0,1.27246.63672,1.27246.95508h4.52344c.22949,0,1.00684,0,1.00684.88281,0,.84863-.77734.84863-1.00684.84863h-4.52344v.53027h5.68945c.24756,0,1.0957.01758,1.0957,1.04199,0,.9541-.74219,1.00684-.9541,1.02441.07031.10645.14111.23047.14111.38965,0,.17676-.0708.28223-.12354.33496.74219.07129.84814.63672.84814,1.07812,0,1.00684-.83057,1.00684-1.0957,1.00684h-3.10986Zm-4.52344,6.8916c0,1.25488-.19434,1.66113-1.60791,1.66113-1.20166,0-1.60791-.08887-1.71387-.9541-.19434.33594-.37109.38867-.60107.38867-.49463,0-1.00684-.31836-1.00684-.81348,0-.22949.01758-.26465.37109-1.18359.21191-.49414.42383-1.3252.65381-2.20898.08838-.35254.26465-.58301.68896-.58301.08838,0,.90137.01758.90137.70703,0,.5127-.37109,1.92578-.56543,2.50879.10596-.05273.21191-.10547.58301-.10547.26465,0,.44141,0,.44141-.30078v-3.2334h-1.44873c-.26514,0-1.07764,0-1.07764-.97168,0-.93652.72412-.98926,1.07764-.98926h4.36426c.26514,0,1.07812.01758,1.07812.97168,0,.91895-.68945.98926-1.07812.98926h-1.06006v4.11719Zm4.36426-9.70117c0,.1416,0,.23047.01807.70703h1.37793c-.37109-.54785-.37109-.58301-.40625-.70703h-.98975Z"/><path class="cls-5" d="m117.72215,153.27898c.58301-.01758,3.21582-.07031,3.74561-.10547.0708,0,.37109-.01758.49512-.01758.63574,0,1.23682.24707,1.23682,1.20117,0,1.14844-.77734,1.18359-1.78467,1.21875-.56543,0-3.12744.07129-3.65771.08887l.03516,1.71387c1.87305.60059,3.94043,1.94336,4.94775,2.77441.54785.45898.63623.86523.63623,1.14844,0,.77734-.61865,1.60742-1.4668,1.60742-.42383,0-.67139-.12305-1.27197-.65332-.30078-.26562-1.06055-.86621-1.83789-1.41406-.45947-.31738-.72461-.44141-1.00732-.60059-.07031,1.04297-.21191,3.30469-4.09912,3.30469-3.32178,0-5.12402-1.43164-5.12402-3.41016,0-1.94434,1.78418-3.42871,5.05322-3.42871.63623,0,1.06006.05371,1.34277.08887l-.01758-1.07812c-.70654,0-3.76367.03516-4.39941.03516-.83057,0-1.21924,0-1.50195-.15918-.30078-.17578-.49512-.54688-.49512-1.05957,0-.86621.53027-1.18359,1.25488-1.18359,1.41357,0,3.67529-.01855,5.08887-.01855l-.03564-1.25391c-.65381,0-3.51611.01758-4.1167.03516h-.42432c-.75977,0-1.14844,0-1.41357-.15918-.33545-.19434-.51221-.60059-.51221-1.05957,0-1.21973.9541-1.21973,1.44873-1.21973.15918,0,.83057.01758.97168.01758.63623-.01758,3.42822-.03516,4.01123-.03516l-.01758-.67188c-.01758-1.09473.8833-1.23633,1.396-1.23633.72412,0,1.41357.22949,1.43115,1.23633l.01758.61914c.61816-.01758,3.39258-.07129,3.95801-.10645.03516,0,.38867-.01758.51221-.01758.53027,0,1.23682.17676,1.23682,1.21875,0,1.14941-.75977,1.18457-1.48389,1.21973-.65381.03516-3.58691.08789-4.18799.10645l.03564,1.25391Zm-4.27637,5.58398c-.47705,0-2.22607.07031-2.22607,1.18359,0,.74219.83008,1.11328,2.10254,1.11328.53027,0,1.20166-.07031,1.48438-.53027.15869-.28223.17676-.56543.17676-1.50195-.30078-.10547-.75977-.26465-1.5376-.26465Z"/><path class="cls-5" d="m127.33836,152.00652c-.91895,0-1.34326-.63574-1.34326-1.46582,0-.75977.26514-1.37891,1.27246-1.48438.74219-.07129,9.13525-.38867,12.56299-.38867.97217,0,1.979,0,1.979,1.34277,0,1.43066-.9541,1.44824-1.96143,1.4668-1.06006,0-2.1377.19434-3.72803,1.1123-1.82031,1.02539-3.62256,3.00391-3.62256,5.07129,0,2.20898,1.82031,2.7041,4.78857,2.7041.24756,0,1.30762-.01758,1.51953,0,.65381.01758,1.36084.26465,1.36084,1.3252,0,1.66113-1.29004,1.66113-2.56201,1.66113-.5127,0-2.13818-.01758-3.92285-.47754-.9541-.24707-4.11719-1.06055-4.11719-4.87695,0-1.99609.90137-3.44531,1.9082-4.55859.90137-1.00684,1.64355-1.4668,2.31494-1.89062-.93652.07031-5.98975.45898-6.44922.45898Zm9.64746,1.87305c-.05322-.12305-.10596-.26465-.10596-.38867,0-.35352.44189-.56543.70654-.56543.30078,0,.47705.19434.84814.84863.12402.22949.56543,1.13086.56543,1.48438,0,.47656-.49463.60059-.70654.60059-.08838,0-.31787,0-.49463-.37109-.0708-.12402-.33594-.70703-.38867-.83105-.0708-.12305-.37109-.65332-.42432-.77734Zm1.81982-.91895c-.05273-.12305-.07031-.24707-.07031-.31738,0-.35352.44141-.54785.68896-.54785.35352,0,.52979.28223.84814.86523.22949.40723.58301,1.0957.58301,1.4668,0,.38867-.40625.58301-.70654.58301-.08838,0-.31836,0-.5127-.37109-.0708-.12305-.33545-.70605-.38867-.8125-.0708-.1416-.38867-.74219-.44189-.86621Z"/><path class="cls-5" d="m150.55809,159.79949c-.93652,1.4668-1.979,2.17285-3.32178,2.17285-2.5625,0-3.65771-2.59766-3.65771-5.22949,0-5.70801,4.27588-8.37598,8.55225-8.37598,5.19434,0,7.61523,3.26855,7.61523,7.40332,0,6.6084-6.13135,7.58105-7.50928,7.58105-1.37842,0-1.41357-1.25488-1.41357-1.44922,0-1.13086.79492-1.25488,1.37793-1.34277,1.48438-.22949,4.59473-.68945,4.59473-4.94727,0-3.04004-1.74951-4.40039-3.64062-4.57715-.37061,2.98633-1.34277,6.82031-2.59717,8.76465Zm-4.2583-3.03906c0,1.44824.54785,2.17285,1.09521,2.17285.72461,0,1.23682-1.11328,1.62598-2.17285.8833-2.43848,1.16602-4.20605,1.37793-5.6543-3.78125,1.02441-4.09912,4.46973-4.09912,5.6543Z"/><path class="cls-5" d="m163.09471,157.0075c-.45996,0-1.29004-.08887-1.29004-1.20117,0-.91895.30078-1.36133,1.29004-1.36133h2.59766v-2.50879h-.56543c-.7959,1.4668-1.14941,1.89062-1.78516,1.89062-.68945,0-1.4668-.56543-1.4668-1.2373,0-.35254.01758-.38867.72461-1.50098.72461-1.13086,1.13086-2.22656,1.39648-2.89844.21191-.58301.40625-.90137,1.07715-.90137.68945,0,1.4668.37109,1.4668,1.06055,0,.31836-.19434.83008-.26465,1.06055h3.12695c.49512,0,1.29004.08789,1.29004,1.16602,0,.90137-.28223,1.36035-1.29004,1.36035h-1.11328v2.50879h1.48438c.54785,0,1.04297.12402,1.21973.70703v-4.80566c0-1.66113.75977-2.13867,2.15527-2.13867h2.89844c1.34277,0,2.15527.4248,2.15527,2.13867v11.29004c0,1.66113-.75977,2.15625-2.15527,2.15625h-2.89844c-1.4668,0-2.15527-.54785-2.15527-2.15625v-5.33594c-.17676.61816-.74219.70703-1.21973.70703h-1.69629c.26562.67188.79492,1.87305,2.38574,3.63965.22949.24805.45898.49512.45898,1.02539,0,.75977-.72363,1.29004-1.39551,1.29004-.47754,0-.77734-.26562-1.21973-.86621-.49414-.70703-.97168-1.73145-1.16602-2.1377-.47656,1.09473-1.20117,2.38477-2.59668,3.69238-.45996.42383-.70703.49512-.97266.49512-.8125,0-1.50195-.8125-1.50195-1.44922,0-.47656.33594-.79492.70703-1.14844,1.80273-1.66113,2.29688-3.05664,2.63281-4.54102h-2.31445Zm12.52734-5.72461c0-.35352-.19434-.49512-.49414-.49512h-1.11328c-.30078,0-.49512.1416-.49512.49512v9.38184c0,.35352.19434.49512.49512.49512h1.11328c.2998,0,.49414-.15918.49414-.49512v-9.38184Z"/><path class="cls-5" d="m193.63768,150.61101c.51172.30078,1.14844.72461,1.67871,1.11328,1.09473.8125,1.39551,1.11328,1.39551,1.60742,0,.67188-.6543,1.41406-1.41406,1.41406-.40625,0-.68848-.21191-.86523-.33594-.1416-.12305-.83105-.70703-.98926-.83008-1.34277.14062-2.7041.21191-4.06445.28223-1.66113.08887-7.15625.30078-7.26172.30078-.58398,0-1.3252-.01758-1.3252-1.20215,0-.60059.28223-.98926.88281-1.05957.1416-.01758,2.01465-.03516,2.29688-.03516.4248-.61914.68945-1.04297.83105-1.25488h-3.35742c-.79492,0-1.0957-.33594-1.0957-1.16602,0-1.02539.79492-1.02539,1.0957-1.02539h5.90137c0-.42383,0-.75977.33594-.98926.22949-.1416,1.20117-.17676,1.2373-.17676,1.25391,0,1.25391.60059,1.25391,1.16602h5.9375c.77734,0,1.0957.31836,1.0957,1.14844,0,1.04297-.81348,1.04297-1.0957,1.04297h-2.47363Zm-8.69336,10.38965v1.9082c0,.31836,0,1.30762-1.27246,1.30762-1.13086,0-1.43164-.49414-1.43164-1.30762v-6.41406c0-1.66113.77734-2.10254,2.10254-2.10254h8.85254c1.34277,0,2.10254.44141,2.10254,2.10254v5.53125c0,.44141,0,1.4834-.91797,1.9082-.47754.21191-1.50195.21191-2.4209.21191-1.73145,0-2.52734,0-2.52734-1.21973,0-1.11328.81348-1.14844,1.14844-1.14844.07129,0,1.4668.03516,1.55566.03516.28223,0,.45898-.03516.45898-.35254v-.45996h-7.65039Zm0-4.02832h7.65039v-.33594c0-.21191-.10547-.33594-.31836-.33594h-7.01465c-.21191,0-.31738.1416-.31738.33594v.33594Zm7.65039,1.67871h-7.65039v.68848h7.65039v-.68848Zm-4.82324-8.04004c-.1416.19434-.74219,1.04297-.86621,1.21875,1.29004-.01758,2.40332-.05273,4.09961-.12305-.08887-.08887-.19434-.22949-.19434-.53027,0-.28223.08789-.45898.14062-.56543h-3.17969Z"/><path class="cls-5" d="m204.8574,152.83758c-.31738,0-1.30762,0-1.30762-1.20215,0-.93652.38867-1.30762,1.30762-1.30762h3.25195v-1.73145c0-.35352.01758-1.29004,1.20117-1.29004.93652,0,1.36035.33594,1.36035,1.29004v1.73145h3.63965c.30078,0,1.30762,0,1.30762,1.20215,0,1.00684-.51172,1.30762-1.30762,1.30762h-2.75586c.75977,1.625,2.08496,3.41016,2.70312,4.06348.30078.33594.61816.6543.91895.99023.38867.40625.49512.65332.49512,1.05957,0,.9541-.7959,1.6084-1.41406,1.6084-.54785,0-.84766-.37109-1.29004-.93652.05371.12305.12402.28223.12402.65332,0,1.18457-.77734,1.20215-1.16602,1.20215h-1.25488v1.43066c0,.45996-.07031,1.30762-1.20117,1.30762-.91895,0-1.36035-.2998-1.36035-1.30762v-1.43066h-1.29004c-.37109,0-1.25488,0-1.25488-1.20215,0-.31738.05273-.45898.08887-.58301-.67188.74219-.88379.9541-1.32617.9541-.61816,0-.98926-.44141-1.1123-.61816v2.87988c0,.2832,0,1.30762-1.25488,1.30762-1.11328,0-1.36035-.58301-1.36035-1.30762v-6.57324c-.07129.05371-.24805.17676-.56543.17676-.72461,0-1.39648-.63574-1.39648-1.625,0-.49512.10645-.6543,1.06055-2.08496.35352-.5127,1.11328-1.96191,1.51953-3.42871.45898-1.57227.45898-1.60742.70703-1.78418.24707-.19434.58301-.21191.77734-.21191.45898,0,1.41309.15918,1.41309,1.05957,0,.45996-.26465,1.62598-.90039,3.35742v6.32617c.12305-.12402.72363-.68945.83008-.79492.8125-.81348,2.22656-2.40332,3.32227-4.48828h-2.50977Zm3.25195,6.2373v-3.05664c-.56543,1.13086-1.25488,2.19043-2.0498,3.18066.21191-.10645.5293-.12402.75977-.12402h1.29004Zm3.81641,0c.53027,0,.6709.10547.77734.19434-.49512-.6543-1.44922-2.01465-2.03223-3.21582v3.02148h1.25488Z"/><path class="cls-5" d="m230.56639,150.61101c.51172.30078,1.14844.72461,1.67871,1.11328,1.09473.8125,1.39551,1.11328,1.39551,1.60742,0,.67188-.65332,1.41406-1.41406,1.41406-.40625,0-.68848-.21191-.86523-.33594-.1416-.12305-.83105-.70703-.98926-.83008-1.34375.14062-2.7041.21191-4.06445.28223-1.66113.08887-7.15625.30078-7.26172.30078-.58398,0-1.32617-.01758-1.32617-1.20215,0-.60059.2832-.98926.88379-1.05957.1416-.01758,2.01465-.03516,2.29688-.03516.4248-.61914.68945-1.04297.83105-1.25488h-3.35742c-.79492,0-1.0957-.33594-1.0957-1.16602,0-1.02539.79492-1.02539,1.0957-1.02539h5.90137c0-.42383,0-.75977.33594-.98926.22949-.1416,1.20117-.17676,1.2373-.17676,1.25391,0,1.25391.60059,1.25391,1.16602h5.9375c.77734,0,1.0957.31836,1.0957,1.14844,0,1.04297-.81348,1.04297-1.0957,1.04297h-2.47363Zm-8.69336,10.38965v1.9082c0,.31836,0,1.30762-1.27246,1.30762-1.13086,0-1.43164-.49414-1.43164-1.30762v-6.41406c0-1.66113.77734-2.10254,2.10254-2.10254h8.85254c1.34277,0,2.10254.44141,2.10254,2.10254v5.53125c0,.44141,0,1.4834-.91797,1.9082-.47754.21191-1.50195.21191-2.4209.21191-1.73145,0-2.52734,0-2.52734-1.21973,0-1.11328.81348-1.14844,1.14844-1.14844.07129,0,1.4668.03516,1.55566.03516.28223,0,.45898-.03516.45898-.35254v-.45996h-7.65039Zm0-4.02832h7.65039v-.33594c0-.21191-.10547-.33594-.31836-.33594h-7.01465c-.21191,0-.31738.1416-.31738.33594v.33594Zm7.65039,1.67871h-7.65039v.68848h7.65039v-.68848Zm-4.82324-8.04004c-.1416.19434-.74219,1.04297-.86621,1.21875,1.29004-.01758,2.40332-.05273,4.09961-.12305-.08887-.08887-.19434-.22949-.19434-.53027,0-.28223.08789-.45898.14062-.56543h-3.17969Z"/><path class="cls-5" d="m238.10545,151.30047c-.38867,0-1.39648-.07129-1.39648-1.34277,0-.91895.53027-1.36133,1.39648-1.36133h8.58691c.75977,0,2.08496.08887,2.08496,1.64355,0,1.14844-1.09473,3.76367-2.75586,6.11328,1.41309,1.02539,2.59766,1.96191,4.24023,3.46387.77734.70703,1.07812,1.05957,1.07812,1.67871,0,.90137-.8125,1.60742-1.64355,1.60742-.65332,0-.98926-.37109-1.44824-.91895-1.2373-1.39551-3.14551-3.16211-3.8877-3.79883-3.00391,3.19824-5.91895,4.85938-6.85547,4.85938-.72461,0-1.36133-.75977-1.36133-1.55469,0-.6543.26562-.79492,1.43164-1.43164,5.6543-3.07422,7.77441-8.28711,7.77441-8.72852,0-.22949-.26465-.22949-.42383-.22949h-6.82031Z"/><path class="cls-5" d="m266.11717,150.18719c1.81934,0,1.87305,1.14844,1.87305,1.67871,0,.83008-.70703,5.68945-4.64746,8.78125-2.84473,2.24414-6.71484,2.95117-7.29785,2.95117-1.05957,0-1.37793-.90137-1.37793-1.48438,0-.93652.40625-1.02441,1.74902-1.34277,2.58008-.61816,5.72559-1.6084,7.52734-5.24805.47754-.9541.84863-2.17285.84863-2.43848,0-.28223-.15918-.28223-.56543-.28223h-4.87695c-.63672.8125-2.87988,3.48047-4.1875,3.48047-.81348,0-1.41406-.75977-1.41406-1.43164,0-.54688.08887-.61816,1.21973-1.4834,1.16602-.88379,2.54395-2.52734,3.33887-4.09961.53027-1.02539.74219-1.43164,1.6084-1.43164.61816,0,1.53711.33594,1.53711,1.0957,0,.26465-.05273.54785-.42383,1.25488h5.08887Z"/><path class="cls-5" d="m272.37694,157.23699c-.44141,0-1.55469,0-1.55469-1.44922,0-1.39551.93652-1.4834,1.55469-1.4834h12.61621c.44238,0,1.55566,0,1.55566,1.44824,0,1.43164-.99023,1.48438-1.55566,1.48438h-12.61621Z"/><path class="cls-5" d="m293.39744,153.42059c0,3.81641-.17676,6.37891-2.03223,8.76367-.91895,1.16699-1.34277,1.16699-1.64355,1.16699-.72363,0-1.66016-.58398-1.66016-1.51953,0-.2832.07031-.56543.5293-1.0957,1.67871-1.92578,1.96191-2.77441,1.96191-7.43945v-3.70996c0-.61914.19434-1.29004,1.39551-1.29004.93652,0,1.44922.35352,1.44922,1.29004v3.83398Zm1.89062-4.04688c0-.68848.26465-1.27148,1.39551-1.27148.88379,0,1.43164.31738,1.43164,1.27148v10.00098c0,.23047,0,.4248.19434.4248.68945,0,2.43848-1.39648,3.2334-3.90527.30078-.88379.45996-1.37793,1.29004-1.37793.31836,0,1.57227.15918,1.57227,1.25391,0,.86621-.75977,2.65039-1.48438,3.72852-1.7666,2.65039-4.64648,3.72852-5.97168,3.72852-1.66113,0-1.66113-1.29004-1.66113-1.69629v-12.15723Z"/><path class="cls-9" d="m6.57727,78.36334c2.10254,0,7.84961,2.38281,10.65283,3.50391,5.4668,2.17285,7.84961,3.1543,7.84961,6.72852,0,3.43359-2.45312,6.6582-5.4668,6.6582-1.19141,0-1.26123,0-6.86816-2.38281-1.47168-.63086-8.33984-3.1543-9.53125-3.85547-2.03223-1.26074-2.24268-3.64355-2.24268-4.27441,0-3.1543,2.03223-6.37793,5.60645-6.37793Z"/><path class="cls-9" d="m5.1759,116.13873c0-3.9248,2.24268-4.76562,7.84912-6.6582,20.6748-7.07812,31.81836-22.56641,35.60254-27.89355,1.9624-2.66309,3.01367-4.13477,5.67676-4.13477,2.94385,0,6.79834,2.3125,6.79834,6.2373,0,5.11621-11.77393,18.99316-23.96875,27.82324-11.2832,8.2002-22.63672,11.77441-25.86084,11.77441-4.06494,0-6.09717-4.06543-6.09717-7.14844Z"/><path class="cls-9" d="m12.88489,62.2442c2.31299,0,8.62061,2.66309,11.42383,3.78418,4.41504,1.82227,6.65771,2.94434,6.65771,6.30762,0,3.36426-2.38281,6.44824-5.39648,6.44824-1.05127,0-1.5415-.21094-7.49854-2.59375-1.19141-.49023-6.58789-2.52246-7.63916-3.01367-1.9624-.98047-3.08398-2.66309-3.08398-4.97559,0-2.17285,1.75244-5.95703,5.53662-5.95703Z"/><path class="cls-7" d="m123.52708,77.38189h-19.04791v-10.58203c0-3.99512-2.24268-5.67676-6.37793-5.67676-3.36377,0-6.09717,1.33105-6.09717,5.67676v10.58203h-19.63812c-4.41553,0-6.02734,2.80371-6.02734,6.16797,0,1.61133.49072,5.88672,6.02734,5.88672h19.42816c-.56104,6.79785-1.19141,14.50781-12.61523,21.58594-3.71436,2.3125-4.83594,3.01367-4.83594,5.53613,0,3.08398,2.45312,6.72852,6.16748,6.72852,5.25635,0,12.0542-6.2373,13.10547-7.28906,6.23779-5.81641,10.16211-12.8252,10.72314-26.56152h19.18805c4.34473,0,6.02686-2.59277,6.02686-6.16699,0-1.75195-.63086-5.8877-6.02686-5.8877Z"/><path class="cls-6" d="m141.79746,78.29303c2.66357,0,3.50439,1.54199,5.95752,5.67676,3.29395,5.67676,3.57422,6.86816,3.57422,8.27051,0,2.80273-3.36426,4.69531-5.88721,4.69531s-2.94336-.84082-5.32617-5.53613c-.49072-.91113-2.94385-4.97656-3.36426-5.81738-.20996-.35059-.70068-1.26172-.70068-2.38281,0-3.50391,3.9248-4.90625,5.74658-4.90625Z"/><path class="cls-6" d="m173.40586,109.27057c-8.27051,10.16211-19.76367,14.50684-23.05811,14.50684-3.36377,0-5.0459-3.29395-5.0459-5.88672,0-3.01367.98096-3.43457,5.67676-5.4668,10.02197-4.34473,19.06299-12.4043,22.07666-29.43457.63086-3.57422,1.12109-6.44824,5.25586-6.44824,3.01367,0,6.09766,1.54199,6.09766,4.83594,0,2.87305-2.38281,17.1709-11.00293,27.89355Z"/><path class="cls-6" d="m156.025,74.78912c2.52246,0,3.57422,1.54199,5.67676,5.39648,1.26172,2.3125,3.57422,6.58789,3.57422,8.62012,0,3.22363-3.57422,4.83594-5.88672,4.83594-2.59375,0-3.08398-1.05078-5.32715-5.81738-.56055-1.26074-.77051-1.68164-3.01318-5.53613-.35059-.63086-.84131-1.47168-.84131-2.66309,0-3.1543,3.29395-4.83594,5.81738-4.83594Z"/><path class="cls-2" d="m195.239,79.90533c-1.26172,0-6.02734,0-6.02734-6.02734,0-5.95703,4.83594-5.95703,6.02734-5.95703h32.51855c3.57422,0,5.39648.20996,10.16211,6.58789,3.9248,5.25586,4.48535,6.09766,4.48535,9.11133,0,1.40137-1.89258,15.34766-15.34863,28.31348-5.46582,5.25586-14.57715,11.7041-19.83301,11.7041-4.48535,0-6.44824-3.99512-6.44824-6.72852,0-3.08301,1.6123-3.85449,6.6582-6.44727,19.83398-10.0918,23.26758-27.75293,23.26758-29.36523,0-1.05176-.49023-1.19141-1.40137-1.19141h-34.06055Z"/><circle class="cls-5" cx="243.25179" cy="73.17632" r="11.33857"/><path class="cls-2" d="m243.24705,87.15447c-3.6748,0-7.1377-1.41162-9.76954-3.98535-2.66893-2.61084-4.16112-6.10449-4.20311-9.83789-.04102-3.7334,1.37402-7.25977,3.98438-9.92871s6.10449-4.16162,9.83789-4.20312c3.7334-.05029,7.25977,1.37354,9.92871,3.98438,2.66992,2.61084,4.16211,6.10449,4.2041,9.83789.04102,3.7334-1.37402,7.25977-3.98535,9.92871-2.61035,2.66895-6.10449,4.16162-9.83789,4.20312-.05273.00049-.10645.00098-.15918.00098Zm.00684-22.67725c-.03223,0-.06543,0-.09863.00049-2.32324.02588-4.49805.95459-6.12207,2.61572-1.625,1.66113-2.50586,3.85596-2.47949,6.1792.02539,2.32373.9541,4.49805,2.61523,6.12305,1.6377,1.60156,3.79297,2.47998,6.08008,2.47998.03223,0,.06543,0,.09863-.00049,2.32324-.02588,4.49805-.95459,6.12305-2.61621,1.625-1.66113,2.50586-3.85547,2.47949-6.17871-.02539-2.32373-.9541-4.49805-2.61523-6.12256-1.6377-1.60205-3.79395-2.48047-6.08105-2.48047Z"/><path class="cls-8" d="m43.85402,41.42493c.68438-.10193,1.90701-.23298,2.31473.06865.48.35571.64798,1.1337.24962,1.67143-.30163.40772-.50861.41292-1.58718.47012-.30787.0208-1.63243.16641-1.90441.16745-.16954-.01248-.37287-.07385-.53357-.19242-.48-.35571-.50653-1.14098-.2153-1.53414.2049-.27666.32347-.4358,1.67611-.6511Zm8.04564-4.99349l.50913.37755,1.46549-1.9793c.96937-1.30948,1.46913-1.43637,2.83633-.42332l1.1649.86224c1.33808.99121,1.41453,1.49773.42228,2.83633l-1.46497,1.9793.50913.37755,2.68344-3.62472c.19398-.2621.57829-.71974,1.26215-.21322.6407.47324.43684.93088.17838,1.28035l-2.68292,3.62472.36403.26834c.26106.1945.61157.54293.00832,1.35836-.50653.68438-.90124.73015-1.323.41708l-.36403-.26938-2.49986,3.37718c-.19346.26106-.58609.66982-1.24083.18514-.52369-.38899-.53357-.80087-.1997-1.25227l2.49986-3.37718-.50965-.37651-1.43273,1.93561c-.98081,1.32404-1.49825,1.41453-2.83685.42332l-1.16386-.86224c-1.33912-.99121-1.40413-1.5123-.42332-2.83633l1.43273-1.93561-.50913-.37755-1.66987,2.25596c-.14041.1893-.41344.52733-.87784.36403-.03952.08321-.08997.18202-.20802.34219-.56009.75615-1.1051.4878-1.55702.15393l-.55229-.4098c-1.25175-.92672-1.33392-1.39268-.40772-2.64392l5.17186-6.9863c.92672-1.25123,1.39684-1.30844,2.6486-.38171l.55281.4098c.37911.27978.89916.73327.30683,1.5331-.17266.23298-.26574.29851-.35987.36403.20802.2673.28187.50236-.06293.96729l-1.66987,2.25596Zm-2.56643.84872c-.29071-.2153-.62562-.46284-.29279-1.09522l-1.92885,2.60543c-.18306.24754-.11649.43164.08685.58245l.37911.27978.08581-.11649,1.66987-2.25596Zm13.20242,1.37084c.35519-.48052.83259-.66774,1.42857-.22674.52421.38899.71506.89032.25222,1.51646l-4.99921,6.75332c-1.78896,2.4151-3.33194,2.39949-4.01996,2.38597.1997.64278.32711,1.41349.36091,1.55078.11285.66982.1763,1.00889-.12533,1.41661-.36663.49508-1.24239.61261-1.78064.21426-.39264-.29019-.42332-.58349-.46024-1.26475-.03952-.52525-.09101-1.21587-.14769-1.59654l-3.1-2.29444c-.11597-.08633-.42176-.31307-.6693.02184l-.26938.36403c-.34479.46596-.86952.59597-1.42233.18618-.65474-.48468-.74783-.93608-.26366-1.59134l.52837-.7135c.99121-1.3386,1.49773-1.41453,2.83633-.42332l2.73648,2.0261c1.28711.81751,2.81137.18826,3.92063-1.31052l5.19422-7.01439Zm-10.21735-5.4012c.06449-.08841.07541-.10297.16485-.19346l-.39212-.29123c-.21894-.16121-.42176-.13105-.59389.10193l-1.9819,2.6772c.4748-.45868.76863-.30891,1.13318-.03952l1.66987-2.25492Zm.493,6.60563l-.66878-.49508-1.12122,1.51334c-.18254.24754-.12741.4462.09101.60741l.32035.23714,1.37864-1.86281Zm.93192.68958l-1.37916,1.86281.31983.23714c.20438.15081.41396.17162.60793-.09049l1.1207-1.51334-.6693-.49612Zm.38275-2.46502l1.40101-1.89193-.32087-.2361c-.2179-.16225-.43528-.14249-.59649.07489l-1.15294,1.55702.6693.49612Zm.9314.68958l.6693.49612,1.15294-1.55806c.16173-.21738.13105-.4202-.10141-.59181l-.31983-.23818-1.40101,1.89193Z"/><path class="cls-8" d="m64.73128,19.73691c-.2283-.30475-.60793-.90176.14561-1.46653.60793-.45556,1.04269-.50965,1.57418.1997l1.45457,1.94081.7239-.54189c.70986-.53149,1.50657-1.1285,2.38233-.65422.35831.20594.59285.45972,1.3204,1.43013.08737.11649,4.18897,5.68203,4.91964,7.53235.64018,1.57782-.01508,2.09267-1.31884,3.06827-.68074.51069-1.31832.98809-2.0235.0468-.35883-.47844-.45244-1.0869.06917-1.47693.08685-.06553.6589-.44828.77487-.53565.53617-.40148.36247-.7239-.12221-1.58198-.91528-1.64335-3.62108-5.4064-3.96847-5.86924-.34687-.46388-.53565-.32243-.99901.02496l-.43424.32451c.55281.73951,3.02043,4.18325,3.94559,7.65092.29279,1.11498.44048,2.24868.43684,2.72712.00728.49196-.21426.67918-.35883.78839-.40564.30371-1.22731.44516-1.67247-.05929-.74211.76031-4.86347,4.52648-5.64562,5.1131-.28967.21738-.76759.57517-1.31052-.14977-.50965-.68022-.12585-1.01305.27198-1.35732.97821-.77695,1.12642-.91112,2.28144-1.93561l-.62926-.83935-2.20136,1.64959c-.18878.14145-.72494.54293-1.22367-.12377-.49924-.66566.0364-1.06714.22518-1.20859l2.20188-1.64959-.39159-.52213-1.18727.89032c-1.33288.99849-1.8394.92568-2.83841-.40668l-1.20443-1.60798c-.97665-1.30324-.92932-1.81392.41812-2.82385l1.18727-.88928-.36923-.49196-2.4333,1.82328c-.1737.13001-.75303.56373-1.26267-.11753-.52109-.69478.05825-1.1285.23194-1.25955l2.43382-1.82328-.39107-.52109c-.82583.7083-1.48109,1.22315-2.03182,1.63503-.31827.23922-.5034.35467-.67346.36923-.2205.00728-.54293-.18098-.73795-.44204-.467-.62302-.0286-.97353.27926-1.22731,2.67928-2.09787,3.70481-3.11404,4.9758-4.40583.11961-.11337.28551-.28291.41656-.38067.62302-.467,1.09314.13105,1.20131.27562.44568.59389.15601.90176-.01508,1.0973-.17006.19554-1.3646,1.31676-1.88309,1.77336l.46648.62198,2.31785-1.73696c.27562-.20594.65942-.44828,1.1441-.04264.08685-.15497.12325-.22778.39836-.43372l.59389-.44516-1.46497-1.95537Zm-1.78532,9.56989l-.57517-.76759-.9418.70518c-.26106.19554-.22466.39524-.07281.59805l.31515.4202,1.27463-.95585Zm.74835,1.00057l-1.27463.95481.31463.41916c.14145.1893.33335.29331.59389.09881l.94128-.70622-.57517-.76655Zm4.99401,3.31374c.34115-.30059,1.83264-1.69015,2.15091-1.92833.1893-.14145.33335-.15913.38379-.15185-.26262-2.31421-1.35836-4.95292-3.70273-8.08152l-.59389.44516c-.52109.39107-.91944.37235-1.45509-.31203-.06917.11961-.10505.19138-.38067.39732l-2.31681,1.73696.36871.493,1.1727-.87992c1.34744-1.00889,1.85033-.91112,2.82749.39212l1.20495,1.60798c.98757,1.31884.92568,1.83992-.4072,2.83841l-1.1727.87888.39055.52213,2.07134-1.55286c.37651-.28187.78943-.45556,1.22315.12377.4774.63654.02132,1.02449-.22466,1.20859l-2.07134,1.55286.53149.70934Zm-4.13489-5.51873l1.27463-.95481-.31463-.4202c-.1737-.23194-.37651-.26106-.60793-.08737l-.92724.69478.57517.76759Zm.74939.99953l.57465.76759.92724-.69374c.23142-.17474.26054-.37755.08685-.60845l-.31463-.4202-1.27411.95481Z"/><path class="cls-8" d="m79.56821,22.40163c.6381,1.61942,1.12538,3.34494,1.33964,4.4984.10141.58869.20646,1.13682-.4072,1.40829-.42956.19034-1.20807.1789-1.50137-.48364-.11753-.26522-.12689-.41916-.38587-1.8108-.1919-1.10354-.77695-2.82489-1.39268-4.21654l-2.94242-6.64099c-.67502-1.52374-.4904-2.00218,1.03333-2.67616l.97717-.43372c1.52322-.67502,1.99386-.50653,2.67668,1.03281l5.06265,11.42854c.71142,1.6059.35727,2.05938-.98393,2.65432-.62978.27874-1.44105.63758-1.93249-.47116-.30787-.69582-.11441-1.01929.51485-1.29804.44724-.19866.6459-.28603.40408-.83311l-1.20391-2.71568-1.25851.55749Zm-2.51234-5.76107l1.22523-.54293-.78475-1.77232c-.11753-.26522-.30891-.33907-.57361-.22154l-.44776.19762c-.19866.08841-.34323.2517-.20438.56685l.78527,1.77232Zm2.00998,1.22835l-1.22575.54293.96157,2.16963,1.22575-.54189-.96157-2.17067Zm1.97254-6.63787c1.04321.9236,1.13734,1.00057,1.42597,1.24915.39628.35987.62822.61365.73119.8456.2491.56269-.2153,1.12538-.66202,1.323-.51329.22778-.66982.09985-1.50189-.6615-.2647-.23922-1.42441-1.29076-1.65739-1.50501-.26418-.23922-.35675-.35675-.40772-.47324-.25638-.57933.27146-1.13058.68542-1.31364.38171-.1685.62198-.11649,1.38644.53565Zm6.35081,13.70842c-1.32508.58765-2.12439.34739-2.75573-1.07754l-2.84673-6.42569c-.08841-.19866-.45452-1.02657.42332-1.41557.89396-.39628,1.25331.41604,1.349.6303l2.61895,5.91293c.16902.38067.4228.50653.81959.32971l4.28986-1.89921c.38067-.16954.49144-.4566.32347-.83727l-2.61999-5.91189c-.09569-.2153-.45504-1.02657.4228-1.41557.89396-.39628,1.25383.415,1.349.6303l2.84673,6.42569c.64642,1.45717.22206,2.1998-1.06922,2.77185l-5.15106,2.28196Zm-3.26277-15.41418c1.18987,1.25539,1.59082,1.71303,1.71511,1.99386.25742.58037-.26938,1.09002-.65058,1.25955-.57985.2569-.7265.10297-1.89609-1.23979-.2075-.24546-1.24551-1.2918-1.36304-1.55702-.27146-.61157.34167-1.06193.67294-1.20859.51329-.22778.74107-.07073,1.52166.75199Zm6.54894,9.46172c.24962.56269-.22934,1.0921-.59389,1.25331-.31411.13937-.52941.05617-.73327-.09153-.2517-.16537-.32191-.23402-1.1207-.82999-.29955,2.4099-.61417,2.55031-.91216,2.6824-.39732.17474-1.1129.0364-1.34068-.4774-.13885-.31411-.11649-.44308.20698-1.81496.10193-.441.1763-1.16698.23194-1.66727-.92048-.60221-1.04737-.66566-2.08955-1.27307-.29227-.1685-.55333-.30995-.68542-.60741-.23506-.53045.1945-1.03697.57517-1.20651.33127-.14665.4696-.14769,2.29965.94232.00468-.43684-.07905-1.43117-.11857-1.96786-.0364-.43996-.07281-.87888.44048-1.10666.16589-.07385.35311-.09777.54813-.10401-.1763-.04056-.42488-.10921-.60065-.50653-.10297-.23194-.10453-.36923-.07385-1.55182.03796-.81023.0026-1.42805-.0338-2.40261-.02184-.40668-.0468-.91008.51641-1.1597.4306-.19138,1.1441-.19034,1.43013.45556.24962.56373.22466,2.83321.1893,3.42295-.06033,1.29492-.29019,1.53622-.62146,1.68287-.24858.10921-.45088.09985-.55593.08737.07177.02704.31047.11961.45764.4514.22726.51277.34271,2.56175.29643,3.88891.6693.43684,2.04586,1.35316,2.28768,1.90025Z"/><path class="cls-8" d="m94.2512,10.54353c-.36923.08737-1.0869.20178-1.3126-.74991-.17942-.75823-.04212-1.19923.80347-1.39996l4.80991-1.13994c-.08685-.44516-.55437-2.41822-.57725-2.74793-.05148-.45244.12481-.88512.97041-1.08586,1.16334-.27562,1.38904.28499,1.53934.91944.03744.15809.29591,1.32508.48104,2.34229l4.91548-1.16594c1.46237-.34739,2.54043-.50965,3.06671,1.71095.07905.33491,1.50033,6.95718,1.26371,9.09769-.04472.43892-.27926,1.64751-1.79572,2.15611-.29175.10609-.65734.21114-1.45041.3994-.43996.10505-1.63815.38795-2.02506.40564-.72026.02184-.94388-.76239-.98965-.95585-.25534-1.07546.62614-1.28451.92516-1.35524.31775-.07489,1.73123-.39107,2.02662-.47948.88564-.26626,1.01045-.76135.80295-2.4983-.32451-2.54719-.76811-4.73034-.97665-5.6113-.16693-.70518-.4436-.69478-1.04321-.55333l-4.35123,1.03177c.29487,2.10723.60481,5.14118-.94024,8.35507-1.00941,2.09995-2.74116,3.98044-3.48067,4.15621-.63446.14977-1.44573-.29019-1.62567-1.04737-.10817-.45764.12793-.79359.42644-1.10562,1.64543-1.69327,1.92989-1.98346,2.54251-3.24613.97301-2.01674,1.01929-4.33511.68178-6.54426l-4.68718,1.11186Z"/><path class="cls-8" d="m125.78265,1.95549c.30683-.0208,1.15554-.08217,1.23095.98393.06605.92048-.59493,1.0765-.80815,1.1285-.32295.05825-4.8796.54709-7.49387.78631-.30423.56685-.43372.79359-1.01045,1.86905,1.08586-.80399,2.10983-.94856,2.48946-.97561,1.30012-.09257,2.28248.45452,2.83529,1.59446.80763-.38379,3.12184-1.27411,3.7719-1.31988,1.10094-.07905,1.17478.95064,1.18675,1.13162.05825.81231-.48624,1.06818-1.01877,1.23355-2.48582.77487-2.75261.84872-3.40422,1.13058.10713.73639.2023,1.56534.23558,2.03442.07125.99329.13001,1.82432-1.04425,1.90753-1.13682.08009-1.19507-.73223-1.23719-1.3282-.01924-.27042-.08269-1.40933-.09933-1.64439-2.50194,1.30324-3.15148,2.13011-3.08804,3.01523.07437,1.04737,1.56794,1.12226,3.46403.98705,1.01097-.07177,2.35893-.25794,3.55556-.52421.21426-.052.62562-.13625.96885-.16121.27094-.01872,1.08326-.07593,1.15918.98913.05877.82999-.41708,1.02761-.75511,1.12434-1.51021.45244-3.72873.6459-4.34239.68958-2.63612.18826-3.72093-.00728-4.57641-.29123-1.0947-.33907-1.86437-1.21067-1.94237-2.31213-.1841-2.58151,2.69696-4.43808,5.07669-5.67787-.428-.65942-1.02969-.68854-1.37188-.66462-.54189.03848-2.15507.31619-3.65957,2.38389-.24806.34427-1.26371,1.88569-1.51646,2.15819-.13469.15497-.39055.37235-.80607.40148-.68646.04992-1.18415-.56893-1.22107-1.0921-.03224-.45244.16693-.71974,1.18207-2.00738,1.43117-1.8264,2.59139-4.14061,2.75053-4.44224-.415.02912-2.25492.17786-2.61531.22154-.34323.02496-1.26475.07177-1.34224-1.01097-.07437-1.04737.80971-1.1285,1.13422-1.15242,1.24499-.10609,2.48998-.1945,3.73393-.31931.07593-.2049.35415-1.15034.4124-1.33652.10401-.33387.23714-.76031,1.12122-.82271.65006-.0468,1.21431.22154,1.25903.85392.02028.28811-.07125.53149-.26782,1.09002,3.36938-.34843,3.72873-.39316,5.96285-.6251l.09049-.00624Z"/><path class="cls-8" d="m133.99419,15.99362c-.02236.27042-.09309,1.11914-1.15762,1.03073-1.08326-.09049-1.01513-.90176-.98965-1.20963l.60897-7.32537c-.27822.28603-.51329.48364-.92828.44932-.7213-.06033-1.1311-.82063-1.07858-1.45197.026-.30787.15185-.51485.35467-.77071,1.84356-2.28196,2.13375-2.71152,3.46403-6.03566.09517-.28291.27926-.73951,1.07286-.67398.12637.0104,1.15346.11441,1.07754,1.03385-.05564.66878-1.03697,2.85818-1.49461,3.76514l-.92932,11.18828Zm7.76117.62718c-.02392.28915-.09309,1.1181-1.15762,1.02969-1.06506-.08841-1.01877-.8664-.98965-1.20859l.24598-2.95906-2.40001-.1997c-1.44417-.11961-2.0495-.6979-1.91949-2.2674l.52317-6.29776c.13053-1.57054.82375-2.03962,2.26688-1.92001l2.40053.1997.12169-1.46133c.02392-.28811.09257-1.1181,1.15762-1.03073,1.02865.08633,1.02137.82999.98965,1.20859l-.12169,1.46237,2.56279.21322c1.42545.11857,2.05002.69686,1.91949,2.2674l-.52369,6.29672c-.13053,1.57054-.82323,2.03962-2.2674,1.92001l-2.56175-.21322-.2465,2.9601Zm-3.95911-7.67068l-.14405,1.73279c-.03224.37859.15289.55853.47792.58557l1.89505.15705.18878-2.27364-2.4177-.20178Zm.15653-1.89505l2.41822.20178.18462-2.21956-1.89505-.15705c-.34219-.02912-.53825.13625-.56633.47948l-.14145,1.69535Zm4.21966,4.54833l2.0027.16641c.36143.03016.53981-.15497.56841-.49716l.14405-1.73279-2.52639-.2101-.18878,2.27364Zm2.87274-3.95755l.14093-1.69743c.02392-.28811-.08321-.53357-.48-.56685l-2.00322-.16641-.1841,2.2206,2.52639.2101Z"/><path class="cls-8" d="m154.76796,4.17712c-.05981.2465-.92672,2.29028-1.08638,2.71776-.50653,1.40413-.98653,3.00171-1.32716,4.40999-.44256,1.83056-.73535,3.65905-.84508,4.88012-.0286.2725-.07229.83935-.13209,1.08586-.18254.75719-.73951.90176-1.37292.74783-.42228-.10089-.9158-.29539-.9262-1.09938-.00416-1.13682.49196-4.03452,1.03645-6.28632.95325-3.94195,2.26168-6.88541,2.42134-7.16312.1815-.36611.53721-.91216,1.57678-.51277.81907.30995.74835.83311.65526,1.22003Zm6.30036,1.67351c.08529-.42644.31619-1.22835,1.46029-.95168,1.16074.28083.99121,1.05985.88512,1.49981l-.4202,1.89089c.29955.07281,2.02714.39732,2.20292.43996.31723.07697,1.1441.27666.87576,1.3854-.14873.61573-.52005.91736-1.08274.856-.23714-.01976-1.67871-.29435-2.49726-.45556l-.88304,3.88371c1.43637,1.29804,2.14675,2.36413,2.37765,2.71776.35155.55125.43892.96313.35363,1.31468-.16225.66878-.86952,1.13162-1.48525.98185-.42228-.10193-.48988-.21114-1.05049-1.20339-.21842-.40668-.493-.73431-.93608-1.28868-.19242.71766-.37963,1.41765-.80711,1.94705-1.02657,1.24187-2.9523.88824-3.70897.70518-2.99183-.7239-3.78802-2.6668-3.34962-4.47968.51433-2.12907,2.54511-3.05371,4.99193-2.46294.72078.17578,1.18831.3994,1.48733.54709l.66982-3.1546c-1.76816-.39003-2.93826-.6355-4.46876-1.00577-.35259-.08529-1.17895-.28499-.9106-1.39372.2595-1.07338,1.08638-.87368,1.44261-.80607,1.02501.22986,3.56752.80711,4.41623.99433l.43684-1.96162Zm-3.53788,8.69934c-.56321-.13625-2.16339-.37443-2.5165,1.08586-.34063,1.40829,1.12954,1.87633,1.58718,1.98554.4046.09881,1.3412.23194,1.80612-.38171.24754-.33179.36611-.89864.61261-1.99386-.36611-.2569-.71558-.50861-1.48941-.69582Zm6.64047-8.97392c-.02288-.13625.01144-.27666.0156-.29435.09777-.4046.52733-.41188.73951-.36091.36923.08841.41916.34323.51589.94336.0468.2725.23922,1.32508.14145,1.72967-.12793.52837-.64694.43996-.76967.4098-.21218-.05096-.34011-.21218-.37651-.44412-.0364-.15913-.11337-.92256-.13105-1.07546-.02288-.13625-.13001-.77695-.13521-.908Zm2.08747.15081c-.00104-.14977.02808-.2725.03224-.29019.09777-.4046.55021-.4254.76135-.37443.33491.08009.39836.35675.52629,1.05881.06865.33283.18098,1.25435.10401,1.57054-.12689.52837-.69478.4098-.78215.38795-.21114-.05096-.34427-.1945-.37651-.44412-.01976-.15393-.09465-.84248-.11337-.99641-.02288-.13625-.12481-.79359-.15185-.91216Z"/><path class="cls-8" d="m179.38332,19.20647c-.03432.53773-.08841,1.30324-.56061,2.40053-1.42493,3.31062-4.24566,3.77242-7.11215,3.01211-1.29284-.34011-2.34853-.77487-2.56487-.86744-.33283-.14353-1.31364-.56581-.84872-1.64751.37963-.88096.96833-.64694,2.03338-.1893,3.83066,1.5903,5.22855.49612,6.01174-.54709-.6875.31619-1.54142.69686-3.27109-.04784-2.64496-1.13786-3.45519-3.24093-2.68136-5.03821.75823-1.76296,2.85505-2.69488,5.51665-1.5487.24962.10713,1.48005.63758,2.20396,1.52062l.58245-1.44469c-2.08435-.83831-4.11045-1.67143-6.2572-2.59503-1.81288-.78007-1.87321-.82479-2.0677-.96833-.14457-.12169-.48156-.48364-.1737-1.19819.42228-.98185,1.17114-.65942,1.70367-.4306l1.84616.79463c2.27884.98081,4.42247,1.86385,5.76731,2.40365l.31307-.77279c.11441-.26626.47012-1.13786,1.5851-.65838,1.13058.48676.77279,1.31884.65734,1.5851l-.32867.76551c.32347.11857,2.53055.99017,2.64808,1.04009.415.1789,1.06922.53877.66774,1.47069-.41604.96417-1.02137.7239-2.10099.29851-.33179-.14249-1.77648-.72494-2.06666-.82999l-1.50293,3.49263Zm-2.4619-.19138c.60117-1.39788-.84976-2.23932-1.41557-2.4827-.93192-.40044-2.45774-.56477-2.98715.6667-.53045,1.23043.65006,2.15195,1.46549,2.5035,1.71303.73639,2.61583.06137,2.93722-.6875Z"/><path class="cls-8" d="m187.14345,30.97616c-.44412.70622-1.38124.908-2.08747.46596-.70622-.44308-.934-1.37604-.48988-2.08227.4514-.72078,1.38956-.92256,2.09579-.48052.70622.44308.93192,1.37604.48156,2.09683Zm1.42493-3.63616c-.31515.3994-.66462.6511-1.13994.35259-.46076-.28811-.48572-.62406-.2101-1.20027l2.22476-4.5036,2.03026-3.23677c.29851-.47532.82271-.93712,1.7432-.35987.78215.48988.88928,1.07026.46596,1.74528l-2.02922,3.23677-3.08492,3.96587Z"/><path class="cls-8" d="m70.5168,43.37822c.58557-.51329.77643-.68022,1.3152-.66982.23194-.01092,1.41245.18254,1.66623.22518.17526-1.0921.1971-1.80976.20074-2.05314.00832-.32035.01352-.58973.28603-.82843.40876-.35831,1.1311-.41292,1.47693-.01768.10765.12273.18618.29487.18826.65422-.01196.56373-.06605,1.38228-.20854,2.37349.29487.00728.58973.01352,1.1051-.02912.10869-1.05777.17838-1.91377.17838-2.68396,0-.38483.00468-.65474.25014-.86952.43632-.38119,1.19663-.42072,1.56586.00156.09569.10869.17422.28083.17422.66618.0052.69374-.05877,1.66467-.19658,2.58047.30007-.06969.82167-.18982,1.76504-.48624.53721-.15757.87472-.21218,1.26891.23818.51277.58557.47376,1.36616.05148,1.73591-.40928.35831-1.8368.59701-2.05678.62094.34635.58817.10765.89344-.23298,1.19195l-.96833.84716,1.02709,1.17218,3.01159-2.63768c.30007-.26314.82479-.62562,1.44573.08269.64382.73639.07125,1.23719-.13209,1.41609l-3.01263,2.63768,1.58718,1.81288c.50132.57257.73327.36975,1.35992-.17942,1.10406-.96677,1.28139-1.12174.76811-1.90077-.43164-.65786-.70102-1.04737-.06033-1.6085.88616-.77591,1.48265-.09413,1.68495.13729.07229.08165,1.13474,1.2944,1.13994,2.18107.00884.83467-.72754,1.47953-1.66727,2.30329-.4774.41708-1.36356,1.19299-1.79832,1.54974-1.3542,1.06506-2.09371.2205-2.7266-.50236l-2.00478-2.28924-1.71719,1.50345c.84872,1.32768,1.2892,2.62779,1.02397,4.11201-.31931,1.72447-1.44001,3.33194-1.87633,3.71417-.59961.52525-1.31728.31047-1.7588-.19398-.45348-.51797-.23558-.90072.00624-1.25747,1.0817-1.59706,1.9793-2.93722.83311-4.82343l-2.58983,2.26792c-.24546.21478-.79983.65318-1.43273-.06917-.65682-.74939-.07073-1.26267.12013-1.43013l2.80825-2.45878-1.02709-1.17166-.77643.68074c-.24494.21426-.65266.54657-1.23563.04628-.19086.55177-.60117,1.70575-.92776,1.9923-.53149.46544-1.24915.25066-1.67819-.23974-.3942-.44932-.25482-.81231-.0026-1.32248.43892-.81751.61573-1.35836.77591-1.83576-.40876-.02704-.52525-.02184-1.81132.02132-.37339.01404-.60169-.02704-.79255-.24546-.32191-.36767-.34791-1.13942.11545-1.54558.17682-.15497.36091-.21998.74783-.24546.36091-.02756,1.34068-.09153,2.26324-.05564.14093-.77331.23974-2.06354.15601-2.15871-.07177-.08165-.15393-.0104-.24858.07333l-1.94913,1.70679c-.28655.24962-.75875.59077-1.35524-.08997-.62042-.70934-.10245-1.1623.10245-1.3412l3.77502-3.30594Zm6.7658,1.73175c-1.19975.08737-2.9445.07489-4.99661-.34375.10297,1.1623.17162,2.64288-.33179,5.01065l5.3284-4.6669Zm-.65318,3.26953l-1.6085,1.40829,1.02709,1.17166,1.60798-1.40829-1.02657-1.17166Z"/><path class="cls-8" d="m84.92729,34.67993c.2335.07125.93972.34063,1.37916.55489.28031.12897.40668.2699.49872.46596.08425.18046.10401.35207.10765.52993.08841-.28135.31931-.42904.56529-.54397l4.00332-1.87269-.33075-.7057-3.32986,1.55858c-.18046.08373-.8534.39888-1.21379-.37235-.35363-.75459.2387-1.0713.48468-1.18623l3.32986-1.55858-.13781-.29487c-.26886-.57465.01612-.94804.54137-1.19351.83675-.39107,1.21379-.26782,1.45977.2569l.13781.29539,3.29761-1.54246c.18046-.08477.8534-.3994,1.21379.37183.36819.78735-.28759,1.09418-.48416,1.18623l-3.29761,1.54246.32919.7057,3.97055-1.85709c.22934-.10765.8534-.3994,1.22211.38847.33751.72182-.14041,1.02501-.4852,1.18623l-1.3282.62198c.0416.26002.15185,1.00837.15497,1.18675l1.34536-.62926c.22934-.10765.869-.40668,1.22991.36403.37599.80399-.26418,1.10354-.49352,1.21067l-3.65853,1.71199.35311.75407,3.33038-1.55806c.21322-.09985.75511-.35259,1.08482.35259.31515.67294-.10557.92932-.41656,1.07494l-3.3309,1.55806.36091.77123,3.83898-1.79624c.2621-.12273.86068-.38223,1.22159.38847.36039.77123-.18982,1.04893-.4852,1.18675l-3.83846,1.79572.23766.50809c.17682.37807.1945.62978-.09725.94596l4.34759-2.0339c.91788-.42956,1.29804.2127,1.42129.47532.05408.11441.46856,1.00005-.53305,1.46809l-7.21772,3.37666c-.78735.36871-3.06775,1.43533-5.03197.31515-.05773.34583-.15133.83051-.46648,1.73748-.23558.65006-.33127.8742-.6589,1.02761-.6563.30735-1.44885-.06137-1.76348-.73431-.23038-.49196-.08529-.77955.09309-1.08274.29695-.52005.56997-1.04685.79515-1.59186l-1.73435-3.70793c-.05408-.11441-.16902-.36091-.49716-.2075l-.4592.2153c-.47584.22258-1.03905.08581-1.32352-.52109-.43736-.93452.36663-1.31104.57985-1.41037l.68854-.32243c1.51021-.7057,1.99126-.53201,2.7136.96989l1.37396,2.9367c1.03749,2.17379,3.75161.92412,4.42456.60949l2.13271-.99797c-.47064.01976-.64278-.21946-.78839-.53097l-.23818-.50809-3.82286,1.78792c-.22934.10765-.85236.3994-1.21327-.37235-.31463-.67242.05044-1.00317.47688-1.20235l3.82286-1.78792-.36091-.77175-3.33038,1.55806c-.24598.11545-.74575.32919-1.06818-.35987-.29175-.62302.0234-.89084.40044-1.06714l3.33038-1.55754-.35363-.75511-3.69077,1.72655c-.29487.13781-.86016.38275-1.22159-.38795-.36039-.77123.15653-1.03333.4852-1.18727l1.36096-.63602c-.24286-.30683-.50288-.60533-.79463-.88824l-1.362.63706c-.19658.09205-.85288.39888-1.21327-.37183-.09205-.1971-.12897-.36039-.10661-.57049-.04316.38015-.29643.77903-.65734.94752-.40928.1919-.71402.0546-1.37968-.21426-.32867-.14613-1.8212-.6875-2.13479-.80139-.2647-.09621-.42332-.22154-.53825-.46804-.1997-.42592-.09829-1.19299.60689-1.52322.24598-.11545.44204-.16693,2.13583.4202Zm10.16899.62198c-.03172-.32503-.09673-.63498-.20438-1.16386l-3.3309,1.55806c.34739.35675.51277.53981.77903.895l2.75625-1.2892Z"/><path class="cls-8" d="m105.12537,26.85687c.06553.30111.11077,1.60694.13313,1.87945.13313,1.62046.44412,3.88683.94804,6.18543.27874,1.27255.60637,2.5165,1.01929,3.72353.10141.29227.43788,1.23823.48832,1.46757.08893.40668.15913,1.15138-.98965,1.40309-.8664.1893-1.1597-.30163-1.44053-.908-.04836-.13729-.63914-1.56378-1.40985-5.08241-.93348-4.26126-1.16646-7.69409-1.15502-8.2339.02236-.91268.48156-1.01305,1.13578-1.15658.10609-.02288,1.0687-.1971,1.27047.72182Zm10.62611.37807c-.28291.06189-1.5253.31515-1.77232.36975-.99017.21686-3.10832.69946-4.68978,1.1753-.10609.0234-.34999.09517-.47376.12221-.67138.14717-1.23251-.04524-1.41453-.87576-.21686-.99017.41812-1.22159.6537-1.32924.4124-.14561,2.89198-.83727,5.26183-1.3568,2.33397-.51017,2.48686-.48832,2.72556-.41084.41812.13053.61313.51329.69842.9028.22466,1.02553-.4592,1.28607-.98913,1.40257Zm3.28461,10.34268c-.62406.45192-2.85037,1.03125-3.87175,1.27411-2.28092.49976-5.81776,1.01513-6.5193-2.18524-.14353-.6537-.32295-2.91226,1.14514-3.23365.56529-.12429,1.35576.01716,1.49929.6719.05825.26522.05564.33907-.14873,1.01461-.12689.4358-.13885.7161-.08893.94596.22882,1.04269,1.52634.96209,3.20609.59441.4774-.10453,1.37188-.33699,2.29913-.67034.23974-.08945,1.3282-.53201,1.55858-.58245.63654-.13937,1.17582.039,1.3542.85288.17422.79515-.09361,1.0947-.43372,1.3178Z"/><path class="cls-8" d="m124.90533,35.16773c.18046-.00416.83467.05252,1.05205.06553.56269.04108,1.12382.04576,1.52218.03588,1.43013-.03432,7.11476-.17006,6.99722-5.07565-.039-1.62983-.56685-2.52327-1.30584-3.1026-.59025-.4566-1.50761-.9418-3.20921-.90176-2.57111.06137-4.81511.87628-7.29365,1.76868-.23402.07801-.52161.17578-.77487.1815-.97769.02392-1.19819-.8768-1.20963-1.34744-.0234-.99589.53461-1.15398,2.29653-1.68495,2.51702-.76707,5.27899-1.19559,7.14336-1.24031,4.94148-.11753,6.85941,2.80669,6.94002,6.17399.02184.9236.04212,4.02048-3.00691,6.0315-2.10515,1.3724-5.55982,1.56378-6.93586,1.59654-.41604.0104-1.90181.02756-2.57527-.13729-.72911-.1815-.83519-.81335-.84196-1.1025-.01144-.48884.06137-1.23355,1.20183-1.26111Z"/><path class="cls-8" d="m141.33568,34.67317c-.36663.45452-.68906.75147-1.3152.65162-.73223-.11805-1.18571-.72182-1.10302-1.24031.06865-.42904.1841-.57569,1.73748-2.49102.93348-1.1337,1.74164-2.63664,2.40938-3.94143-.52109-.06501-2.11815-.28447-2.40781-.42228-.32867-.12585-.59597-.51745-.493-1.16126.14925-.92932.81023-.93348,1.04841-.93192.14561.0052,2.51442.32919,2.85401.38327.11701-.27458.57933-1.55702.69374-1.81392.21218-.40668.59181-.60221,1.16334-.51069.25066.04004,1.28191.24182,1.13578,1.15346-.06293.39316-.26002.82011-.54709,1.47121.16121.02548,1.69171.1971,1.72759.20282.32191.05148,1.14098.20126.96677,1.2918-.16537,1.03645-.96105.96469-1.37552.91632-.50236-.06189-1.43845-.17474-2.34073-.26418-.89084,1.78272-2.16339,4.23786-4.15413,6.70652Zm8.12417-4.47552c.0416-.48832.2725-1.13006,1.32768-.96105.67866.10869,1.08066.46648.99589,1.22211l-.38743,3.67933c.92464.6433,1.75672,1.39944,2.4619,2.26428.38171.4826.52369.85444.46076,1.24707-.09153.57205-.62406,1.14722-1.3568,1.03021-.37547-.06033-.54345-.27042-1.15866-1.01097-.62978-.65058-.70726-.73639-.95325-1.03229-.10297.6433-.20906,1.19455-.58713,1.72135-1.1597,1.62983-3.21805,1.31832-3.82598,1.22107-3.165-.50653-4.08496-2.43278-3.8187-4.09537.23974-1.50189,1.63607-3.35014,5.23011-2.77497.58973.09413.99225.21374,1.37656.33023l.23506-2.84101Zm-2.09735,4.39491c-.87576-.13989-2.45046-.15393-2.66212,1.16906-.23506,1.46601,1.57106,1.75516,1.89297,1.80664,1.93093.30891,2.16391-.91892,2.38389-2.40521-.31671-.19762-.72026-.42696-1.61474-.57049Zm4.00176-9.53609c.6797.10869,2.52587,1.52218,3.83846,2.94294.46804.51433.65786.93036.58661,1.3776-.10869.67866-.81491,1.07962-1.36876.99069-.41136-.06553-.6277-.32087-.96625-.72234-.95377-1.14358-1.15138-1.28503-2.94658-2.67252-.16173-.13625-.56841-.45816-.4826-.99381.04004-.25066.2023-.46336.27042-.54397.13313-.14405.51485-.46804,1.0687-.37859Z"/><path class="cls-8" d="m163.39397,28.30312c-.13417.35623-.96209,1.78636-1.11602,2.09527-.22882.45556-1.32404,2.59763-2.14571,4.78443-.6173,1.64439-1.11862,3.39018-1.40777,4.67418-.0338.14197-.17214.76707-.25482.98757-.35623.94908-1.28868.59909-1.49201.52265-.74523-.28083-.79827-.70622-.69842-1.53934.13209-.91736.81335-3.19465,1.62202-5.34816,1.3178-3.50875,2.93306-6.5193,3.35638-7.13348.49612-.70362.90384-.55021,1.58094-.29591.01768.00624.8924.35467.55541,1.25279Zm6.17607,10.54082c-.8664,2.30537-1.87217,4.98308-5.75691,4.97476-1.43221.00364-2.97675-.51901-2.99443-.52577-.86432-.32347-.8404-1.10822-.66878-1.56586.26106-.69478.71454-.71766,1.35732-.57361,1.20339.29695,2.33917.56893,3.60184.03796.85704-.37443,1.43325-1.24135,2.28092-3.49575.12689-.33855.64486-1.7692.75927-2.07395-.89448-.29747-3.49367-1.25487-4.10421-1.48421-.94856-.35623-1.62671-.61053-1.23251-1.66207.36299-.96573,1.05673-.80191,1.51438-.62978,1.50813.56633,3.02355,1.1155,4.53793,1.66571.06969-.18618.87056-2.57423.8768-2.59139.22258-.59389.52213-1.23563,1.60694-.82791,1.13578.42644.934,1.06662.62614,1.93769-.34427.91476-.53045,1.46393-.81335,2.26636.34531.11077,1.92001.60533,2.10723.67554.37235.14041,1.10562.454.73015,1.45405-.05721.15289-.31931.84768-.96937.77747-.22882-.00832-2.14155-.63082-2.58879-.77903-.65422,1.84304-.73119,2.0469-.87056,2.41978Zm3.1598-7.69149c.15913-.42384.63134-.34323.80087-.27926.30475.11441.37027.35155.36819.87368.00416.6589-.08113,1.55546-.19554,1.86021-.20386.54189-.76967.34947-.82063.33023-.40668-.15289-.38587-.41552-.2621-1.56898.03016-.1815.04472-1.04633.10921-1.21587Zm1.97098.16017c.17786-.47532.73327-.30475.80087-.27926.33907.12741.36611.46648.36819.87368.02912.74523-.07697,1.5955-.16641,1.83264-.19658.52525-.70102.37443-.80295.33647-.30579-.11441-.35155-.40252-.35779-.54033,0-.15497.07281-.86328.07281-1.01773.01248-.18826.02808-1.05309.08529-1.20547Z"/><path class="cls-8" d="m184.85005,43.73394c3.14004,2.11295,3.21805,4.98152,1.74216,7.1756-.79775,1.18675-2.56383,2.83633-5.50937,2.25128-1.34484-.27198-2.57839-.90488-3.70481-1.66311-1.78792-1.20287-2.40261-2.13999-2.74481-2.89458-.38795-.85028-.30371-1.81912.20178-2.57059,1.22315-1.8186,3.36678-1.46757,4.9134-.42644.70622.4748,2.89458,2.12179,1.26683,4.54053-.20282.30059-.33387.43112-.59597.62614,2.0261.81699,3.35118-.14665,3.98772-1.09366.51589-.76603.76135-1.7796.41916-2.66524-.36819-.94544-1.22315-1.65219-1.91481-2.11763-2.14883-1.44521-4.41311-1.55026-6.49434-1.24811-1.54766.22466-1.63815.22934-1.9689.00676-.55541-.37391-.73847-1.17322-.35467-1.74424.28395-.42124.44932-.44048,2.24244-.54293,2.72816-.12897,7.58644-.37443,9.1653-.64434-.38171-.21218-4.47032-2.63612-5.07045-3.04019-.30059-.2023-1.01201-.70206-.37547-1.64959.60741-.90072,1.3334-.45556,1.70367-.22778.83727.54033,4.54833,2.97207,5.33048,3.43283.16433.11129,1.09626.67242,1.62254,1.02605.54085.36403,1.20651.96469.6303,1.82068-.46492.69166-.71142.7005-3.13796.63966-1.75256-.02184-2.71152.07437-3.36574.13677.50757.12325,1.06506.23558,2.01154.87212Zm-5.57386,5.59154c.75823-1.12642-.10297-1.85813-.59909-2.19148-.78111-.52577-1.65999-.54969-2.05418.03536-.46492.69166.27354,1.66987,1.31156,2.36725.23922.16173.415.25742.71558.39472.2621-.19502.43372-.31983.62614-.60585Z"/><path class="cls-8" d="m189.674,59.84289c-.61157.56425-1.57158.51381-2.13531-.09933-.56581-.61209-.53981-1.5721.07281-2.13739.6251-.57777,1.5851-.52629,2.14883.08633.56581.61261.53981,1.57314-.08633,2.15039Zm2.33189-3.13692c-.4098.30371-.81335.45452-1.19507.0416-.36819-.39888-.30267-.72963.11337-1.21275l3.33038-3.76358,2.80825-2.59139c.41292-.38067,1.04113-.68854,1.77752.11025.62718.67866.57829,1.26631-.00832,1.80716l-2.80825,2.59139-4.01788,3.01731Z"/></g></svg>