<?xml version="1.0" encoding="UTF-8"?><svg id="_レイヤー_2" xmlns="http://www.w3.org/2000/svg" viewBox="0 0 60.7998 56.0486"><defs><style>.cls-1{fill:#fff;}</style></defs><g id="_レイヤー_1-2"><g id="_グループ_287"><g id="_グループ_284"><path id="_パス_999" class="cls-1" d="m8.48486,40.32318h-1.74292c-3.72168-.00439-6.73755-3.02026-6.74194-6.74194v-.68799c.00439-3.72168,3.02026-6.73755,6.74194-6.74194h.75903c.66284,0,1.19995.53723,1.19995,1.20007,0,.66272-.53711,1.19995-1.19995,1.19995h-.75903c-2.39868.0033-4.34229,1.94727-4.34497,4.34595v.68799c.00342,2.39832,1.94678,4.34167,4.34497,4.34497h1.74292c.66284,0,1.19995.53723,1.19995,1.19995,0,.66284-.53711,1.20007-1.19995,1.20007v-.00708Z"/><path id="_パス_1000" class="cls-1" d="m54.05786,40.32318h-1.74292c-.66284,0-1.19995-.53723-1.19995-1.20007,0-.66272.53711-1.19995,1.19995-1.19995h1.74292c2.39844-.00281,4.34229-1.94641,4.34497-4.34497v-.68799c-.0022-2.39893-1.94604-4.34314-4.34497-4.34595h-.76001c-.66284,0-1.19995-.53723-1.19995-1.19995,0-.66284.53711-1.20007,1.19995-1.20007h.76001c3.72168.00439,6.73755,3.02026,6.74194,6.74194v.68799c-.00049,3.72437-3.01758,6.74463-6.74194,6.74902Z"/></g><g id="_グループ_285"><path id="_パス_1001" class="cls-1" d="m29.89893,56.04718c-10.27271.11243-19.42017-6.48083-22.56201-16.26196-.21191-.62354.12207-1.30066.74561-1.51245.62354-.21191,1.30054.12195,1.51245.74548,2.88281,8.97046,11.36597,14.9408,20.78296,14.62695,9.63403-.19995,17.80005-5.94299,20.80811-14.63696.21729-.62158.89746-.94934,1.51904-.73193.62158.21729.94922.89734.73193,1.51892-3.33691,9.651-12.3689,16.02795-23.01001,16.24597-.17603.005-.35303.00598-.52808.00598Z"/><path id="_パス_1002" class="cls-1" d="m7.48193,28.0871c-.06201.00024-.12378-.00439-.18506-.01404-.65088-.10547-1.09473-.71643-.9939-1.36804C8.4729,12.65302,17.26099,4.737,30.4231,4.96906s21.93896,8.15906,24.073,21.729c.11621.64795-.31494,1.26746-.96289,1.38367-.64819.11609-1.26758-.31506-1.38379-.96301-.00269-.0155-.00513-.03101-.00732-.04663-.65063-5.18054-2.92993-10.02051-6.50903-13.82202-3.80005-3.79004-8.93091-5.77002-15.25195-5.88403-6.96191-.125-19.03003,2.26599-21.72192,19.70703-.08862.58203-.58838,1.01245-1.17725,1.01404Z"/></g><path id="_パス_1003" class="cls-1" d="m30.23089,48.79814c-3.08984.03357-5.96143-1.58899-7.5271-4.25305-.30591-.58801-.07715-1.3125.51099-1.61829.54395-.28296,1.21362-.11035,1.55298.40027,1.16235,1.97632,3.3147,3.15613,5.60596,3.073,2.28564-.00476,4.41016-1.17749,5.63208-3.10901.37451-.54675,1.12134-.68652,1.66821-.31201.50781.34778.67017,1.02344.37573,1.56396-1.64722,2.62952-4.52417,4.23425-7.62695,4.25403l-.19189.0011Z"/><g id="_グループ_286"><path id="_パス_1004" class="cls-1" d="m40.10376,39.5412c-1.11841,0-2.0249-.90662-2.0249-2.02502v-2.09998c0-1.11841.90674-2.02502,2.0249-2.02502,1.11841,0,2.02515.90662,2.02515,2.02502h0v2.09998c0,1.11841-.90649,2.02502-2.0249,2.02502h-.00024Z"/><path id="_パス_1005" class="cls-1" d="m20.69775,39.5412c-1.11841,0-2.0249-.90662-2.0249-2.02502v-2.09998c0-1.11841.90674-2.02502,2.0249-2.02502,1.11841,0,2.02515.90662,2.02515,2.02502h0v2.09998c0,1.11841-.90649,2.02502-2.0249,2.02502h-.00024Z"/></g><path id="_パス_1006" class="cls-1" d="m17.17277,29.70316c-3.3811.00195-6.74829-.43506-10.01709-1.30005-.62549-.21899-.95508-.90369-.73608-1.52917.20337-.5802.81201-.91309,1.41016-.77087.20605.06006,18.88599,5.33105,27.07788-6.95605.2168-.32446.57788-.52332.96802-.53296.39136-.01355.76367.1687.99292.48596.05298.07202,5.5061,7.32605,11.94604,7.63306.66284-.00293,1.20239.53198,1.20532,1.1947s-.53198,1.20239-1.19482,1.20532c-.0415.00012-.08301-.00183-.12451-.00598-5.84204-.27795-10.69995-5.03296-12.73901-7.35596-3.88501,4.91296-9.90601,7.63904-17.51807,7.90698-.42993.01733-.85352.02563-1.27075.02502Z"/><path id="_パス_1007" class="cls-1" d="m35.68889,7.5141c-.06299,0-.12573-.005-.18799-.01501-.31396-.05005-.59521-.22266-.78198-.47998l-3.67505-5.06897c-.41431-.51733-.33081-1.27246.18652-1.68677s1.27271-.33069,1.68677.18665c.02417.02991.04663.06104.06763.09314l2.97095,4.09998,4.14795-3.01099c.51367-.41882,1.26953-.34204,1.68848.17163.4187.51367.3418,1.26953-.17188,1.68835-.03467.02832-.07104.05469-.10864.07898l-5.1189,3.71594c-.20483.14795-.45117.22742-.70386.22705Z"/></g></g></svg>