<?xml version="1.0" encoding="UTF-8"?><svg id="_レイヤー_2" xmlns="http://www.w3.org/2000/svg" viewBox="0 0 59.995 52.01022"><defs><style>.cls-1{fill:#fff;}</style></defs><g id="_レイヤー_1-2"><g id="_グループ_283"><g id="_グループ_280"><path id="_パス_990" class="cls-1" d="m8.349,37.02258h-1.71497c-3.66211-.00439-6.62964-2.97192-6.63403-6.63403v-.677c.00439-3.66211,2.97192-6.62964,6.63403-6.63403h.74695c.65112,0,1.17896.52783,1.17896,1.17896,0,.65125-.52783,1.17908-1.17896,1.17908h-.74695c-2.36047.00281-4.27319,1.91553-4.276,4.276v.677c.00281,2.36047,1.91553,4.27319,4.276,4.276h1.71497c.65112,0,1.17896.52783,1.17896,1.17908,0,.65112-.52783,1.17896-1.17896,1.17896Z"/><path id="_パス_991" class="cls-1" d="m53.36096,37.02258h-1.71509c-.65112,0-1.17896-.52783-1.17896-1.17896,0-.65125.52783-1.17908,1.17896-1.17908h1.71509c2.36035-.00281,4.27319-1.91565,4.27588-4.276v-.677c-.00269-2.36035-1.91553-4.27319-4.27588-4.276h-.74707c-.65112,0-1.17896-.52783-1.17896-1.17908,0-.65112.52783-1.17896,1.17896-1.17896h.74707c3.66211.00439,6.62964,2.97192,6.63403,6.63403v.677c-.00439,3.66211-2.97192,6.62964-6.63403,6.63403Z"/></g><g id="_グループ_281"><path id="_パス_992" class="cls-1" d="m29.50098,52.00854c-10.13025.12158-19.16089-6.36243-22.28406-16-.20825-.61584.12219-1.28381.73804-1.49194.61572-.20825,1.28369.12207,1.49194.73792,2.86365,8.84131,11.23999,14.71436,20.52795,14.39294,9.51599-.19397,17.58301-5.84705,20.55298-14.40002.21399-.61389.88513-.93799,1.49902-.724s.93799.88513.724,1.49902c-3.30005,9.5-12.21704,15.77197-22.72705,15.98596-.17578-.00195-.35083.00012-.52283.00012Z"/><path id="_パス_993" class="cls-1" d="m7.36316,25.76843c-.06091.00037-.12183-.00427-.18201-.01404-.64282-.10034-1.08252-.70288-.98206-1.3457v-.00024c.83545-5.60791,3.62061-10.74194,7.86597-14.5,4.41028-3.83997,10.11267-5.8645,15.95703-5.66504,12.16296.24805,21.93701,8.53699,23.77002,20.15698.10754.64111-.32507,1.24792-.96619,1.35547-.64099.10754-1.24792-.32507-1.35535-.96619-.00122-.00708-.00232-.01416-.00342-.02124-1.65198-10.47205-10.48999-17.94397-21.49402-18.16797-10.76355-.37732-20.05042,7.48901-21.44897,18.16797-.08728.5741-.58032.99866-1.16101,1Z"/></g><path id="_パス_994" class="cls-1" d="m29.82908,43.31354c-3.04053.0332-5.86633-1.56348-7.40698-4.18506-.3313-.56079-.14526-1.28418.41553-1.61548s1.28418-.14526,1.61548.41553c1.14465,1.94348,3.26196,3.10376,5.51599,3.02295,2.2489-.00452,4.33948-1.15845,5.54199-3.05896.34021-.5553,1.06616-.72974,1.62158-.38953.5553.34033.72961,1.06628.3894,1.62158-1.62048,2.58777-4.45178,4.16699-7.505,4.18604l-.18799.00293Z"/><path id="_パス_995" class="cls-1" d="m29.508,16.7395c-.45728-.00024-.9137-.03735-1.36499-.11096-2.19165-.35168-4.15161-1.56555-5.44299-3.37097-.37317-.53357-.24304-1.26868.29053-1.64185.52356-.36609,1.24341-.24866,1.62341.26489,1.94006,2.69116,5.69446,3.30005,8.38562,1.35999,2.69116-1.94019,3.30005-5.69458,1.35999-8.38574-1.38025-1.91443-3.75366-2.84326-6.06665-2.37427-.63843.12952-1.26099-.28308-1.3905-.92151s.28308-1.26099.92151-1.3905c4.52881-.91846,8.9447,2.00818,9.86316,6.53687.91858,4.52881-2.00818,8.9447-6.53687,9.86328-.54065.10962-1.0907.16553-1.64233.16687l.00012.00391Z"/><path id="_パス_996" class="cls-1" d="m28.0071,10.0855c-1.15405.0144-2.26965-.41516-3.11597-1.19995-1.32837-1.26184-1.86011-3.14917-1.38599-4.91895.59448-1.97815,2.26245-3.44592,4.30005-3.78406.63513-.14465,1.26733.25281,1.41211.88794.14465.63525-.25293,1.26746-.88806,1.41211-1.1781.1543-2.16492.96729-2.54199,2.09399-.24463.92468.02698,1.90955.71106,2.578.73328.62659,1.76392.76941,2.64001.36597.61438-.21594,1.2876.10706,1.50342.72156.21594.61438-.10706,1.28748-.72144,1.50342h0c-.61389.2207-1.26086.33557-1.91321.33997Z"/><g id="_グループ_282"><path id="_パス_997" class="cls-1" d="m39.54199,34.36548c-1.09985-.00061-1.99146-.89209-1.99194-1.99194v-2.07104c0-1.10046.89209-1.99255,1.99268-1.99255,1.10034,0,1.99243.89209,1.99243,1.99255v2.07104c-.00049,1.10034-.89282,1.99207-1.99316,1.99194Z"/><path id="_パス_998" class="cls-1" d="m20.44702,34.36548c-1.09985-.00061-1.99133-.89209-1.99194-1.99194v-2.07104c0-1.10046.89209-1.99255,1.99243-1.99255,1.10046,0,1.99255.89209,1.99255,1.99255v2.07104c-.00061,1.10034-.8927,1.99194-1.99304,1.99194Z"/></g></g></g></svg>