<?xml version="1.0" standalone="no"?>
<!DOCTYPE svg PUBLIC "-//W3C//DTD SVG 20010904//EN"
 "http://www.w3.org/TR/2001/REC-SVG-20010904/DTD/svg10.dtd">
<svg version="1.0" xmlns="http://www.w3.org/2000/svg"
 width="800.000000pt" height="800.000000pt" viewBox="0 0 800.000000 800.000000"
 preserveAspectRatio="xMidYMid meet">
<metadata>
Created by potrace 1.14, written by Peter Selinger 2001-2017
</metadata>
<g transform="translate(0.000000,800.000000) scale(0.100000,-0.100000)"
fill="#000000" stroke="none">
<path d="M3899 7996 c-2 -2 -25 -7 -52 -10 -26 -4 -58 -11 -72 -16 -14 -5 -25
-7 -25 -4 0 4 -6 2 -12 -3 -7 -6 -31 -16 -53 -23 -22 -7 -52 -19 -67 -27 -15
-7 -29 -12 -31 -11 -2 2 -11 -5 -21 -14 -10 -10 -23 -18 -29 -18 -7 0 -24 -11
-39 -25 -15 -14 -31 -25 -35 -25 -13 0 -136 -121 -168 -165 -17 -22 -33 -42
-37 -45 -27 -21 -117 -225 -134 -305 -19 -89 -22 -125 -20 -230 3 -126 11
-186 25 -214 5 -9 9 -20 10 -26 5 -47 65 -172 124 -260 109 -160 305 -300 492
-350 53 -15 65 -22 66 -39 1 -12 2 -326 3 -699 l1 -678 -40 -10 c-56 -14 -138
-45 -188 -70 -47 -24 -156 -95 -172 -113 -6 -6 -31 -30 -56 -54 l-46 -43 -79
46 c-43 25 -86 50 -94 55 -8 6 -21 13 -29 17 -7 3 -90 50 -184 105 -93 54
-174 98 -178 98 -5 0 -9 4 -9 9 0 5 -8 11 -17 14 -10 3 -40 19 -68 35 -27 16
-111 64 -185 107 -119 69 -209 122 -218 130 -2 2 4 32 12 67 9 34 18 77 21 94
5 30 9 194 5 204 -1 3 -4 22 -5 44 -2 21 -6 51 -10 65 -4 14 -6 26 -6 26 1 0
-10 33 -24 74 -22 67 -97 219 -113 231 -4 3 -19 21 -34 41 -67 91 -183 186
-298 246 -41 22 -77 40 -80 40 -3 0 -27 7 -55 16 -27 9 -66 19 -85 22 -19 3
-49 10 -66 14 -78 21 -337 -3 -419 -39 -11 -5 -45 -19 -75 -31 -30 -12 -63
-29 -72 -37 -10 -8 -18 -12 -18 -8 0 7 -90 -58 -138 -98 -40 -34 -106 -106
-125 -137 -11 -16 -23 -29 -28 -29 -5 0 -9 -5 -9 -10 0 -6 -12 -29 -26 -51
-39 -62 -85 -185 -105 -279 -20 -96 -20 -291 1 -370 6 -25 13 -52 15 -60 13
-62 67 -174 127 -263 43 -63 170 -197 187 -197 6 0 11 -4 11 -8 0 -7 60 -46
143 -92 128 -70 340 -108 497 -89 125 16 187 33 300 87 98 46 139 75 237 166
l52 48 30 -21 c16 -12 31 -21 34 -21 2 0 80 -44 173 -98 93 -54 190 -110 216
-125 54 -30 332 -190 428 -247 36 -21 77 -44 93 -51 15 -7 27 -16 27 -21 0 -4
6 -8 13 -8 7 0 21 -6 31 -13 15 -11 16 -19 7 -53 -21 -80 -24 -102 -27 -219
-3 -122 5 -194 31 -276 7 -22 -2 -59 -16 -59 -7 0 -233 -128 -319 -180 -70
-43 -294 -170 -300 -170 -4 0 -18 -8 -31 -18 -13 -11 -49 -32 -79 -49 -79 -43
-104 -57 -110 -63 -3 -3 -16 -11 -30 -18 -14 -6 -59 -32 -100 -56 l-75 -44
-35 37 c-167 171 -394 265 -645 265 -122 0 -183 -10 -290 -46 -159 -54 -313
-160 -405 -278 -14 -18 -30 -37 -35 -44 -6 -6 -26 -38 -45 -71 -18 -33 -38
-63 -43 -66 -5 -3 -8 -8 -7 -10 1 -2 -4 -17 -10 -34 -95 -249 -89 -515 16
-736 48 -104 135 -221 211 -286 31 -26 62 -54 69 -60 7 -7 17 -13 23 -13 6 0
11 -4 11 -9 0 -5 8 -11 18 -15 9 -3 41 -19 70 -35 52 -29 186 -80 227 -86 11
-2 38 -6 60 -10 110 -17 304 -4 382 26 15 6 36 12 47 15 33 6 144 62 203 101
161 107 303 291 357 463 10 30 20 62 23 70 3 8 7 24 8 35 1 11 6 47 10 80 14
116 6 229 -25 344 -6 24 -8 47 -3 52 4 4 64 40 133 80 69 39 152 88 185 107
33 19 78 45 100 57 119 67 140 80 143 87 2 4 8 8 14 8 5 0 53 26 106 57 54 32
108 63 122 70 14 7 43 23 65 37 22 14 51 31 65 39 14 8 47 26 73 41 27 15 52
26 57 24 5 -2 31 -24 59 -50 100 -96 271 -191 384 -213 56 -12 52 40 51 -622
-1 -335 -2 -613 -3 -620 0 -6 -25 -17 -53 -23 -175 -41 -379 -182 -495 -341
-64 -87 -134 -238 -149 -319 -2 -14 -7 -38 -11 -55 -12 -56 -16 -183 -8 -265
19 -198 126 -409 282 -554 53 -49 193 -151 193 -140 0 3 15 -3 33 -14 38 -24
167 -68 217 -75 19 -3 35 -6 35 -7 0 -8 240 -7 280 2 28 5 59 11 70 13 11 1
20 3 20 4 0 2 11 4 23 7 48 9 171 66 243 113 91 60 239 202 239 230 0 5 4 11
9 13 16 6 89 152 114 228 36 108 41 140 41 285 0 148 -11 218 -52 325 -3 8 -4
18 -4 23 1 4 -2 7 -8 7 -5 0 -10 7 -10 15 0 32 -101 185 -170 255 -117 121
-306 231 -440 257 -13 2 -27 6 -29 9 -3 2 -5 281 -5 620 l-1 615 40 10 c22 6
45 12 50 13 6 1 19 7 30 13 11 5 33 13 48 17 16 4 46 18 68 31 21 14 41 25 44
25 11 0 125 84 125 92 0 4 4 8 10 8 5 0 24 16 43 35 39 40 49 42 85 17 15 -10
70 -43 122 -73 52 -30 103 -58 112 -64 9 -5 29 -17 45 -26 15 -8 145 -83 288
-166 275 -159 319 -185 375 -215 19 -11 45 -27 58 -37 23 -17 23 -18 9 -77 -9
-32 -18 -79 -21 -104 -8 -56 -9 -226 -3 -237 3 -5 8 -29 12 -53 15 -105 93
-284 160 -369 53 -67 126 -139 190 -186 88 -65 229 -133 310 -151 103 -22 138
-26 220 -26 183 0 321 38 482 131 84 48 202 159 265 248 32 45 91 149 93 163
0 3 3 10 6 15 10 15 39 110 45 142 3 15 9 46 14 67 9 42 6 261 -4 309 -51 228
-174 421 -353 553 -60 46 -197 120 -244 133 -75 21 -118 31 -142 33 -16 1 -30
5 -32 8 -4 6 -217 4 -255 -3 -123 -23 -166 -36 -261 -82 -88 -41 -189 -113
-250 -177 -31 -33 -37 -36 -55 -24 -10 7 -39 24 -64 38 -25 14 -164 94 -310
178 -146 85 -276 160 -290 167 -14 8 -46 26 -71 41 -25 15 -105 61 -178 102
-143 81 -135 71 -117 150 20 89 25 138 22 245 -2 74 -10 146 -20 188 -10 38
-14 72 -10 77 5 4 36 22 69 40 33 18 72 42 88 52 15 11 27 16 27 12 0 -4 8 0
18 8 22 20 350 208 362 208 4 0 10 4 12 8 2 4 66 43 143 87 77 43 147 85 156
92 9 7 19 10 22 6 4 -3 7 -1 7 5 0 7 7 12 15 12 8 0 15 3 15 8 0 4 15 13 33
21 17 8 45 23 60 34 l29 20 46 -44 c68 -66 70 -67 132 -109 176 -119 409 -174
620 -147 67 9 164 34 208 53 17 8 49 21 70 30 69 31 173 106 245 179 83 83 97
100 97 114 0 6 6 14 13 18 33 21 130 249 144 342 3 20 6 97 6 171 1 112 -3
149 -22 220 -58 209 -187 394 -354 509 -29 20 -54 38 -57 41 -11 11 -140 70
-154 70 -8 0 -17 4 -20 8 -5 8 -57 21 -146 38 -64 12 -234 11 -303 -2 -85 -16
-207 -55 -207 -66 0 -4 -7 -8 -15 -8 -37 0 -188 -104 -262 -180 -68 -69 -82
-87 -130 -165 -88 -141 -133 -302 -133 -474 0 -110 2 -125 35 -262 6 -23 0
-29 -74 -72 -44 -26 -85 -47 -91 -47 -5 0 -10 -4 -10 -8 0 -5 -22 -19 -50 -32
-27 -13 -50 -27 -50 -32 0 -4 -6 -8 -12 -8 -7 -1 -38 -16 -68 -35 -30 -19 -83
-49 -117 -66 -35 -18 -63 -36 -63 -41 0 -4 -4 -8 -10 -8 -5 0 -123 -65 -262
-146 l-251 -145 -33 34 c-19 19 -60 54 -91 78 -32 24 -60 47 -63 50 -10 12
-194 97 -225 104 -5 2 -28 8 -50 14 l-40 10 1 688 c1 378 2 693 3 698 0 6 36
21 79 34 272 80 498 297 594 571 34 97 43 158 43 295 0 156 -16 238 -67 353
-12 26 -22 50 -22 53 -1 4 -24 42 -52 85 -73 111 -184 222 -277 275 -172 99
-305 136 -491 137 -52 1 -95 -1 -97 -2z"/>
</g>
</svg>
