<svg id="コンポーネント_19_2" data-name="コンポーネント 19 – 2" xmlns="http://www.w3.org/2000/svg" width="50" height="50" viewBox="0 0 50 50">
  <path id="パス_17614" data-name="パス 17614" d="M438.288,190.726a25,25,0,1,1,25-25A25.027,25.027,0,0,1,438.288,190.726Z" transform="translate(-413.289 -140.726)" fill="#f54fa5"/>
  <path id="パス_17615" data-name="パス 17615" d="M437.317,144.726a20.029,20.029,0,1,0,20.029,20.029A20.051,20.051,0,0,0,437.317,144.726Z" transform="translate(-412.318 -139.755)" fill="#ffffce"/>
  <g id="icon" transform="translate(13.861 14.163)">
    <path id="パス_17616" data-name="パス 17616" d="M444.336,164.1h-17.4a2.486,2.486,0,1,1,0-4.971h17.4a2.486,2.486,0,1,1,0,4.971Z" transform="translate(-424.45 -150.43)" fill="#f54fa5"/>
    <path id="パス_17617" data-name="パス 17617" d="M433.936,173.259a2.486,2.486,0,0,1-2.486-2.486V154.616a2.486,2.486,0,1,1,4.971,0v16.157A2.485,2.485,0,0,1,433.936,173.259Z" transform="translate(-422.75 -152.13)" fill="#f54fa5"/>
  </g>
  <path id="パス_17618" data-name="パス 17618" d="M452.387,170.035l2.869,12.658L442.6,179.824Z" transform="translate(-406.192 -133.629)" fill="#f54fa5"/>
</svg>
