<?xml version="1.0" encoding="UTF-8"?><svg id="_レイヤー_2" xmlns="http://www.w3.org/2000/svg" xmlns:xlink="http://www.w3.org/1999/xlink" viewBox="0 0 112.99999 100"><defs><style>.cls-1{fill:none;}.cls-2{clip-path:url(#clippath);}.cls-3{fill:#f54fa5;}.cls-4{fill:#00b9ef;}.cls-5{fill:#f1d598;}.cls-6{fill:#fef2d3;}.cls-7{fill:#fff;}.cls-8{fill:#fff8e5;}.cls-9{fill:#ffb301;}.cls-10{fill:#ff6601;}.cls-11{fill:#4dac27;}</style><clipPath id="clippath"><rect class="cls-1" x="11.23" width="101.77" height="100"/></clipPath></defs><g id="_レイヤー_1-2"><g id="_グループ_585"><g id="_グループ_582"><g class="cls-2"><g id="_グループ_581"><g id="_グループ_50"><path id="_パス_221" class="cls-6" d="m24.28199,94.78398c3.12377-.21643,6.19435-.92102,9.1-2.08801,0,0,3.446,7.58899,17.835,7.18799,0,0,4.621-5.27502,5.868-8.18799l-1.941-8.82104-23.585-.62402-7.277,12.53308Z"/><path id="_パス_222" class="cls-6" d="m99.924,94.78398c-3.12376-.21655-6.19432-.92102-9.1-2.08801,0,0-3.446,7.58899-17.835,7.18799,0,0-4.621-5.27502-5.868-8.18799l1.941-8.82104,23.585-.62402,7.277,12.53308Z"/><path id="_パス_223" class="cls-6" d="m101.496,92.07401c-.892-11.62402-3.161-8.79504-6.2-20.03503-2.947-10.91394-11.831-41.73596-11.662-47.53894,0,0-2.714-1.73999-2.628-2.53699l-18.9,1.18604-18.9-1.18604c.089.80005-2.628,2.53699-2.628,2.53699.172,5.80005-8.712,36.62-11.659,47.53796-3.035,11.23999-5.3,8.41003-6.2,20.03503"/><path id="_パス_224" class="cls-6" d="m39.04699,66.19901s10.4-1.04395,11.7,5.48096c1.3,6.5249-.513,22.36401-4.939,22.44604-14.505.26001-13.007-6.47803-13-6.52502-.573,2.53503-5.209,7.245-7.542,7.56897-6.538.91101-14.292-5.33203-14.036-10.95898.5-11,13.426-21.48401,19.083-30.31995,2.535-3.96106,5.257-5.56104,8.208-9.21997"/><path id="_パス_225" class="cls-5" d="m31.35,91.97099c.91168-.72424,1.75307-1.53284,2.513-2.41504,1.607,4.52002,2.585,8.09497,15.581,10.44299,0,0-13-.52197-16.635-6-.594-.89099-7.01,1.04102-7.018,1.04395,2.02607-.67212,3.91065-1.71265,5.559-3.06897"/><path id="_パス_226" class="cls-5" d="m36.404,70.15898s10.115-1.46594,14.3,3.13196c5.459,6,5.719,14.09399,5.719,14.09399,0,0-3.638-12.26697-10.914-15.13794-2.95779-.99182-6.00571-1.69116-9.1-2.08801"/><path id="_パス_227" class="cls-6" d="m85.184,66.19901s-10.4-1.04395-11.7,5.48096c-1.3,6.5249.513,22.36401,4.939,22.44604,14.505.26001,13.007-6.47803,13-6.52502.573,2.53503,5.209,7.245,7.542,7.56897,6.538.91101,14.292-5.33203,14.035-10.95898-.5-11-13.426-21.48401-19.083-30.31995-2.535-3.96106-5.257-5.56104-8.208-9.21997"/><path id="_パス_228" class="cls-5" d="m92.879,91.97099c-.91157-.72473-1.75325-1.53333-2.514-2.41504-1.606,4.52002-2.585,8.09497-15.58,10.44299,0,0,13-.52197,16.635-6,.594-.89099,7.01,1.04102,7.018,1.04395-2.02599-.67236-3.91053-1.71277-5.559-3.06897"/><path id="_パス_229" class="cls-5" d="m87.825,70.15898s-10.115-1.46594-14.3,3.13196c-5.459,6-5.719,14.09399-5.719,14.09399,0,0,3.638-12.26697,10.914-15.13794,2.95791-.99133,6.00579-1.69067,9.1-2.08801"/><path id="_パス_230" class="cls-6" d="m48.078,5.81803s-9.15-5.03101-12.9.44604c-2.839,4.13794-.8,9,1.921,12.54102,2.721,3.54102,6.819-11.05701,10.982-12.98596"/><path id="_パス_231" class="cls-5" d="m44.593,12.21891s-5.446-4.86902-6.855-2.09998c-.831,1.63306,3.682,4.98401,3.682,4.98401"/><path id="_パス_232" class="cls-6" d="m76.14999,5.81803s9.15-5.03101,12.9.44604c2.839,4.13794.8,9-1.921,12.54102s-6.819-11.05505-10.982-12.98401"/><path id="_パス_233" class="cls-5" d="m79.636,12.21891s5.446-4.86902,6.854-2.09998c.831,1.63306-3.682,4.98401-3.682,4.98401"/><path id="_パス_234" class="cls-6" d="m87.073,24.97306c0,15.11401-15.3,24.97205-24.959,24.97205s-24.959-9.85901-24.959-24.97205C37.20848,11.16056,48.44911.00663,62.26165.0601h.00235c13.69628.11047,24.75621,11.21631,24.81,24.91296"/><path id="_パス_235" class="cls-8" d="m71.733,33.429c0,5.479-5.352,9.05396-9.617,9.05396s-9.618-3.57495-9.618-9.05396c.15835-5.15491,4.46289-9.20703,9.618-9.05396,5.15494-.15308,9.45919,3.89917,9.617,9.05396"/><path id="_パス_236" d="m66.352,32.99003c-.309-1.75903-2.823-2.12805-4.237-2.12805s-3.928.37-4.237,2.12805c-.02125.12219-.03196.24597-.032.37,0,1.19995,1.909,3.52405,4.268,3.52405s4.268-2.32605,4.268-3.52405c.00074-.12402-.00964-.2478-.031-.37"/><path id="_パス_237" d="m67.99999,36.205s.641,1.71802-1.76,2.09998c-1.37067.1001-2.74862-.00098-4.09-.30005v-.00598h-.075v.00598c-1.34137.29919-2.71933.40027-4.09.30005-2.4-.38-1.76-2.09998-1.76-2.09998-.55954.59302-.53451,1.52673.056,2.08899.08006.07654.16864.14368.264.19995,1.284.91504,4.186.61096,5.566.16296,1.379.44604,4.281.75195,5.566-.16296.70031-.41541.93356-1.31848.522-2.021-.05613-.09668-.12324-.18665-.2-.26794"/><path id="_パス_238" d="m54.154,24.24796c.67833.66895.68594,1.76111.01699,2.43945-.10956.11108-.23369.20679-.36899.28455-.967.81201-2.295,1.21899-3.135.21301-.82678-.9519-.73031-2.3927.216-3.22595.94215-.82788,2.37708-.73535,3.20501.20679.00267.00305.00533.0061.00799.00916l.058.06897"/><path id="_パス_239" class="cls-7" d="m53.113,24.184c.00003.16565-.13427.30005-.29995.30005h-.00005c-.16568,0-.3-.13428-.3-.30005h0c-.00003-.16565.13427-.30005.29995-.30005h.00005c.16568,0,.3.13428.3.30005h0"/><path id="_パス_240" d="m70.073,24.24809c-.67781.66943-.68457,1.76172-.0151,2.43945.1107.11206.23624.2085.3731.2865.967.81201,2.295,1.21899,3.135.21301.83387-.9458.74765-2.38745-.193-3.22705-.93697-.83301-2.37178-.74866-3.20474.18835-.00344.00378-.00686.00769-.01026.0116-.027.02905-.052.06006-.077.09204"/><path id="_パス_241" class="cls-7" d="m71.11199,24.184c-.00003.16565.13427.30005.29995.30005h.00005c.16569,0,.3-.13428.3-.30005h0c.00003-.16565-.13427-.30005-.29995-.30005h-.00005c-.16569,0-.3.13428-.3.30005h0"/><path id="_パス_242" d="m50.94099,95.46794c.13876,1.12073.82116,2.10083,1.824,2.62-.1359-1.12183-.81915-2.10315-1.824-2.62"/><path id="_パス_243" d="m52.498,93.32609c.05591,1.23523.74405,2.35449,1.821,2.96204-.02151-1.24548-.71933-2.38062-1.821-2.96204"/><path id="_パス_244" d="m55.436,88.81706s-.68.93396,1.652,2.87805c.08191-1.20508-.57006-2.34094-1.652-2.87805"/><path id="_パス_245" d="m53.994,91.00004s-.672,1.05603,1.66,3c.08833-1.24023-.5623-2.41602-1.66-3"/><path id="_パス_246" d="m49.59199,97.46794s-.168,1.20801,1.63,2.41602c0,0,.344-1.36206-1.63-2.41602"/><path id="_パス_247" d="m73.28899,95.46794c-.13843,1.12085-.82093,2.1012-1.824,2.62.13624-1.12158.81938-2.10291,1.824-2.62"/><path id="_パス_248" d="m71.725,93.32609c-.05515,1.23547-.7435,2.3551-1.821,2.96204.02237-1.24524.71994-2.37988,1.821-2.96204"/><path id="_パス_249" d="m68.791,88.81706s.68.93396-1.652,2.87805c-.08164-1.20508.57026-2.34082,1.652-2.87805"/><path id="_パス_250" d="m70.229,91.00004s.672,1.05603-1.66,3c-.08755-1.23999.56286-2.41553,1.66-3"/><path id="_パス_251" d="m74.63699,97.46794s.168,1.20801-1.63,2.41602c0,0-.344-1.36206,1.63-2.41602"/></g></g></g></g><g id="_グループ_583"><path id="_パス_1498" class="cls-4" d="m25.757,56.53003l-.671-1.16199-6.608,3.81494v-7.63098h-1.342v7.63098l-8.013-4.62598-.671,1.16199,8.013,4.62598-8.013,4.62598.671,1.16199,8.013-4.62598v9.25195h1.342v-9.25195l6.608,3.81494.671-1.16199-6.609-3.81604,6.609-3.81384Z"/><circle id="_楕円形_57" class="cls-4" cx="17.806" cy="49.19799" r="3.354"/><circle id="_楕円形_58" class="cls-4" cx="17.806" cy="72.11099" r="3.354"/><circle id="_楕円形_59" class="cls-11" cx="17.806" cy="60.35799" r="3.354"/><circle id="_楕円形_60" class="cls-3" cx="27.46" cy="54.77199" r="3.354"/><circle id="_楕円形_61" class="cls-10" cx="8.152" cy="65.91899" r="3.354"/><circle id="_楕円形_62" class="cls-9" cx="27.46" cy="65.91899" r="3.354"/><circle id="_楕円形_63" class="cls-9" cx="8.152" cy="54.77199" r="3.354"/></g><g id="_グループ_584"><path id="_パス_1499" class="cls-4" d="m13.619,30.04907l-.436-.755-4.294,2.479v-4.95898h-.872v4.95898l-5.207-3.00598-.436.755,5.207,3.00598-5.207,3.00598.436.755,5.207-3.00598v6.01294h.872v-6.01294l4.294,2.479.436-.755-4.294-2.479,4.294-2.479Z"/><circle id="_楕円形_64" class="cls-4" cx="8.454" cy="25.28498" r="2.18"/><circle id="_楕円形_65" class="cls-4" cx="8.454" cy="40.17498" r="2.18"/><circle id="_楕円形_66" class="cls-11" cx="8.454" cy="32.53698" r="2.18"/><circle id="_楕円形_67" class="cls-3" cx="14.727" cy="28.90698" r="2.18"/><circle id="_楕円形_68" class="cls-10" cx="2.18" cy="36.15098" r="2.18"/><circle id="_楕円形_69" class="cls-9" cx="14.727" cy="36.15098" r="2.18"/><circle id="_楕円形_70" class="cls-9" cx="2.18" cy="28.90698" r="2.18"/></g></g></g></svg>