<svg xmlns="http://www.w3.org/2000/svg" width="138.002" height="155.503" viewBox="0 0 138.002 155.503">
  <g id="グループ_1657" data-name="グループ 1657" transform="translate(0 17.501)">
    <g id="グループ_1619" data-name="グループ 1619" transform="translate(0 0)">
      <path id="パス_17576" data-name="パス 17576" d="M69,0A69,69,0,1,1,0,69,69,69,0,0,1,69,0Z" fill="#ffe6d5"/>
      <g id="グループ_1607" data-name="グループ 1607" transform="translate(30.293 28.75)">
        <path id="パス_17550" data-name="パス 17550" d="M2809.586,1608.277l-12.8-67.015a1.178,1.178,0,0,0-1.157-.957h-49.507a1.178,1.178,0,0,0-1.157.957l-12.8,67.015a1.178,1.178,0,0,0,1.157,1.4h7.577v9.581a1.235,1.235,0,0,0,1.236,1.235h5.623a1.235,1.235,0,0,0,1.235-1.235v-9.581h14.6v9.581a1.236,1.236,0,0,0,1.236,1.235h5.622a1.236,1.236,0,0,0,1.236-1.235v-9.581h36.747a1.178,1.178,0,0,0,1.157-1.4Zm-63.072-9.519v19.263h-3.151v-20.388a3.266,3.266,0,0,1,3.262-3.262h8.41a3.266,3.266,0,0,1,3.262,3.262v9.629h-3.151v-8.5a1.236,1.236,0,0,0-1.236-1.235h-6.161A1.235,1.235,0,0,0,2746.513,1598.758Zm2.471,1.236h3.69v7.326h-3.69Zm20.226-1.236v19.263h-3.151v-20.388a3.266,3.266,0,0,1,3.262-3.262h8.409a3.266,3.266,0,0,1,3.262,3.262v9.629h-3.151v-8.5a1.236,1.236,0,0,0-1.236-1.235h-6.161A1.236,1.236,0,0,0,2769.21,1598.758Zm2.471,1.236h3.689v7.326h-3.689Zm11.783,7.326v-9.687a5.74,5.74,0,0,0-5.734-5.733h-8.409a5.74,5.74,0,0,0-5.734,5.733v9.687h-2.82v-9.687a5.74,5.74,0,0,0-5.733-5.733h-8.41a5.74,5.74,0,0,0-5.733,5.733v9.687h-6.152l12.353-64.658h47.559L2807,1607.32Z" transform="translate(-2732.136 -1540.305)" fill="#00b9ef"/>
        <path id="パス_17551" data-name="パス 17551" d="M2851.207,1726.926a5.5,5.5,0,0,1-.64.494l-.037.025a9.116,9.116,0,0,1-10.969-.328c-.027-.037-.055-.074-.085-.11a1.406,1.406,0,0,0-1.983-.146,9.109,9.109,0,0,1-5.95,2.212h-.028c-.038,0-.08,0-.121,0a3.667,3.667,0,0,1-.613,0,8.433,8.433,0,0,1-3.058-.809l-.04-.018a8.619,8.619,0,0,1-1.941-1.189c-.009-.011-.017-.023-.026-.033a1.406,1.406,0,0,0-1.983-.14,9.02,9.02,0,0,1-5.928,2.209h-.1a8.913,8.913,0,0,1-5.282-1.747c-.018-.014-.037-.027-.057-.04a7.135,7.135,0,0,1-1.038-.845,1.406,1.406,0,1,0-1.973,2,9.936,9.936,0,0,0,1.418,1.16,11.73,11.73,0,0,0,6.917,2.281h.127a11.821,11.821,0,0,0,6.813-2.162,11.407,11.407,0,0,0,1.9,1.067,11.2,11.2,0,0,0,4.037,1.067q.264.022.53.022c.156,0,.313-.005.468-.017a11.88,11.88,0,0,1,13.7.048,11.923,11.923,0,0,0,6.872-2.179,8.343,8.343,0,0,0,.951-.736,1.406,1.406,0,1,0-1.877-2.092Z" transform="translate(-2793.705 -1689.216)" fill="#00b9ef"/>
        <path id="パス_17552" data-name="パス 17552" d="M2828.373,1664.992a10.4,10.4,0,0,0,6.13,2.021h.113a10.48,10.48,0,0,0,5.937-1.845,10.143,10.143,0,0,0,1.578.875,9.938,9.938,0,0,0,3.578.945c.158.013.318.02.477.02.138,0,.277,0,.415-.015a10.517,10.517,0,0,1,11.932.042,10.572,10.572,0,0,0,6.091-1.931,7.508,7.508,0,0,0,.847-.655,1.406,1.406,0,0,0-1.877-2.094,4.553,4.553,0,0,1-.538.415l-.036.025a7.766,7.766,0,0,1-9.326-.265c-.022-.029-.043-.058-.067-.086a1.406,1.406,0,0,0-1.982-.146,7.759,7.759,0,0,1-5.068,1.884h-.024c-.048,0-.081,0-.121,0a2.994,2.994,0,0,1-.506,0,7.174,7.174,0,0,1-2.6-.688l-.04-.019a7.33,7.33,0,0,1-1.636-1l-.014-.018a1.406,1.406,0,0,0-1.983-.14,7.685,7.685,0,0,1-5.05,1.881h-.083a7.583,7.583,0,0,1-4.5-1.487l-.057-.04a6.046,6.046,0,0,1-.878-.715,1.406,1.406,0,1,0-1.973,2A8.877,8.877,0,0,0,2828.373,1664.992Z" transform="translate(-2807.94 -1637.505)" fill="#00b9ef"/>
        <path id="パス_17553" data-name="パス 17553" d="M2844.795,1599.922a9.165,9.165,0,0,0,5.4,1.779h.1a9.233,9.233,0,0,0,5.125-1.554,8.956,8.956,0,0,0,1.275.7,8.762,8.762,0,0,0,3.151.832c.142.012.285.018.427.018.122,0,.244,0,.365-.013a9.254,9.254,0,0,1,10.283.036,9.31,9.31,0,0,0,5.362-1.7,6.633,6.633,0,0,0,.751-.582,1.406,1.406,0,0,0-1.878-2.092,3.782,3.782,0,0,1-.441.34l-.036.025a6.5,6.5,0,0,1-7.808-.226c-.012-.015-.023-.031-.036-.046a1.406,1.406,0,0,0-1.982-.146,6.543,6.543,0,0,1-4.265,1.578c-.042,0-.081,0-.121.005a2.45,2.45,0,0,1-.407,0,5.978,5.978,0,0,1-2.172-.575l-.04-.018a6.139,6.139,0,0,1-1.351-.823l0-.006a1.406,1.406,0,0,0-1.983-.14,6.434,6.434,0,0,1-4.23,1.575h-.07a6.344,6.344,0,0,1-3.762-1.245l-.057-.04a5,5,0,0,1-.729-.594,1.406,1.406,0,1,0-1.973,2A7.829,7.829,0,0,0,2844.795,1599.922Z" transform="translate(-2821.223 -1585.44)" fill="#00b9ef"/>
      </g>
    </g>
    <g id="グループ_1365" data-name="グループ 1365" transform="translate(18.822 -17.501)">
      <g id="グループ_1359" data-name="グループ 1359" transform="translate(0 0)">
        <rect id="長方形_199" data-name="長方形 199" width="100" height="35" rx="17.5" fill="#ffff08"/>
        <path id="パス_17616" data-name="パス 17616" d="M-24.1.34a1.181,1.181,0,0,1-.94.01,1.264,1.264,0,0,1-.7-.65,1.286,1.286,0,0,1-.02-.97,1.15,1.15,0,0,1,.64-.69,19.747,19.747,0,0,0,5.27-3.36,12.336,12.336,0,0,0,3.13-4.26,1.7,1.7,0,0,0,.14-1.51q-.3-.51-1.48-.51h-7.5a1.158,1.158,0,0,1-.86-.37,1.207,1.207,0,0,1-.36-.87,1.2,1.2,0,0,1,.36-.88,1.174,1.174,0,0,1,.86-.36h7.6a5.133,5.133,0,0,1,2.85.67,2.612,2.612,0,0,1,1.19,1.86,5.332,5.332,0,0,1-.48,2.79,15.328,15.328,0,0,1-3.65,5.15A21.266,21.266,0,0,1-24.1.34Zm12.42-12.08a1.947,1.947,0,0,1-1.43-.59,1.947,1.947,0,0,1-.59-1.43,1.947,1.947,0,0,1,.59-1.43,1.947,1.947,0,0,1,1.43-.59,1.924,1.924,0,0,1,1.41.59,1.947,1.947,0,0,1,.59,1.43,1.947,1.947,0,0,1-.59,1.43A1.924,1.924,0,0,1-11.68-11.74Zm0-1.16a.83.83,0,0,0,.61-.25.83.83,0,0,0,.25-.61.83.83,0,0,0-.25-.61.83.83,0,0,0-.61-.25.864.864,0,0,0-.62.25.814.814,0,0,0-.26.61.814.814,0,0,0,.26.61A.864.864,0,0,0-11.68-12.9Zm5.46,6.62a1.191,1.191,0,0,1-.87-.37,1.191,1.191,0,0,1-.37-.87,1.181,1.181,0,0,1,.37-.88,1.207,1.207,0,0,1,.87-.36H6.24a1.2,1.2,0,0,1,.88.36,1.2,1.2,0,0,1,.36.88,1.207,1.207,0,0,1-.36.87,1.181,1.181,0,0,1-.88.37ZM25.12-2.6a7.45,7.45,0,0,1-3.04.58,2.74,2.74,0,0,1-2.03-.95,3.912,3.912,0,0,1-.73-2.57V-11.9a1.181,1.181,0,0,1,.37-.88,1.207,1.207,0,0,1,.87-.36,1.164,1.164,0,0,1,.87.36,1.215,1.215,0,0,1,.35.88v5.98q0,1.9,2.3,1.06.9-.34,1.97-.8t1.91-.86a1.245,1.245,0,0,1,.94-.07,1.186,1.186,0,0,1,.72.61,1.181,1.181,0,0,1,.09.94,1.119,1.119,0,0,1-.61.72q-.92.44-1.98.91T25.12-2.6ZM12.02-1.32a1.24,1.24,0,0,1-.94.03,1.187,1.187,0,0,1-.7-.63,1.265,1.265,0,0,1-.03-.95,1.117,1.117,0,0,1,.63-.69,7.552,7.552,0,0,0,2.56-1.85,6.509,6.509,0,0,0,1.34-2.48,10.769,10.769,0,0,0,.4-2.99,1.2,1.2,0,0,1,.36-.88,1.174,1.174,0,0,1,.86-.36,1.164,1.164,0,0,1,.87.36,1.215,1.215,0,0,1,.35.88A11.26,11.26,0,0,1,16.22-5,9.28,9.28,0,0,1,12.02-1.32Z" transform="translate(50 25.999)" fill="#00b9ef"/>
      </g>
    </g>
  </g>
</svg>
