<?xml version="1.0" standalone="no"?>
<!DOCTYPE svg PUBLIC "-//W3C//DTD SVG 20010904//EN"
 "http://www.w3.org/TR/2001/REC-SVG-20010904/DTD/svg10.dtd">
<svg version="1.0" xmlns="http://www.w3.org/2000/svg"
 width="512.000000pt" height="512.000000pt" viewBox="0 0 512.000000 512.000000"
 preserveAspectRatio="xMidYMid meet">
<metadata>
Created by potrace 1.14, written by Peter Selinger 2001-2017
</metadata>
<g transform="translate(0.000000,512.000000) scale(0.100000,-0.100000)"
fill="#000000" stroke="none">
<path d="M2479 5116 c-2 -2 -21 -7 -42 -10 -21 -3 -51 -13 -67 -21 -17 -9 -33
-16 -37 -16 -40 -6 -141 -78 -201 -144 -124 -136 -176 -343 -131 -528 12 -52
57 -147 98 -207 51 -75 196 -175 297 -205 l51 -15 0 -445 -1 -445 -50 -16
c-66 -21 -155 -68 -188 -99 -15 -14 -30 -25 -34 -25 -3 0 -15 -11 -25 -25
l-20 -24 -52 30 c-29 16 -59 34 -67 39 -8 6 -27 15 -42 21 -16 6 -28 15 -28
20 0 5 -4 9 -10 9 -5 0 -38 17 -72 38 -35 21 -84 49 -110 62 -27 14 -48 28
-48 32 0 5 -6 8 -14 8 -7 0 -25 9 -38 20 -14 10 -28 17 -30 14 -3 -2 -11 2
-18 11 -7 8 -18 15 -25 15 -8 0 -15 3 -17 8 -1 4 -25 19 -53 34 -54 29 -55 32
-41 118 12 66 9 195 -4 219 -6 12 -8 21 -5 21 10 0 -40 117 -73 170 -81 128
-233 234 -367 257 -61 10 -220 10 -232 1 -7 -6 -13 -8 -13 -5 0 6 -93 -24
-143 -46 -15 -6 -27 -15 -27 -19 0 -5 -6 -8 -12 -8 -36 -1 -208 -186 -208
-224 0 -8 -4 -17 -9 -20 -10 -6 -36 -82 -47 -136 -8 -40 -9 -171 -1 -216 7
-39 33 -117 52 -154 46 -89 144 -196 213 -231 15 -8 29 -17 32 -20 5 -5 96
-42 113 -45 4 -1 8 -2 10 -3 18 -15 206 -21 267 -9 96 19 180 61 265 133 35
30 65 51 67 47 2 -4 84 -54 183 -111 99 -57 196 -113 215 -124 19 -11 55 -31
80 -45 25 -14 62 -36 82 -49 21 -12 41 -23 45 -23 5 0 21 -10 36 -23 l28 -22
-14 -54 c-13 -50 -15 -188 -4 -236 3 -11 8 -32 12 -46 6 -24 1 -30 -77 -74
-152 -89 -233 -136 -248 -145 -8 -6 -22 -13 -30 -17 -8 -4 -43 -24 -78 -45
-34 -21 -65 -38 -68 -38 -3 0 -18 -8 -32 -18 -15 -11 -53 -33 -86 -51 l-58
-32 -42 38 c-67 60 -79 68 -142 98 -297 142 -666 2 -781 -295 -32 -82 -36 -93
-38 -112 -2 -10 -3 -19 -5 -20 -6 -8 -5 -168 2 -193 5 -16 11 -42 13 -58 9
-46 56 -139 103 -201 69 -90 187 -170 299 -201 50 -14 72 -17 143 -19 66 -2
95 1 175 20 11 3 26 6 33 8 7 1 18 8 24 14 7 7 19 12 26 12 22 0 110 62 163
113 79 78 128 165 159 284 11 45 15 182 6 223 -18 81 -18 82 3 101 12 11 21
17 21 14 0 -3 17 6 37 20 21 14 43 25 50 25 7 0 13 4 13 9 0 5 15 14 33 22 17
7 34 15 37 18 5 6 14 11 98 58 25 14 105 61 179 104 75 43 139 79 143 79 4 0
13 6 19 14 18 21 32 15 91 -36 46 -41 142 -98 163 -98 4 0 21 -7 37 -15 16 -8
32 -15 35 -15 3 0 9 0 14 0 4 0 8 -178 7 -397 -1 -369 -2 -396 -18 -400 -10
-1 -24 -4 -32 -6 -7 -2 -49 -20 -92 -41 -132 -65 -255 -208 -294 -341 -28 -98
-32 -223 -8 -325 10 -41 43 -120 51 -120 4 0 5 -4 2 -10 -3 -5 -3 -10 2 -10 4
0 21 -22 37 -48 27 -44 130 -142 159 -151 6 -2 19 -10 29 -18 37 -33 161 -65
263 -68 115 -4 177 9 275 57 143 70 268 220 305 368 3 10 19 135 19 145 0 41
-17 148 -30 185 -61 176 -191 305 -371 370 -35 13 -63 25 -64 29 -4 34 -3 63
2 67 4 2 4 17 0 32 -4 15 -4 43 -1 62 3 19 3 52 -1 73 -3 20 -3 40 2 43 4 2 6
11 2 20 -8 20 -10 244 -2 244 4 0 3 15 0 33 -4 17 -4 48 -1 67 3 19 3 51 0 70
-9 56 4 73 72 93 66 20 145 66 207 122 l39 36 39 -22 c21 -12 56 -32 78 -44
55 -30 87 -48 99 -58 9 -6 114 -67 209 -120 12 -6 24 -15 27 -18 3 -3 20 -12
38 -20 17 -8 32 -17 32 -21 0 -5 5 -8 11 -8 7 0 43 -19 81 -42 62 -39 68 -46
62 -68 -15 -60 -17 -79 -17 -155 0 -95 8 -141 33 -201 11 -24 17 -44 14 -44
-14 0 87 -133 139 -182 112 -105 249 -156 408 -152 306 7 566 273 561 574 -5
264 -167 484 -412 559 -189 58 -418 4 -561 -132 l-40 -37 -52 28 c-65 36 -108
61 -175 101 -29 17 -57 31 -62 31 -6 0 -10 5 -10 10 0 6 -4 10 -9 10 -5 0 -49
23 -98 51 -48 29 -113 65 -143 82 -30 16 -62 36 -71 43 -8 8 -19 14 -24 14 -5
0 -16 7 -25 15 -15 14 -16 21 -3 68 7 28 11 57 9 64 -3 7 -1 15 3 17 14 9 -1
173 -20 207 -7 14 -1 22 34 42 23 13 86 49 141 80 54 32 102 57 106 57 5 0 10
4 12 8 2 4 50 34 108 67 57 33 112 65 122 70 140 82 163 93 170 78 8 -20 112
-96 165 -122 84 -42 172 -60 273 -56 107 4 156 16 250 63 142 71 259 220 295
377 16 66 21 187 10 233 -3 12 -7 32 -10 43 -44 203 -237 385 -451 428 -54 11
-212 10 -230 -2 -6 -3 -25 -9 -43 -12 -64 -11 -172 -75 -242 -143 -142 -140
-201 -330 -164 -530 10 -50 10 -69 1 -75 -6 -4 -90 -52 -186 -108 -96 -55
-182 -104 -190 -109 -8 -5 -77 -45 -153 -89 l-139 -79 -50 48 c-51 49 -166
113 -226 125 -35 7 -57 41 -41 61 5 6 6 14 2 18 -5 5 -6 164 -1 201 1 6 -2 22
-5 37 -4 15 -3 29 2 32 4 3 5 23 1 44 -3 21 -3 47 0 58 4 10 5 23 2 28 -9 15
-9 57 0 62 5 3 5 10 1 17 -8 12 -8 185 0 193 3 3 1 19 -4 36 -4 17 -5 36 -2
42 4 6 6 29 4 51 -2 22 0 37 4 33 9 -8 96 22 165 58 76 40 178 146 222 230 32
60 64 159 67 204 3 53 1 140 -4 170 -20 113 -95 250 -178 325 -41 37 -59 50
-112 79 -11 6 -22 14 -25 17 -5 6 -96 38 -130 47 -23 5 -206 12 -211 8z"/>
</g>
</svg>
